999
dxflib 3.26.4.0
  0
SECTION
  2
HEADER
  9
$ACADVER
  1
AC1015
  9
$HANDSEED
  5
FFFF
  9
$ANGBASE
 50
0.0
  9
$ANGDIR
 70
0
  9
$ATTMODE
 70
1
  9
$AUNITS
 70
0
  9
$AUPREC
 70
0
  9
$CECOLOR
 62
256
  9
$CELTSCALE
 40
1.0
  9
$CHAMFERA
 40
0.0
  9
$CHAMFERB
 40
0.0
  9
$CHAMFERC
 40
0.0
  9
$CHAMFERD
 40
0.0
  9
$CMLJUST
 70
0
  9
$CMLSCALE
 40
20.0
  9
$DIMADEC
 70
0
  9
$DIMALT
 70
0
  9
$DIMALTD
 70
3
  9
$DIMALTF
 40
0.0393700787
  9
$DIMALTRND
 40
0.0
  9
$DIMALTTD
 70
3
  9
$DIMALTTZ
 70
0
  9
$DIMALTU
 70
2
  9
$DIMALTZ
 70
0
  9
$DIMAPOST
  1

  9
$DIMASZ
 40
2.5
  9
$DIMATFIT
 70
3
  9
$DIMAUNIT
 70
0
  9
$DIMAZIN
 70
0
  9
$DIMBLK
  1
0
  9
$DIMBLK1
  1
0
  9
$DIMBLK2
  1
0
  9
$DIMCEN
 40
2.5
  9
$DIMCLRD
 70
0
  9
$DIMCLRE
 70
0
  9
$DIMDEC
 70
2
  9
$DIMDLE
 40
0.0
  9
$DIMDLI
 40
3.75
  9
$DIMDSEP
 70
44
  9
$DIMEXE
 40
1.25
  9
$DIMEXO
 40
0.625
  9
$DIMFRAC
 70
0
  9
$DIMGAP
 40
0.625
  9
$DIMJUST
 70
0
  9
$DIMLDRBLK
  1

  9
$DIMLFAC
 40
1.0
  9
$DIMLIM
 70
0
  9
$DIMLUNIT
 70
2
  9
$DIMLWD
 70
-2
  9
$DIMLWE
 70
-2
  9
$DIMPOST
  1

  9
$DIMRND
 40
0.0
  9
$DIMSAH
 70
0
  9
$DIMSCALE
 40
1.0
  9
$DIMSD1
 70
0
  9
$DIMSD2
 70
0
  9
$DIMSE1
 70
0
  9
$DIMSE2
 70
0
  9
$DIMSOXD
 70
0
  9
$DIMTAD
 70
1
  9
$DIMTDEC
 70
2
  9
$DIMTFAC
 40
1.0
  9
$DIMTIH
 70
0
  9
$DIMTIX
 70
0
  9
$DIMTM
 40
0.0
  9
$DIMTOFL
 70
1
  9
$DIMTOH
 70
0
  9
$DIMTOL
 70
0
  9
$DIMTOLJ
 70
0
  9
$DIMTP
 40
0.0
  9
$DIMTSZ
 40
0.0
  9
$DIMTVP
 40
0.0
  9
$DIMTXSTY
  7
Standard
  9
$DIMTXT
 40
2.5
  9
$DIMTZIN
 70
8
  9
$DIMUPT
 70
0
  9
$DIMZIN
 70
8
  9
$DISPSILH
 70
0
  9
$DWGCODEPAGE
  3
ANSI_1252
  9
$ELEVATION
 40
0.0
  9
$EXTMAX
 10
1100.0
 20
500.0
 30
0.0
  9
$EXTMIN
 10
0.0
 20
0.0
 30
0.0
  9
$FILLETRAD
 40
10.0
  9
$FILLMODE
 70
1
  9
$INSBASE
 10
0.0
 20
0.0
 30
0.0
  9
$INSUNITS
 70
4
  9
$LIMCHECK
 70
0
  9
$LIMMAX
 10
1100.0
 20
500.0
  9
$LIMMIN
 10
0.0
 20
0.0
  9
$LTSCALE
 40
1.0
  9
$LUNITS
 70
2
  9
$LUPREC
 70
4
  9
$MAXACTVP
 70
64
  9
$MEASUREMENT
 70
1
  9
$MIRRTEXT
 70
1
  9
$ORTHOMODE
 70
0
  9
$PDMODE
 70
0
  9
$PDSIZE
 40
0.0
  9
$PELEVATION
 40
0.0
  9
$PEXTMAX
 10
1100.0
 20
500.0
 30
0.0
  9
$PEXTMIN
 10
0.0
 20
0.0
 30
0.0
  9
$PINSBASE
 10
0.0
 20
0.0
 30
0.0
  9
$PLIMCHECK
 70
0
  9
$PLIMMAX
 10
1100.0
 20
500.0
  9
$PLIMMIN
 10
0.0
 20
0.0
  9
$PLINEGEN
 70
0
  9
$PLINEWID
 40
0.0
  9
$PROXYGRAPHICS
 70
1
  9
$PSLTSCALE
 70
1
  9
$PUCSNAME
  2

  9
$PUCSORG
 10
0.0
 20
0.0
 30
0.0
  9
$PUCSXDIR
 10
1.0
 20
0.0
 30
0.0
  9
$PUCSYDIR
 10
0.0
 20
1.0
 30
0.0
  9
$QTEXTMODE
 70
0
  9
$REGENMODE
 70
1
  9
$SHADEDGE
 70
3
  9
$SHADEDIF
 70
70
  9
$SKETCHINC
 40
1.0
  9
$SKPOLY
 70
0
  9
$SPLFRAME
 70
0
  9
$SPLINESEGS
 70
8
  9
$SPLINETYPE
 70
6
  9
$SURFTAB1
 70
6
  9
$SURFTAB2
 70
6
  9
$SURFTYPE
 70
6
  9
$SURFU
 70
6
  9
$SURFV
 70
6
  9
$TEXTSIZE
 40
4.0
  9
$TEXTSTYLE
  7
Standard
  9
$THICKNESS
 40
0.0
  9
$TILEMODE
 70
1
  9
$TRACEWID
 40
1.0
  9
$TREEDEPTH
 70
3020
  9
$UCSNAME
  2

  9
$UCSORG
 10
0.0
 20
0.0
 30
0.0
  9
$UCSXDIR
 10
1.0
 20
0.0
 30
0.0
  9
$UCSYDIR
 10
0.0
 20
1.0
 30
0.0
  9
$UNITMODE
 70
0
  9
$USERI1
 70
0
  9
$USERI2
 70
0
  9
$USERI3
 70
0
  9
$USERI4
 70
0
  9
$USERI5
 70
0
  9
$USERR1
 40
0.0
  9
$USERR2
 40
0.0
  9
$USERR3
 40
0.0
  9
$USERR4
 40
0.0
  9
$USERR5
 40
0.0
  9
$USRTIMER
 70
1
  9
$VISRETAIN
 70
1
  0
ENDSEC
  0
SECTION
  2
TABLES
  0
TABLE
  2
VPORT
  5
8
100
AcDbSymbolTable
 70
1
  0
VPORT
  5
30
100
AcDbSymbolTableRecord
100
AcDbViewportTableRecord
  2
*Active
 70
0
 10
0.0
 20
0.0
 11
1.0
 21
1.0
 12
286.3055555555554861
 22
148.5
 13
0.0
 23
0.0
 14
10.0
 24
10.0
 15
10.0
 25
10.0
 16
0.0
 26
0.0
 36
1.0
 17
0.0
 27
0.0
 37
0.0
 40
297.0
 41
1.92798353909465
 42
50.0
 43
0.0
 44
0.0
 50
0.0
 51
0.0
 71
0
 72
100
 73
1
 74
3
 75
1
 76
1
 77
0
 78
0
281
0
 65
1
110
0.0
120
0.0
130
0.0
111
1.0
121
0.0
131
0.0
112
0.0
122
1.0
132
0.0
 79
0
146
0.0
  0
ENDTAB
  0
TABLE
  2
LTYPE
  5
5
100
AcDbSymbolTable
 70
41
  0
LTYPE
  5
16
100
AcDbSymbolTableRecord
100
AcDbLinetypeTableRecord
  2
Continuous
 70
0
  3
Solid line
 72
65
 73
0
 40
0.0
  0
LTYPE
  5
31
100
AcDbSymbolTableRecord
100
AcDbLinetypeTableRecord
  2
ACAD_ISO09W100
 70
0
  3
ISO long-dash double-short-dash ____ __ __ ____
 72
65
 73
6
 40
45.0
 49
24.0
 74
0
 49
-3.0
 74
0
 49
6.0
 74
0
 49
-3.0
 74
0
 49
6.0
 74
0
 49
-3.0
 74
0
  0
LTYPE
  5
32
100
AcDbSymbolTableRecord
100
AcDbLinetypeTableRecord
  2
ACAD_ISO08W100
 70
0
  3
ISO long-dash short-dash ____ __ ____ __ ____ _
 72
65
 73
4
 40
36.0
 49
24.0
 74
0
 49
-3.0
 74
0
 49
6.0
 74
0
 49
-3.0
 74
0
  0
LTYPE
  5
33
100
AcDbSymbolTableRecord
100
AcDbLinetypeTableRecord
  2
PHANTOMX2
 70
0
  3
Phantom (2x) ____________    ____    ____   _
 72
65
 73
6
 40
127.0000000000000142
 49
63.5
 74
0
 49
-12.6999999999999993
 74
0
 49
12.6999999999999993
 74
0
 49
-12.6999999999999993
 74
0
 49
12.6999999999999993
 74
0
 49
-12.6999999999999993
 74
0
  0
LTYPE
  5
34
100
AcDbSymbolTableRecord
100
AcDbLinetypeTableRecord
  2
BORDER
 70
0
  3
Border __ __ . __ __ . __ __ . __ __ . __ __ .
 72
65
 73
6
 40
44.4499999999999957
 49
12.6999999999999993
 74
0
 49
-6.3499999999999996
 74
0
 49
12.6999999999999993
 74
0
 49
-6.2999999999999998
 74
0
 49
0.1
 74
0
 49
-6.2999999999999998
 74
0
  0
LTYPE
  5
35
100
AcDbSymbolTableRecord
100
AcDbLinetypeTableRecord
  2
ACAD_ISO07W100
 70
0
  3
ISO dot . . . . . . . . . . . . . . . . . . . . 
 72
65
 73
2
 40
3.0
 49
0.1
 74
0
 49
-2.8999999999999999
 74
0
  0
LTYPE
  5
36
100
AcDbSymbolTableRecord
100
AcDbLinetypeTableRecord
  2
DASHDOT
 70
0
  3
Dash dot __ . __ . __ . __ . __ . __ . __ . __
 72
65
 73
4
 40
25.4000000000000021
 49
12.6999999999999993
 74
0
 49
-6.2999999999999998
 74
0
 49
0.1
 74
0
 49
-6.2999999999999998
 74
0
  0
LTYPE
  5
37
100
AcDbSymbolTableRecord
100
AcDbLinetypeTableRecord
  2
ACAD_ISO11W100
 70
0
  3
ISO double-dash dot __ __ . __ __ . __ __ . __ _
 72
65
 73
6
 40
33.0
 49
12.0
 74
0
 49
-3.0
 74
0
 49
12.0
 74
0
 49
-2.9500000000000002
 74
0
 49
0.1
 74
0
 49
-2.9500000000000002
 74
0
  0
LTYPE
  5
38
100
AcDbSymbolTableRecord
100
AcDbLinetypeTableRecord
  2
DIVIDE2
 70
0
  3
Divide (.5x) __..__..__..__..__..__..__..__.._
 72
65
 73
6
 40
15.8749999999999982
 49
6.3499999999999996
 74
0
 49
-3.125
 74
0
 49
0.1
 74
0
 49
-3.0750000000000002
 74
0
 49
0.1
 74
0
 49
-3.125
 74
0
  0
LTYPE
  5
39
100
AcDbSymbolTableRecord
100
AcDbLinetypeTableRecord
  2
ACAD_ISO12W100
 70
0
  3
ISO dash double-dot __ . . __ . . __ . . __ . . 
 72
65
 73
6
 40
21.0
 49
12.0
 74
0
 49
-2.9500000000000002
 74
0
 49
0.1
 74
0
 49
-2.9000000000000004
 74
0
 49
0.1
 74
0
 49
-2.9500000000000002
 74
0
  0
LTYPE
  5
3A
100
AcDbSymbolTableRecord
100
AcDbLinetypeTableRecord
  2
PHANTOM2
 70
0
  3
Phantom (.5x) ___ _ _ ___ _ _ ___ _ _ ___ _ _
 72
65
 73
6
 40
31.7500000000000036
 49
15.875
 74
0
 49
-3.1749999999999998
 74
0
 49
3.1749999999999998
 74
0
 49
-3.1749999999999998
 74
0
 49
3.1749999999999998
 74
0
 49
-3.1749999999999998
 74
0
  0
LTYPE
  5
3B
100
AcDbSymbolTableRecord
100
AcDbLinetypeTableRecord
  2
DOT2
 70
0
  3
Dot (.5x) ........................................
 72
65
 73
2
 40
3.1749999999999998
 49
0.1
 74
0
 49
-3.0749999999999997
 74
0
  0
LTYPE
  5
3C
100
AcDbSymbolTableRecord
100
AcDbLinetypeTableRecord
  2
ACAD_ISO14W100
 70
0
  3
ISO dash triple-dot __ . . . __ . . . __ . . . _
 72
65
 73
8
 40
24.0000000000000036
 49
12.0
 74
0
 49
-2.9500000000000002
 74
0
 49
0.1
 74
0
 49
-2.9000000000000004
 74
0
 49
0.1
 74
0
 49
-2.9000000000000004
 74
0
 49
0.1
 74
0
 49
-2.9500000000000002
 74
0
  0
LTYPE
  5
3D
100
AcDbSymbolTableRecord
100
AcDbLinetypeTableRecord
  2
ACAD_ISO02W100
 70
0
  3
ISO dash __ __ __ __ __ __ __ __ __ __ __ __ __
 72
65
 73
2
 40
15.0
 49
12.0
 74
0
 49
-3.0
 74
0
  0
LTYPE
  5
3E
100
AcDbSymbolTableRecord
100
AcDbLinetypeTableRecord
  2
DASHED2
 70
0
  3
Dashed (.5x) _ _ _ _ _ _ _ _ _ _ _ _ _ _ _ _ _ 
 72
65
 73
2
 40
9.5249999999999986
 49
6.3499999999999996
 74
0
 49
-3.1749999999999998
 74
0
  0
LTYPE
  5
3F
100
AcDbSymbolTableRecord
100
AcDbLinetypeTableRecord
  2
DASHEDX2
 70
0
  3
Dashed (2x) ____  ____  ____  ____  ____  ___
 72
65
 73
2
 40
38.0999999999999943
 49
25.3999999999999986
 74
0
 49
-12.6999999999999993
 74
0
  0
LTYPE
  5
40
100
AcDbSymbolTableRecord
100
AcDbLinetypeTableRecord
  2
ACAD_ISO03W100
 70
0
  3
ISO dash space __    __    __    __    __    __
 72
65
 73
2
 40
30.0
 49
12.0
 74
0
 49
-18.0
 74
0
  0
LTYPE
  5
41
100
AcDbSymbolTableRecord
100
AcDbLinetypeTableRecord
  2
DASHED
 70
0
  3
Dashed __ __ __ __ __ __ __ __ __ __ __ __ __ _
 72
65
 73
2
 40
19.0499999999999972
 49
12.6999999999999993
 74
0
 49
-6.3499999999999996
 74
0
  0
LTYPE
  5
42
100
AcDbSymbolTableRecord
100
AcDbLinetypeTableRecord
  2
ACAD_ISO06W100
 70
0
  3
ISO long-dash triple-dot ____ ... ____ ... ____
 72
65
 73
8
 40
36.0000000000000071
 49
24.0
 74
0
 49
-2.9500000000000002
 74
0
 49
0.1
 74
0
 49
-2.9000000000000004
 74
0
 49
0.1
 74
0
 49
-2.9000000000000004
 74
0
 49
0.1
 74
0
 49
-2.9500000000000002
 74
0
  0
LTYPE
  5
15
100
AcDbSymbolTableRecord
100
AcDbLinetypeTableRecord
  2
ByLayer
 70
0
  3

 72
65
 73
0
 40
0.0
  0
LTYPE
  5
43
100
AcDbSymbolTableRecord
100
AcDbLinetypeTableRecord
  2
ACAD_ISO10W100
 70
0
  3
ISO dash dot __ . __ . __ . __ . __ . __ . __ . 
 72
65
 73
4
 40
18.0
 49
12.0
 74
0
 49
-2.9500000000000002
 74
0
 49
0.1
 74
0
 49
-2.9500000000000002
 74
0
  0
LTYPE
  5
44
100
AcDbSymbolTableRecord
100
AcDbLinetypeTableRecord
  2
ACAD_ISO05W100
 70
0
  3
ISO long-dash double-dot ____ .. ____ .. ____ . 
 72
65
 73
6
 40
33.0000000000000071
 49
24.0
 74
0
 49
-2.9500000000000002
 74
0
 49
0.1
 74
0
 49
-2.9000000000000004
 74
0
 49
0.1
 74
0
 49
-2.9500000000000002
 74
0
  0
LTYPE
  5
45
100
AcDbSymbolTableRecord
100
AcDbLinetypeTableRecord
  2
CENTER2
 70
0
  3
Center (.5x) ___ _ ___ _ ___ _ ___ _ ___ _ ___
 72
65
 73
4
 40
28.5750000000000028
 49
19.0500000000000007
 74
0
 49
-3.1749999999999998
 74
0
 49
3.1749999999999998
 74
0
 49
-3.1749999999999998
 74
0
  0
LTYPE
  5
46
100
AcDbSymbolTableRecord
100
AcDbLinetypeTableRecord
  2
DOTX2
 70
0
  3
Dot (2x) .  .  .  .  .  .  .  .  .  .  .  .  .  .
 72
65
 73
2
 40
12.6999999999999993
 49
0.1
 74
0
 49
-12.5999999999999996
 74
0
  0
LTYPE
  5
47
100
AcDbSymbolTableRecord
100
AcDbLinetypeTableRecord
  2
CENTER
 70
0
  3
Center ____ _ ____ _ ____ _ ____ _ ____ _ ____
 72
65
 73
4
 40
50.8000000000000043
 49
31.75
 74
0
 49
-6.3499999999999996
 74
0
 49
6.3499999999999996
 74
0
 49
-6.3499999999999996
 74
0
  0
LTYPE
  5
48
100
AcDbSymbolTableRecord
100
AcDbLinetypeTableRecord
  2
ACAD_ISO13W100
 70
0
  3
ISO double-dash double-dot __ __ . . __ __ . . _
 72
65
 73
8
 40
36.0000000000000071
 49
12.0
 74
0
 49
-3.0
 74
0
 49
12.0
 74
0
 49
-2.9500000000000002
 74
0
 49
0.1
 74
0
 49
-2.9000000000000004
 74
0
 49
0.1
 74
0
 49
-2.9500000000000002
 74
0
  0
LTYPE
  5
49
100
AcDbSymbolTableRecord
100
AcDbLinetypeTableRecord
  2
DASHDOTX2
 70
0
  3
Dash dot (2x) ____  .  ____  .  ____  .  ___
 72
65
 73
4
 40
50.7999999999999972
 49
25.3999999999999986
 74
0
 49
-12.6499999999999986
 74
0
 49
0.1
 74
0
 49
-12.6499999999999986
 74
0
  0
LTYPE
  5
4A
100
AcDbSymbolTableRecord
100
AcDbLinetypeTableRecord
  2
HIDDENX2
 70
0
  3
Hidden (2x) ____ ____ ____ ____ ____ ____ ____ 
 72
65
 73
2
 40
19.0499999999999972
 49
12.6999999999999993
 74
0
 49
-6.3499999999999996
 74
0
  0
LTYPE
  5
4B
100
AcDbSymbolTableRecord
100
AcDbLinetypeTableRecord
  2
DASHDOT2
 70
0
  3
Dash dot (.5x) _._._._._._._._._._._._._._._.
 72
65
 73
4
 40
12.6999999999999993
 49
6.3499999999999996
 74
0
 49
-3.125
 74
0
 49
0.1
 74
0
 49
-3.125
 74
0
  0
LTYPE
  5
4C
100
AcDbSymbolTableRecord
100
AcDbLinetypeTableRecord
  2
DIVIDE
 70
0
  3
Divide ____ . . ____ . . ____ . . ____ . . ____
 72
65
 73
6
 40
31.7500000000000036
 49
12.6999999999999993
 74
0
 49
-6.2999999999999998
 74
0
 49
0.1
 74
0
 49
-6.25
 74
0
 49
0.1
 74
0
 49
-6.2999999999999998
 74
0
  0
LTYPE
  5
4D
100
AcDbSymbolTableRecord
100
AcDbLinetypeTableRecord
  2
ACAD_ISO04W100
 70
0
  3
ISO long-dash dot ____ . ____ . ____ . ____ . _
 72
65
 73
4
 40
30.0
 49
24.0
 74
0
 49
-2.9500000000000002
 74
0
 49
0.1
 74
0
 49
-2.9500000000000002
 74
0
  0
LTYPE
  5
4E
100
AcDbSymbolTableRecord
100
AcDbLinetypeTableRecord
  2
HIDDEN
 70
0
  3
Hidden __ __ __ __ __ __ __ __ __ __ __ __ __ __
 72
65
 73
2
 40
9.5249999999999986
 49
6.3499999999999996
 74
0
 49
-3.1749999999999998
 74
0
  0
LTYPE
  5
4F
100
AcDbSymbolTableRecord
100
AcDbLinetypeTableRecord
  2
CENTERX2
 70
0
  3
Center (2x) ________  __  ________  __  _____
 72
65
 73
4
 40
101.6000000000000085
 49
63.5
 74
0
 49
-12.6999999999999993
 74
0
 49
12.6999999999999993
 74
0
 49
-12.6999999999999993
 74
0
  0
LTYPE
  5
50
100
AcDbSymbolTableRecord
100
AcDbLinetypeTableRecord
  2
DOT
 70
0
  3
Dot . . . . . . . . . . . . . . . . . . . . . . . .
 72
65
 73
2
 40
6.3499999999999996
 49
0.1
 74
0
 49
-6.25
 74
0
  0
LTYPE
  5
51
100
AcDbSymbolTableRecord
100
AcDbLinetypeTableRecord
  2
ACAD_ISO15W100
 70
0
  3
ISO double-dash triple-dot __ __ . . . __ __ . .
 72
65
 73
10
 40
39.0000000000000071
 49
12.0
 74
0
 49
-3.0
 74
0
 49
12.0
 74
0
 49
-2.9500000000000002
 74
0
 49
0.1
 74
0
 49
-2.9000000000000004
 74
0
 49
0.1
 74
0
 49
-2.9000000000000004
 74
0
 49
0.1
 74
0
 49
-2.9500000000000002
 74
0
  0
LTYPE
  5
52
100
AcDbSymbolTableRecord
100
AcDbLinetypeTableRecord
  2
BORDERX2
 70
0
  3
Border (2x) ____  ____  .  ____  ____  .  ___
 72
65
 73
6
 40
88.8999999999999773
 49
25.3999999999999986
 74
0
 49
-12.6999999999999993
 74
0
 49
25.3999999999999986
 74
0
 49
-12.6499999999999986
 74
0
 49
0.1
 74
0
 49
-12.6499999999999986
 74
0
  0
LTYPE
  5
53
100
AcDbSymbolTableRecord
100
AcDbLinetypeTableRecord
  2
BORDER2
 70
0
  3
Border (.5x) __.__.__.__.__.__.__.__.__.__.__.
 72
65
 73
6
 40
22.2250000000000014
 49
6.3499999999999996
 74
0
 49
-3.1749999999999998
 74
0
 49
6.3499999999999996
 74
0
 49
-3.125
 74
0
 49
0.1
 74
0
 49
-3.125
 74
0
  0
LTYPE
  5
54
100
AcDbSymbolTableRecord
100
AcDbLinetypeTableRecord
  2
HIDDEN2
 70
0
  3
Hidden (.5x) _ _ _ _ _ _ _ _ _ _ _ _ _ _ _ _ _ 
 72
65
 73
2
 40
4.7624999999999993
 49
3.1749999999999998
 74
0
 49
-1.5874999999999999
 74
0
  0
LTYPE
  5
55
100
AcDbSymbolTableRecord
100
AcDbLinetypeTableRecord
  2
PHANTOM
 70
0
  3
Phantom ______  __  __  ______  __  __  ______ 
 72
65
 73
6
 40
63.5000000000000071
 49
31.75
 74
0
 49
-6.3499999999999996
 74
0
 49
6.3499999999999996
 74
0
 49
-6.3499999999999996
 74
0
 49
6.3499999999999996
 74
0
 49
-6.3499999999999996
 74
0
  0
LTYPE
  5
56
100
AcDbSymbolTableRecord
100
AcDbLinetypeTableRecord
  2
DIVIDEX2
 70
0
  3
Divide (2x) ________  .  .  ________  .  .  _
 72
65
 73
6
 40
63.5
 49
25.3999999999999986
 74
0
 49
-12.6499999999999986
 74
0
 49
0.1
 74
0
 49
-12.5999999999999979
 74
0
 49
0.1
 74
0
 49
-12.6499999999999986
 74
0
  0
LTYPE
  5
14
100
AcDbSymbolTableRecord
100
AcDbLinetypeTableRecord
  2
ByBlock
 70
0
  3

 72
65
 73
0
 40
0.0
  0
ENDTAB
  0
TABLE
  2
LAYER
  5
2
100
AcDbSymbolTable
 70
3
  0
LAYER
  5
57
100
AcDbSymbolTableRecord
100
AcDbLayerTableRecord
  2
Default
 70
0
 62
7
420
16777215
  6
Continuous
370
-3
390
F
  0
LAYER
  5
10
100
AcDbSymbolTableRecord
100
AcDbLayerTableRecord
  2
0
 70
0
 62
7
420
16777215
  6
Continuous
370
-3
390
F
  0
LAYER
  5
58
100
AcDbSymbolTableRecord
100
AcDbLayerTableRecord
  2
ARTL
 70
0
 62
7
420
16777215
  6
Continuous
370
-3
390
F
  0
ENDTAB
  0
TABLE
  2
STYLE
  5
3
100
AcDbSymbolTable
 70
5
  0
STYLE
  5
59
100
AcDbSymbolTableRecord
100
AcDbTextStyleTableRecord
  2
Standard
 70
0
 40
0.0
 41
1.0
 50
0.0
 71
0
 42
2.5
  3

  4

1001
ACAD
1000
txt
1071
0
  0
STYLE
  5
5A
100
AcDbSymbolTableRecord
100
AcDbTextStyleTableRecord
  2
textstyle0
 70
0
 40
0.0
 41
1.0
 50
0.0
 71
0
 42
3.0
  3

  4

1001
ACAD
1000
seiso
1071
0
  0
STYLE
  5
5B
100
AcDbSymbolTableRecord
100
AcDbTextStyleTableRecord
  2
textstyle1
 70
0
 40
0.0
 41
1.0
 50
0.0
 71
0
 42
4.0
  3

  4

1001
ACAD
1000
Standard
1071
0
  0
STYLE
  5
5C
100
AcDbSymbolTableRecord
100
AcDbTextStyleTableRecord
  2
textstyle2
 70
0
 40
0.0
 41
1.0
 50
0.0
 71
0
 42
2.5
  3

  4

1001
ACAD
1000
Standard
1071
0
  0
STYLE
  5
5D
100
AcDbSymbolTableRecord
100
AcDbTextStyleTableRecord
  2
textstyle3
 70
0
 40
0.0
 41
1.0
 50
0.0
 71
0
 42
4.0
  3

  4

1001
ACAD
1000
Standard
1071
0
  0
ENDTAB
  0
TABLE
  2
VIEW
  5
6
100
AcDbSymbolTable
 70
0
  0
ENDTAB
  0
TABLE
  2
UCS
  5
7
100
AcDbSymbolTable
 70
0
  0
ENDTAB
  0
TABLE
  2
APPID
  5
9
100
AcDbSymbolTable
 70
1
  0
APPID
  5
12
100
AcDbSymbolTableRecord
100
AcDbRegAppTableRecord
  2
ACAD
 70
0
  0
APPID
  5
5E
100
AcDbSymbolTableRecord
100
AcDbRegAppTableRecord
  2
QCAD
 70
0
  0
ENDTAB
  0
TABLE
  2
DIMSTYLE
  5
A
100
AcDbSymbolTable
 70
1
100
AcDbDimStyleTable
 71
0
  0
DIMSTYLE
105
27
100
AcDbSymbolTableRecord
100
AcDbDimStyleTableRecord
  2
Standard
 41
2.5
 42
0.625
 43
3.75
 44
1.25
 70
0
 73
0
 74
0
 77
1
 78
8
140
2.5
141
2.5
143
0.03937007874016
147
0.625
171
3
172
1
271
2
272
2
274
3
278
44
283
0
284
8
340
59
  0
ENDTAB
  0
TABLE
  2
BLOCK_RECORD
  5
1
100
AcDbSymbolTable
 70
1
  0
BLOCK_RECORD
  5
1F
100
AcDbSymbolTableRecord
100
AcDbBlockTableRecord
  2
*Model_Space
340
22
  0
BLOCK_RECORD
  5
1B
100
AcDbSymbolTableRecord
100
AcDbBlockTableRecord
  2
*Paper_Space
340
1E
  0
BLOCK_RECORD
  5
23
100
AcDbSymbolTableRecord
100
AcDbBlockTableRecord
  2
*Paper_Space0
340
26
  0
BLOCK_RECORD
  5
5F
100
AcDbSymbolTableRecord
100
AcDbBlockTableRecord
  2
SEANNOT_GROUP
340
0
  0
BLOCK_RECORD
  5
60
100
AcDbSymbolTableRecord
100
AcDbBlockTableRecord
  2
_OBLIQUE
340
0
  0
BLOCK_RECORD
  5
61
100
AcDbSymbolTableRecord
100
AcDbBlockTableRecord
  2
logo_sviluppi
340
0
  0
BLOCK_RECORD
  5
62
100
AcDbSymbolTableRecord
100
AcDbBlockTableRecord
  2
SE
340
0
  0
BLOCK_RECORD
  5
63
100
AcDbSymbolTableRecord
100
AcDbBlockTableRecord
  2
SEANNOT_GROUP3
340
0
  0
BLOCK_RECORD
  5
64
100
AcDbSymbolTableRecord
100
AcDbBlockTableRecord
  2
SEANNOT_GROUP1
340
0
  0
BLOCK_RECORD
  5
65
100
AcDbSymbolTableRecord
100
AcDbBlockTableRecord
  2
DMBLK1
340
0
  0
BLOCK_RECORD
  5
66
100
AcDbSymbolTableRecord
100
AcDbBlockTableRecord
  2
SEANNOT_GROUP2
340
0
  0
BLOCK_RECORD
  5
67
100
AcDbSymbolTableRecord
100
AcDbBlockTableRecord
  2
Cartiglio_sviluppo
340
0
  0
BLOCK_RECORD
  5
68
100
AcDbSymbolTableRecord
100
AcDbBlockTableRecord
  2
_SE_FILLED
340
0
  0
BLOCK_RECORD
  5
69
100
AcDbSymbolTableRecord
100
AcDbBlockTableRecord
  2
_DOT
340
0
  0
ENDTAB
  0
ENDSEC
  0
SECTION
  2
BLOCKS
  0
BLOCK
  5
20
100
AcDbEntity
  8
0
100
AcDbBlockBegin
  2
*Model_Space
 70
0
 10
0.0
 20
0.0
 30
0.0
  3
*Model_Space
  1

  0
ENDBLK
  5
21
100
AcDbEntity
  8
0
100
AcDbBlockEnd
  0
BLOCK
  5
1C
100
AcDbEntity
 67
1
  8
0
100
AcDbBlockBegin
  2
*Paper_Space
 70
0
 10
0.0
 20
0.0
 30
0.0
  3
*Paper_Space
  1

  0
ENDBLK
  5
1D
100
AcDbEntity
 67
1
  8
0
100
AcDbBlockEnd
  0
BLOCK
  5
24
100
AcDbEntity
  8
0
100
AcDbBlockBegin
  2
*Paper_Space0
 70
0
 10
0.0
 20
0.0
 30
0.0
  3
*Paper_Space0
  1

  0
ENDBLK
  5
25
100
AcDbEntity
  8
0
100
AcDbBlockEnd
  0
BLOCK
  5
6A
100
AcDbEntity
  8
0
100
AcDbBlockBegin
  2
SEANNOT_GROUP
 70
0
 10
0.0
 20
0.0
 30
0.0
  3
SEANNOT_GROUP
  1

  0
ENDBLK
  5
6B
100
AcDbEntity
  8
0
100
AcDbBlockEnd
  0
BLOCK
  5
6C
100
AcDbEntity
  8
0
100
AcDbBlockBegin
  2
_OBLIQUE
 70
0
 10
0.0
 20
0.0
 30
0.0
  3
_OBLIQUE
  1

  0
LINE
  5
6D
100
AcDbEntity
  8
0
 62
0
370
-2
 48
1.0
  6
ByBlock
100
AcDbLine
 10
-0.5
 20
-0.5
 30
0.0
 11
0.5
 21
0.5
 31
0.0
  0
ENDBLK
  5
6E
100
AcDbEntity
  8
0
100
AcDbBlockEnd
  0
BLOCK
  5
6F
100
AcDbEntity
  8
0
100
AcDbBlockBegin
  2
logo_sviluppi
 70
0
 10
0.0
 20
0.0
 30
0.0
  3
logo_sviluppi
  1

  0
SPLINE
  5
70
100
AcDbEntity
  8
Default
 62
7
420
16777215
370
-1
 48
1.0
  6
Continuous
100
AcDbSpline
 70
8
 71
3
 72
50
 73
46
 74
0
 40
0.0
 40
0.0
 40
0.0
 40
0.0
 40
0.0126809976528564
 40
0.0126809976528564
 40
0.0348727435453521
 40
0.0348727435453521
 40
0.0348727435453521
 40
0.0781119626165426
 40
0.0781119626165426
 40
0.0781119626165426
 40
0.135848592181317
 40
0.135848592181317
 40
0.135848592181317
 40
0.1983844590927615
 40
0.1983844590927615
 40
0.2550575884812594
 40
0.2550575884812594
 40
0.311730717869756
 40
0.311730717869756
 40
0.3684038472582531
 40
0.3684038472582531
 40
0.3684038472582531
 40
0.4120981323121244
 40
0.4120981323121244
 40
0.4741900110728902
 40
0.4741900110728902
 40
0.4741900110728902
 40
0.5340269296578602
 40
0.5340269296578602
 40
0.5340269296578602
 40
0.6074015288177348
 40
0.6074015288177348
 40
0.6807761279776093
 40
0.6807761279776093
 40
0.6807761279776093
 40
0.7594414042008957
 40
0.7594414042008957
 40
0.7594414042008957
 40
0.8356268431481223
 40
0.8356268431481223
 40
0.8356268431481223
 40
0.9119689462087075
 40
0.9119689462087075
 40
0.9119689462087075
 40
1.0
 40
1.0
 40
1.0
 40
1.0
 10
2.9896094852619872
 20
-15.3950215370941805
 30
0.0
 10
2.972447018359567
 20
-15.4078933872710309
 30
0.0
 10
2.9595751681827811
 20
-15.4121840039967104
 30
0.0
 10
2.912378384201205
 20
-15.4121840039967104
 30
0.0
 10
2.8780534503964219
 20
-15.3950215370941805
 30
0.0
 10
2.826566049689212
 20
-15.3606966032894494
 30
0.0
 10
2.777058933624609
 20
-15.3276918592464408
 30
0.0
 10
2.7107193980980711
 20
-15.2963373524054607
 30
0.0
 10
2.629197680311655
 20
-15.25772180187505
 30
0.0
 10
2.5528402342402789
 20
-15.2215524853149002
 30
0.0
 10
2.4575730112877281
 20
-15.18907193426557
 30
0.0
 10
2.350307593147789
 20
-15.1547470004607305
 30
0.0
 10
2.244287637047194
 20
-15.1208206145085207
 30
0.0
 10
2.1186142899654499
 20
-15.1075502164791509
 30
0.0
 10
1.856886669703947
 20
-15.1075502164791509
 30
0.0
 10
1.749621251563958
 20
-15.1204220666558893
 30
0.0
 10
1.5608341156376111
 20
-15.1804907008143193
 30
0.0
 10
1.4836030145768291
 20
-15.2191062513447299
 30
0.0
 10
1.3634657462601041
 20
-15.3220810527590494
 30
0.0
 10
1.316268962278478
 20
-15.3864403036430399
 30
0.0
 10
1.2862346451993221
 20
-15.4550901712527207
 30
0.0
 10
1.2546247573880649
 20
-15.5273413433925498
 30
0.0
 10
1.239037861217696
 20
-15.6009711399230202
 30
0.0
 10
1.239037861217696
 20
-15.7983395093004599
 30
0.0
 10
1.2690721782969021
 20
-15.8970236939893006
 30
0.0
 10
1.3291408124552651
 20
-15.9742547950501397
 30
0.0
 10
1.387592214155561
 20
-16.0494065972361
 30
0.0
 10
1.4621499309488259
 20
-16.120135763720441
 30
0.0
 10
1.556543498912035
 20
-16.180204397878839
 30
0.0
 10
1.648993669887673
 20
-16.2390363248633811
 30
0.0
 10
1.7582024850151681
 20
-16.291760432744411
 30
0.0
 10
1.998477021648668
 20
-16.3861540007075597
 30
0.0
 10
2.1229049066910761
 20
-16.4333507846891393
 30
0.0
 10
2.2473327917333781
 20
-16.4848381853962813
 30
0.0
 10
2.3702448040646051
 20
-16.5356983284299588
 30
0.0
 10
2.4961885618181441
 20
-16.5878129868106896
 30
0.0
 10
2.6163258301348691
 20
-16.652172237694689
 30
0.0
 10
2.7346771132933232
 20
-16.7155747108152184
 30
0.0
 10
2.8437285165916388
 20
-16.7894719729138409
 30
0.0
 10
2.938122084554784
 20
-16.8752843074258294
 30
0.0
 10
3.0346512536031232
 20
-16.9630380974697097
 30
0.0
 10
3.1097467535787122
 20
-17.0683620600776997
 30
0.0
 10
3.1655247710114982
 20
-17.1927899451201007
 30
0.0
 10
3.2220207233221601
 20
-17.3188193771976309
 30
0.0
 10
3.2513371055234899
 20
-17.4630987988328208
 30
0.0
 10
3.2513371055234899
 20
-17.6347234678567908
 30
0.0
  0
SPLINE
  5
71
100
AcDbEntity
  8
Default
 62
7
420
16777215
370
-1
 48
1.0
  6
Continuous
100
AcDbSpline
 70
8
 71
3
 72
20
 73
16
 74
0
 40
0.0
 40
0.0
 40
0.0
 40
0.0
 40
0.1699256348011994
 40
0.1699256348011994
 40
0.3398512696024173
 40
0.3398512696024173
 40
0.5097769044036315
 40
0.5097769044036315
 40
0.7136876661651071
 40
0.7136876661651071
 40
0.7136876661651071
 40
0.8811872585475632
 40
0.8811872585475632
 40
0.8811872585475632
 40
1.0
 40
1.0
 40
1.0
 40
1.0
 10
3.0153531856155671
 20
-14.8629850631200195
 30
0.0
 10
3.023934419066777
 20
-14.8801475300224393
 30
0.0
 10
3.03251565251793
 20
-14.9016006136504604
 30
0.0
 10
3.041096885969139
 20
-14.9445067809064405
 30
0.0
 10
3.0453875026947732
 20
-14.9702504812599102
 30
0.0
 10
3.0539687361459258
 20
-15.0389003488695892
 30
0.0
 10
3.0539687361459258
 20
-15.0775158993999092
 30
0.0
 10
3.0539687361459258
 20
-15.1719094673631503
 30
0.0
 10
3.0539687361459258
 20
-15.2191062513447299
 30
0.0
 10
3.0496781194203488
 20
-15.2534311851494504
 30
0.0
 10
3.044859426790048
 20
-15.2919807261917793
 30
0.0
 10
3.0368062692435629
 20
-15.3220810527590494
 30
0.0
 10
3.028225035792353
 20
-15.3435341363870403
 30
0.0
 10
3.0175724701287829
 20
-15.3701655505459502
 30
0.0
 10
3.0067719521643572
 20
-15.3864403036430399
 30
0.0
 10
2.9896094852619872
 20
-15.3950215370941805
 30
0.0
  0
SPLINE
  5
72
100
AcDbEntity
  8
Default
 62
7
420
16777215
370
-1
 48
1.0
  6
Continuous
100
AcDbSpline
 70
8
 71
3
 72
80
 73
76
 74
0
 40
0.0
 40
0.0
 40
0.0
 40
0.0
 40
0.0089546935472151
 40
0.0089546935472151
 40
0.0179093870944293
 40
0.0179093870944293
 40
0.0179093870944293
 40
0.0272579851026979
 40
0.0272579851026979
 40
0.0422157419159275
 40
0.0422157419159275
 40
0.0422157419159275
 40
0.0722557491302974
 40
0.0722557491302974
 40
0.0722557491302974
 40
0.1126464655204888
 40
0.1126464655204888
 40
0.1126464655204888
 40
0.1623536354006454
 40
0.1623536354006454
 40
0.1623536354006454
 40
0.2006013518798403
 40
0.2006013518798403
 40
0.2006013518798403
 40
0.231844898706475
 40
0.231844898706475
 40
0.2630884455331088
 40
0.2630884455331088
 40
0.2630884455331088
 40
0.29693830710092
 40
0.29693830710092
 40
0.3307881686687307
 40
0.3307881686687307
 40
0.3307881686687307
 40
0.3653877024744113
 40
0.3653877024744113
 40
0.3653877024744113
 40
0.4054718247960494
 40
0.4054718247960494
 40
0.4054718247960494
 40
0.4499758035026626
 40
0.4499758035026626
 40
0.4499758035026626
 40
0.4954597755171578
 40
0.4954597755171578
 40
0.4954597755171578
 40
0.5406414217143876
 40
0.5406414217143876
 40
0.5858230679116174
 40
0.5858230679116174
 40
0.5858230679116174
 40
0.6500919525031592
 40
0.6500919525031592
 40
0.7065231682420731
 40
0.7065231682420731
 40
0.762954383980987
 40
0.762954383980987
 40
0.8193855997199002
 40
0.8193855997199002
 40
0.8758168154588141
 40
0.8758168154588141
 40
0.8758168154588141
 40
0.9119986377557402
 40
0.9119986377557402
 40
0.9119986377557402
 40
0.945398029455798
 40
0.945398029455798
 40
0.945398029455798
 40
0.9718789098791443
 40
0.9718789098791443
 40
0.9718789098791443
 40
0.9900094991860288
 40
0.9900094991860288
 40
0.9900094991860288
 40
1.0
 40
1.0
 40
1.0
 40
1.0
 10
0.462436233884354
 20
-18.1109819243982315
 30
0.0
 10
0.4667268506099305
 20
-18.0723663738677907
 30
0.0
 10
0.4753080840611403
 20
-18.0423320567886414
 30
0.0
 10
0.4924705509635601
 20
-17.9994258895326595
 30
0.0
 10
0.5053424011403536
 20
-17.9822634226302398
 30
0.0
 10
0.5225048680427165
 20
-17.9693915724534996
 30
0.0
 10
0.5348618442124646
 20
-17.9601238403262187
 30
0.0
 10
0.5525391851219226
 20
-17.9522291055510799
 30
0.0
 10
0.6083172025547086
 20
-17.9522291055510799
 30
0.0
 10
0.6555139865362776
 20
-17.973682189179069
 30
0.0
 10
0.7198732374202734
 20
-18.0122977397095099
 30
0.0
 10
0.7861254074479262
 20
-18.0520490417260113
 30
0.0
 10
0.8614635893649947
 20
-18.0981100742214913
 30
0.0
 10
0.9515665406026201
 20
-18.1410162414773914
 30
0.0
 10
1.0484979964626009
 20
-18.1871740776012096
 30
0.0
 10
1.153225526705761
 20
-18.2354098094406289
 30
0.0
 10
1.281944028473688
 20
-18.274025359970949
 30
0.0
 10
1.406726184621832
 20
-18.3114600068154196
 30
0.0
 10
1.552252882186401
 20
-18.3340939941293506
 30
0.0
 10
1.715296317759176
 20
-18.3298033774037812
 30
0.0
 10
1.8395252607111701
 20
-18.3265341946944602
 30
0.0
 10
1.9512802376670919
 20
-18.3169315272269309
 30
0.0
 10
2.0499644223558779
 20
-18.2911878268733687
 30
0.0
 10
2.1526658393416942
 20
-18.2643961528770298
 30
0.0
 10
2.2387515582822251
 20
-18.2268285759893693
 30
0.0
 10
2.3846325269525792
 20
-18.1238537745749717
 30
0.0
 10
2.4404105443853581
 20
-18.0552039069654917
 30
0.0
 10
2.4833167116413581
 20
-17.9779728059046704
 30
0.0
 10
2.5270324292229058
 20
-17.8992845142578609
 30
0.0
 10
2.5390947290740868
 20
-17.802057520155099
 30
0.0
 10
2.5390947290740868
 20
-17.5789454504239586
 30
0.0
 10
2.513351028720507
 20
-17.4845518824608099
 30
0.0
 10
2.453282394562152
 20
-17.4073207814000703
 30
0.0
 10
2.3969102917365959
 20
-17.3348423634814992
 30
0.0
 10
2.3202732760685829
 20
-17.2657304294552603
 30
0.0
 10
2.2258797081053809
 20
-17.2056617952969511
 30
0.0
 10
2.133429537129679
 20
-17.1468298683124409
 30
0.0
 10
2.0285113387278741
 20
-17.0941057604313791
 30
0.0
 10
1.908374070411099
 20
-17.0511995931754008
 30
0.0
 10
1.7906830360646
 20
-17.0091670809087496
 30
0.0
 10
1.6680995337775999
 20
-16.9568060252121313
 30
0.0
 10
1.5436716487352411
 20
-16.9053186245049893
 30
0.0
 10
1.4207596364040209
 20
-16.8544584814714007
 30
0.0
 10
1.2948158786505319
 20
-16.8023438230906699
 30
0.0
 10
1.178969227059333
 20
-16.7379845722066705
 30
0.0
 10
1.0598438966495249
 20
-16.6718038330901095
 30
0.0
 10
0.9515665406026201
 20
-16.5963942202618604
 30
0.0
 10
0.762779404676273
 20
-16.4161883177867196
 30
0.0
 10
0.6855483036154908
 20
-16.3046322829211512
 30
0.0
 10
0.6297702861827048
 20
-16.180204397878839
 30
0.0
 10
0.5723907217147115
 20
-16.0522038309887307
 30
0.0
 10
0.5439579516707127
 20
-15.9013143107149801
 30
0.0
 10
0.5439579516707127
 20
-15.5709368228438603
 30
0.0
 10
0.5739922687499188
 20
-15.4207652374478794
 30
0.0
 10
0.6941295370667007
 20
-15.1375845335583108
 30
0.0
 10
0.7842324883042693
 20
-15.0088660317903209
 30
0.0
 10
1.024507024937769
 20
-14.7943351955104596
 30
0.0
 10
1.178969227059333
 20
-14.7085228609984693
 30
0.0
 10
1.539381032009608
 20
-14.5798043592304793
 30
0.0
 10
1.749621251563958
 20
-14.5497700421513194
 30
0.0
 10
1.989895788197515
 20
-14.54547942542575
 30
0.0
 10
2.0970504189753849
 20
-14.5435659498760703
 30
0.0
 10
2.2044266244773851
 20
-14.5583512756024902
 30
0.0
 10
2.307401425891797
 20
-14.5755137425049099
 30
0.0
 10
2.4145508814175538
 20
-14.5933719850924906
 30
0.0
 10
2.513351028720507
 20
-14.6141292930353206
 30
0.0
 10
2.5948727465068728
 20
-14.6398729933889094
 30
0.0
 10
2.6802960074618771
 20
-14.6668487600062694
 30
0.0
 10
2.753625565354064
 20
-14.6913603940960495
 30
0.0
 10
2.8136941995124261
 20
-14.7213947111753196
 30
0.0
 10
2.877195327051318
 20
-14.7531452749446697
 30
0.0
 10
2.9209596176523651
 20
-14.7771727286080399
 30
0.0
 10
2.9509939347315708
 20
-14.8029164289616197
 30
0.0
 10
2.9789081823698851
 20
-14.82684292693739
 30
0.0
 10
3.0024813354387732
 20
-14.8458225962175998
 30
0.0
 10
3.0153531856155671
 20
-14.8629850631200195
 30
0.0
  0
SPLINE
  5
73
100
AcDbEntity
  8
Default
 62
7
420
16777215
370
-1
 48
1.0
  6
Continuous
100
AcDbSpline
 70
8
 71
3
 72
34
 73
30
 74
0
 40
0.0
 40
0.0
 40
0.0
 40
0.0
 40
0.1398253773695561
 40
0.1398253773695561
 40
0.1398253773695561
 40
0.2744117337874292
 40
0.2744117337874292
 40
0.4089980902053018
 40
0.4089980902053018
 40
0.4089980902053018
 40
0.5689268213736435
 40
0.5689268213736435
 40
0.663699402806734
 40
0.663699402806734
 40
0.7584719842398234
 40
0.7584719842398234
 40
0.7584719842398234
 40
0.8286585803340691
 40
0.8286585803340691
 40
0.8286585803340691
 40
0.8747579655994745
 40
0.8747579655994745
 40
0.8747579655994745
 40
0.9100445373814007
 40
0.9100445373814007
 40
0.9100445373814007
 40
0.9656052642928886
 40
0.9656052642928886
 40
1.0
 40
1.0
 40
1.0
 40
1.0
 10
3.2513371055234899
 20
-17.6347234678567908
 30
0.0
 10
3.2513371055234899
 20
-17.8363824539599385
 30
0.0
 10
3.2170121717187001
 20
-18.0165883564350793
 30
0.0
 10
3.1397810706579179
 20
-18.1753411752822309
 30
0.0
 10
3.0633710917584551
 20
-18.3324061319088116
 30
0.0
 10
2.9595751681827811
 20
-18.4713937293485095
 30
0.0
 10
2.684975697744441
 20
-18.685924565628369
 30
0.0
 10
2.5219322621717239
 20
-18.7674462834148983
 30
0.0
 10
2.3288545095197928
 20
-18.8232243008476097
 30
0.0
 10
2.1397368748575119
 20
-18.8778582841944491
 30
0.0
 10
1.9298271540390961
 20
-18.9047460186339187
 30
0.0
 10
1.5608341156376111
 20
-18.9047460186339187
 30
0.0
 10
1.4278249971440431
 20
-18.8961647851827799
 30
0.0
 10
1.1703879936081241
 20
-18.8532586179267696
 30
0.0
 10
1.058831958742559
 20
-18.8232243008476097
 30
0.0
 10
0.9558571573281966
 20
-18.7931899837683716
 30
0.0
 10
0.8517290381380036
 20
-18.7628192823379401
 30
0.0
 10
0.7670700214018495
 20
-18.7245401161588916
 30
0.0
 10
0.6984201537922772
 20
-18.685924565628369
 30
0.0
 10
0.6316036654363444
 20
-18.6483402909282496
 30
0.0
 10
0.5782828854755024
 20
-18.617274698018921
 30
0.0
 10
0.5439579516707127
 20
-18.5872403809396509
 30
0.0
 10
0.5120631016751105
 20
-18.5593323871935603
 30
0.0
 10
0.4881799342379267
 20
-18.5185905133300786
 30
0.0
 10
0.4753080840611403
 20
-18.4671031126229401
 30
0.0
 10
0.4621838446652191
 20
-18.4146061550391096
 30
0.0
 10
0.4538550004331441
 20
-18.3426752275805107
 30
0.0
 10
0.4538550004331441
 20
-18.1967942589102201
 30
0.0
 10
0.4538550004331441
 20
-18.1495974749286404
 30
0.0
 10
0.462436233884354
 20
-18.1109819243982315
 30
0.0
  0
SPLINE
  5
74
100
AcDbEntity
  8
Default
 62
7
420
16777215
370
-1
 48
1.0
  6
Continuous
100
AcDbSpline
 70
8
 71
3
 72
30
 73
26
 74
0
 40
0.0
 40
0.0
 40
0.0
 40
0.0
 40
0.475328271052872
 40
0.475328271052872
 40
0.475328271052872
 40
0.4922159157146194
 40
0.4922159157146194
 40
0.5053507504515331
 40
0.5053507504515331
 40
0.5184855851884486
 40
0.5184855851884486
 40
0.5184855851884486
 40
0.5403640362341805
 40
0.5403640362341805
 40
0.5612006562777339
 40
0.5612006562777339
 40
0.5820372763212885
 40
0.5820372763212885
 40
0.5820372763212885
 40
0.5926533108040899
 40
0.5926533108040899
 40
0.6032693452868906
 40
0.6032693452868906
 40
0.6032693452868906
 40
1.0
 40
1.0
 40
1.0
 40
1.0
 10
5.2121489491220743
 20
-18.6730527154516288
 30
0.0
 10
4.7416113148814176
 20
-17.4116113981256717
 30
0.0
 10
4.2710736806407681
 20
-16.150170080799569
 30
0.0
 10
3.800536046400111
 20
-14.8887287634736101
 30
0.0
 10
3.7782459544333089
 20
-14.8289723467114491
 30
0.0
 10
3.7662111125953288
 20
-14.7814633453336093
 30
0.0
 10
3.7662111125953288
 20
-14.7128134777240405
 30
0.0
 10
3.7790829627721152
 20
-14.6827791606448805
 30
0.0
 10
3.8219891300281148
 20
-14.6398729933889094
 30
0.0
 10
3.8606046805584739
 20
-14.6270011432120608
 30
0.0
 10
3.9163826979913172
 20
-14.61841990976089
 30
0.0
 10
3.9673244711379989
 20
-14.6105827138921693
 30
0.0
 10
4.0365199663080347
 20
-14.6098386763096393
 30
0.0
 10
4.2124352520576016
 20
-14.6098386763096393
 30
0.0
 10
4.2810851196671678
 20
-14.6098386763096393
 30
0.0
 10
4.3840599210815299
 20
-14.61841990976089
 30
0.0
 10
4.4226754716119459
 20
-14.6270011432120608
 30
0.0
 10
4.452709788691152
 20
-14.6398729933889094
 30
0.0
 10
4.4791192743986912
 20
-14.6511913444064099
 30
0.0
 10
4.4999065726727281
 20
-14.6699073104680604
 30
0.0
 10
4.5256502730263009
 20
-14.7128134777240405
 30
0.0
 10
4.5428127399286709
 20
-14.7428477948033105
 30
0.0
 10
4.5556845901055141
 20
-14.7814633453336093
 30
0.0
 10
4.9109476549850513
 20
-15.8472525399723505
 30
0.0
 10
5.3108331338108528
 20
-16.8981675966288911
 30
0.0
 10
5.6884074056635541
 20
-17.9565197222766493
 30
0.0
  0
SPLINE
  5
75
100
AcDbEntity
  8
Default
 62
7
420
16777215
370
-1
 48
1.0
  6
Continuous
100
AcDbSpline
 70
8
 71
3
 72
11
 73
7
 74
0
 40
0.0
 40
0.0
 40
0.0
 40
0.0
 40
0.4934055102061985
 40
0.4934055102061985
 40
0.4934055102061985
 40
1.0
 40
1.0
 40
1.0
 40
1.0
 10
5.3365768341644326
 20
-18.8146430673963607
 30
0.0
 10
5.3065425170852762
 20
-18.8060618339451899
 30
0.0
 10
5.28508943345728
 20
-18.7846087503172008
 30
0.0
 10
5.2593457331037001
 20
-18.7588650499636209
 30
0.0
 10
5.2357473411128623
 20
-18.7352666579728009
 30
0.0
 10
5.2207301825732841
 20
-18.7030870325307887
 30
0.0
 10
5.2121489491220743
 20
-18.6730527154516288
 30
0.0
  0
SPLINE
  5
76
100
AcDbEntity
  8
Default
 62
7
420
16777215
370
-1
 48
1.0
  6
Continuous
100
AcDbSpline
 70
8
 71
3
 72
11
 73
7
 74
0
 40
0.0
 40
0.0
 40
0.0
 40
0.0
 40
0.0695196907153946
 40
0.0695196907153946
 40
0.0695196907153946
 40
1.0
 40
1.0
 40
1.0
 40
1.0
 10
4.7659248096598574
 20
-20.3034870711791484
 30
0.0
 10
4.7659248096598574
 20
-20.2734527540999885
 30
0.0
 10
4.7745060431110176
 20
-20.239127820295149
 30
0.0
 10
4.7916685100133796
 20
-20.1962216530391707
 30
0.0
 10
4.9755239025769811
 20
-19.7365831716302012
 30
0.0
 10
5.1549407261140976
 20
-19.2751692626106603
 30
0.0
 10
5.3365768341644326
 20
-18.8146430673963607
 30
0.0
  0
SPLINE
  5
77
100
AcDbEntity
  8
Default
 62
7
420
16777215
370
-1
 48
1.0
  6
Continuous
100
AcDbSpline
 70
8
 71
3
 72
20
 73
16
 74
0
 40
0.0
 40
0.0
 40
0.0
 40
0.0
 40
0.6339806336857259
 40
0.6339806336857259
 40
0.6339806336857259
 40
0.7071241530077494
 40
0.7071241530077494
 40
0.7071241530077494
 40
0.8242744918046526
 40
0.8242744918046526
 40
0.8828496612031017
 40
0.8828496612031017
 40
0.9414248306015524
 40
0.9414248306015524
 40
1.0
 40
1.0
 40
1.0
 40
1.0
 10
6.0917253778698282
 20
-18.8146430673963607
 30
0.0
 10
5.916325731178496
 20
-19.3010988851083596
 30
0.0
 10
5.7398948063706996
 20
-19.7871828585321303
 30
0.0
 10
5.5639795206211389
 20
-20.2734527540999885
 30
0.0
 10
5.5468951669744726
 20
-20.320677796700469
 30
0.0
 10
5.4996202697371999
 20
-20.359265088612009
 30
0.0
 10
5.4309704021276346
 20
-20.3850087889654503
 30
0.0
 10
5.3599695116547252
 20
-20.4116341228928491
 30
0.0
 10
5.2464738829268569
 20
-20.4193337227702898
 30
0.0
 10
5.0276524299213614
 20
-20.4193337227702898
 30
0.0
 10
4.9632931790373647
 20
-20.4193337227702898
 30
0.0
 10
4.8688996110741627
 20
-20.4021712558678701
 30
0.0
 10
4.8345746772694298
 20
-20.3892994056911299
 30
0.0
 10
4.7830872765622274
 20
-20.3549744718862904
 30
0.0
 10
4.7702154263854339
 20
-20.3292307715327389
 30
0.0
 10
4.7659248096598574
 20
-20.3034870711791484
 30
0.0
  0
LINE
  5
78
100
AcDbEntity
  8
Default
 62
7
420
16777215
370
-1
 48
1.0
  6
Continuous
100
AcDbLine
 10
7.5119195139999997
 20
-14.8758569132999998
 30
0.0
 11
6.0917253778999996
 21
-18.8146430673999987
 31
0.0
  0
SPLINE
  5
79
100
AcDbEntity
  8
Default
 62
7
420
16777215
370
-1
 48
1.0
  6
Continuous
100
AcDbSpline
 70
8
 71
3
 72
26
 73
22
 74
0
 40
0.0
 40
0.0
 40
0.0
 40
0.0
 40
0.7691152706508022
 40
0.7691152706508022
 40
0.7691152706508022
 40
0.7967162615340529
 40
0.7967162615340529
 40
0.8243172524173032
 40
0.8243172524173032
 40
0.8243172524173032
 40
0.8752523462819259
 40
0.8752523462819259
 40
0.9192417455286446
 40
0.9192417455286446
 40
0.9192417455286446
 40
0.9479246505490692
 40
0.9479246505490692
 40
0.9479246505490692
 40
0.9707076159338508
 40
0.9707076159338508
 40
1.0
 40
1.0
 40
1.0
 40
1.0
 10
5.7012792558403396
 20
-17.9565197222766493
 30
0.0
 10
6.0645514719410016
 20
-16.8910165687530593
 30
0.0
 10
6.4278236880417197
 20
-15.8255134152293202
 30
0.0
 10
6.7910959041423808
 20
-14.7600102617056201
 30
0.0
 10
6.8086092156915834
 20
-14.7086424778310096
 30
0.0
 10
6.8297114546728039
 20
-14.6741979271936298
 30
0.0
 10
6.8811988553799566
 20
-14.6398729933889094
 30
0.0
 10
6.9155237891847392
 20
-14.6270011432120608
 30
0.0
 10
6.9670111898919487
 20
-14.61841990976089
 30
0.0
 10
7.0178028149139209
 20
-14.6099546389239094
 30
0.0
 10
7.0871484582087234
 20
-14.6098386763096393
 30
0.0
 10
7.2630637439582273
 20
-14.6098386763096393
 30
0.0
 10
7.3317136115677997
 20
-14.6141292930353206
 30
0.0
 10
7.3832010122750091
 20
-14.61841990976089
 30
0.0
 10
7.4393045247697529
 20
-14.6230952024687593
 30
0.0
 10
7.4775945802382111
 20
-14.6398729933889094
 30
0.0
 10
7.4990476638662074
 20
-14.6613260770168896
 30
0.0
 10
7.5226460558569954
 20
-14.6849244690077398
 30
0.0
 10
7.5376632143965736
 20
-14.7128134777240405
 30
0.0
 10
7.5376632143965736
 20
-14.7814633453336093
 30
0.0
 10
7.5290819809453637
 20
-14.8243695125896107
 30
0.0
 10
7.5119195140429937
 20
-14.8758569132967597
 30
0.0
  0
LINE
  5
7A
100
AcDbEntity
  8
Default
 62
7
420
16777215
370
-1
 48
1.0
  6
Continuous
100
AcDbLine
 10
5.6884074056999996
 20
-17.9565197223000013
 30
0.0
 11
5.7012792558000003
 21
-17.9565197223000013
 31
0.0
  0
SPLINE
  5
7B
100
AcDbEntity
  8
Default
 62
7
420
16777215
370
-1
 48
1.0
  6
Continuous
100
AcDbSpline
 70
8
 71
3
 72
45
 73
41
 74
0
 40
0.0
 40
0.0
 40
0.0
 40
0.0
 40
0.044764461543572
 40
0.044764461543572
 40
0.044764461543572
 40
0.104568916477405
 40
0.104568916477405
 40
0.104568916477405
 40
0.1693444924444372
 40
0.1693444924444372
 40
0.2280473581645651
 40
0.2280473581645651
 40
0.2867502238846905
 40
0.2867502238846905
 40
0.3454530896048213
 40
0.3454530896048213
 40
0.3454530896048213
 40
0.390553233593787
 40
0.390553233593787
 40
0.4546429118938959
 40
0.4546429118938959
 40
0.4546429118938959
 40
0.517332498052542
 40
0.517332498052542
 40
0.517332498052542
 40
0.5933343199149427
 40
0.5933343199149427
 40
0.6693361417773439
 40
0.6693361417773439
 40
0.6693361417773439
 40
0.750825848168473
 40
0.750825848168473
 40
0.750825848168473
 40
0.8297398527523756
 40
0.8297398527523756
 40
0.8297398527523756
 40
0.9088161323422453
 40
0.9088161323422453
 40
0.9088161323422453
 40
1.0
 40
1.0
 40
1.0
 40
1.0
 10
10.4252482707244791
 20
-15.3606966032894494
 30
0.0
 10
10.3737608700172803
 20
-15.3306622862103001
 30
0.0
 10
10.3094016191332791
 20
-15.2963373524054607
 30
0.0
 10
10.2278799013469808
 20
-15.25772180187505
 30
0.0
 10
10.1515224552755505
 20
-15.2215524853149002
 30
0.0
 10
10.0562552323230001
 20
-15.18907193426557
 30
0.0
 10
9.9489898141830082
 20
-15.1547470004607305
 30
0.0
 10
9.8429698580824123
 20
-15.1208206145085207
 30
0.0
 10
9.7172965110007112
 20
-15.1075502164791509
 30
0.0
 10
9.4555688907391584
 20
-15.1075502164791509
 30
0.0
 10
9.3483034725992269
 20
-15.1204220666558893
 30
0.0
 10
9.1595163366728798
 20
-15.1804907008143193
 30
0.0
 10
9.0822852356120904
 20
-15.2191062513447299
 30
0.0
 10
8.9621479672953157
 20
-15.3220810527590494
 30
0.0
 10
8.9149511833137467
 20
-15.3864403036430399
 30
0.0
 10
8.8849168662345903
 20
-15.4550901712527207
 30
0.0
 10
8.8533069784233334
 20
-15.5273413433925498
 30
0.0
 10
8.8377200822529645
 20
-15.6009711399230202
 30
0.0
 10
8.8377200822529645
 20
-15.7983395093004599
 30
0.0
 10
8.8677543993321706
 20
-15.8970236939893006
 30
0.0
 10
8.9235324167649566
 20
-15.9742547950501397
 30
0.0
 10
8.9807812541300294
 20
-16.053522416017131
 30
0.0
 10
9.0608321519841013
 20
-16.120135763720441
 30
0.0
 10
9.1552257199472962
 20
-16.180204397878839
 30
0.0
 10
9.2476758909229488
 20
-16.2390363248633811
 30
0.0
 10
9.3568847060504368
 20
-16.291760432744411
 30
0.0
 10
9.5971592426839436
 20
-16.3861540007075597
 30
0.0
 10
9.7172965110007112
 20
-16.4333507846891393
 30
0.0
 10
9.8460150127686461
 20
-16.4848381853962813
 30
0.0
 10
9.9695551840056993
 20
-16.534254253891131
 30
0.0
 10
10.0948707828533593
 20
-16.5878129868106896
 30
0.0
 10
10.2150080511701304
 20
-16.652172237694689
 30
0.0
 10
10.3333593343285308
 20
-16.7155747108152184
 30
0.0
 10
10.4424107376268402
 20
-16.7894719729138409
 30
0.0
 10
10.5368043055900493
 20
-16.8752843074258294
 30
0.0
 10
10.6333334746383308
 20
-16.9630380974697097
 30
0.0
 10
10.7084289746139802
 20
-17.0683620600776997
 30
0.0
 10
10.7642069920467698
 20
-17.1927899451201007
 30
0.0
 10
10.8207029443574196
 20
-17.3188193771976309
 30
0.0
 10
10.8500193265587495
 20
-17.4630987988328208
 30
0.0
 10
10.8500193265587495
 20
-17.6347234678567908
 30
0.0
  0
SPLINE
  5
7C
100
AcDbEntity
  8
Default
 62
7
420
16777215
370
-1
 48
1.0
  6
Continuous
100
AcDbSpline
 70
8
 71
3
 72
25
 73
21
 74
0
 40
0.0
 40
0.0
 40
0.0
 40
0.0
 40
0.1284130241794232
 40
0.1284130241794232
 40
0.2568260483588296
 40
0.2568260483588296
 40
0.3852390725382275
 40
0.3852390725382275
 40
0.5393347015535107
 40
0.5393347015535107
 40
0.5393347015535107
 40
0.6659143623081272
 40
0.6659143623081272
 40
0.6659143623081272
 40
0.7549345005473694
 40
0.7549345005473694
 40
0.7549345005473694
 40
0.8663279093894735
 40
0.8663279093894735
 40
1.0
 40
1.0
 40
1.0
 40
1.0
 10
10.6140354066508298
 20
-14.8629850631200195
 30
0.0
 10
10.6226166401019793
 20
-14.8801475300224393
 30
0.0
 10
10.6311978735532104
 20
-14.9016006136504604
 30
0.0
 10
10.6397791070044097
 20
-14.9445067809064405
 30
0.0
 10
10.6440697237299808
 20
-14.9702504812599102
 30
0.0
 10
10.6526509571811907
 20
-15.0389003488695892
 30
0.0
 10
10.6526509571811907
 20
-15.0775158993999092
 30
0.0
 10
10.6526509571811907
 20
-15.1719094673631503
 30
0.0
 10
10.6526509571811907
 20
-15.2191062513447299
 30
0.0
 10
10.6483603404556195
 20
-15.2534311851494504
 30
0.0
 10
10.6435416478253195
 20
-15.2919807261917793
 30
0.0
 10
10.6354884902788296
 20
-15.3220810527590494
 30
0.0
 10
10.6269072568276197
 20
-15.3435341363870403
 30
0.0
 10
10.6162546911640394
 20
-15.3701655505459502
 30
0.0
 10
10.6011635564739901
 20
-15.3864403036430399
 30
0.0
 10
10.5882917062972606
 20
-15.3950215370941805
 30
0.0
 10
10.5704691445139591
 20
-15.4069032449497705
 30
0.0
 10
10.5582573892179994
 20
-15.4121840039967104
 30
0.0
 10
10.5110606052364197
 20
-15.4121840039967104
 30
0.0
 10
10.4724450547060606
 20
-15.3950215370941805
 30
0.0
 10
10.4252482707244791
 20
-15.3606966032894494
 30
0.0
  0
SPLINE
  5
7D
100
AcDbEntity
  8
Default
 62
7
420
16777215
370
-1
 48
1.0
  6
Continuous
100
AcDbSpline
 70
8
 71
3
 72
73
 73
69
 74
0
 40
0.0
 40
0.0
 40
0.0
 40
0.0
 40
0.009682452775049
 40
0.009682452775049
 40
0.0251743772151285
 40
0.0251743772151285
 40
0.0251743772151285
 40
0.0557542590451793
 40
0.0557542590451793
 40
0.0557542590451793
 40
0.0968711700395458
 40
0.0968711700395458
 40
0.0968711700395458
 40
0.147472037327964
 40
0.147472037327964
 40
0.147472037327964
 40
0.1864074188899195
 40
0.1864074188899195
 40
0.1864074188899195
 40
0.2180751561996049
 40
0.2180751561996049
 40
0.2497428935092894
 40
0.2497428935092894
 40
0.2497428935092894
 40
0.2842244303261693
 40
0.2842244303261693
 40
0.3187059671430497
 40
0.3187059671430497
 40
0.3187059671430497
 40
0.3539275744597294
 40
0.3539275744597294
 40
0.3539275744597294
 40
0.3947212462249681
 40
0.3947212462249681
 40
0.3947212462249681
 40
0.4400230893839877
 40
0.4400230893839877
 40
0.4400230893839877
 40
0.4867688236730651
 40
0.4867688236730651
 40
0.4867688236730651
 40
0.5325690190912293
 40
0.5325690190912293
 40
0.5783692145093938
 40
0.5783692145093938
 40
0.5783692145093938
 40
0.6392596627034351
 40
0.6392596627034351
 40
0.6927244464835686
 40
0.6927244464835686
 40
0.7461892302637032
 40
0.7996540140438376
 40
0.7996540140438376
 40
0.7996540140438376
 40
0.8735846311675368
 40
0.8735846311675368
 40
0.8735846311675368
 40
0.9104169753286306
 40
0.9104169753286306
 40
0.9104169753286306
 40
0.9368879427256384
 40
0.9368879427256384
 40
0.9633589101226472
 40
0.9633589101226472
 40
0.9898298775196542
 40
0.9898298775196542
 40
0.9898298775196542
 40
1.0
 40
1.0
 40
1.0
 40
1.0
 10
8.1168964723523516
 20
-17.9693915724534996
 30
0.0
 10
8.1340589392547713
 20
-17.9608103390022507
 30
0.0
 10
8.151221406157191
 20
-17.9522291055510799
 30
0.0
 10
8.206999423589977
 20
-17.9522291055510799
 30
0.0
 10
8.2541962075715531
 20
-17.973682189179069
 30
0.0
 10
8.3185554584555419
 20
-18.0122977397095099
 30
0.0
 10
8.3816527632437499
 20
-18.0501561225823401
 30
0.0
 10
8.4601458104002631
 20
-18.0981100742214913
 30
0.0
 10
8.5502487616378886
 20
-18.1410162414773914
 30
0.0
 10
8.6471802174978762
 20
-18.1871740776012096
 30
0.0
 10
8.7519077477410292
 20
-18.2354098094406289
 30
0.0
 10
8.880626249508957
 20
-18.274025359970949
 30
0.0
 10
9.0054084056571
 20
-18.3114600068154196
 30
0.0
 10
9.1509351032216699
 20
-18.3340939941293506
 30
0.0
 10
9.3139785387944443
 20
-18.3298033774037812
 30
0.0
 10
9.4382074817463888
 20
-18.3265341946944602
 30
0.0
 10
9.5499624587023675
 20
-18.3169315272269309
 30
0.0
 10
9.6486466433910891
 20
-18.2911878268733687
 30
0.0
 10
9.7513480603769551
 20
-18.2643961528770298
 30
0.0
 10
9.8374337793174362
 20
-18.2268285759893693
 30
0.0
 10
9.9833147479878477
 20
-18.1238537745749717
 30
0.0
 10
10.0390927654205804
 20
-18.0552039069654917
 30
0.0
 10
10.0777083159509999
 20
-17.9779728059046704
 30
0.0
 10
10.1188982365167295
 20
-17.8955929647731899
 30
0.0
 10
10.1377769501093606
 20
-17.802057520155099
 30
0.0
 10
10.1377769501093606
 20
-17.5789454504239586
 30
0.0
 10
10.1120332497557808
 20
-17.4845518824608099
 30
0.0
 10
10.0519646155974094
 20
-17.4073207814000703
 30
0.0
 10
9.9955925127718075
 20
-17.3348423634814992
 30
0.0
 10
9.9189554971038518
 20
-17.2657304294552603
 30
0.0
 10
9.824561929140657
 20
-17.2056617952969511
 30
0.0
 10
9.7321117581650043
 20
-17.1468298683124409
 30
0.0
 10
9.6229029430375164
 20
-17.0941057604313791
 30
0.0
 10
9.507056291446375
 20
-17.0511995931754008
 30
0.0
 10
9.3898122134186082
 20
-17.0077758605724796
 30
0.0
 10
9.2667817548128681
 20
-16.9568060252121313
 30
0.0
 10
9.1423538697704601
 20
-16.9053186245049893
 30
0.0
 10
9.0194418574392898
 20
-16.8544584814714007
 30
0.0
 10
8.8934980996857433
 20
-16.8023438230906699
 30
0.0
 10
8.7733608313690254
 20
-16.7379845722066705
 30
0.0
 10
8.6565574020144211
 20
-16.6754113064810099
 30
0.0
 10
8.5502487616378886
 20
-16.5963942202618604
 30
0.0
 10
8.3614616257114847
 20
-16.4161883177867196
 30
0.0
 10
8.2842305246507593
 20
-16.3046322829211512
 30
0.0
 10
8.2284525072179733
 20
-16.180204397878839
 30
0.0
 10
8.17107294274998
 20
-16.0522038309887307
 30
0.0
 10
8.1426401727059812
 20
-15.9013143107149801
 30
0.0
 10
8.1426401727059812
 20
-15.5709368228438603
 30
0.0
 10
8.1726744897851944
 20
-15.4207652374478794
 30
0.0
 10
8.2928117581019123
 20
-15.1375845335583108
 30
0.0
 10
8.4730176605771064
 20
-14.8801475300224393
 30
0.0
 10
8.7733608313690254
 20
-14.7085228609984693
 30
0.0
 10
8.9578573505697392
 20
-14.6441636101144805
 30
0.0
 10
9.1385287249654397
 20
-14.5811387120694693
 30
0.0
 10
9.3483034725992269
 20
-14.5497700421513194
 30
0.0
 10
9.5885780092327337
 20
-14.54547942542575
 30
0.0
 10
9.6957326400106609
 20
-14.5435659498760703
 30
0.0
 10
9.8031088455127104
 20
-14.5583512756024902
 30
0.0
 10
9.9060836469270157
 20
-14.5755137425049099
 30
0.0
 10
10.0132331024528192
 20
-14.5933719850924906
 30
0.0
 10
10.1077426330301403
 20
-14.6141292930353206
 30
0.0
 10
10.2793673020541299
 20
-14.6656166937424608
 30
0.0
 10
10.3523077863892805
 20
-14.6913603940960495
 30
0.0
 10
10.4724450547060606
 20
-14.7514290282544795
 30
0.0
 10
10.5196418386876296
 20
-14.7771727286080399
 30
0.0
 10
10.5496761557668499
 20
-14.8029164289616197
 30
0.0
 10
10.57759040340515
 20
-14.82684292693739
 30
0.0
 10
10.6011635564739901
 20
-14.8458225962175998
 30
0.0
 10
10.6140354066508298
 20
-14.8629850631200195
 30
0.0
  0
SPLINE
  5
7E
100
AcDbEntity
  8
Default
 62
7
420
16777215
370
-1
 48
1.0
  6
Continuous
100
AcDbSpline
 70
8
 71
3
 72
10
 73
6
 74
0
 40
0.0
 40
0.0
 40
0.0
 40
0.0
 40
0.5
 40
0.5
 40
1.0
 40
1.0
 40
1.0
 40
1.0
 10
8.0611184549196224
 20
-18.1109819243982315
 30
0.0
 10
8.0654090716451989
 20
-18.0723663738677907
 30
0.0
 10
8.0739903050964088
 20
-18.0423320567886414
 30
0.0
 10
8.0911527719987788
 20
-17.9994258895326595
 30
0.0
 10
8.104024622175622
 20
-17.9822634226302398
 30
0.0
 10
8.1168964723523516
 20
-17.9693915724534996
 30
0.0
  0
SPLINE
  5
7F
100
AcDbEntity
  8
Default
 62
7
420
16777215
370
-1
 48
1.0
  6
Continuous
100
AcDbSpline
 70
8
 71
3
 72
34
 73
30
 74
0
 40
0.0
 40
0.0
 40
0.0
 40
0.0
 40
0.1398344306559053
 40
0.1398344306559053
 40
0.1398344306559053
 40
0.2873653672153019
 40
0.2873653672153019
 40
0.4348963037746954
 40
0.4348963037746954
 40
0.5824272403340872
 40
0.5824272403340872
 40
0.6698529805174284
 40
0.6698529805174284
 40
0.6698529805174284
 40
0.7585078870257349
 40
0.7585078870257349
 40
0.7585078870257349
 40
0.8286814869539764
 40
0.8286814869539764
 40
0.8286814869539764
 40
0.8748275065264646
 40
0.8748275065264646
 40
0.8748275065264646
 40
0.91003871302693
 40
0.91003871302693
 40
0.91003871302693
 40
0.965603037333825
 40
0.965603037333825
 40
1.0
 40
1.0
 40
1.0
 40
1.0
 10
10.8500193265587495
 20
-17.6347234678567908
 30
0.0
 10
10.8500193265587495
 20
-17.8363824539599385
 30
0.0
 10
10.8156943927539704
 20
-18.0165883564350793
 30
0.0
 10
10.7384632916931899
 20
-18.1753411752822309
 30
0.0
 10
10.6620533127936703
 20
-18.3324061319088116
 30
0.0
 10
10.5582573892179994
 20
-18.4713937293485095
 30
0.0
 10
10.2836579187797099
 20
-18.685924565628369
 30
0.0
 10
10.1163238664813502
 20
-18.7674462834148983
 30
0.0
 10
9.7387495946287146
 20
-18.8790023182803601
 30
0.0
 10
9.5285093750743073
 20
-18.9047460186339187
 30
0.0
 10
9.1595163366728798
 20
-18.9047460186339187
 30
0.0
 10
9.0222166014537351
 20
-18.8961647851827799
 30
0.0
 10
8.897788716411327
 20
-18.8747117015547907
 30
0.0
 10
8.7691940777128039
 20
-18.8525402121240404
 30
0.0
 10
8.6532235630522436
 20
-18.8232243008476097
 30
0.0
 10
8.5545393783634651
 20
-18.7931899837683716
 30
0.0
 10
8.4507331771683667
 20
-18.7615967921003595
 30
0.0
 10
8.365752242437118
 20
-18.7245401161588916
 30
0.0
 10
8.2971023748275456
 20
-18.685924565628369
 30
0.0
 10
8.2302858864716129
 20
-18.6483402909282496
 30
0.0
 10
8.1726744897851944
 20
-18.617274698018921
 30
0.0
 10
8.1426401727059812
 20
-18.5872403809396509
 30
0.0
 10
8.1104605472640401
 20
-18.5550607554976388
 30
0.0
 10
8.0868621552731952
 20
-18.5185905133300786
 30
0.0
 10
8.0739903050964088
 20
-18.4671031126229401
 30
0.0
 10
8.0608660657004307
 20
-18.4146061550391096
 30
0.0
 10
8.0525372214684126
 20
-18.3426752275805107
 30
0.0
 10
8.0525372214684126
 20
-18.1967942589102201
 30
0.0
 10
8.0525372214684126
 20
-18.1495974749286404
 30
0.0
 10
8.0611184549196224
 20
-18.1109819243982315
 30
0.0
  0
SPLINE
  5
80
100
AcDbEntity
  8
Default
 62
7
420
16777215
370
-1
 48
1.0
  6
Continuous
100
AcDbSpline
 70
8
 71
3
 72
16
 73
12
 74
0
 40
0.0
 40
0.0
 40
0.0
 40
0.0
 40
0.5174785216509551
 40
0.5174785216509551
 40
0.5174785216509551
 40
0.6465221515853283
 40
0.6465221515853283
 40
0.6465221515853283
 40
0.8790733676476128
 40
0.8790733676476128
 40
1.0
 40
1.0
 40
1.0
 40
1.0
 10
12.0599732431775806
 20
-15.2448499516983098
 30
0.0
 10
11.8769069295519891
 20
-15.2448499516983098
 30
0.0
 10
11.6938406159264794
 20
-15.2448499516983098
 30
0.0
 10
11.5107743023009395
 20
-15.2448499516983098
 30
0.0
 10
11.4635775183193793
 20
-15.2448499516983098
 30
0.0
 10
11.4292525845145398
 20
-15.2191062513447299
 30
0.0
 10
11.40350888416096
 20
-15.1719094673631503
 30
0.0
 10
11.3795688825582992
 20
-15.1280194644247992
 30
0.0
 10
11.3648933336306008
 20
-15.0517721990463293
 30
0.0
 10
11.3648933336306008
 20
-14.8887287634736101
 30
0.0
 10
11.3691839503561702
 20
-14.8415319794920304
 30
0.0
 10
11.3777651838073801
 20
-14.8029164289616197
 30
0.0
  0
SPLINE
  5
81
100
AcDbEntity
  8
Default
 62
7
420
16777215
370
-1
 48
1.0
  6
Continuous
100
AcDbSpline
 70
8
 71
3
 72
33
 73
29
 74
0
 40
0.0
 40
0.0
 40
0.0
 40
0.0
 40
0.0385045402928211
 40
0.0385045402928211
 40
0.0385045402928211
 40
0.0594868059338039
 40
0.0594868059338039
 40
0.0846655247029856
 40
0.0846655247029856
 40
0.0846655247029856
 40
0.1155121300448935
 40
0.1155121300448935
 40
0.1155121300448935
 40
0.1504394128877824
 40
0.1504394128877824
 40
0.18536669573067
 40
0.18536669573067
 40
0.2901485442593385
 40
0.2901485442593385
 40
0.2901485442593385
 40
0.3837433722362079
 40
0.3837433722362079
 40
0.4773382002130768
 40
0.4773382002130768
 40
0.5709330281899461
 40
0.5709330281899461
 40
0.5709330281899461
 40
1.0
 40
1.0
 40
1.0
 40
1.0
 10
13.9521352191665908
 20
-18.4156157119157591
 30
0.0
 10
13.9521352191665908
 20
-18.5014280464277796
 30
0.0
 10
13.9478446024410108
 20
-18.5700779140372312
 30
0.0
 10
13.9349727522641693
 20
-18.6215653147444904
 30
0.0
 10
13.9231104589640307
 20
-18.6690144879451303
 30
0.0
 10
13.90493843518502
 20
-18.7073776492563617
 30
0.0
 10
13.8577416512034404
 20
-18.7545744332380515
 30
0.0
 10
13.8234167173985991
 20
-18.7760275168660407
 30
0.0
 10
13.7762199334170408
 20
-18.7974806004940511
 30
0.0
 10
13.7306394776540106
 20
-18.8181989894771391
 30
0.0
 10
13.6775357487282498
 20
-18.8318055342987805
 30
0.0
 10
13.6174671145698891
 20
-18.8446773844755207
 30
0.0
 10
13.5532962322251098
 20
-18.8584282878352703
 30
0.0
 10
13.4930392295275396
 20
-18.8704210848291893
 30
0.0
 10
13.3557394943083398
 20
-18.8875835517314989
 30
0.0
 10
13.2913802434244008
 20
-18.8918741684572105
 30
0.0
 10
13.0167807729860492
 20
-18.8918741684572105
 30
0.0
 10
12.8408654872364991
 20
-18.8661304681035098
 30
0.0
 10
12.6906939018406195
 20
-18.8103524506707913
 30
0.0
 10
12.5456932175199505
 20
-18.7564950536374511
 30
0.0
 10
12.4246756648535008
 20
-18.6773433321772018
 30
0.0
 10
12.2358885289271306
 20
-18.4542312624460898
 30
0.0
 10
12.1672386613175103
 20
-18.3169315272269309
 30
0.0
 10
12.0814263268055306
 20
-17.9822634226302398
 30
0.0
 10
12.0599732431775806
 20
-17.7806044365270814
 30
0.0
 10
12.0599732431775806
 20
-17.5532017500703716
 30
0.0
 10
12.0599732431775806
 20
-16.7837511506130603
 30
0.0
 10
12.0599732431775806
 20
-16.0143005511556282
 30
0.0
 10
12.0599732431775806
 20
-15.2448499516983098
 30
0.0
  0
SPLINE
  5
82
100
AcDbEntity
  8
Default
 62
7
420
16777215
370
-1
 48
1.0
  6
Continuous
100
AcDbSpline
 70
8
 71
3
 72
8
 73
4
 74
0
 40
0.0
 40
0.0
 40
0.0
 40
0.0
 40
1.0
 40
1.0
 40
1.0
 40
1.0
 10
13.9435539857154396
 20
-18.2868972101477709
 30
0.0
 10
13.9521352191665908
 20
-18.3212221439526388
 30
0.0
 10
13.9521352191665908
 20
-18.3641283112084999
 30
0.0
 10
13.9521352191665908
 20
-18.4156157119157591
 30
0.0
  0
SPLINE
  5
83
100
AcDbEntity
  8
Default
 62
7
420
16777215
370
-1
 48
1.0
  6
Continuous
100
AcDbSpline
 70
8
 71
3
 72
8
 73
4
 74
0
 40
0.0
 40
0.0
 40
0.0
 40
0.0
 40
1.0
 40
1.0
 40
1.0
 40
1.0
 10
13.9263915188130198
 20
-18.2010848756357895
 30
0.0
 10
13.9306821355385893
 20
-18.2225379592637999
 30
0.0
 10
13.93926336898976
 20
-18.2525722763429314
 30
0.0
 10
13.9435539857154396
 20
-18.2868972101477709
 30
0.0
  0
SPLINE
  5
84
100
AcDbEntity
  8
Default
 62
7
420
16777215
370
-1
 48
1.0
  6
Continuous
100
AcDbSpline
 70
8
 71
3
 72
8
 73
4
 74
0
 40
0.0
 40
0.0
 40
0.0
 40
0.0
 40
1.0
 40
1.0
 40
1.0
 40
1.0
 10
13.8920665850082408
 20
-18.1581787083798112
 30
0.0
 10
13.90493843518502
 20
-18.16675994183095
 30
0.0
 10
13.91781028536181
 20
-18.1839224087333697
 30
0.0
 10
13.9263915188130198
 20
-18.2010848756357895
 30
0.0
  0
SPLINE
  5
85
100
AcDbEntity
  8
Default
 62
7
420
16777215
370
-1
 48
1.0
  6
Continuous
100
AcDbSpline
 70
8
 71
3
 72
10
 73
6
 74
0
 40
0.0
 40
0.0
 40
0.0
 40
0.0
 40
0.5555555555555657
 40
0.5555555555555657
 40
1.0
 40
1.0
 40
1.0
 40
1.0
 10
13.7719293166914607
 20
-18.16675994183095
 30
0.0
 10
13.8019636337706704
 20
-18.1538880916542098
 30
0.0
 10
13.8277073341242396
 20
-18.1495974749286404
 30
0.0
 10
13.8663228846546094
 20
-18.1495974749286404
 30
0.0
 10
13.8791947348314402
 20
-18.1538880916542098
 30
0.0
 10
13.8920665850082408
 20
-18.1581787083798112
 30
0.0
  0
SPLINE
  5
86
100
AcDbEntity
  8
Default
 62
7
420
16777215
370
-1
 48
1.0
  6
Continuous
100
AcDbSpline
 70
8
 71
3
 72
8
 73
4
 74
0
 40
0.0
 40
0.0
 40
0.0
 40
0.0
 40
1.0
 40
1.0
 40
1.0
 40
1.0
 10
13.6646638985514706
 20
-18.2096661090869496
 30
0.0
 10
13.7075700658074595
 20
-18.1967942589102201
 30
0.0
 10
13.7418949996122404
 20
-18.1839224087333697
 30
0.0
 10
13.7719293166914607
 20
-18.16675994183095
 30
0.0
  0
SPLINE
  5
87
100
AcDbEntity
  8
Default
 62
7
420
16777215
370
-1
 48
1.0
  6
Continuous
100
AcDbSpline
 70
8
 71
3
 72
18
 73
14
 74
0
 40
0.0
 40
0.0
 40
0.0
 40
0.0
 40
0.5996153592843878
 40
0.5996153592843878
 40
0.5996153592843878
 40
0.7539145929533034
 40
0.7539145929533034
 40
0.9082138266222212
 40
0.9082138266222212
 40
0.9596469045118582
 40
0.9596469045118582
 40
0.9596469045118582
 40
1.0
 40
1.0
 40
1.0
 40
1.0
 10
12.7893780865293394
 20
-15.2448499516983098
 30
0.0
 10
12.7893780865293394
 20
-15.9785454117756007
 30
0.0
 10
12.7893780865293394
 20
-16.7122408718529982
 30
0.0
 10
12.7893780865293394
 20
-17.4459363319304011
 30
0.0
 10
12.7893780865293394
 20
-17.7205358023686905
 30
0.0
 10
12.8279936370597607
 20
-17.9264854051975
 30
0.0
 10
12.99103707263248
 20
-18.2010848756357895
 30
0.0
 10
13.1369180413028293
 20
-18.2697347432453512
 30
0.0
 10
13.4115175117411791
 20
-18.2697347432453512
 30
0.0
 10
13.4715861458995398
 20
-18.2654441265197818
 30
0.0
 10
13.5230735466067404
 20
-18.2525722763429314
 30
0.0
 10
13.5785991748203401
 20
-18.2386908692895702
 30
0.0
 10
13.6260483480211008
 20
-18.2268285759893693
 30
0.0
 10
13.6646638985514706
 20
-18.2096661090869496
 30
0.0
  0
SPLINE
  5
88
100
AcDbEntity
  8
Default
 62
7
420
16777215
370
-1
 48
1.0
  6
Continuous
100
AcDbSpline
 70
8
 71
3
 72
16
 73
12
 74
0
 40
0.0
 40
0.0
 40
0.0
 40
0.0
 40
0.0839585535538896
 40
0.0839585535538896
 40
0.2454173103882935
 40
0.2454173103882935
 40
0.2454173103882935
 40
0.3349824436956164
 40
0.3349824436956164
 40
0.3349824436956164
 40
1.0
 40
1.0
 40
1.0
 40
1.0
 10
13.9435539857154396
 20
-14.8029164289616197
 30
0.0
 10
13.9521352191665908
 20
-14.8415319794920304
 30
0.0
 10
13.9521352191665908
 20
-14.8887287634736101
 30
0.0
 10
13.9521352191665908
 20
-15.0517721990463293
 30
0.0
 10
13.93926336898976
 20
-15.1290033001071702
 30
0.0
 10
13.9135196686362299
 20
-15.1719094673631503
 30
0.0
 10
13.8858830491390002
 20
-15.2179704998585503
 30
0.0
 10
13.8534510344778106
 20
-15.2448499516983098
 30
0.0
 10
13.8062542504962398
 20
-15.2448499516983098
 30
0.0
 10
13.4672955291739704
 20
-15.2448499516983098
 30
0.0
 10
13.1283368078516194
 20
-15.2448499516983098
 30
0.0
 10
12.7893780865293394
 20
-15.2448499516983098
 30
0.0
  0
SPLINE
  5
89
100
AcDbEntity
  8
Default
 62
7
420
16777215
370
-1
 48
1.0
  6
Continuous
100
AcDbSpline
 70
8
 71
3
 72
8
 73
4
 74
0
 40
0.0
 40
0.0
 40
0.0
 40
0.0
 40
1.0
 40
1.0
 40
1.0
 40
1.0
 10
13.9135196686362299
 20
-14.7085228609984693
 30
0.0
 10
13.9306821355385893
 20
-14.7342665613520598
 30
0.0
 10
13.93926336898976
 20
-14.7643008784312997
 30
0.0
 10
13.9435539857154396
 20
-14.8029164289616197
 30
0.0
  0
SPLINE
  5
8A
100
AcDbEntity
  8
Default
 62
7
420
16777215
370
-1
 48
1.0
  6
Continuous
100
AcDbSpline
 70
8
 71
3
 72
8
 73
4
 74
0
 40
0.0
 40
0.0
 40
0.0
 40
0.0
 40
1.0
 40
1.0
 40
1.0
 40
1.0
 10
13.8706135013801806
 20
-14.6527448435656407
 30
0.0
 10
13.8877759682826003
 20
-14.6656166937424608
 30
0.0
 10
13.9006478184593902
 20
-14.6827791606448805
 30
0.0
 10
13.9135196686362299
 20
-14.7085228609984693
 30
0.0
  0
SPLINE
  5
8B
100
AcDbEntity
  8
Default
 62
7
420
16777215
370
-1
 48
1.0
  6
Continuous
100
AcDbSpline
 70
8
 71
3
 72
11
 73
7
 74
0
 40
0.0
 40
0.0
 40
0.0
 40
0.0
 40
0.9388606840218192
 40
0.9388606840218192
 40
0.9388606840218192
 40
1.0
 40
1.0
 40
1.0
 40
1.0
 10
12.7893780865293394
 20
-14.6398729933889094
 30
0.0
 10
13.1283368078516194
 20
-14.6398729933889094
 30
0.0
 10
13.4672955291739704
 20
-14.6398729933889094
 30
0.0
 10
13.8062542504962398
 20
-14.6398729933889094
 30
0.0
 10
13.8319979508498694
 20
-14.6398729933889094
 30
0.0
 10
13.8534510344778106
 20
-14.6441636101144805
 30
0.0
 10
13.8706135013801806
 20
-14.6527448435656407
 30
0.0
  0
SPLINE
  5
8C
100
AcDbEntity
  8
Default
 62
7
420
16777215
370
-1
 48
1.0
  6
Continuous
100
AcDbSpline
 70
8
 71
3
 72
11
 73
7
 74
0
 40
0.0
 40
0.0
 40
0.0
 40
0.0
 40
0.0611287626201976
 40
0.0611287626201976
 40
0.0611287626201976
 40
1.0
 40
1.0
 40
1.0
 40
1.0
 10
12.7679250029013502
 20
-13.6487405297756403
 30
0.0
 10
12.7807968530781899
 20
-13.6659029966779393
 30
0.0
 10
12.7893780865293394
 20
-13.6830654635803608
 30
0.0
 10
12.7893780865293394
 20
-13.7045185472083499
 30
0.0
 10
12.7893780865293394
 20
-14.0163033626018603
 30
0.0
 10
12.7893780865293394
 20
-14.3280881779954008
 30
0.0
 10
12.7893780865293394
 20
-14.6398729933889094
 30
0.0
  0
SPLINE
  5
8D
100
AcDbEntity
  8
Default
 62
7
420
16777215
370
-1
 48
1.0
  6
Continuous
100
AcDbSpline
 70
8
 71
3
 72
26
 73
22
 74
0
 40
0.0
 40
0.0
 40
0.0
 40
0.0
 40
0.5401613228927271
 40
0.5401613228927271
 40
0.5401613228927271
 40
0.5786043381176174
 40
0.5786043381176174
 40
0.6170473533425086
 40
0.6170473533425086
 40
0.6170473533425086
 40
0.6863789488522087
 40
0.6863789488522087
 40
0.6863789488522087
 40
0.7833496259553024
 40
0.7833496259553024
 40
0.8924416376962994
 40
0.8924416376962994
 40
0.8924416376962994
 40
0.9462208188481519
 40
0.9462208188481519
 40
1.0
 40
1.0
 40
1.0
 40
1.0
 10
12.0599732431775806
 20
-14.6398729933889094
 30
0.0
 10
12.0599732431775806
 20
-14.3280881779954008
 30
0.0
 10
12.0599732431775806
 20
-14.0163033626018603
 30
0.0
 10
12.0599732431775806
 20
-13.7045185472083499
 30
0.0
 10
12.0599732431775806
 20
-13.6830654635803608
 30
0.0
 10
12.0685544766287904
 20
-13.6659029966779393
 30
0.0
 10
12.0857169435311498
 20
-13.6315780628732206
 30
0.0
 10
12.10717002715921
 20
-13.6144155959708009
 30
0.0
 10
12.1329137275127295
 20
-13.6015437457939505
 30
0.0
 10
12.1620899212468299
 20
-13.5869556489270202
 30
0.0
 10
12.2015635951223498
 20
-13.5800906621660697
 30
0.0
 10
12.2487603791039295
 20
-13.5715094287147906
 30
0.0
 10
12.2952020145418004
 20
-13.5630654949988791
 30
0.0
 10
12.3517351805182898
 20
-13.56292819526365
 30
0.0
 10
12.4976161491886408
 20
-13.56292819526365
 30
0.0
 10
12.5576847833469998
 20
-13.5672188119892194
 30
0.0
 10
12.6048815673286292
 20
-13.5715094287147906
 30
0.0
 10
12.6524652101952899
 20
-13.5758352144299899
 30
0.0
 10
12.6864032851149897
 20
-13.5886718956172103
 30
0.0
 10
12.7378906858221903
 20
-13.6144155959708009
 30
0.0
 10
12.7593437694502008
 20
-13.6315780628732206
 30
0.0
 10
12.7679250029013502
 20
-13.6487405297756403
 30
0.0
  0
SPLINE
  5
8E
100
AcDbEntity
  8
Default
 62
7
420
16777215
370
-1
 48
1.0
  6
Continuous
100
AcDbSpline
 70
8
 71
3
 72
14
 73
10
 74
0
 40
0.0
 40
0.0
 40
0.0
 40
0.0
 40
0.108206468137464
 40
0.108206468137464
 40
0.108206468137464
 40
0.2048381588921551
 40
0.2048381588921551
 40
0.2048381588921551
 40
1.0
 40
1.0
 40
1.0
 40
1.0
 10
11.40350888416096
 20
-14.7085228609984693
 30
0.0
 10
11.4163807343378103
 20
-14.6827791606448805
 30
0.0
 10
11.4292525845145398
 20
-14.6656166937424608
 30
0.0
 10
11.4507056681425308
 20
-14.6527448435656407
 30
0.0
 10
11.4671109673874998
 20
-14.6429016640187495
 30
0.0
 10
11.4893212186729592
 20
-14.6398729933889094
 30
0.0
 10
11.5150649190265302
 20
-14.6398729933889094
 30
0.0
 10
11.6967010270768608
 20
-14.6398729933889094
 30
0.0
 10
11.87833713512725
 20
-14.6398729933889094
 30
0.0
 10
12.0599732431775806
 20
-14.6398729933889094
 30
0.0
  0
SPLINE
  5
8F
100
AcDbEntity
  8
Default
 62
7
420
16777215
370
-1
 48
1.0
  6
Continuous
100
AcDbSpline
 70
8
 71
3
 72
8
 73
4
 74
0
 40
0.0
 40
0.0
 40
0.0
 40
0.0
 40
1.0
 40
1.0
 40
1.0
 40
1.0
 10
11.3777651838073801
 20
-14.8029164289616197
 30
0.0
 10
11.3820558005329708
 20
-14.7643008784312997
 30
0.0
 10
11.3949276507097998
 20
-14.7342665613520598
 30
0.0
 10
11.40350888416096
 20
-14.7085228609984693
 30
0.0
  0
SPLINE
  5
90
100
AcDbEntity
  8
Default
 62
7
420
16777215
370
-1
 48
1.0
  6
Continuous
100
AcDbSpline
 70
8
 71
3
 72
50
 73
46
 74
0
 40
0.0
 40
0.0
 40
0.0
 40
0.0
 40
0.0220290161964877
 40
0.0220290161964877
 40
0.0440580323929746
 40
0.0440580323929746
 40
0.0440580323929746
 40
0.0842747468256478
 40
0.0842747468256478
 40
0.0842747468256478
 40
0.130504954563765
 40
0.130504954563765
 40
0.2103571315659652
 40
0.2103571315659652
 40
0.2103571315659652
 40
0.2773303248779082
 40
0.2773303248779082
 40
0.2773303248779082
 40
0.3586019089752278
 40
0.3586019089752278
 40
0.439873493072547
 40
0.439873493072547
 40
0.5163074828783593
 40
0.5163074828783593
 40
0.5163074828783593
 40
0.5875392997248551
 40
0.5875392997248551
 40
0.5875392997248551
 40
0.6546781967297305
 40
0.6546781967297305
 40
0.6546781967297305
 40
0.7268611849573996
 40
0.7268611849573996
 40
0.7268611849573996
 40
0.8003391122821036
 40
0.8003391122821036
 40
0.8003391122821036
 40
0.8629202041603691
 40
0.8629202041603691
 40
0.9255012960386347
 40
0.9255012960386347
 40
0.9880823879169004
 40
0.9880823879169004
 40
0.9880823879169004
 40
1.0
 40
1.0
 40
1.0
 40
1.0
 10
18.036802341936589
 20
-18.5786591474884801
 30
0.0
 10
18.02393049175976
 20
-18.5958216143908999
 30
0.0
 10
17.9767337077781804
 20
-18.6215653147444904
 30
0.0
 10
17.8136902722054096
 20
-18.6987964158052193
 30
0.0
 10
17.7150060875166311
 20
-18.7331213496100588
 30
0.0
 10
17.5862875857486891
 20
-18.7674462834148983
 30
0.0
 10
17.4605066431497313
 20
-18.8009878681079385
 30
0.0
 10
17.3159787320359904
 20
-18.8360961510243499
 30
0.0
 10
17.1486446797376288
 20
-18.8661304681035098
 30
0.0
 10
16.9820567028316987
 20
-18.8960308742149188
 30
0.0
 10
16.8053953416897208
 20
-18.9047460186339187
 30
0.0
 10
16.2905213346178783
 20
-18.9047460186339187
 30
0.0
 10
16.007340630728379
 20
-18.8618398513780505
 30
0.0
 10
15.75848486064368
 20
-18.7717369001403505
 30
0.0
 10
15.5134224242422398
 20
-18.6830073973054596
 30
0.0
 10
15.3079701044558192
 20
-18.5443342136836407
 30
0.0
 10
15.1406360521574204
 20
-18.3641283112084999
 30
0.0
 10
14.9754414306647394
 20
-18.1862264111394403
 30
0.0
 10
14.8488741148167094
 20
-17.9608103390022507
 30
0.0
 10
14.6772494457927802
 20
-17.4201926315768105
 30
0.0
 10
14.6343432785367895
 20
-17.1069776106081086
 30
0.0
 10
14.6343432785367895
 20
-16.4076070843355488
 30
0.0
 10
14.6772494457927802
 20
-16.1029732968179893
 30
0.0
 10
14.7673523970303506
 20
-15.82837382637973
 30
0.0
 10
14.8557672832789098
 20
-15.5589189349555603
 30
0.0
 10
14.9818832333102705
 20
-15.3263716694847307
 30
0.0
 10
15.1492172856086302
 20
-15.1375845335583108
 30
0.0
 10
15.3146635658388703
 20
-14.9509271917602007
 30
0.0
 10
15.5139197072845398
 20
-14.8029164289616197
 30
0.0
 10
15.7499036271924702
 20
-14.6999416275473003
 30
0.0
 10
15.9807104491629293
 20
-14.5992259234147106
 30
0.0
 10
16.2476151673618894
 20
-14.5497700421513194
 30
0.0
 10
16.5350864879770114
 20
-14.54547942542575
 30
0.0
 10
16.8481677257961593
 20
-14.5408065711299095
 30
0.0
 10
17.1143197459328498
 20
-14.5969668261329009
 30
0.0
 10
17.3331411989383497
 20
-14.6999416275473003
 30
0.0
 10
17.5503096098060105
 20
-14.8021385267791707
 30
0.0
 10
17.7321685544190508
 20
-14.9359255474551809
 30
0.0
 10
18.0153492583085999
 20
-15.2705936520518701
 30
0.0
 10
18.1183240597229513
 20
-15.4722526381550303
 30
0.0
 10
18.2470425614908898
 20
-15.9270580110684499
 30
0.0
 10
18.2813674952956688
 20
-16.1716231644275901
 30
0.0
 10
18.2813674952956688
 20
-16.4290601679635415
 30
0.0
 10
18.2813674952956688
 20
-16.4733965407947416
 30
0.0
 10
18.2813674952956688
 20
-16.517732913625931
 30
0.0
 10
18.2813674952956688
 20
-16.5620692864571311
 30
0.0
  0
SPLINE
  5
91
100
AcDbEntity
  8
Default
 62
7
420
16777215
370
-1
 48
1.0
  6
Continuous
100
AcDbSpline
 70
8
 71
3
 72
8
 73
4
 74
0
 40
0.0
 40
0.0
 40
0.0
 40
0.0
 40
1.0
 40
1.0
 40
1.0
 40
1.0
 10
18.0797085091925389
 20
-18.5314623635069005
 30
0.0
 10
18.066836659015749
 20
-18.5486248304092385
 30
0.0
 10
18.053964808838959
 20
-18.5657872973116618
 30
0.0
 10
18.036802341936589
 20
-18.5786591474884801
 30
0.0
  0
SPLINE
  5
92
100
AcDbEntity
  8
Default
 62
7
420
16777215
370
-1
 48
1.0
  6
Continuous
100
AcDbSpline
 70
8
 71
3
 72
10
 73
6
 74
0
 40
0.0
 40
0.0
 40
0.0
 40
0.0
 40
0.500000000000029
 40
0.500000000000029
 40
1.0
 40
1.0
 40
1.0
 40
1.0
 10
18.1097428262717415
 20
-18.3941626282877699
 30
0.0
 10
18.1097428262717415
 20
-18.4241969453669299
 30
0.0
 10
18.1054522095461685
 20
-18.4499406457205204
 30
0.0
 10
18.0968709760949586
 20
-18.4928468129764987
 30
0.0
 10
18.0882897426437488
 20
-18.5142998966044807
 30
0.0
 10
18.0797085091925389
 20
-18.5314623635069005
 30
0.0
  0
SPLINE
  5
93
100
AcDbEntity
  8
Default
 62
7
420
16777215
370
-1
 48
1.0
  6
Continuous
100
AcDbSpline
 70
8
 71
3
 72
38
 73
34
 74
0
 40
0.0
 40
0.0
 40
0.0
 40
0.0
 40
0.1375810353797937
 40
0.1375810353797937
 40
0.275162070759588
 40
0.275162070759588
 40
0.275162070759588
 40
0.3996610916951135
 40
0.3996610916951135
 40
0.3996610916951135
 40
0.5553385543396421
 40
0.5553385543396421
 40
0.6798805244552613
 40
0.6798805244552613
 40
0.6798805244552613
 40
0.764763635702043
 40
0.764763635702043
 40
0.8496467469488287
 40
0.8496467469488287
 40
0.8496467469488287
 40
0.8836009114945687
 40
0.8836009114945687
 40
0.9048222643356554
 40
0.9048222643356554
 40
0.9048222643356554
 40
0.9235600539685402
 40
0.9235600539685402
 40
0.9422978436014263
 40
0.9422978436014263
 40
0.9422978436014263
 40
0.9752705044006116
 40
0.9752705044006116
 40
1.0
 40
1.0
 40
1.0
 40
1.0
 10
15.3894918222421797
 20
-16.8795749241513988
 30
0.0
 10
15.3894918222421797
 20
-17.0983963771569698
 30
0.0
 10
15.4152355225957596
 20
-17.2957647465344202
 30
0.0
 10
15.5010478571077499
 20
-17.6475953180335203
 30
0.0
 10
15.5739883414429006
 20
-17.802057520155099
 30
0.0
 10
15.6769631428572591
 20
-17.9264854051975
 30
0.0
 10
15.7820454031572996
 20
-18.0534598030600897
 30
0.0
 10
15.9172376794908104
 20
-18.1495974749286404
 30
0.0
 10
16.0802811150635314
 20
-18.2139567258126398
 30
0.0
 10
16.2485020833417089
 20
-18.2803597396066415
 30
0.0
 10
16.449274153465069
 20
-18.3169315272269309
 30
0.0
 10
16.87404520929935
 20
-18.3169315272269309
 30
0.0
 10
17.045669878323281
 20
-18.3040596770501089
 30
0.0
 10
17.1915508469936391
 20
-18.2697347432453512
 30
0.0
 10
17.3364752191480989
 20
-18.2356348909736994
 30
0.0
 10
17.4661503174319108
 20
-18.2053754923613802
 30
0.0
 10
17.6806811537119017
 20
-18.1281443913006513
 30
0.0
 10
17.7707841049494704
 20
-18.0938194574958118
 30
0.0
 10
17.8394339725590392
 20
-18.0594945236909687
 30
0.0
 10
17.9063675934783895
 20
-18.0260277132314002
 30
0.0
 10
17.9595712408757606
 20
-18.0122977397095099
 30
0.0
 10
18.0153492583085999
 20
-18.0122977397095099
 30
0.0
 10
18.036802341936589
 20
-18.0208789731606487
 30
0.0
 10
18.0496741921133292
 20
-18.0294602066118195
 30
0.0
 10
18.06749675389662
 20
-18.0413419144674094
 30
0.0
 10
18.0797085091925389
 20
-18.0552039069654917
 30
0.0
 10
18.0968709760949586
 20
-18.0981100742214913
 30
0.0
 10
18.1054522095461685
 20
-18.1281443913006513
 30
0.0
 10
18.1097428262717415
 20
-18.1624693251053806
 30
0.0
 10
18.1145615189020504
 20
-18.2010188661477095
 30
0.0
 10
18.1140334429973286
 20
-18.2439910428917891
 30
0.0
 10
18.1140334429973286
 20
-18.3340939941293506
 30
0.0
 10
18.1140334429973286
 20
-18.3684189279341012
 30
0.0
 10
18.1097428262717415
 20
-18.3941626282877699
 30
0.0
  0
SPLINE
  5
94
100
AcDbEntity
  8
Default
 62
7
420
16777215
370
-1
 48
1.0
  6
Continuous
100
AcDbSpline
 70
8
 71
3
 72
14
 73
10
 74
0
 40
0.0
 40
0.0
 40
0.0
 40
0.0
 40
0.0868133505489547
 40
0.0868133505489547
 40
0.0868133505489547
 40
0.1563045239293331
 40
0.1563045239293331
 40
0.1563045239293331
 40
1.0
 40
1.0
 40
1.0
 40
1.0
 10
18.2813674952956688
 20
-16.5620692864571311
 30
0.0
 10
18.2813674952956688
 20
-16.6779159380482689
 30
0.0
 10
18.2556237949420996
 20
-16.7594376558346916
 30
0.0
 10
18.1955551607837407
 20
-16.8066344398161505
 30
0.0
 10
18.1381394000581899
 20
-16.8517468232434489
 30
0.0
 10
18.0711272757413788
 20
-16.8795749241513988
 30
0.0
 10
17.9981867914061802
 20
-16.8795749241513988
 30
0.0
 10
17.1286218016848295
 20
-16.8795749241513988
 30
0.0
 10
16.2590568119634789
 20
-16.8795749241513988
 30
0.0
 10
15.3894918222421797
 20
-16.8795749241513988
 30
0.0
  0
SPLINE
  5
95
100
AcDbEntity
  8
Default
 62
7
420
16777215
370
-1
 48
1.0
  6
Continuous
100
AcDbSpline
 70
8
 71
3
 72
20
 73
16
 74
0
 40
0.0
 40
0.0
 40
0.0
 40
0.0
 40
0.259732496368032
 40
0.259732496368032
 40
0.259732496368032
 40
0.5014983634031775
 40
0.5014983634031775
 40
0.6253296611528867
 40
0.6253296611528867
 40
0.7491609589025957
 40
0.7491609589025957
 40
0.7491609589025957
 40
0.8745804794512972
 40
0.8745804794512972
 40
1.0
 40
1.0
 40
1.0
 40
1.0
 10
17.5562532686695398
 20
-16.3475384501771295
 30
0.0
 10
17.5648345021206893
 20
-15.9613829448732893
 30
0.0
 10
17.4790221676087612
 20
-15.6610397740812992
 30
0.0
 10
17.2988162651336204
 20
-15.4379277043501908
 30
0.0
 10
17.1224016238117294
 20
-15.2195095769993696
 30
0.0
 10
16.8568827423969303
 20
-15.1075502164791509
 30
0.0
 10
16.324846268422661
 20
-15.1075502164791509
 30
0.0
 10
16.1660934495755306
 20
-15.1418751502839104
 30
0.0
 10
15.8914939791372394
 20
-15.2791748855030391
 30
0.0
 10
15.7799379442716692
 20
-15.3692778367407108
 30
0.0
 10
15.6898349930340402
 20
-15.4808338716061709
 30
0.0
 10
15.5959407806432893
 20
-15.5970838488519803
 30
0.0
 10
15.5267915574613191
 20
-15.7296896416910101
 30
0.0
 10
15.4238167560469694
 20
-16.0300328124828617
 30
0.0
 10
15.3980730556933896
 20
-16.1844950146044084
 30
0.0
 10
15.3894918222421797
 20
-16.3475384501771295
 30
0.0
  0
LINE
  5
96
100
AcDbEntity
  8
Default
 62
7
420
16777215
370
-1
 48
1.0
  6
Continuous
100
AcDbLine
 10
15.3894918222000001
 20
-16.3475384501999983
 30
0.0
 11
17.5562532687000008
 21
-16.3475384501999983
 31
0.0
  0
SPLINE
  5
97
100
AcDbEntity
  8
Default
 62
7
420
16777215
370
-1
 48
1.0
  6
Continuous
100
AcDbSpline
 70
8
 71
3
 72
22
 73
18
 74
0
 40
0.0
 40
0.0
 40
0.0
 40
0.0
 40
0.2472839702974165
 40
0.2472839702974165
 40
0.494567940594833
 40
0.494567940594833
 40
0.494567940594833
 40
0.6404085923937981
 40
0.6404085923937981
 40
0.6404085923937981
 40
0.7653574113223063
 40
0.7653574113223063
 40
0.7653574113223063
 40
0.8815024771077752
 40
0.8815024771077752
 40
0.8815024771077752
 40
1.0
 40
1.0
 40
1.0
 40
1.0
 10
20.0276485026143405
 20
-15.2705936520518701
 30
0.0
 10
20.2507605723455306
 20
-15.0217378819671694
 30
0.0
 10
20.4652914086254505
 20
-14.8372413627664592
 30
0.0
 10
20.885771847734091
 20
-14.60554805958418
 30
0.0
 10
21.1003026840140713
 20
-14.5497700421513194
 30
0.0
 10
21.3105429035683613
 20
-14.54547942542575
 30
0.0
 10
21.4777197642464905
 20
-14.5420676527588206
 30
0.0
 10
21.6237579245370597
 20
-14.5669325090536308
 30
0.0
 10
21.7524764263050514
 20
-14.60554805958418
 30
0.0
 10
21.8851312736928314
 20
-14.6453445138004099
 30
0.0
 10
22.0013321963897717
 20
-14.6956510108216207
 30
0.0
 10
22.1000163810785502
 20
-14.7643008784312997
 30
0.0
 10
22.2007119631622487
 20
-14.8343499790112503
 30
0.0
 10
22.2845129002793207
 20
-14.9187630805527593
 30
0.0
 10
22.3531627678888896
 20
-15.0131566485159205
 30
0.0
 10
22.4232969569603107
 20
-15.1095911584891098
 30
0.0
 10
22.4818812696568813
 20
-15.2148156346191605
 30
0.0
 10
22.5290780536384005
 20
-15.3306622862103001
 30
0.0
  0
SPLINE
  5
98
100
AcDbEntity
  8
Default
 62
7
420
16777215
370
-1
 48
1.0
  6
Continuous
100
AcDbSpline
 70
8
 71
3
 72
30
 73
26
 74
0
 40
0.0
 40
0.0
 40
0.0
 40
0.0
 40
0.0720050075434957
 40
0.0720050075434957
 40
0.1440100150869913
 40
0.1440100150869913
 40
0.1440100150869913
 40
0.1974381995810927
 40
0.1974381995810927
 40
0.1974381995810927
 40
0.2457308085199951
 40
0.2457308085199951
 40
0.2457308085199951
 40
0.3471657317112835
 40
0.3471657317112835
 40
0.3471657317112835
 40
0.4335375116521374
 40
0.4335375116521374
 40
0.51990929159299
 40
0.51990929159299
 40
0.51990929159299
 40
0.6174647077091989
 40
0.6174647077091989
 40
0.6174647077091989
 40
1.0
 40
1.0
 40
1.0
 40
1.0
 10
22.5290780536384005
 20
-15.3306622862103001
 30
0.0
 10
22.6620871721319617
 20
-15.18907193426557
 30
0.0
 10
22.7865150571743094
 20
-15.0646440492231797
 30
0.0
 10
23.0267895938078802
 20
-14.8672756798456192
 30
0.0
 10
23.1383456286734308
 20
-14.7857539620592
 30
0.0
 10
23.2499016635390099
 20
-14.7256853279008908
 30
0.0
 10
23.3581314863558305
 20
-14.6674077309994306
 30
0.0
 10
23.4644324998189298
 20
-14.61841990976089
 30
0.0
 10
23.5716979179588684
 20
-14.5883855926816501
 30
0.0
 10
23.67387061594982
 20
-14.5597772372442495
 30
0.0
 10
23.7776475207876388
 20
-14.5497700421513194
 30
0.0
 10
23.8849129389275703
 20
-14.54547942542575
 30
0.0
 10
24.1417673507355808
 20
-14.5352052489533907
 30
0.0
 10
24.3525901620178296
 20
-14.5926762094073297
 30
0.0
 10
24.5285054477674009
 20
-14.6827791606448805
 30
0.0
 10
24.7010218048101997
 20
-14.7711411971789595
 30
0.0
 10
24.8417204687360993
 20
-14.8930193801992896
 30
0.0
 10
25.0562513050160298
 20
-15.1933625509910506
 30
0.0
 10
25.1291917893512391
 20
-15.3692778367407108
 30
0.0
 10
25.176388573332801
 20
-15.5666462061181807
 30
0.0
 10
25.2245558767883296
 20
-15.7680731114775803
 30
0.0
 10
25.2450384409423805
 20
-15.9828360285012803
 30
0.0
 10
25.2450384409423805
 20
-16.2016574815068601
 30
0.0
 10
25.2450384409423805
 20
-17.0383277429985505
 30
0.0
 10
25.2450384409423805
 20
-17.8749980044902408
 30
0.0
 10
25.2450384409423805
 20
-18.7116682659820697
 30
0.0
  0
SPLINE
  5
99
100
AcDbEntity
  8
Default
 62
7
420
16777215
370
-1
 48
1.0
  6
Continuous
100
AcDbSpline
 70
8
 71
3
 72
10
 73
6
 74
0
 40
0.0
 40
0.0
 40
0.0
 40
0.0
 40
0.4999999999999441
 40
0.4999999999999441
 40
1.0
 40
1.0
 40
1.0
 40
1.0
 10
25.2450384409423805
 20
-18.7116682659820697
 30
0.0
 10
25.2450384409423805
 20
-18.7331213496100588
 30
0.0
 10
25.2407478242168004
 20
-18.7545744332380515
 30
0.0
 10
25.2150041238632205
 20
-18.7888993670427702
 30
0.0
 10
25.1978416569608008
 20
-18.8017712172195104
 30
0.0
 10
25.1678073398816515
 20
-18.8103524506707913
 30
0.0
  0
SPLINE
  5
9A
100
AcDbEntity
  8
Default
 62
7
420
16777215
370
-1
 48
1.0
  6
Continuous
100
AcDbSpline
 70
8
 71
3
 72
19
 73
15
 74
0
 40
0.0
 40
0.0
 40
0.0
 40
0.0
 40
0.1702343298161218
 40
0.1702343298161218
 40
0.1702343298161218
 40
0.4357276672977835
 40
0.4357276672977835
 40
0.717814338372003
 40
0.717814338372003
 40
0.717814338372003
 40
0.8938797424747615
 40
0.8938797424747615
 40
0.8938797424747615
 40
1.0
 40
1.0
 40
1.0
 40
1.0
 10
25.1678073398816515
 20
-18.8103524506707913
 30
0.0
 10
25.1420636395280184
 20
-18.8232243008476097
 30
0.0
 10
25.1077387057232393
 20
-18.8318055342987805
 30
0.0
 10
25.0605419217416596
 20
-18.8360961510243499
 30
0.0
 10
25.0129582788749296
 20
-18.8404219367395491
 30
0.0
 10
24.9532765036016713
 20
-18.8446773844755207
 30
0.0
 10
24.8116861516569607
 20
-18.8446773844755207
 30
0.0
 10
24.7516175174985307
 20
-18.8446773844755207
 30
0.0
 10
24.704420733516951
 20
-18.8360961510243499
 30
0.0
 10
24.6621324150694612
 20
-18.82840736585214
 30
0.0
 10
24.6228990157305994
 20
-18.8232243008476097
 30
0.0
 10
24.5928646986514003
 20
-18.8103524506707913
 30
0.0
 10
24.5680087121030688
 20
-18.799699885007211
 30
0.0
 10
24.5456679146698207
 20
-18.7888993670427702
 30
0.0
 10
24.5370866812186108
 20
-18.7717369001403505
 30
0.0
  0
SPLINE
  5
9B
100
AcDbEntity
  8
Default
 62
7
420
16777215
370
-1
 48
1.0
  6
Continuous
100
AcDbSpline
 70
8
 71
3
 72
25
 73
21
 74
0
 40
0.0
 40
0.0
 40
0.0
 40
0.0
 40
0.0118470155788643
 40
0.0118470155788643
 40
0.0118470155788643
 40
0.4603533122807457
 40
0.4603533122807457
 40
0.4603533122807457
 40
0.5338712162983021
 40
0.5338712162983021
 40
0.6073891203158575
 40
0.6809070243334144
 40
0.6809070243334144
 40
0.6809070243334144
 40
0.7564692868153728
 40
0.7564692868153728
 40
0.851531488002346
 40
0.851531488002346
 40
0.851531488002346
 40
1.0
 40
1.0
 40
1.0
 40
1.0
 10
24.5370866812186108
 20
-18.7717369001403505
 30
0.0
 10
24.5242148310418209
 20
-18.7545744332380515
 30
0.0
 10
24.5199242143162515
 20
-18.7331213496100588
 30
0.0
 10
24.5199242143162515
 20
-18.7116682659820697
 30
0.0
 10
24.5199242143162515
 20
-17.9093229382950803
 30
0.0
 10
24.5199242143162515
 20
-17.1069776106081086
 30
0.0
 10
24.5199242143162515
 20
-16.3046322829211512
 30
0.0
 10
24.5199242143162515
 20
-16.1372982306228607
 30
0.0
 10
24.5027617474138317
 20
-15.9871266452268497
 30
0.0
 10
24.4426931132554017
 20
-15.7125271747885904
 30
0.0
 10
24.3482995452922601
 20
-15.4722526381550303
 30
0.0
 10
24.1852561097195498
 20
-15.3177904360334498
 30
0.0
 10
24.0865719250307109
 20
-15.2620124186007295
 30
0.0
 10
23.9897256979364393
 20
-15.2072732467647693
 30
0.0
 10
23.8677504720252109
 20
-15.1847813175398905
 30
0.0
 10
23.5674073012332883
 20
-15.1847813175398905
 30
0.0
 10
23.4000732489349303
 20
-15.2491405684238792
 30
0.0
 10
23.2284485799109994
 20
-15.3778590701918692
 30
0.0
 10
23.0595699055914309
 20
-15.5045180759314896
 30
0.0
 10
22.8723273916863086
 20
-15.6953647078861405
 30
0.0
 10
22.6706684055831715
 20
-15.9442204779708696
 30
0.0
  0
SPLINE
  5
9C
100
AcDbEntity
  8
Default
 62
7
420
16777215
370
-1
 48
1.0
  6
Continuous
100
AcDbSpline
 70
8
 71
3
 72
13
 73
9
 74
0
 40
0.0
 40
0.0
 40
0.0
 40
0.0
 40
0.9530315738743744
 40
0.9530315738743744
 40
0.9530315738743744
 40
0.9765157869371904
 40
0.9765157869371904
 40
1.0
 40
1.0
 40
1.0
 40
1.0
 10
22.6706684055831715
 20
-15.9442204779708696
 30
0.0
 10
22.6706684055831715
 20
-16.8667030739745485
 30
0.0
 10
22.6706684055831715
 20
-17.7891856699783695
 30
0.0
 10
22.6706684055831715
 20
-18.7116682659820697
 30
0.0
 10
22.6706684055831715
 20
-18.7331213496100588
 30
0.0
 10
22.6663777888575915
 20
-18.7545744332380515
 30
0.0
 10
22.6406340885040187
 20
-18.7888993670427702
 30
0.0
 10
22.623471621601599
 20
-18.8017712172195104
 30
0.0
 10
22.5934373045223786
 20
-18.8103524506707913
 30
0.0
  0
SPLINE
  5
9D
100
AcDbEntity
  8
Default
 62
7
420
16777215
370
-1
 48
1.0
  6
Continuous
100
AcDbSpline
 70
8
 71
3
 72
16
 73
12
 74
0
 40
0.0
 40
0.0
 40
0.0
 40
0.0
 40
0.1976171793296708
 40
0.1976171793296708
 40
0.1976171793296708
 40
0.4966168902408074
 40
0.4966168902408074
 40
0.7956166011518864
 40
0.7956166011518864
 40
0.7956166011518864
 40
1.0
 40
1.0
 40
1.0
 40
1.0
 10
22.5934373045223786
 20
-18.8103524506707913
 30
0.0
 10
22.5676936041688094
 20
-18.8232243008476097
 30
0.0
 10
22.5290780536384005
 20
-18.8318055342987805
 30
0.0
 10
22.4818812696568813
 20
-18.8360961510243499
 30
0.0
 10
22.4342976267901513
 20
-18.8404219367395491
 30
0.0
 10
22.3746158515168894
 20
-18.8446773844755207
 30
0.0
 10
22.2373161162977517
 20
-18.8446773844755207
 30
0.0
 10
22.1815380988649089
 20
-18.8446773844755207
 30
0.0
 10
22.1343413148833292
 20
-18.8360961510243499
 30
0.0
 10
22.0837463624550701
 20
-18.8268970687646515
 30
0.0
 10
22.0442383636457606
 20
-18.8232243008476097
 30
0.0
 10
22.0184946632921914
 20
-18.8103524506707913
 30
0.0
  0
SPLINE
  5
9E
100
AcDbEntity
  8
Default
 62
7
420
16777215
370
-1
 48
1.0
  6
Continuous
100
AcDbSpline
 70
8
 71
3
 72
8
 73
4
 74
0
 40
0.0
 40
0.0
 40
0.0
 40
0.0
 40
1.0
 40
1.0
 40
1.0
 40
1.0
 10
22.0184946632921914
 20
-18.8103524506707913
 30
0.0
 10
21.9884603462129711
 20
-18.8017712172195104
 30
0.0
 10
21.9712978793106117
 20
-18.7888993670427702
 30
0.0
 10
21.9584260291337792
 20
-18.7717369001403505
 30
0.0
  0
SPLINE
  5
9F
100
AcDbEntity
  8
Default
 62
7
420
16777215
370
-1
 48
1.0
  6
Continuous
100
AcDbSpline
 70
8
 71
3
 72
26
 73
22
 74
0
 40
0.0
 40
0.0
 40
0.0
 40
0.0
 40
0.01155357865746
 40
0.01155357865746
 40
0.01155357865746
 40
0.4603574830326552
 40
0.4603574830326552
 40
0.4603574830326552
 40
0.5457797391849819
 40
0.5457797391849819
 40
0.5457797391849819
 40
0.6136071491803848
 40
0.681434559175783
 40
0.681434559175783
 40
0.681434559175783
 40
0.7591601331686726
 40
0.7591601331686726
 40
0.8514592522852255
 40
0.8514592522852255
 40
0.8514592522852255
 40
1.0
 40
1.0
 40
1.0
 40
1.0
 10
21.9584260291337792
 20
-18.7717369001403505
 30
0.0
 10
21.9498447956826084
 20
-18.7545744332380515
 30
0.0
 10
21.9455541789569786
 20
-18.7331213496100588
 30
0.0
 10
21.9455541789569786
 20
-18.7116682659820697
 30
0.0
 10
21.9455541789569786
 20
-17.9093229382950803
 30
0.0
 10
21.9455541789569786
 20
-17.1069776106081086
 30
0.0
 10
21.9455541789569786
 20
-16.3046322829211512
 30
0.0
 10
21.9455541789569786
 20
-16.1372982306228607
 30
0.0
 10
21.9283917120546192
 20
-15.9871266452268497
 30
0.0
 10
21.8983573949754096
 20
-15.8498269100077191
 30
0.0
 10
21.8681271410653295
 20
-15.7116314635616199
 30
0.0
 10
21.7696388932074107
 20
-15.4722526381550303
 30
0.0
 10
21.6065954576347004
 20
-15.3177904360334498
 30
0.0
 10
21.5079112729459183
 20
-15.2620124186007295
 30
0.0
 10
21.4110650458516609
 20
-15.2072732467647693
 30
0.0
 10
21.2933804366659416
 20
-15.1847813175398905
 30
0.0
 10
20.9930372658740794
 20
-15.1847813175398905
 30
0.0
 10
20.8214125968500987
 20
-15.2491405684238792
 30
0.0
 10
20.6540785445517905
 20
-15.3778590701918692
 30
0.0
 10
20.4840489003329402
 20
-15.5086511042064199
 30
0.0
 10
20.2979573563270996
 20
-15.6953647078861405
 30
0.0
 10
20.096298370223959
 20
-15.9442204779708696
 30
0.0
  0
SPLINE
  5
A0
100
AcDbEntity
  8
Default
 62
7
420
16777215
370
-1
 48
1.0
  6
Continuous
100
AcDbSpline
 70
8
 71
3
 72
11
 73
7
 74
0
 40
0.0
 40
0.0
 40
0.0
 40
0.0
 40
0.977541600146736
 40
0.977541600146736
 40
0.977541600146736
 40
1.0
 40
1.0
 40
1.0
 40
1.0
 10
20.096298370223959
 20
-15.9442204779708696
 30
0.0
 10
20.096298370223959
 20
-16.8667030739745485
 30
0.0
 10
20.096298370223959
 20
-17.7891856699783695
 30
0.0
 10
20.096298370223959
 20
-18.7116682659820697
 30
0.0
 10
20.096298370223959
 20
-18.7331213496100588
 30
0.0
 10
20.0920077534983399
 20
-18.7545744332380515
 30
0.0
 10
20.0791359033215393
 20
-18.7717369001403505
 30
0.0
  0
SPLINE
  5
A1
100
AcDbEntity
  8
Default
 62
7
420
16777215
370
-1
 48
1.0
  6
Continuous
100
AcDbSpline
 70
8
 71
3
 72
8
 73
4
 74
0
 40
0.0
 40
0.0
 40
0.0
 40
0.0
 40
1.0
 40
1.0
 40
1.0
 40
1.0
 10
20.0791359033215393
 20
-18.7717369001403505
 30
0.0
 10
20.0705546698703294
 20
-18.7888993670427702
 30
0.0
 10
20.04910158624239
 20
-18.8017712172195104
 30
0.0
 10
20.0233578858887604
 20
-18.8103524506707913
 30
0.0
  0
SPLINE
  5
A2
100
AcDbEntity
  8
Default
 62
7
420
16777215
370
-1
 48
1.0
  6
Continuous
100
AcDbSpline
 70
8
 71
3
 72
19
 73
15
 74
0
 40
0.0
 40
0.0
 40
0.0
 40
0.0
 40
0.1684764435560011
 40
0.1684764435560011
 40
0.1684764435560011
 40
0.4510036412985083
 40
0.4510036412985083
 40
0.716911592115041
 40
0.716911592115041
 40
0.716911592115041
 40
0.8911706727703507
 40
0.8911706727703507
 40
0.8911706727703507
 40
1.0
 40
1.0
 40
1.0
 40
1.0
 10
20.0233578858887604
 20
-18.8103524506707913
 30
0.0
 10
19.9976141855351806
 20
-18.8232243008476097
 30
0.0
 10
19.9632892517304015
 20
-18.8318055342987805
 30
0.0
 10
19.9160924677488289
 20
-18.8360961510243499
 30
0.0
 10
19.8642533771460812
 20
-18.8408087956246995
 30
0.0
 10
19.8045364328832498
 20
-18.8446773844755207
 30
0.0
 10
19.6629460809384788
 20
-18.8446773844755207
 30
0.0
 10
19.6028774467800702
 20
-18.8446773844755207
 30
0.0
 10
19.5556806627985509
 20
-18.8360961510243499
 30
0.0
 10
19.5092390273606107
 20
-18.8276522173084402
 30
0.0
 10
19.4741589450121388
 20
-18.8232243008476097
 30
0.0
 10
19.4441246279329789
 20
-18.8103524506707913
 30
0.0
 10
19.4192686413846509
 20
-18.799699885007211
 30
0.0
 10
19.3969278439513495
 20
-18.7846087503172008
 30
0.0
 10
19.3883466105001396
 20
-18.7674462834148983
 30
0.0
  0
SPLINE
  5
A3
100
AcDbEntity
  8
Default
 62
7
420
16777215
370
-1
 48
1.0
  6
Continuous
100
AcDbSpline
 70
8
 71
3
 72
24
 73
20
 74
0
 40
0.0
 40
0.0
 40
0.0
 40
0.0
 40
0.0127486455205198
 40
0.0127486455205198
 40
0.0127486455205198
 40
0.8585853957338803
 40
0.8585853957338803
 40
0.8585853957338803
 40
0.8726413896505093
 40
0.8726413896505093
 40
0.886697383567139
 40
0.886697383567139
 40
0.886697383567139
 40
0.9159367684530439
 40
0.9159367684530439
 40
0.9451761533389466
 40
0.9451761533389466
 40
0.9725880766694724
 40
1.0
 40
1.0
 40
1.0
 40
1.0
 10
19.3883466105001396
 20
-18.7674462834148983
 30
0.0
 10
19.3754747603233604
 20
-18.7545744332380515
 30
0.0
 10
19.3711841435977696
 20
-18.7331213496100588
 30
0.0
 10
19.3711841435977696
 20
-18.7116682659820697
 30
0.0
 10
19.3711841435977696
 20
-17.3887281089224608
 30
0.0
 10
19.3711841435977696
 20
-16.065787951862891
 30
0.0
 10
19.3711841435977696
 20
-14.7428477948033105
 30
0.0
 10
19.3711841435977696
 20
-14.7213947111753196
 30
0.0
 10
19.3754747603233604
 20
-14.7042322442728999
 30
0.0
 10
19.3926372272257801
 20
-14.6699073104680604
 30
0.0
 10
19.4097996941281394
 20
-14.6570354602913309
 30
0.0
 10
19.4398340112073384
 20
-14.6398729933889094
 30
0.0
 10
19.4647855977039086
 20
-14.6256149439623506
 30
0.0
 10
19.4956120286401209
 20
-14.61841990976089
 30
0.0
 10
19.5814243631521201
 20
-14.6098386763096393
 30
0.0
 10
19.6329117638592692
 20
-14.6098386763096393
 30
0.0
 10
19.7659208823528303
 20
-14.6098386763096393
 30
0.0
 10
19.8774769172183987
 20
-14.6098386763096393
 30
0.0
 10
19.9375455513768287
 20
-14.6270011432120608
 30
0.0
 10
19.9632892517304015
 20
-14.6398729933889094
 30
0.0
  0
SPLINE
  5
A4
100
AcDbEntity
  8
Default
 62
7
420
16777215
370
-1
 48
1.0
  6
Continuous
100
AcDbSpline
 70
8
 71
3
 72
8
 73
4
 74
0
 40
0.0
 40
0.0
 40
0.0
 40
0.0
 40
1.0
 40
1.0
 40
1.0
 40
1.0
 10
19.9632892517304015
 20
-14.6398729933889094
 30
0.0
 10
19.9847423353583906
 20
-14.6570354602913309
 30
0.0
 10
20.00190480226075
 20
-14.6699073104680604
 30
0.0
 10
20.0104860357119598
 20
-14.6870697773704801
 30
0.0
  0
SPLINE
  5
A5
100
AcDbEntity
  8
Default
 62
7
420
16777215
370
-1
 48
1.0
  6
Continuous
100
AcDbSpline
 70
8
 71
3
 72
11
 73
7
 74
0
 40
0.0
 40
0.0
 40
0.0
 40
0.0
 40
0.1013272247946982
 40
0.1013272247946982
 40
0.1013272247946982
 40
1.0
 40
1.0
 40
1.0
 40
1.0
 10
20.0104860357119598
 20
-14.6870697773704801
 30
0.0
 10
20.0233578858887604
 20
-14.7042322442728999
 30
0.0
 10
20.0276485026143405
 20
-14.7213947111753196
 30
0.0
 10
20.0276485026143405
 20
-14.7428477948033105
 30
0.0
 10
20.0276485026143405
 20
-14.9187630805527593
 30
0.0
 10
20.0276485026143405
 20
-15.0946783663024497
 30
0.0
 10
20.0276485026143405
 20
-15.2705936520518701
 30
0.0
  0
LINE
  5
A6
100
AcDbEntity
  8
Default
 62
7
420
16777215
370
-1
 48
1.0
  6
Continuous
100
AcDbLine
 10
1.008
 20
0.0
 30
0.0
 11
16.6319995302000017
 21
0.0
 31
0.0
  0
ARC
  5
A7
100
AcDbEntity
  8
Default
 62
7
420
16777215
370
-1
 48
1.0
  6
Continuous
100
AcDbCircle
 10
1.008
 20
-1.008
 30
0.0
 40
1.008
100
AcDbArc
 50
90.0
 51
180.0
  0
LINE
  5
A8
100
AcDbEntity
  8
Default
 62
7
420
16777215
370
-1
 48
1.0
  6
Continuous
100
AcDbLine
 10
0.0
 20
-10.7352000000000007
 30
0.0
 11
0.0
 21
-1.008
 31
0.0
  0
ARC
  5
A9
100
AcDbEntity
  8
Default
 62
7
420
16777215
370
-1
 48
1.0
  6
Continuous
100
AcDbCircle
 10
1.008
 20
-10.7352000000000007
 30
0.0
 40
1.007999999987915
100
AcDbArc
 50
180.0
 51
270.0
  0
LINE
  5
AA
100
AcDbEntity
  8
Default
 62
7
420
16777215
370
-1
 48
1.0
  6
Continuous
100
AcDbLine
 10
1.008
 20
-11.7431999999999999
 30
0.0
 11
16.5304978588999987
 21
-11.7431999999999999
 31
0.0
  0
SPLINE
  5
AB
100
AcDbEntity
  8
Default
 62
7
420
16777215
370
-1
 48
1.0
  6
Continuous
100
AcDbSpline
 70
8
 71
3
 72
33
 73
29
 74
0
 40
0.0
 40
0.0
 40
0.0
 40
0.0
 40
0.0040165824207159
 40
0.0040165824207159
 40
0.0704158776400482
 40
0.0704158776400482
 40
0.1368151728593806
 40
0.1368151728593806
 40
0.2032144680787131
 40
0.2032144680787131
 40
0.2696137632980455
 40
0.2696137632980455
 40
0.3360130585173778
 40
0.3360130585173778
 40
0.4024123537367105
 40
0.4024123537367105
 40
0.4688116489560425
 40
0.4688116489560425
 40
0.5352109441753751
 40
0.5352109441753751
 40
0.6016102393947077
 40
0.6016102393947077
 40
0.6680095346140399
 40
0.6680095346140399
 40
0.7344088298333724
 40
0.7344088298333724
 40
0.7344088298333724
 40
1.0
 40
1.0
 40
1.0
 40
1.0
 10
16.5304978589322786
 20
-11.7431999999879793
 30
0.0
 10
16.5643238022687918
 20
-11.7439211935528594
 30
0.0
 10
16.5981611983266788
 20
-11.7442839330459794
 30
0.0
 10
17.1913990977462383
 20
-11.7442839330459794
 30
0.0
 10
17.7504140638637899
 20
-11.6451531778317907
 30
0.0
 10
18.7768954899920999
 20
-11.2873509179008202
 30
0.0
 10
19.2443619500028298
 20
-11.0286794131837702
 30
0.0
 10
20.0518665873331905
 20
-10.4273651382869392
 30
0.0
 10
20.3918794925423903
 20
-10.0846869075635102
 30
0.0
 10
20.9537394707158207
 20
-9.3763442965746719
 30
0.0
 10
21.1755865436800015
 20
-9.0106799163094706
 30
0.0
 10
21.5251530122600307
 20
-8.2943211565695094
 30
0.0
 10
21.6752333194052191
 20
-7.8974971494860986
 30
0.0
 10
21.8957545545495016
 20
-7.0349670035164991
 30
0.0
 10
21.9661954825485708
 20
-6.5692608646300812
 30
0.0
 10
21.9977791237977804
 20
-5.5958830423159904
 30
0.0
 10
21.958932856981729
 20
-5.0882074732110709
 30
0.0
 10
21.7519936498184308
 20
-4.0742602794412619
 30
0.0
 10
21.5839007094712407
 20
-3.5679886547762858
 30
0.0
 10
21.1171229725923091
 20
-2.6131977336203822
 30
0.0
 10
20.819419408887871
 20
-2.1635446452561671
 30
0.0
 10
20.1188409328190012
 20
-1.374898725330723
 30
0.0
 10
19.7159660204546014
 20
-1.0359058937693819
 30
0.0
 10
18.8573917180428907
 20
-0.5004837773832378
 30
0.0
 10
18.401666690474201
 20
-0.3040458403933712
 30
0.0
 10
17.95006169938938
 20
-0.179050464345778
 30
0.0
 10
17.4984565394236
 20
-0.0540550415555572
 30
0.0
 10
17.0507524438755986
 20
0.0000000404285174
 30
0.0
 10
16.6319995302132106
 20
-0.0000000000000284
 30
0.0
  0
LINE
  5
AC
100
AcDbEntity
  8
Default
 62
7
420
16777215
370
-1
 48
1.0
  6
Continuous
100
AcDbLine
 10
2.52
 20
-2.5200000060000001
 30
0.0
 11
16.6320000000000014
 21
-2.5200000060000001
 31
0.0
  0
ELLIPSE
  5
AD
100
AcDbEntity
  8
Default
 62
7
420
16777215
370
-1
 48
1.0
  6
Continuous
100
AcDbEllipse
 10
16.6320000000000014
 20
-5.8716000030000002
 30
0.0
 11
0.0
 21
3.3515999969942749
 31
0.0
 40
0.8453633744
 41
3.1415926535897931
 42
6.2831853071795862
  0
LINE
  5
AE
100
AcDbEntity
  8
Default
 62
7
420
16777215
370
-1
 48
1.0
  6
Continuous
100
AcDbLine
 10
2.52
 20
-9.2232000000000003
 30
0.0
 11
16.6320000000000014
 21
-9.2232000000000003
 31
0.0
  0
LINE
  5
AF
100
AcDbEntity
  8
Default
 62
7
420
16777215
370
-1
 48
1.0
  6
Continuous
100
AcDbLine
 10
2.52
 20
-9.2232000000000003
 30
0.0
 11
2.52
 21
-2.5200000060000001
 31
0.0
  0
LINE
  5
B0
100
AcDbEntity
  8
Default
 62
7
420
16777215
370
-1
 48
1.0
  6
Continuous
100
AcDbLine
 10
28.7270387931999984
 20
-10.5078806057000005
 30
0.0
 11
21.9881290557
 21
-2.0448771560000001
 31
0.0
  0
ARC
  5
B1
100
AcDbEntity
  8
Default
 62
7
420
16777215
370
-1
 48
1.0
  6
Continuous
100
AcDbCircle
 10
31.2898104697000008
 20
-8.4672000000000001
 30
0.0
 40
3.2760000000000029
100
AcDbArc
 50
218.5295644940999864
 51
321.4704355059000136
  0
LINE
  5
B2
100
AcDbEntity
  8
Default
 62
7
420
16777215
370
-1
 48
1.0
  6
Continuous
100
AcDbLine
 10
33.8525821460999978
 20
-10.5078806057000005
 30
0.0
 11
40.5914918837000016
 21
-2.0448771560000001
 31
0.0
  0
ARC
  5
B3
100
AcDbEntity
  8
Default
 62
7
420
16777215
370
-1
 48
1.0
  6
Continuous
100
AcDbCircle
 10
39.6058104697000033
 20
-1.26
 30
0.0
 40
1.2600000000000009
100
AcDbArc
 50
321.4704355059000136
 51
141.4704355059000136
  0
LINE
  5
B4
100
AcDbEntity
  8
Default
 62
7
420
16777215
370
-1
 48
1.0
  6
Continuous
100
AcDbLine
 10
31.8812193181000012
 20
-8.9381262935999999
 30
0.0
 11
38.6201290556999979
 21
-0.475122844
 31
0.0
  0
ARC
  5
B5
100
AcDbEntity
  8
Default
 62
7
420
16777215
370
-1
 48
1.0
  6
Continuous
100
AcDbCircle
 10
31.2898104697000008
 20
-8.4672000000000001
 30
0.0
 40
0.7560000000000007
100
AcDbArc
 50
218.5295644940999864
 51
321.4704355059000136
  0
LINE
  5
B6
100
AcDbEntity
  8
Default
 62
7
420
16777215
370
-1
 48
1.0
  6
Continuous
100
AcDbLine
 10
30.6984016213000004
 20
-8.9381262935999999
 30
0.0
 11
23.9594918837000002
 21
-0.475122844
 31
0.0
  0
ARC
  5
B7
100
AcDbEntity
  8
Default
 62
7
420
16777215
370
-1
 48
1.0
  6
Continuous
100
AcDbCircle
 10
22.9738104696999983
 20
-1.26
 30
0.0
 40
1.2600000000000009
100
AcDbArc
 50
38.5295644941000077
 51
218.5295644940999864
  0
LINE
  5
B8
100
AcDbEntity
  8
Default
 62
7
420
16777215
370
-1
 48
1.0
  6
Continuous
100
AcDbLine
 10
44.6791635140000025
 20
-7.1315999999999997
 30
0.0
 11
50.2231635139999995
 21
-7.1315999999999997
 31
0.0
  0
ARC
  5
B9
100
AcDbEntity
  8
Default
 62
7
420
16777215
370
-1
 48
1.0
  6
Continuous
100
AcDbCircle
 10
50.2231635139999995
 20
-22.7465803278999985
 30
0.0
 40
15.6149803278854495
100
AcDbArc
 50
46.6120936766999989
 51
90.0
  0
ARC
  5
BA
100
AcDbEntity
  8
Default
 62
7
420
16777215
370
-1
 48
1.0
  6
Continuous
100
AcDbCircle
 10
61.8151635139999982
 20
-10.4832000000000001
 30
0.0
 40
1.2600000000000009
100
AcDbArc
 50
226.6120936766999989
 51
46.6120936766999989
  0
ARC
  5
BB
100
AcDbEntity
  8
Default
 62
7
420
16777215
370
-1
 48
1.0
  6
Continuous
100
AcDbCircle
 10
50.2231635139999995
 20
-22.7465803278999985
 30
0.0
 40
18.1349803278854615
100
AcDbArc
 50
46.6120936766999989
 51
68.516178077899994
  0
ARC
  5
BC
100
AcDbEntity
  8
Default
 62
7
420
16777215
370
-1
 48
1.0
  6
Continuous
100
AcDbCircle
 10
50.2231635139999995
 20
11.0033803279000004
 30
0.0
 40
18.1349803278854509
100
AcDbArc
 50
291.4838219220999918
 51
313.3879063232000135
  0
ARC
  5
BD
100
AcDbEntity
  8
Default
 62
7
420
16777215
370
-1
 48
1.0
  6
Continuous
100
AcDbCircle
 10
61.8151635139999982
 20
-1.26
 30
0.0
 40
1.2600000000000009
100
AcDbArc
 50
313.3879063225999744
 51
133.3879063233000011
  0
ARC
  5
BE
100
AcDbEntity
  8
Default
 62
7
420
16777215
370
-1
 48
1.0
  6
Continuous
100
AcDbCircle
 10
50.2231635139999995
 20
11.0033803279000004
 30
0.0
 40
15.6149803278854495
100
AcDbArc
 50
270.0
 51
313.3879063233000011
  0
LINE
  5
BF
100
AcDbEntity
  8
Default
 62
7
420
16777215
370
-1
 48
1.0
  6
Continuous
100
AcDbLine
 10
44.6791635140000025
 20
-4.6116000000000001
 30
0.0
 11
50.2231635139999995
 21
-4.6116000000000001
 31
0.0
  0
LINE
  5
C0
100
AcDbEntity
  8
Default
 62
7
420
16777215
370
-1
 48
1.0
  6
Continuous
100
AcDbLine
 10
44.6791635140000025
 20
-1.26
 30
0.0
 11
44.6791635140000025
 21
-4.6116000000000001
 31
0.0
  0
ARC
  5
C1
100
AcDbEntity
  8
Default
 62
7
420
16777215
370
-1
 48
1.0
  6
Continuous
100
AcDbCircle
 10
43.4191635139999974
 20
-1.26
 30
0.0
 40
1.2600000000000009
100
AcDbArc
 50
0.0
 51
180.0
  0
LINE
  5
C2
100
AcDbEntity
  8
Default
 62
7
420
16777215
370
-1
 48
1.0
  6
Continuous
100
AcDbLine
 10
42.1591635139999994
 20
-1.26
 30
0.0
 11
42.1591635139999994
 21
-10.4832000000000001
 31
0.0
  0
ARC
  5
C3
100
AcDbEntity
  8
Default
 62
7
420
16777215
370
-1
 48
1.0
  6
Continuous
100
AcDbCircle
 10
43.4191635139999974
 20
-10.4832000000000001
 30
0.0
 40
1.2600000000000009
100
AcDbArc
 50
180.0
 51
0.0
  0
LINE
  5
C4
100
AcDbEntity
  8
Default
 62
7
420
16777215
370
-1
 48
1.0
  6
Continuous
100
AcDbLine
 10
44.6791635140000025
 20
-7.1315999999999997
 30
0.0
 11
44.6791635140000025
 21
-10.4832000000000001
 31
0.0
  0
ENDBLK
  5
C5
100
AcDbEntity
  8
0
100
AcDbBlockEnd
  0
BLOCK
  5
C6
100
AcDbEntity
  8
0
100
AcDbBlockBegin
  2
SE
 70
0
 10
0.0
 20
0.0
 30
0.0
  3
SE
  1

  0
ARC
  5
C7
100
AcDbEntity
  8
ARTL
 62
7
420
16777215
370
-1
 48
1.0
  6
Continuous
100
AcDbCircle
 10
983.2986097187999803
 20
407.428407111800027
 30
0.0
 40
1.5000000000000091
100
AcDbArc
 50
102.4648501257999982
 51
119.6372093674000041
  0
ARC
  5
C8
100
AcDbEntity
  8
ARTL
 62
7
420
16777215
370
-1
 48
1.0
  6
Continuous
100
AcDbCircle
 10
101.6910878162999978
 20
407.428407111800027
 30
0.0
 40
1.500000000000014
100
AcDbArc
 50
60.362790632600003
 51
77.5351498741999876
  0
LINE
  5
C9
100
AcDbEntity
  8
ARTL
 62
7
420
16777215
370
-1
 48
1.0
  6
Continuous
100
AcDbLine
 10
102.0148487674999984
 20
408.8930500193000057
 30
0.0
 11
102.0148487674999984
 21
432.7321680630000174
 31
0.0
  0
LINE
  5
CA
100
AcDbEntity
  8
ARTL
 62
7
420
16777215
370
-1
 48
1.0
  6
Continuous
100
AcDbLine
 10
102.0148487674999984
 20
434.0359290142000077
 30
0.0
 11
102.0148487674999984
 21
432.7321680630000174
 31
0.0
  0
LINE
  5
CB
100
AcDbEntity
  8
ARTL
 62
7
420
16777215
370
-1
 48
1.0
  6
Continuous
100
AcDbLine
 10
103.3186097188000048
 20
435.3396899654999856
 30
0.0
 11
102.0148487674999984
 21
434.0359290142000077
 31
0.0
  0
LINE
  5
CC
100
AcDbEntity
  8
ARTL
 62
7
420
16777215
370
-1
 48
1.0
  6
Continuous
100
AcDbLine
 10
982.9748487675000206
 20
434.0359290142000077
 30
0.0
 11
981.6710878162999734
 21
435.3396899654999856
 31
0.0
  0
LINE
  5
CD
100
AcDbEntity
  8
ARTL
 62
7
420
16777215
370
-1
 48
1.0
  6
Continuous
100
AcDbLine
 10
982.9748487675000206
 20
432.7321680630000174
 30
0.0
 11
982.9748487675000206
 21
434.0359290142000077
 31
0.0
  0
LINE
  5
CE
100
AcDbEntity
  8
ARTL
 62
7
420
16777215
370
-1
 48
1.0
  6
Continuous
100
AcDbLine
 10
982.9748487675000206
 20
432.7321680630000174
 30
0.0
 11
982.9748487675000206
 21
408.8930500193000057
 31
0.0
  0
LINE
  5
CF
100
AcDbEntity
  8
ARTL
 62
7
420
16777215
370
-1
 48
1.0
  6
Continuous
100
AcDbLine
 10
962.6710878162999734
 20
454.3396899654999856
 30
0.0
 11
981.6710878162999734
 21
435.3396899654999856
 31
0.0
  0
LINE
  5
D0
100
AcDbEntity
  8
ARTL
 62
7
420
16777215
370
-1
 48
1.0
  6
Continuous
100
AcDbLine
 10
122.3186097188000048
 20
454.3396899654999856
 30
0.0
 11
962.6710878162999734
 21
454.3396899654999856
 31
0.0
  0
LINE
  5
D1
100
AcDbEntity
  8
ARTL
 62
7
420
16777215
370
-1
 48
1.0
  6
Continuous
100
AcDbLine
 10
103.3186097188000048
 20
435.3396899654999856
 30
0.0
 11
122.3186097188000048
 21
454.3396899654999856
 31
0.0
  0
LINE
  5
D2
100
AcDbEntity
  8
ARTL
 62
7
420
16777215
370
-1
 48
1.0
  6
Continuous
100
AcDbLine
 10
981.9948487675000024
 20
406.1246461604999922
 30
0.0
 11
982.2379495469999711
 21
406.3677469400000177
 31
0.0
  0
LINE
  5
D3
100
AcDbEntity
  8
ARTL
 62
7
420
16777215
370
-1
 48
1.0
  6
Continuous
100
AcDbLine
 10
102.7517479881000071
 20
406.3677469400000177
 30
0.0
 11
102.9948487675000024
 21
406.1246461604999922
 31
0.0
  0
ARC
  5
D4
100
AcDbEntity
  8
ARTL
 62
7
420
16777215
370
-1
 48
1.0
  6
Continuous
100
AcDbCircle
 10
983.2986097187999803
 20
407.428407111800027
 30
0.0
 40
1.500000000000034
100
AcDbArc
 50
119.6372093674000041
 51
225.0
  0
ARC
  5
D5
100
AcDbEntity
  8
ARTL
 62
7
420
16777215
370
-1
 48
1.0
  6
Continuous
100
AcDbCircle
 10
101.6910878162999978
 20
407.428407111800027
 30
0.0
 40
1.50000000000001
100
AcDbArc
 50
315.0
 51
60.362790632600003
  0
ARC
  5
D6
100
AcDbEntity
  8
ARTL
 62
7
420
16777215
370
-1
 48
1.0
  6
Continuous
100
AcDbCircle
 10
101.6910878162999978
 20
407.428407111800027
 30
0.0
 40
1.500000000000036
100
AcDbArc
 50
192.464850125799984
 51
209.6372093674000041
  0
ARC
  5
D7
100
AcDbEntity
  8
ARTL
 62
7
420
16777215
370
-1
 48
1.0
  6
Continuous
100
AcDbCircle
 10
101.6910878162999978
 20
100.8208852093000019
 30
0.0
 40
1.500000000000058
100
AcDbArc
 50
150.3627906325999959
 51
167.5351498741999592
  0
LINE
  5
D8
100
AcDbEntity
  8
ARTL
 62
7
420
16777215
370
-1
 48
1.0
  6
Continuous
100
AcDbLine
 10
100.2264449088000049
 20
101.1446461605000025
 30
0.0
 11
76.3873268650000057
 21
101.1446461605000025
 31
0.0
  0
LINE
  5
D9
100
AcDbEntity
  8
ARTL
 62
7
420
16777215
370
-1
 48
1.0
  6
Continuous
100
AcDbLine
 10
76.3873268650000057
 20
407.1046461605000104
 30
0.0
 11
100.2264449088000049
 21
407.1046461605000104
 31
0.0
  0
LINE
  5
DA
100
AcDbEntity
  8
ARTL
 62
7
420
16777215
370
-1
 48
1.0
  6
Continuous
100
AcDbLine
 10
76.3873268650000057
 20
101.1446461605000025
 30
0.0
 11
73.7798049625999965
 21
101.1446461605000025
 31
0.0
  0
LINE
  5
DB
100
AcDbEntity
  8
ARTL
 62
7
420
16777215
370
-1
 48
1.0
  6
Continuous
100
AcDbLine
 10
75.0835659138000011
 20
407.1046461605000104
 30
0.0
 11
74.5523049043000015
 21
406.5733869869000046
 31
0.0
  0
LINE
  5
DC
100
AcDbEntity
  8
ARTL
 62
7
420
16777215
370
-1
 48
1.0
  6
Continuous
100
AcDbLine
 10
76.0529547223000009
 20
407.1046461605000104
 30
0.0
 11
75.0835659138000011
 21
407.1046461605000104
 31
0.0
  0
ARC
  5
DD
100
AcDbEntity
  8
ARTL
 62
7
420
16777215
370
-1
 48
1.0
  6
Continuous
100
AcDbCircle
 10
76.7000145009999983
 20
402.8918187058000058
 30
0.0
 40
4.2622296419382986
100
AcDbArc
 50
98.7319787791000181
 51
120.2579245899
  0
LINE
  5
DE
100
AcDbEntity
  8
ARTL
 62
7
420
16777215
370
-1
 48
1.0
  6
Continuous
100
AcDbLine
 10
73.7798049625999965
 20
405.8008852093000201
 30
0.0
 11
74.5523058222999992
 21
406.5733860689999801
 31
0.0
  0
LINE
  5
DF
100
AcDbEntity
  8
ARTL
 62
7
420
16777215
370
-1
 48
1.0
  6
Continuous
100
AcDbLine
 10
76.0529547223000009
 20
407.1046461605000104
 30
0.0
 11
76.3873268650000057
 21
407.1046461605000104
 31
0.0
  0
LINE
  5
E0
100
AcDbEntity
  8
ARTL
 62
7
420
16777215
370
-1
 48
1.0
  6
Continuous
100
AcDbLine
 10
73.7798049625999965
 20
101.1446461605000025
 30
0.0
 11
54.7798049625999965
 21
101.1446461605000025
 31
0.0
  0
LINE
  5
E1
100
AcDbEntity
  8
ARTL
 62
7
420
16777215
370
-1
 48
1.0
  6
Continuous
100
AcDbLine
 10
54.7798049625999965
 20
386.8008852093000201
 30
0.0
 11
73.7798049625999965
 21
405.8008852093000201
 31
0.0
  0
LINE
  5
E2
100
AcDbEntity
  8
ARTL
 62
7
420
16777215
370
-1
 48
1.0
  6
Continuous
100
AcDbLine
 10
54.7798049625999965
 20
101.1446461605000025
 30
0.0
 11
54.7798049625999965
 21
386.8008852093000201
 31
0.0
  0
LINE
  5
E3
100
AcDbEntity
  8
ARTL
 62
7
420
16777215
370
-1
 48
1.0
  6
Continuous
100
AcDbLine
 10
102.9948487675000024
 20
406.1246461604999922
 30
0.0
 11
102.7517479881000071
 21
406.3677469400000177
 31
0.0
  0
LINE
  5
E4
100
AcDbEntity
  8
ARTL
 62
7
420
16777215
370
-1
 48
1.0
  6
Continuous
100
AcDbLine
 10
102.7517479881000071
 20
101.8815453810999969
 30
0.0
 11
102.9948487675000024
 21
102.1246461605000064
 31
0.0
  0
ARC
  5
E5
100
AcDbEntity
  8
ARTL
 62
7
420
16777215
370
-1
 48
1.0
  6
Continuous
100
AcDbCircle
 10
101.6910878162999978
 20
407.428407111800027
 30
0.0
 40
1.4999999999999949
100
AcDbArc
 50
209.6372093674000041
 51
315.0
  0
ARC
  5
E6
100
AcDbEntity
  8
ARTL
 62
7
420
16777215
370
-1
 48
1.0
  6
Continuous
100
AcDbCircle
 10
101.6910878162999978
 20
100.8208852093000019
 30
0.0
 40
1.4999999999999829
100
AcDbArc
 50
45.0
 51
150.3627906325999959
  0
ARC
  5
E7
100
AcDbEntity
  8
ARTL
 62
7
420
16777215
370
-1
 48
1.0
  6
Continuous
100
AcDbCircle
 10
101.6910878162999978
 20
100.8208852093000019
 30
0.0
 40
1.499999999999982
100
AcDbArc
 50
282.4648501258000124
 51
299.6372093673999757
  0
LINE
  5
E8
100
AcDbEntity
  8
ARTL
 62
7
420
16777215
370
-1
 48
1.0
  6
Continuous
100
AcDbLine
 10
959.9948487675000024
 20
72.5171242579999955
 30
0.0
 11
959.9948487675000024
 21
74.5171242579999955
 31
0.0
  0
LINE
  5
E9
100
AcDbEntity
  8
ARTL
 62
7
420
16777215
370
-1
 48
1.0
  6
Continuous
100
AcDbLine
 10
102.0148487674999984
 20
74.5171242579999955
 30
0.0
 11
124.9948487675000024
 21
74.5171242579999955
 31
0.0
  0
ARC
  5
EA
100
AcDbEntity
  8
ARTL
 62
7
420
16777215
370
-1
 48
1.0
  6
Continuous
100
AcDbCircle
 10
983.2986097187999803
 20
100.8208852093000019
 30
0.0
 40
1.500000000000038
100
AcDbArc
 50
240.3627906326000243
 51
257.5351498741999876
  0
LINE
  5
EB
100
AcDbEntity
  8
ARTL
 62
7
420
16777215
370
-1
 48
1.0
  6
Continuous
100
AcDbLine
 10
982.9748487675000206
 20
99.3562423017999947
 30
0.0
 11
982.9748487675000206
 21
74.5171242579999955
 31
0.0
  0
LINE
  5
EC
100
AcDbEntity
  8
ARTL
 62
7
420
16777215
370
-1
 48
1.0
  6
Continuous
100
AcDbLine
 10
982.9748487675000206
 20
74.5171242579999955
 30
0.0
 11
959.9948487675000024
 21
74.5171242579999955
 31
0.0
  0
LINE
  5
ED
100
AcDbEntity
  8
ARTL
 62
7
420
16777215
370
-1
 48
1.0
  6
Continuous
100
AcDbLine
 10
102.0148487674999984
 20
74.5171242579999955
 30
0.0
 11
102.0148487674999984
 21
99.3562423017999947
 31
0.0
  0
LINE
  5
EE
100
AcDbEntity
  8
ARTL
 62
7
420
16777215
370
-1
 48
1.0
  6
Continuous
100
AcDbLine
 10
124.9948487675000024
 20
72.5171242579999955
 30
0.0
 11
124.9948487675000024
 21
74.5171242579999955
 31
0.0
  0
LINE
  5
EF
100
AcDbEntity
  8
ARTL
 62
7
420
16777215
370
-1
 48
1.0
  6
Continuous
100
AcDbLine
 10
102.9948487675000024
 20
102.1246461605000064
 30
0.0
 11
102.7517479881000071
 21
101.8815453810999969
 31
0.0
  0
LINE
  5
F0
100
AcDbEntity
  8
ARTL
 62
7
420
16777215
370
-1
 48
1.0
  6
Continuous
100
AcDbLine
 10
982.2379495469999711
 20
101.8815453810999969
 30
0.0
 11
981.9948487675000024
 21
102.1246461605000064
 31
0.0
  0
ARC
  5
F1
100
AcDbEntity
  8
ARTL
 62
7
420
16777215
370
-1
 48
1.0
  6
Continuous
100
AcDbCircle
 10
101.6910878162999978
 20
100.8208852093000019
 30
0.0
 40
1.4999999999999749
100
AcDbArc
 50
299.6372093673999757
 51
45.0
  0
ARC
  5
F2
100
AcDbEntity
  8
ARTL
 62
7
420
16777215
370
-1
 48
1.0
  6
Continuous
100
AcDbCircle
 10
983.2986097187999803
 20
100.8208852093000019
 30
0.0
 40
1.4999999999999829
100
AcDbArc
 50
135.0
 51
240.3627906326000243
  0
LINE
  5
F3
100
AcDbEntity
  8
ARTL
 62
7
420
16777215
370
-1
 48
1.0
  6
Continuous
100
AcDbLine
 10
981.9948487675000024
 20
102.1246461605000064
 30
0.0
 11
982.2379495469999711
 21
101.8815453810999969
 31
0.0
  0
ARC
  5
F4
100
AcDbEntity
  8
ARTL
 62
7
420
16777215
370
-1
 48
1.0
  6
Continuous
100
AcDbCircle
 10
983.2986097187999803
 20
100.8208852093000019
 30
0.0
 40
1.500000000000014
100
AcDbArc
 50
29.6372093674000006
 51
135.0
  0
ARC
  5
F5
100
AcDbEntity
  8
ARTL
 62
7
420
16777215
370
-1
 48
1.0
  6
Continuous
100
AcDbCircle
 10
983.2986097187999803
 20
407.428407111800027
 30
0.0
 40
1.499999999999976
100
AcDbArc
 50
225.0
 51
330.3627906326000243
  0
LINE
  5
F6
100
AcDbEntity
  8
ARTL
 62
7
420
16777215
370
-1
 48
1.0
  6
Continuous
100
AcDbLine
 10
982.2379495469999711
 20
406.3677469400000177
 30
0.0
 11
981.9948487675000024
 21
406.1246461604999922
 31
0.0
  0
LINE
  5
F7
100
AcDbEntity
  8
ARTL
 62
7
420
16777215
370
-1
 48
1.0
  6
Continuous
100
AcDbLine
 10
984.7632526262000283
 20
407.1046461605000104
 30
0.0
 11
1008.6023706700000275
 21
407.1046461605000104
 31
0.0
  0
LINE
  5
F8
100
AcDbEntity
  8
ARTL
 62
7
420
16777215
370
-1
 48
1.0
  6
Continuous
100
AcDbLine
 10
1008.6023706700000275
 20
101.1446461605000025
 30
0.0
 11
984.7632526262000283
 21
101.1446461605000025
 31
0.0
  0
ARC
  5
F9
100
AcDbEntity
  8
ARTL
 62
7
420
16777215
370
-1
 48
1.0
  6
Continuous
100
AcDbCircle
 10
983.2986097187999803
 20
100.8208852093000019
 30
0.0
 40
1.500000000000036
100
AcDbArc
 50
12.4648501258
 51
29.6372093674000006
  0
ARC
  5
FA
100
AcDbEntity
  8
ARTL
 62
7
420
16777215
370
-1
 48
1.0
  6
Continuous
100
AcDbCircle
 10
983.2986097187999803
 20
407.428407111800027
 30
0.0
 40
1.5000000000000451
100
AcDbArc
 50
330.3627906326000243
 51
347.5351498741999876
  0
ARC
  5
FB
100
AcDbEntity
  8
ARTL
 62
7
420
16777215
370
-1
 48
1.0
  6
Continuous
100
AcDbCircle
 10
1008.2966819972000394
 20
402.9094035000999838
 30
0.0
 40
4.2435147031810292
100
AcDbArc
 50
59.7040619938999981
 51
81.3496203763999972
  0
LINE
  5
FC
100
AcDbEntity
  8
ARTL
 62
7
420
16777215
370
-1
 48
1.0
  6
Continuous
100
AcDbLine
 10
1010.4373935541999572
 20
406.5733879094000258
 30
0.0
 11
1011.2098925725000527
 21
405.8008852093000201
 31
0.0
  0
LINE
  5
FD
100
AcDbEntity
  8
ARTL
 62
7
420
16777215
370
-1
 48
1.0
  6
Continuous
100
AcDbLine
 10
1009.9061353496000493
 20
407.1046461605000104
 30
0.0
 11
1010.4373926337000285
 21
406.5733869890000278
 31
0.0
  0
LINE
  5
FE
100
AcDbEntity
  8
ARTL
 62
7
420
16777215
370
-1
 48
1.0
  6
Continuous
100
AcDbLine
 10
1008.9349265083000091
 20
407.1046461605000104
 30
0.0
 11
1009.9061353496000493
 21
407.1046461605000104
 31
0.0
  0
LINE
  5
FF
100
AcDbEntity
  8
ARTL
 62
7
420
16777215
370
-1
 48
1.0
  6
Continuous
100
AcDbLine
 10
1008.6023706700000275
 20
407.1046461605000104
 30
0.0
 11
1008.9349265083000091
 21
407.1046461605000104
 31
0.0
  0
LINE
  5
100
100
AcDbEntity
  8
ARTL
 62
7
420
16777215
370
-1
 48
1.0
  6
Continuous
100
AcDbLine
 10
1011.2098925725000527
 20
101.1446461605000025
 30
0.0
 11
1008.6023706700000275
 21
101.1446461605000025
 31
0.0
  0
LINE
  5
101
100
AcDbEntity
  8
ARTL
 62
7
420
16777215
370
-1
 48
1.0
  6
Continuous
100
AcDbLine
 10
1011.2098925725000527
 20
405.8008852093000201
 30
0.0
 11
1030.209892572499939
 21
386.8008852093000201
 31
0.0
  0
LINE
  5
102
100
AcDbEntity
  8
ARTL
 62
7
420
16777215
370
-1
 48
1.0
  6
Continuous
100
AcDbLine
 10
1030.209892572499939
 20
101.1446461605000025
 30
0.0
 11
1011.2098925725000527
 21
101.1446461605000025
 31
0.0
  0
LINE
  5
103
100
AcDbEntity
  8
ARTL
 62
7
420
16777215
370
-1
 48
1.0
  6
Continuous
100
AcDbLine
 10
1030.209892572499939
 20
386.8008852093000201
 30
0.0
 11
1030.209892572499939
 21
101.1446461605000025
 31
0.0
  0
LINE
  5
104
100
AcDbEntity
  8
ARTL
 62
7
420
16777215
370
-1
 48
1.0
  6
Continuous
100
AcDbLine
 10
124.9948487675000024
 20
60.9096023556000006
 30
0.0
 11
124.9948487675000024
 21
69.9096023556000006
 31
0.0
  0
LINE
  5
105
100
AcDbEntity
  8
ARTL
 62
7
420
16777215
370
-1
 48
1.0
  6
Continuous
100
AcDbLine
 10
959.9948487675000024
 20
60.9096023556000006
 30
0.0
 11
959.9948487675000024
 21
69.9096023556000006
 31
0.0
  0
ARC
  5
106
100
AcDbEntity
  8
ARTL
 62
7
420
16777215
370
-1
 48
1.0
  6
Continuous
100
AcDbCircle
 10
954.9948487675000024
 20
60.9096023556000006
 30
0.0
 40
5.0000000000000044
100
AcDbArc
 50
270.0
 51
0.0
  0
LINE
  5
107
100
AcDbEntity
  8
ARTL
 62
7
420
16777215
370
-1
 48
1.0
  6
Continuous
100
AcDbLine
 10
129.9948487675000024
 20
55.9096023556000006
 30
0.0
 11
954.9948487675000024
 21
55.9096023556000006
 31
0.0
  0
ARC
  5
108
100
AcDbEntity
  8
ARTL
 62
7
420
16777215
370
-1
 48
1.0
  6
Continuous
100
AcDbCircle
 10
129.9948487675000024
 20
60.9096023556000006
 30
0.0
 40
5.0000000000000044
100
AcDbArc
 50
180.0
 51
270.0
  0
LINE
  5
109
100
AcDbEntity
  8
ARTL
 62
7
420
16777215
370
-1
 48
1.0
  6
Continuous
100
AcDbLine
 10
124.9948487675000024
 20
72.5171242579999955
 30
0.0
 11
124.9948487675000024
 21
69.9096023556000006
 31
0.0
  0
LINE
  5
10A
100
AcDbEntity
  8
ARTL
 62
7
420
16777215
370
-1
 48
1.0
  6
Continuous
100
AcDbLine
 10
959.9948487675000024
 20
69.9096023556000006
 30
0.0
 11
959.9948487675000024
 21
72.5171242579999955
 31
0.0
  0
LINE
  5
10B
100
AcDbEntity
  8
ARTL
 62
7
420
16777215
370
-1
 48
1.0
  6
CENTER2
100
AcDbLine
 10
102.0148487674999984
 20
434.0359290142000077
 30
0.0
 11
982.9748487675000206
 21
434.0359290142000077
 31
0.0
  0
LINE
  5
10C
100
AcDbEntity
  8
ARTL
 62
7
420
16777215
370
-1
 48
1.0
  6
CENTER2
100
AcDbLine
 10
981.7986097187999803
 20
407.428407111800027
 30
0.0
 11
103.1910878162999978
 21
407.428407111800027
 31
0.0
  0
LINE
  5
10D
100
AcDbEntity
  8
ARTL
 62
7
420
16777215
370
-1
 48
1.0
  6
CENTER2
100
AcDbLine
 10
75.0835659138000011
 20
101.1446461605000025
 30
0.0
 11
75.0835659138000011
 21
406.8316399244000081
 31
0.0
  0
LINE
  5
10E
100
AcDbEntity
  8
ARTL
 62
7
420
16777215
370
-1
 48
1.0
  6
CENTER2
100
AcDbLine
 10
101.6910878162999978
 20
405.928407111800027
 30
0.0
 11
101.6910878162999978
 21
102.3208852093000019
 31
0.0
  0
LINE
  5
10F
100
AcDbEntity
  8
ARTL
 62
7
420
16777215
370
-1
 48
1.0
  6
CENTER2
100
AcDbLine
 10
103.1910878162999978
 20
100.8208852093000019
 30
0.0
 11
981.7986097187999803
 21
100.8208852093000019
 31
0.0
  0
LINE
  5
110
100
AcDbEntity
  8
ARTL
 62
7
420
16777215
370
-1
 48
1.0
  6
CENTER2
100
AcDbLine
 10
983.2986097187999803
 20
102.3208852093000019
 30
0.0
 11
983.2986097187999803
 21
405.928407111800027
 31
0.0
  0
LINE
  5
111
100
AcDbEntity
  8
ARTL
 62
7
420
16777215
370
-1
 48
1.0
  6
CENTER2
100
AcDbLine
 10
1009.906131621199961
 20
406.8317680070999813
 30
0.0
 11
1009.906131621199961
 21
101.1446461605000025
 31
0.0
  0
LINE
  5
112
100
AcDbEntity
  8
ARTL
 62
7
420
16777215
370
-1
 48
1.0
  6
CENTER2
100
AcDbLine
 10
124.9948487675000024
 20
71.2133633068000051
 30
0.0
 11
959.9948487675000024
 21
71.2133633068000051
 31
0.0
  0
ENDBLK
  5
113
100
AcDbEntity
  8
0
100
AcDbBlockEnd
  0
BLOCK
  5
114
100
AcDbEntity
  8
0
100
AcDbBlockBegin
  2
SEANNOT_GROUP3
 70
0
 10
0.0
 20
0.0
 30
0.0
  3
SEANNOT_GROUP3
  1

  0
ENDBLK
  5
115
100
AcDbEntity
  8
0
100
AcDbBlockEnd
  0
BLOCK
  5
116
100
AcDbEntity
  8
0
100
AcDbBlockBegin
  2
SEANNOT_GROUP1
 70
0
 10
0.0
 20
0.0
 30
0.0
  3
SEANNOT_GROUP1
  1

  0
ENDBLK
  5
117
100
AcDbEntity
  8
0
100
AcDbBlockEnd
  0
BLOCK
  5
118
100
AcDbEntity
  8
0
100
AcDbBlockBegin
  2
DMBLK1
 70
0
 10
0.0
 20
0.0
 30
0.0
  3
DMBLK1
  1

  0
HATCH
  5
119
100
AcDbEntity
  8
Default
 62
7
420
16777215
370
-1
 48
1.0
  6
Continuous
100
AcDbHatch
 10
0.0
 20
0.0
 30
0.0
210
0.0
220
0.0
230
1.0
  2
SOLID
 70
1
 71
0
 91
1
 92
1
 93
3
 72
1
 10
57.0298048657048611
 20
483.6992148087367127
 11
54.7798049625624088
 21
483.3242148248796184
 72
1
 10
54.7798049625624088
 20
483.3242148248796184
 11
57.0298048657048611
 21
482.9492148410225241
 72
1
 10
57.0298048657048611
 20
482.9492148410225241
 11
57.0298048657048611
 21
483.6992148087367127
 97
0
 75
0
 76
1
 98
0
1001
ACAD
1010
0.0
1020
0.0
1030
0
  0
HATCH
  5
11A
100
AcDbEntity
  8
Default
 62
7
420
16777215
370
-1
 48
1.0
  6
Continuous
100
AcDbHatch
 10
0.0
 20
0.0
 30
0.0
210
0.0
220
0.0
230
1.0
  2
SOLID
 70
1
 71
0
 91
1
 92
1
 93
3
 72
1
 10
1027.9598764133320401
 20
483.6992148087367127
 11
1027.9598764133320401
 21
482.9492148410225241
 72
1
 10
1027.9598764133320401
 20
482.9492148410225241
 11
1030.2098763164749471
 21
483.3242148248796184
 72
1
 10
1030.2098763164749471
 20
483.3242148248796184
 11
1027.9598764133320401
 21
483.6992148087367127
 97
0
 75
0
 76
1
 98
0
1001
ACAD
1010
0.0
1020
0.0
1030
0
  0
LINE
  5
11B
100
AcDbEntity
  8
Default
 62
7
420
16777215
370
-1
 48
1.0
  6
Continuous
100
AcDbLine
 10
54.7798049625999965
 20
386.8008852093000201
 30
0.0
 11
54.7798049625999965
 21
484.8242148379000014
 31
0.0
  0
LINE
  5
11C
100
AcDbEntity
  8
Default
 62
7
420
16777215
370
-1
 48
1.0
  6
Continuous
100
AcDbLine
 10
1030.209892572499939
 20
386.8008852093000201
 30
0.0
 11
1030.209892572499939
 21
484.8242148379000014
 31
0.0
  0
LINE
  5
11D
100
AcDbEntity
  8
Default
 62
7
420
16777215
370
-1
 48
1.0
  6
Continuous
100
AcDbLine
 10
54.7798049625999965
 20
483.3242148249000252
 30
0.0
 11
1030.2098763164999582
 21
483.3242148249000252
 31
0.0
  0
TEXT
  5
11E
100
AcDbEntity
  8
Default
 62
7
420
16777215
370
-1
 48
1.0
  6
Continuous
100
AcDbText
 10
537.8243860940999639
 20
484.0742148249000252
 30
0.0
 40
3.0
  1
975,43
 50
0.0
 41
1.0
  7
textstyle0
 71
0
 72
0
 11
537.8243860940999639
 21
487.0742148249000252
 31
0.0
100
AcDbText
 73
3
  0
ENDBLK
  5
11F
100
AcDbEntity
  8
0
100
AcDbBlockEnd
  0
BLOCK
  5
120
100
AcDbEntity
  8
0
100
AcDbBlockBegin
  2
SEANNOT_GROUP2
 70
0
 10
0.0
 20
0.0
 30
0.0
  3
SEANNOT_GROUP2
  1

  0
ENDBLK
  5
121
100
AcDbEntity
  8
0
100
AcDbBlockEnd
  0
BLOCK
  5
122
100
AcDbEntity
  8
0
100
AcDbBlockBegin
  2
Cartiglio_sviluppo
 70
0
 10
0.0
 20
0.0
 30
0.0
  3
Cartiglio_sviluppo
  1

  0
MTEXT
  5
123
100
AcDbEntity
  8
Default
 62
256
370
-1
 48
1.0
  6
ByLayer
100
AcDbMText
 10
0.0
 20
11.0
 30
0.0
 40
4.0
 41
80.0
 71
4
 72
1
  1
{\fSolid Edge ISO|b0||i0||c0|p34;\C7;\H4.;\W1.; Materiale: S235JR EN 10025\P}
  7
textstyle1
 50
0.0
 73
1
 44
1.0
  0
LINE
  5
124
100
AcDbEntity
  8
Default
 62
7
420
16777215
370
-1
 48
1.0
  6
Continuous
100
AcDbLine
 10
0.0
 20
0.0
 30
0.0
 11
80.0
 21
0.0
 31
0.0
  0
LINE
  5
125
100
AcDbEntity
  8
Default
 62
7
420
16777215
370
-1
 48
1.0
  6
Continuous
100
AcDbLine
 10
80.0
 20
0.0
 30
0.0
 11
80.0
 21
55.0
 31
0.0
  0
LINE
  5
126
100
AcDbEntity
  8
Default
 62
7
420
16777215
370
-1
 48
1.0
  6
Continuous
100
AcDbLine
 10
80.0
 20
55.0
 30
0.0
 11
0.0
 21
55.0
 31
0.0
  0
LINE
  5
127
100
AcDbEntity
  8
Default
 62
7
420
16777215
370
-1
 48
1.0
  6
Continuous
100
AcDbLine
 10
0.0
 20
55.0
 30
0.0
 11
0.0
 21
0.0
 31
0.0
  0
MTEXT
  5
128
100
AcDbEntity
  8
Default
 62
256
370
-1
 48
1.0
  6
ByLayer
100
AcDbMText
 10
40.0
 20
3.0
 30
0.0
 40
2.5
 41
80.0
 71
5
 72
1
  1
{\fSolid Edge ISO|b0||i0||c0|p34;\C7;\H2.5;\W1.; I profili rappresentati sono comprensivi di sovrametallo}
  7
textstyle2
 50
0.0
 73
1
 44
1.0
  0
INSERT
  5
129
100
AcDbEntity
  8
Default
 62
7
420
16777215
370
-1
 48
1.0
  6
ByLayer
100
AcDbBlockReference
  2
logo_sviluppi
 10
8.1543612560999996
 20
50.2293422368000009
 30
0.0
  0
MTEXT
  5
12A
100
AcDbEntity
  8
Default
 62
256
370
-1
 48
1.0
  6
ByLayer
100
AcDbMText
 10
0.0
 20
21.0565522367
 30
0.0
 40
4.0
 41
80.0
 71
4
 72
1
  1
{\fSolid Edge ISO|b0||i0||c0|p34;\C7;\H4.;\W1.; Codice Articolo: ARTL\P}
  7
textstyle3
 50
0.0
 73
1
 44
1.0
  0
LINE
  5
12B
100
AcDbEntity
  8
Default
 62
7
420
16777215
370
-1
 48
1.0
  6
Continuous
100
AcDbLine
 10
0.0
 20
6.0
 30
0.0
 11
80.0
 21
6.0
 31
0.0
  0
LINE
  5
12C
100
AcDbEntity
  8
Default
 62
7
420
16777215
370
-1
 48
1.0
  6
Continuous
100
AcDbLine
 10
0.0
 20
16.0
 30
0.0
 11
80.0
 21
16.0
 31
0.0
  0
LINE
  5
12D
100
AcDbEntity
  8
Default
 62
7
420
16777215
370
-1
 48
1.0
  6
Continuous
100
AcDbLine
 10
0.0
 20
26.0
 30
0.0
 11
80.0
 21
26.0
 31
0.0
  0
ENDBLK
  5
12E
100
AcDbEntity
  8
0
100
AcDbBlockEnd
  0
BLOCK
  5
12F
100
AcDbEntity
  8
0
100
AcDbBlockBegin
  2
_SE_FILLED
 70
0
 10
0.0
 20
0.0
 30
0.0
  3
_SE_FILLED
  1

  0
SOLID
  5
130
100
AcDbEntity
  8
0
 62
0
370
-1
 48
1.0
  6
ByLayer
100
AcDbTrace
 10
0.0
 20
0.0
 30
0.0
 11
-1.0
 21
-0.1665
 31
0.0
 12
-1.0
 22
0.1665
 32
0.0
 13
0.0
 23
0.0
 33
0.0
 39
0.0
  0
LINE
  5
131
100
AcDbEntity
  8
0
 62
0
370
-1
 48
1.0
  6
ByLayer
100
AcDbLine
 10
0.0
 20
0.0
 30
0.0
 11
-1.0
 21
0.0
 31
0.0
  0
ENDBLK
  5
132
100
AcDbEntity
  8
0
100
AcDbBlockEnd
  0
BLOCK
  5
133
100
AcDbEntity
  8
0
100
AcDbBlockBegin
  2
_DOT
 70
0
 10
0.0
 20
0.0
 30
0.0
  3
_DOT
  1

  0
LWPOLYLINE
  5
134
100
AcDbEntity
  8
0
 62
0
370
-1
 48
1.0
  6
ByLayer
100
AcDbPolyline
 90
2
 70
1
 10
-0.1665
 20
0.0
 42
1.0
 10
0.1665
 20
0.0
 42
1.0
  0
LINE
  5
135
100
AcDbEntity
  8
0
 62
0
370
-1
 48
1.0
  6
ByLayer
100
AcDbLine
 10
0.0
 20
0.0
 30
0.0
 11
-1.0
 21
0.0
 31
0.0
  0
ENDBLK
  5
136
100
AcDbEntity
  8
0
100
AcDbBlockEnd
  0
ENDSEC
  0
SECTION
  2
ENTITIES
  0
ARC
  5
137
100
AcDbEntity
  8
ARTL
 62
7
420
16777215
370
-1
 48
1.0
  6
Continuous
100
AcDbCircle
 10
983.2986097187999803
 20
407.428407111800027
 30
0.0
 40
1.5000000000000091
100
AcDbArc
 50
102.4648501257999982
 51
119.6372093674000041
  0
ARC
  5
138
100
AcDbEntity
  8
ARTL
 62
7
420
16777215
370
-1
 48
1.0
  6
Continuous
100
AcDbCircle
 10
101.6910878162999978
 20
407.428407111800027
 30
0.0
 40
1.500000000000014
100
AcDbArc
 50
60.362790632600003
 51
77.5351498741999876
  0
LINE
  5
139
100
AcDbEntity
  8
ARTL
 62
7
420
16777215
370
-1
 48
1.0
  6
Continuous
100
AcDbLine
 10
102.0148487674999984
 20
408.8930500193000057
 30
0.0
 11
102.0148487674999984
 21
432.7321680630000174
 31
0.0
  0
LINE
  5
13A
100
AcDbEntity
  8
ARTL
 62
7
420
16777215
370
-1
 48
1.0
  6
Continuous
100
AcDbLine
 10
102.0148487674999984
 20
434.0359290142000077
 30
0.0
 11
102.0148487674999984
 21
432.7321680630000174
 31
0.0
  0
LINE
  5
13B
100
AcDbEntity
  8
ARTL
 62
7
420
16777215
370
-1
 48
1.0
  6
Continuous
100
AcDbLine
 10
103.3186097188000048
 20
435.3396899654999856
 30
0.0
 11
102.0148487674999984
 21
434.0359290142000077
 31
0.0
  0
LINE
  5
13C
100
AcDbEntity
  8
ARTL
 62
7
420
16777215
370
-1
 48
1.0
  6
Continuous
100
AcDbLine
 10
982.9748487675000206
 20
434.0359290142000077
 30
0.0
 11
981.6710878162999734
 21
435.3396899654999856
 31
0.0
  0
LINE
  5
13D
100
AcDbEntity
  8
ARTL
 62
7
420
16777215
370
-1
 48
1.0
  6
Continuous
100
AcDbLine
 10
982.9748487675000206
 20
432.7321680630000174
 30
0.0
 11
982.9748487675000206
 21
434.0359290142000077
 31
0.0
  0
LINE
  5
13E
100
AcDbEntity
  8
ARTL
 62
7
420
16777215
370
-1
 48
1.0
  6
Continuous
100
AcDbLine
 10
982.9748487675000206
 20
432.7321680630000174
 30
0.0
 11
982.9748487675000206
 21
408.8930500193000057
 31
0.0
  0
LINE
  5
13F
100
AcDbEntity
  8
ARTL
 62
7
420
16777215
370
-1
 48
1.0
  6
Continuous
100
AcDbLine
 10
962.6710878162999734
 20
454.3396899654999856
 30
0.0
 11
981.6710878162999734
 21
435.3396899654999856
 31
0.0
  0
LINE
  5
140
100
AcDbEntity
  8
ARTL
 62
7
420
16777215
370
-1
 48
1.0
  6
Continuous
100
AcDbLine
 10
122.3186097188000048
 20
454.3396899654999856
 30
0.0
 11
962.6710878162999734
 21
454.3396899654999856
 31
0.0
  0
LINE
  5
141
100
AcDbEntity
  8
ARTL
 62
7
420
16777215
370
-1
 48
1.0
  6
Continuous
100
AcDbLine
 10
103.3186097188000048
 20
435.3396899654999856
 30
0.0
 11
122.3186097188000048
 21
454.3396899654999856
 31
0.0
  0
LINE
  5
142
100
AcDbEntity
  8
ARTL
 62
7
420
16777215
370
-1
 48
1.0
  6
Continuous
100
AcDbLine
 10
102.7517479881000071
 20
406.3677469400000177
 30
0.0
 11
102.9948487675000024
 21
406.1246461604999922
 31
0.0
  0
ARC
  5
143
100
AcDbEntity
  8
ARTL
 62
7
420
16777215
370
-1
 48
1.0
  6
Continuous
100
AcDbCircle
 10
983.2986097187999803
 20
407.428407111800027
 30
0.0
 40
1.500000000000034
100
AcDbArc
 50
119.6372093674000041
 51
225.0
  0
ARC
  5
144
100
AcDbEntity
  8
ARTL
 62
7
420
16777215
370
-1
 48
1.0
  6
Continuous
100
AcDbCircle
 10
101.6910878162999978
 20
407.428407111800027
 30
0.0
 40
1.50000000000001
100
AcDbArc
 50
315.0
 51
60.362790632600003
  0
ARC
  5
145
100
AcDbEntity
  8
ARTL
 62
7
420
16777215
370
-1
 48
1.0
  6
Continuous
100
AcDbCircle
 10
101.6910878162999978
 20
407.428407111800027
 30
0.0
 40
1.500000000000036
100
AcDbArc
 50
192.464850125799984
 51
209.6372093674000041
  0
ARC
  5
146
100
AcDbEntity
  8
ARTL
 62
7
420
16777215
370
-1
 48
1.0
  6
Continuous
100
AcDbCircle
 10
101.6910878162999978
 20
100.8208852093000019
 30
0.0
 40
1.500000000000058
100
AcDbArc
 50
150.3627906325999959
 51
167.5351498741999592
  0
LINE
  5
147
100
AcDbEntity
  8
ARTL
 62
7
420
16777215
370
-1
 48
1.0
  6
Continuous
100
AcDbLine
 10
100.2264449088000049
 20
101.1446461605000025
 30
0.0
 11
76.3873268650000057
 21
101.1446461605000025
 31
0.0
  0
LINE
  5
148
100
AcDbEntity
  8
ARTL
 62
7
420
16777215
370
-1
 48
1.0
  6
Continuous
100
AcDbLine
 10
76.3873268650000057
 20
407.1046461605000104
 30
0.0
 11
100.2264449088000049
 21
407.1046461605000104
 31
0.0
  0
LINE
  5
149
100
AcDbEntity
  8
ARTL
 62
7
420
16777215
370
-1
 48
1.0
  6
Continuous
100
AcDbLine
 10
76.3873268650000057
 20
101.1446461605000025
 30
0.0
 11
73.7798049625999965
 21
101.1446461605000025
 31
0.0
  0
ARC
  5
14A
100
AcDbEntity
  8
ARTL
 62
7
420
16777215
370
-1
 48
1.0
  6
Continuous
100
AcDbCircle
 10
76.7000145009999983
 20
402.8918187058000058
 30
0.0
 40
4.2622296419382986
100
AcDbArc
 50
98.7319787791000181
 51
120.2579245899
  0
LINE
  5
14B
100
AcDbEntity
  8
ARTL
 62
7
420
16777215
370
-1
 48
1.0
  6
Continuous
100
AcDbLine
 10
73.7798049625999965
 20
405.8008852093000201
 30
0.0
 11
74.5523058222999992
 21
406.5733860689999801
 31
0.0
  0
LINE
  5
14C
100
AcDbEntity
  8
ARTL
 62
7
420
16777215
370
-1
 48
1.0
  6
Continuous
100
AcDbLine
 10
76.0529547223000009
 20
407.1046461605000104
 30
0.0
 11
76.3873268650000057
 21
407.1046461605000104
 31
0.0
  0
LINE
  5
14D
100
AcDbEntity
  8
ARTL
 62
7
420
16777215
370
-1
 48
1.0
  6
Continuous
100
AcDbLine
 10
73.7798049625999965
 20
101.1446461605000025
 30
0.0
 11
54.7798049625999965
 21
101.1446461605000025
 31
0.0
  0
LINE
  5
14E
100
AcDbEntity
  8
ARTL
 62
7
420
16777215
370
-1
 48
1.0
  6
Continuous
100
AcDbLine
 10
54.7798049625999965
 20
386.8008852093000201
 30
0.0
 11
73.7798049625999965
 21
405.8008852093000201
 31
0.0
  0
LINE
  5
14F
100
AcDbEntity
  8
ARTL
 62
7
420
16777215
370
-1
 48
1.0
  6
Continuous
100
AcDbLine
 10
54.7798049625999965
 20
101.1446461605000025
 30
0.0
 11
54.7798049625999965
 21
386.8008852093000201
 31
0.0
  0
LINE
  5
150
100
AcDbEntity
  8
ARTL
 62
7
420
16777215
370
-1
 48
1.0
  6
Continuous
100
AcDbLine
 10
102.7517479881000071
 20
101.8815453810999969
 30
0.0
 11
102.9948487675000024
 21
102.1246461605000064
 31
0.0
  0
ARC
  5
151
100
AcDbEntity
  8
ARTL
 62
7
420
16777215
370
-1
 48
1.0
  6
Continuous
100
AcDbCircle
 10
101.6910878162999978
 20
407.428407111800027
 30
0.0
 40
1.4999999999999949
100
AcDbArc
 50
209.6372093674000041
 51
315.0
  0
ARC
  5
152
100
AcDbEntity
  8
ARTL
 62
7
420
16777215
370
-1
 48
1.0
  6
Continuous
100
AcDbCircle
 10
101.6910878162999978
 20
100.8208852093000019
 30
0.0
 40
1.4999999999999829
100
AcDbArc
 50
45.0
 51
150.3627906325999959
  0
ARC
  5
153
100
AcDbEntity
  8
ARTL
 62
7
420
16777215
370
-1
 48
1.0
  6
Continuous
100
AcDbCircle
 10
101.6910878162999978
 20
100.8208852093000019
 30
0.0
 40
1.499999999999982
100
AcDbArc
 50
282.4648501258000124
 51
299.6372093673999757
  0
LINE
  5
154
100
AcDbEntity
  8
ARTL
 62
7
420
16777215
370
-1
 48
1.0
  6
Continuous
100
AcDbLine
 10
959.9948487675000024
 20
72.5171242579999955
 30
0.0
 11
959.9948487675000024
 21
74.5171242579999955
 31
0.0
  0
LINE
  5
155
100
AcDbEntity
  8
ARTL
 62
7
420
16777215
370
-1
 48
1.0
  6
Continuous
100
AcDbLine
 10
102.0148487674999984
 20
74.5171242579999955
 30
0.0
 11
124.9948487675000024
 21
74.5171242579999955
 31
0.0
  0
ARC
  5
156
100
AcDbEntity
  8
ARTL
 62
7
420
16777215
370
-1
 48
1.0
  6
Continuous
100
AcDbCircle
 10
983.2986097187999803
 20
100.8208852093000019
 30
0.0
 40
1.500000000000038
100
AcDbArc
 50
240.3627906326000243
 51
257.5351498741999876
  0
LINE
  5
157
100
AcDbEntity
  8
ARTL
 62
7
420
16777215
370
-1
 48
1.0
  6
Continuous
100
AcDbLine
 10
982.9748487675000206
 20
99.3562423017999947
 30
0.0
 11
982.9748487675000206
 21
74.5171242579999955
 31
0.0
  0
LINE
  5
158
100
AcDbEntity
  8
ARTL
 62
7
420
16777215
370
-1
 48
1.0
  6
Continuous
100
AcDbLine
 10
982.9748487675000206
 20
74.5171242579999955
 30
0.0
 11
959.9948487675000024
 21
74.5171242579999955
 31
0.0
  0
LINE
  5
159
100
AcDbEntity
  8
ARTL
 62
7
420
16777215
370
-1
 48
1.0
  6
Continuous
100
AcDbLine
 10
102.0148487674999984
 20
74.5171242579999955
 30
0.0
 11
102.0148487674999984
 21
99.3562423017999947
 31
0.0
  0
LINE
  5
15A
100
AcDbEntity
  8
ARTL
 62
7
420
16777215
370
-1
 48
1.0
  6
Continuous
100
AcDbLine
 10
124.9948487675000024
 20
72.5171242579999955
 30
0.0
 11
124.9948487675000024
 21
74.5171242579999955
 31
0.0
  0
ARC
  5
15B
100
AcDbEntity
  8
ARTL
 62
7
420
16777215
370
-1
 48
1.0
  6
Continuous
100
AcDbCircle
 10
101.6910878162999978
 20
100.8208852093000019
 30
0.0
 40
1.4999999999999749
100
AcDbArc
 50
299.6372093673999757
 51
45.0
  0
ARC
  5
15C
100
AcDbEntity
  8
ARTL
 62
7
420
16777215
370
-1
 48
1.0
  6
Continuous
100
AcDbCircle
 10
983.2986097187999803
 20
100.8208852093000019
 30
0.0
 40
1.4999999999999829
100
AcDbArc
 50
135.0
 51
240.3627906326000243
  0
LINE
  5
15D
100
AcDbEntity
  8
ARTL
 62
7
420
16777215
370
-1
 48
1.0
  6
Continuous
100
AcDbLine
 10
981.9948487675000024
 20
102.1246461605000064
 30
0.0
 11
982.2379495469999711
 21
101.8815453810999969
 31
0.0
  0
ARC
  5
15E
100
AcDbEntity
  8
ARTL
 62
7
420
16777215
370
-1
 48
1.0
  6
Continuous
100
AcDbCircle
 10
983.2986097187999803
 20
100.8208852093000019
 30
0.0
 40
1.500000000000014
100
AcDbArc
 50
29.6372093674000006
 51
135.0
  0
ARC
  5
15F
100
AcDbEntity
  8
ARTL
 62
7
420
16777215
370
-1
 48
1.0
  6
Continuous
100
AcDbCircle
 10
983.2986097187999803
 20
407.428407111800027
 30
0.0
 40
1.499999999999976
100
AcDbArc
 50
225.0
 51
330.3627906326000243
  0
LINE
  5
160
100
AcDbEntity
  8
ARTL
 62
7
420
16777215
370
-1
 48
1.0
  6
Continuous
100
AcDbLine
 10
982.2379495469999711
 20
406.3677469400000177
 30
0.0
 11
981.9948487675000024
 21
406.1246461604999922
 31
0.0
  0
LINE
  5
161
100
AcDbEntity
  8
ARTL
 62
7
420
16777215
370
-1
 48
1.0
  6
Continuous
100
AcDbLine
 10
984.7632526262000283
 20
407.1046461605000104
 30
0.0
 11
1008.6023706700000275
 21
407.1046461605000104
 31
0.0
  0
LINE
  5
162
100
AcDbEntity
  8
ARTL
 62
7
420
16777215
370
-1
 48
1.0
  6
Continuous
100
AcDbLine
 10
1008.6023706700000275
 20
101.1446461605000025
 30
0.0
 11
984.7632526262000283
 21
101.1446461605000025
 31
0.0
  0
ARC
  5
163
100
AcDbEntity
  8
ARTL
 62
7
420
16777215
370
-1
 48
1.0
  6
Continuous
100
AcDbCircle
 10
983.2986097187999803
 20
100.8208852093000019
 30
0.0
 40
1.500000000000036
100
AcDbArc
 50
12.4648501258
 51
29.6372093674000006
  0
ARC
  5
164
100
AcDbEntity
  8
ARTL
 62
7
420
16777215
370
-1
 48
1.0
  6
Continuous
100
AcDbCircle
 10
983.2986097187999803
 20
407.428407111800027
 30
0.0
 40
1.5000000000000451
100
AcDbArc
 50
330.3627906326000243
 51
347.5351498741999876
  0
ARC
  5
165
100
AcDbEntity
  8
ARTL
 62
7
420
16777215
370
-1
 48
1.0
  6
Continuous
100
AcDbCircle
 10
1008.2966819972000394
 20
402.9094035000999838
 30
0.0
 40
4.2435147031810292
100
AcDbArc
 50
59.7040619938999981
 51
81.3496203763999972
  0
LINE
  5
166
100
AcDbEntity
  8
ARTL
 62
7
420
16777215
370
-1
 48
1.0
  6
Continuous
100
AcDbLine
 10
1010.4373935541999572
 20
406.5733879094000258
 30
0.0
 11
1011.2098925725000527
 21
405.8008852093000201
 31
0.0
  0
LINE
  5
167
100
AcDbEntity
  8
ARTL
 62
7
420
16777215
370
-1
 48
1.0
  6
Continuous
100
AcDbLine
 10
1008.6023706700000275
 20
407.1046461605000104
 30
0.0
 11
1008.9349265083000091
 21
407.1046461605000104
 31
0.0
  0
LINE
  5
168
100
AcDbEntity
  8
ARTL
 62
7
420
16777215
370
-1
 48
1.0
  6
Continuous
100
AcDbLine
 10
1011.2098925725000527
 20
101.1446461605000025
 30
0.0
 11
1008.6023706700000275
 21
101.1446461605000025
 31
0.0
  0
LINE
  5
169
100
AcDbEntity
  8
ARTL
 62
7
420
16777215
370
-1
 48
1.0
  6
Continuous
100
AcDbLine
 10
1011.2098925725000527
 20
405.8008852093000201
 30
0.0
 11
1030.209892572499939
 21
386.8008852093000201
 31
0.0
  0
LINE
  5
16A
100
AcDbEntity
  8
ARTL
 62
7
420
16777215
370
-1
 48
1.0
  6
Continuous
100
AcDbLine
 10
1030.209892572499939
 20
101.1446461605000025
 30
0.0
 11
1011.2098925725000527
 21
101.1446461605000025
 31
0.0
  0
LINE
  5
16B
100
AcDbEntity
  8
ARTL
 62
7
420
16777215
370
-1
 48
1.0
  6
Continuous
100
AcDbLine
 10
1030.209892572499939
 20
386.8008852093000201
 30
0.0
 11
1030.209892572499939
 21
101.1446461605000025
 31
0.0
  0
LINE
  5
16C
100
AcDbEntity
  8
ARTL
 62
7
420
16777215
370
-1
 48
1.0
  6
Continuous
100
AcDbLine
 10
124.9948487675000024
 20
60.9096023556000006
 30
0.0
 11
124.9948487675000024
 21
69.9096023556000006
 31
0.0
  0
LINE
  5
16D
100
AcDbEntity
  8
ARTL
 62
7
420
16777215
370
-1
 48
1.0
  6
Continuous
100
AcDbLine
 10
959.9948487675000024
 20
60.9096023556000006
 30
0.0
 11
959.9948487675000024
 21
69.9096023556000006
 31
0.0
  0
ARC
  5
16E
100
AcDbEntity
  8
ARTL
 62
7
420
16777215
370
-1
 48
1.0
  6
Continuous
100
AcDbCircle
 10
954.9948487675000024
 20
60.9096023556000006
 30
0.0
 40
5.0000000000000044
100
AcDbArc
 50
270.0
 51
0.0
  0
LINE
  5
16F
100
AcDbEntity
  8
ARTL
 62
7
420
16777215
370
-1
 48
1.0
  6
Continuous
100
AcDbLine
 10
129.9948487675000024
 20
55.9096023556000006
 30
0.0
 11
954.9948487675000024
 21
55.9096023556000006
 31
0.0
  0
ARC
  5
170
100
AcDbEntity
  8
ARTL
 62
7
420
16777215
370
-1
 48
1.0
  6
Continuous
100
AcDbCircle
 10
129.9948487675000024
 20
60.9096023556000006
 30
0.0
 40
5.0000000000000044
100
AcDbArc
 50
180.0
 51
270.0
  0
LINE
  5
171
100
AcDbEntity
  8
ARTL
 62
7
420
16777215
370
-1
 48
1.0
  6
Continuous
100
AcDbLine
 10
124.9948487675000024
 20
72.5171242579999955
 30
0.0
 11
124.9948487675000024
 21
69.9096023556000006
 31
0.0
  0
LINE
  5
172
100
AcDbEntity
  8
ARTL
 62
7
420
16777215
370
-1
 48
1.0
  6
Continuous
100
AcDbLine
 10
959.9948487675000024
 20
69.9096023556000006
 30
0.0
 11
959.9948487675000024
 21
72.5171242579999955
 31
0.0
  0
LINE
  5
173
100
AcDbEntity
  8
ARTL
 62
7
420
16777215
370
-1
 48
1.0
  6
CENTER2
100
AcDbLine
 10
102.0148487674999984
 20
434.0359290142000077
 30
0.0
 11
982.9748487675000206
 21
434.0359290142000077
 31
0.0
  0
LINE
  5
174
100
AcDbEntity
  8
ARTL
 62
7
420
16777215
370
-1
 48
1.0
  6
CENTER2
100
AcDbLine
 10
981.7986097187999803
 20
407.428407111800027
 30
0.0
 11
103.1910878162999978
 21
407.428407111800027
 31
0.0
  0
LINE
  5
175
100
AcDbEntity
  8
ARTL
 62
7
420
16777215
370
-1
 48
1.0
  6
CENTER2
100
AcDbLine
 10
75.0835659138000011
 20
101.1446461605000025
 30
0.0
 11
75.0835659138000011
 21
406.8316399244000081
 31
0.0
  0
LINE
  5
176
100
AcDbEntity
  8
ARTL
 62
7
420
16777215
370
-1
 48
1.0
  6
CENTER2
100
AcDbLine
 10
101.6910878162999978
 20
405.928407111800027
 30
0.0
 11
101.6910878162999978
 21
102.3208852093000019
 31
0.0
  0
LINE
  5
177
100
AcDbEntity
  8
ARTL
 62
7
420
16777215
370
-1
 48
1.0
  6
CENTER2
100
AcDbLine
 10
103.1910878162999978
 20
100.8208852093000019
 30
0.0
 11
981.7986097187999803
 21
100.8208852093000019
 31
0.0
  0
LINE
  5
178
100
AcDbEntity
  8
ARTL
 62
7
420
16777215
370
-1
 48
1.0
  6
CENTER2
100
AcDbLine
 10
983.2986097187999803
 20
102.3208852093000019
 30
0.0
 11
983.2986097187999803
 21
405.928407111800027
 31
0.0
  0
LINE
  5
179
100
AcDbEntity
  8
ARTL
 62
7
420
16777215
370
-1
 48
1.0
  6
CENTER2
100
AcDbLine
 10
1009.906131621199961
 20
406.8317680070999813
 30
0.0
 11
1009.906131621199961
 21
101.1446461605000025
 31
0.0
  0
LINE
  5
17A
100
AcDbEntity
  8
ARTL
 62
7
420
16777215
370
-1
 48
1.0
  6
CENTER2
100
AcDbLine
 10
124.9948487675000024
 20
71.2133633068000051
 30
0.0
 11
959.9948487675000024
 21
71.2133633068000051
 31
0.0
  0
INSERT
  5
17B
100
AcDbEntity
  8
Default
 62
256
370
-1
 48
1.0
  6
ByLayer
100
AcDbBlockReference
  2
SEANNOT_GROUP
 10
0.0
 20
0.0
 30
0.0
  0
INSERT
  5
17C
100
AcDbEntity
  8
Default
 62
256
370
-1
 48
1.0
  6
ByLayer
100
AcDbBlockReference
  2
SEANNOT_GROUP1
 10
0.0
 20
0.0
 30
0.0
  0
INSERT
  5
17D
100
AcDbEntity
  8
Default
 62
256
370
-1
 48
1.0
  6
ByLayer
100
AcDbBlockReference
  2
SEANNOT_GROUP2
 10
0.0
 20
0.0
 30
0.0
  0
INSERT
  5
17E
100
AcDbEntity
  8
Default
 62
256
370
-1
 48
1.0
  6
ByLayer
100
AcDbBlockReference
  2
SEANNOT_GROUP3
 10
0.0
 20
0.0
 30
0.0
  0
DIMENSION
  5
17F
100
AcDbEntity
  8
Default
 62
7
420
16777215
370
-1
 48
1.0
  6
Continuous
100
AcDbDimension
 10
54.7798049625999965
 20
483.3242148249000252
 30
0.0
 11
542.494840639500012
 21
483.3242148249000252
 31
0.0
 70
129
 71
8
 72
1
 74
0
 75
0
 41
1.0
 42
0.0
  1

  3
Standard
100
AcDbAlignedDimension
 13
54.7798049625999965
 23
386.8008852093000201
 33
0.0
 14
1030.209892572499939
 24
386.8008852093000201
 34
0.0
1001
ACAD
1000
DSTYLE
1002
{
1070
279
1070
2
1070
144
1040
1.0
1070
40
1040
1.0
1002
}
  0
ENDSEC
  0
SECTION
  2
OBJECTS
  0
DICTIONARY
  5
C
100
AcDbDictionary
280
0
281
1
  3
ACAD_GROUP
350
D
  3
ACAD_LAYOUT
350
1A
  3
ACAD_MLINESTYLE
350
17
  3
ACAD_PLOTSETTINGS
350
19
  3
ACAD_PLOTSTYLENAME
350
E
  3
AcDbVariableDictionary
350
180
  3
QCAD_OBJECTS
350
181
  0
DICTIONARY
  5
D
100
AcDbDictionary
280
0
281
1
  0
ACDBDICTIONARYWDFLT
  5
E
100
AcDbDictionary
281
1
  3
Normal
350
F
100
AcDbDictionaryWithDefault
340
F
  0
ACDBPLACEHOLDER
  5
F
  0
DICTIONARY
  5
17
100
AcDbDictionary
280
0
281
1
  3
Standard
350
18
  0
MLINESTYLE
  5
18
100
AcDbMlineStyle
  2
STANDARD
 70
0
  3

 62
256
 51
90.0
 52
90.0
 71
2
 49
0.5
 62
256
  6
BYLAYER
 49
-0.5
 62
256
  6
BYLAYER
  0
DICTIONARY
  5
19
100
AcDbDictionary
280
0
281
1
  0
DICTIONARY
  5
1A
100
AcDbDictionary
281
1
  3
Layout1
350
1E
  3
Layout2
350
26
  3
Model
350
22
  0
LAYOUT
  5
1E
100
AcDbPlotSettings
  1

  2
none_device
  4

  6

 40
0.0
 41
0.0
 42
0.0
 43
0.0
 44
0.0
 45
0.0
 46
0.0
 47
0.0
 48
0.0
 49
0.0
140
0.0
141
0.0
142
1.0
143
1.0
 70
688
 72
0
 73
0
 74
5
  7

 75
16
147
1.0
148
0.0
149
0.0
100
AcDbLayout
  1
Layout1
 70
1
 71
1
 10
0.0
 20
0.0
 11
420.0
 21
297.0
 12
0.0
 22
0.0
 32
0.0
 14
100000000000000000000.0
 24
100000000000000000000.0
 34
100000000000000000000.0
 15
-100000000000000000000.0
 25
-100000000000000000000.0
 35
-100000000000000000000.0
146
0.0
 13
0.0
 23
0.0
 33
0.0
 16
1.0
 26
0.0
 36
0.0
 17
0.0
 27
1.0
 37
0.0
 76
0
330
1B
  0
LAYOUT
  5
22
100
AcDbPlotSettings
  1

  2
none_device
  4

  6

 40
0.0
 41
0.0
 42
0.0
 43
0.0
 44
0.0
 45
0.0
 46
0.0
 47
0.0
 48
0.0
 49
0.0
140
0.0
141
0.0
142
1.0
143
1.0
 70
1712
 72
0
 73
0
 74
0
  7

 75
0
147
1.0
148
0.0
149
0.0
100
AcDbLayout
  1
Model
 70
1
 71
0
 10
0.0
 20
0.0
 11
12.0
 21
9.0
 12
0.0
 22
0.0
 32
0.0
 14
0.0
 24
0.0
 34
0.0
 15
0.0
 25
0.0
 35
0.0
146
0.0
 13
0.0
 23
0.0
 33
0.0
 16
1.0
 26
0.0
 36
0.0
 17
0.0
 27
1.0
 37
0.0
 76
0
330
1F
  0
LAYOUT
  5
26
100
AcDbPlotSettings
  1

  2
none_device
  4

  6

 40
0.0
 41
0.0
 42
0.0
 43
0.0
 44
0.0
 45
0.0
 46
0.0
 47
0.0
 48
0.0
 49
0.0
140
0.0
141
0.0
142
1.0
143
1.0
 70
688
 72
0
 73
0
 74
5
  7

 75
16
147
1.0
148
0.0
149
0.0
100
AcDbLayout
  1
Layout2
 70
1
 71
2
 10
0.0
 20
0.0
 11
12.0
 21
9.0
 12
0.0
 22
0.0
 32
0.0
 14
0.0
 24
0.0
 34
0.0
 15
0.0
 25
0.0
 35
0.0
146
0.0
 13
0.0
 23
0.0
 33
0.0
 16
1.0
 26
0.0
 36
0.0
 17
0.0
 27
1.0
 37
0.0
 76
0
330
23
  0
DICTIONARY
  5
180
100
AcDbDictionary
281
1
  3
DIMASSOC
350
183
  3
HIDETEXT
350
182
  0
DICTIONARYVAR
  5
182
100
DictionaryVariables
280
0
  1
2
  0
DICTIONARYVAR
  5
183
100
DictionaryVariables
280
0
  1
1
  0
DICTIONARY
  5
181
100
AcDbDictionary
281
1
  3
ColorSettings/BackgroundColor
350
184
  3
ColorSettings/ColorMode
350
185
  3
Grid/DisplayGrid00
350
186
  3
Grid/DisplayGrid01
350
187
  3
Grid/DisplayGrid02
350
188
  3
Grid/DisplayGrid03
350
189
  3
Grid/GridSpacingX00
350
18A
  3
Grid/GridSpacingX01
350
18B
  3
Grid/GridSpacingX02
350
18C
  3
Grid/GridSpacingX03
350
18D
  3
Grid/GridSpacingY00
350
18E
  3
Grid/GridSpacingY01
350
18F
  3
Grid/GridSpacingY02
350
190
  3
Grid/GridSpacingY03
350
191
  3
Grid/IsometricGrid00
350
192
  3
Grid/IsometricGrid01
350
193
  3
Grid/IsometricGrid02
350
194
  3
Grid/IsometricGrid03
350
195
  3
Grid/IsometricProjection00
350
196
  3
Grid/IsometricProjection01
350
197
  3
Grid/IsometricProjection02
350
198
  3
Grid/IsometricProjection03
350
199
  3
Grid/MetaGridSpacingX00
350
19A
  3
Grid/MetaGridSpacingX01
350
19B
  3
Grid/MetaGridSpacingX02
350
19C
  3
Grid/MetaGridSpacingX03
350
19D
  3
Grid/MetaGridSpacingY00
350
19E
  3
Grid/MetaGridSpacingY01
350
19F
  3
Grid/MetaGridSpacingY02
350
1A0
  3
Grid/MetaGridSpacingY03
350
1A1
  3
MultiPageSettings/Columns
350
1A2
  3
MultiPageSettings/GlueMarginsBottom
350
1A3
  3
MultiPageSettings/GlueMarginsLeft
350
1A4
  3
MultiPageSettings/GlueMarginsRight
350
1A5
  3
MultiPageSettings/GlueMarginsTop
350
1A6
  3
MultiPageSettings/PrintCropMarks
350
1A7
  3
MultiPageSettings/Rows
350
1A8
  3
PageSettings/OffsetX
350
1A9
  3
PageSettings/OffsetY
350
1AA
  3
PageSettings/PageOrientation
350
1AB
  3
PageSettings/PaperHeight
350
1AC
  3
PageSettings/PaperWidth
350
1AD
  3
PageSettings/Scale
350
1AE
  3
PageSettings/ShowPaperBorders
350
1AF
  3
PageTagSettings/EnablePageTags
350
1B0
  3
PageTagSettings/TagAlignment
350
1B1
  3
PageTagSettings/TagFont
350
1B2
  3
PageTagSettings/TagPosition
350
1B3
  3
QCADVersion
350
1B4
  3
UnitSettings/PaperUnit
350
1B5
  3
ViewportCenter
350
1B6
  3
ViewportHeight
350
1B7
  3
ViewportWidth
350
1B8
  0
XRECORD
  5
184
330
181
100
AcDbXrecord
280
1
1000
Bianco
  0
XRECORD
  5
185
330
181
100
AcDbXrecord
280
1
1000
FullColor
  0
XRECORD
  5
186
330
181
100
AcDbXrecord
280
1
290
1
  0
XRECORD
  5
187
330
181
100
AcDbXrecord
280
1
290
1
  0
XRECORD
  5
188
330
181
100
AcDbXrecord
280
1
290
1
  0
XRECORD
  5
189
330
181
100
AcDbXrecord
280
1
290
1
  0
XRECORD
  5
18A
330
181
100
AcDbXrecord
280
1
1000
auto
  0
XRECORD
  5
18B
330
181
100
AcDbXrecord
280
1
1000
auto
  0
XRECORD
  5
18C
330
181
100
AcDbXrecord
280
1
1000
auto
  0
XRECORD
  5
18D
330
181
100
AcDbXrecord
280
1
1000
auto
  0
XRECORD
  5
18E
330
181
100
AcDbXrecord
280
1
1000
auto
  0
XRECORD
  5
18F
330
181
100
AcDbXrecord
280
1
1000
auto
  0
XRECORD
  5
190
330
181
100
AcDbXrecord
280
1
1000
auto
  0
XRECORD
  5
191
330
181
100
AcDbXrecord
280
1
1000
auto
  0
XRECORD
  5
192
330
181
100
AcDbXrecord
280
1
290
0
  0
XRECORD
  5
193
330
181
100
AcDbXrecord
280
1
290
0
  0
XRECORD
  5
194
330
181
100
AcDbXrecord
280
1
290
0
  0
XRECORD
  5
195
330
181
100
AcDbXrecord
280
1
290
0
  0
XRECORD
  5
196
330
181
100
AcDbXrecord
280
1
 90
65537
  0
XRECORD
  5
197
330
181
100
AcDbXrecord
280
1
 90
65537
  0
XRECORD
  5
198
330
181
100
AcDbXrecord
280
1
 90
65537
  0
XRECORD
  5
199
330
181
100
AcDbXrecord
280
1
 90
65537
  0
XRECORD
  5
19A
330
181
100
AcDbXrecord
280
1
1000
auto
  0
XRECORD
  5
19B
330
181
100
AcDbXrecord
280
1
1000
auto
  0
XRECORD
  5
19C
330
181
100
AcDbXrecord
280
1
1000
auto
  0
XRECORD
  5
19D
330
181
100
AcDbXrecord
280
1
1000
auto
  0
XRECORD
  5
19E
330
181
100
AcDbXrecord
280
1
1000
auto
  0
XRECORD
  5
19F
330
181
100
AcDbXrecord
280
1
1000
auto
  0
XRECORD
  5
1A0
330
181
100
AcDbXrecord
280
1
1000
auto
  0
XRECORD
  5
1A1
330
181
100
AcDbXrecord
280
1
1000
auto
  0
XRECORD
  5
1A2
330
181
100
AcDbXrecord
280
1
 90
1
  0
XRECORD
  5
1A3
330
181
100
AcDbXrecord
280
1
 40
10.0
  0
XRECORD
  5
1A4
330
181
100
AcDbXrecord
280
1
 40
10.0
  0
XRECORD
  5
1A5
330
181
100
AcDbXrecord
280
1
 40
10.0
  0
XRECORD
  5
1A6
330
181
100
AcDbXrecord
280
1
 40
10.0
  0
XRECORD
  5
1A7
330
181
100
AcDbXrecord
280
1
290
0
  0
XRECORD
  5
1A8
330
181
100
AcDbXrecord
280
1
 90
1
  0
XRECORD
  5
1A9
330
181
100
AcDbXrecord
280
1
 40
0.0
  0
XRECORD
  5
1AA
330
181
100
AcDbXrecord
280
1
 40
0.0
  0
XRECORD
  5
1AB
330
181
100
AcDbXrecord
280
1
1000
Portrait
  0
XRECORD
  5
1AC
330
181
100
AcDbXrecord
280
1
 40
297.0
  0
XRECORD
  5
1AD
330
181
100
AcDbXrecord
280
1
 40
210.0
  0
XRECORD
  5
1AE
330
181
100
AcDbXrecord
280
1
1000
1:1
  0
XRECORD
  5
1AF
330
181
100
AcDbXrecord
280
1
290
1
  0
XRECORD
  5
1B0
330
181
100
AcDbXrecord
280
1
290
0
  0
XRECORD
  5
1B1
330
181
100
AcDbXrecord
280
1
1000
Inside
  0
XRECORD
  5
1B2
330
181
100
AcDbXrecord
280
1
1000
Arial,10,-1,5,50,0,0,0,0,0
  0
XRECORD
  5
1B3
330
181
100
AcDbXrecord
280
1
1000
TopLeft
  0
XRECORD
  5
1B4
330
181
100
AcDbXrecord
280
1
1000
3.32.6
  0
XRECORD
  5
1B5
330
181
100
AcDbXrecord
280
1
 90
4
  0
XRECORD
  5
1B7
330
181
100
AcDbXrecord
280
1
 40
639.4987103123356746
  0
XRECORD
  5
1B8
330
181
100
AcDbXrecord
280
1
 40
1275.6048545222188295
  0
ENDSEC
  0
EOF
