999
dxflib 3.26.4.0
  0
SECTION
  2
HEADER
  9
$ACADVER
  1
AC1015
  9
$HANDSEED
  5
FFFF
  9
$ANGBASE
 50
0.0
  9
$ANGDIR
 70
0
  9
$ATTMODE
 70
1
  9
$AUNITS
 70
0
  9
$AUPREC
 70
0
  9
$CECOLOR
 62
256
  9
$CELTSCALE
 40
1.0
  9
$CHAMFERA
 40
0.0
  9
$CHAMFERB
 40
0.0
  9
$CHAMFERC
 40
0.0
  9
$CHAMFERD
 40
0.0
  9
$CMLJUST
 70
0
  9
$CMLSCALE
 40
1.0
  9
$DIMADEC
 70
0
  9
$DIMALT
 70
0
  9
$DIMALTD
 70
2
  9
$DIMALTF
 40
25.3999999999999986
  9
$DIMALTRND
 40
0.0
  9
$DIMALTTD
 70
2
  9
$DIMALTTZ
 70
0
  9
$DIMALTU
 70
2
  9
$DIMALTZ
 70
0
  9
$DIMAPOST
  1

  9
$DIMASZ
 40
3.0
  9
$DIMATFIT
 70
3
  9
$DIMAUNIT
 70
0
  9
$DIMAZIN
 70
0
  9
$DIMBLK
  1
0
  9
$DIMBLK1
  1
0
  9
$DIMBLK2
  1
0
  9
$DIMCEN
 40
3.7799999999999989
  9
$DIMCLRD
 70
0
  9
$DIMCLRE
 70
0
  9
$DIMDEC
 70
4
  9
$DIMDLE
 40
0.0
  9
$DIMDLI
 40
15.9600000000000009
  9
$DIMDSEP
 70
46
  9
$DIMEXE
 40
2.5
  9
$DIMEXO
 40
0.5
  9
$DIMFRAC
 70
0
  9
$DIMGAP
 40
0.625
  9
$DIMJUST
 70
0
  9
$DIMLDRBLK
  1

  9
$DIMLFAC
 40
1.0
  9
$DIMLIM
 70
0
  9
$DIMLUNIT
 70
2
  9
$DIMLWD
 70
-2
  9
$DIMLWE
 70
-2
  9
$DIMPOST
  1

  9
$DIMRND
 40
0.0
  9
$DIMSAH
 70
0
  9
$DIMSCALE
 40
1.0
  9
$DIMSD1
 70
0
  9
$DIMSD2
 70
0
  9
$DIMSE1
 70
0
  9
$DIMSE2
 70
0
  9
$DIMSOXD
 70
0
  9
$DIMTAD
 70
0
  9
$DIMTDEC
 70
4
  9
$DIMTFAC
 40
1.0
  9
$DIMTIH
 70
1
  9
$DIMTIX
 70
0
  9
$DIMTM
 40
0.001
  9
$DIMTOFL
 70
0
  9
$DIMTOH
 70
1
  9
$DIMTOL
 70
1
  9
$DIMTOLJ
 70
1
  9
$DIMTP
 40
0.001
  9
$DIMTSZ
 40
0.0
  9
$DIMTVP
 40
0.0
  9
$DIMTXSTY
  7
STANDARD
  9
$DIMTXT
 40
3.5
  9
$DIMTZIN
 70
0
  9
$DIMUPT
 70
0
  9
$DIMZIN
 70
0
  9
$DISPSILH
 70
0
  9
$DWGCODEPAGE
  3
ANSI_1252
  9
$ELEVATION
 40
0.0
  9
$EXTMAX
 10
420.0
 20
297.2343669450999073
 30
0.0
  9
$EXTMIN
 10
0.0
 20
0.0
 30
0.0
  9
$FILLETRAD
 40
0.0
  9
$FILLMODE
 70
1
  9
$INSBASE
 10
0.0
 20
0.0
 30
0.0
  9
$INSUNITS
 70
4
  9
$LIMCHECK
 70
0
  9
$LIMMAX
 10
420.0
 20
297.0
  9
$LIMMIN
 10
0.0
 20
0.0
  9
$LTSCALE
 40
23.1000000000000014
  9
$LUNITS
 70
2
  9
$LUPREC
 70
4
  9
$MAXACTVP
 70
64
  9
$MEASUREMENT
 70
1
  9
$MIRRTEXT
 70
0
  9
$ORTHOMODE
 70
0
  9
$PDMODE
 70
0
  9
$PDSIZE
 40
0.1
  9
$PELEVATION
 40
0.0
  9
$PEXTMAX
 10
-100000000000000000000.0
 20
-100000000000000000000.0
 30
-100000000000000000000.0
  9
$PEXTMIN
 10
100000000000000000000.0
 20
100000000000000000000.0
 30
100000000000000000000.0
  9
$PINSBASE
 10
0.0
 20
0.0
 30
0.0
  9
$PLIMCHECK
 70
0
  9
$PLIMMAX
 10
12.0
 20
9.0
  9
$PLIMMIN
 10
0.0
 20
0.0
  9
$PLINEGEN
 70
0
  9
$PLINEWID
 40
0.0
  9
$PROXYGRAPHICS
 70
1
  9
$PSLTSCALE
 70
1
  9
$PUCSNAME
  2

  9
$PUCSORG
 10
0.0
 20
0.0
 30
0.0
  9
$PUCSXDIR
 10
1.0
 20
0.0
 30
0.0
  9
$PUCSYDIR
 10
0.0
 20
1.0
 30
0.0
  9
$QTEXTMODE
 70
0
  9
$REGENMODE
 70
1
  9
$SHADEDGE
 70
3
  9
$SHADEDIF
 70
70
  9
$SKETCHINC
 40
0.1
  9
$SKPOLY
 70
0
  9
$SPLFRAME
 70
0
  9
$SPLINESEGS
 70
8
  9
$SPLINETYPE
 70
6
  9
$SURFTAB1
 70
6
  9
$SURFTAB2
 70
6
  9
$SURFTYPE
 70
6
  9
$SURFU
 70
6
  9
$SURFV
 70
6
  9
$TEXTSIZE
 40
0.2
  9
$TEXTSTYLE
  7
STANDARD
  9
$THICKNESS
 40
0.0
  9
$TILEMODE
 70
1
  9
$TRACEWID
 40
0.05
  9
$TREEDEPTH
 70
3020
  9
$UCSNAME
  2

  9
$UCSORG
 10
0.0
 20
0.0
 30
0.0
  9
$UCSXDIR
 10
1.0
 20
0.0
 30
0.0
  9
$UCSYDIR
 10
0.0
 20
1.0
 30
0.0
  9
$UNITMODE
 70
0
  9
$USERI1
 70
0
  9
$USERI2
 70
0
  9
$USERI3
 70
0
  9
$USERI4
 70
0
  9
$USERI5
 70
0
  9
$USERR1
 40
0.0
  9
$USERR2
 40
0.0
  9
$USERR3
 40
0.0
  9
$USERR4
 40
0.0
  9
$USERR5
 40
0.0
  9
$USRTIMER
 70
1
  9
$VISRETAIN
 70
1
  0
ENDSEC
  0
SECTION
  2
TABLES
  0
TABLE
  2
VPORT
  5
8
100
AcDbSymbolTable
 70
1
  0
VPORT
  5
30
100
AcDbSymbolTableRecord
100
AcDbViewportTableRecord
  2
*Active
 70
0
 10
0.0
 20
0.0
 11
1.0
 21
1.0
 12
286.3055555555554861
 22
148.5
 13
0.0
 23
0.0
 14
10.0
 24
10.0
 15
10.0
 25
10.0
 16
0.0
 26
0.0
 36
1.0
 17
0.0
 27
0.0
 37
0.0
 40
297.0
 41
1.92798353909465
 42
50.0
 43
0.0
 44
0.0
 50
0.0
 51
0.0
 71
0
 72
100
 73
1
 74
3
 75
1
 76
1
 77
0
 78
0
281
0
 65
1
110
0.0
120
0.0
130
0.0
111
1.0
121
0.0
131
0.0
112
0.0
122
1.0
132
0.0
 79
0
146
0.0
  0
ENDTAB
  0
TABLE
  2
LTYPE
  5
5
100
AcDbSymbolTable
 70
51
  0
LTYPE
  5
16
100
AcDbSymbolTableRecord
100
AcDbLinetypeTableRecord
  2
CONTINUOUS
 70
0
  3
Solid line
 72
65
 73
0
 40
0.0
  0
LTYPE
  5
31
100
AcDbSymbolTableRecord
100
AcDbLinetypeTableRecord
  2
DASHDOT2
 70
0
  3
Dash dot (.5x) _._._._._._._._._._._._._._._.
 72
65
 73
4
 40
12.6999999999999993
 49
6.3499999999999996
 74
0
 49
-3.125
 74
0
 49
0.1
 74
0
 49
-3.125
 74
0
  0
LTYPE
  5
32
100
AcDbSymbolTableRecord
100
AcDbLinetypeTableRecord
  2
BORDER2
 70
0
  3
Border (.5x) __.__.__.__.__.__.__.__.__.__.__.
 72
65
 73
6
 40
22.2250000000000014
 49
6.3499999999999996
 74
0
 49
-3.1749999999999998
 74
0
 49
6.3499999999999996
 74
0
 49
-3.125
 74
0
 49
0.1
 74
0
 49
-3.125
 74
0
  0
LTYPE
  5
33
100
AcDbSymbolTableRecord
100
AcDbLinetypeTableRecord
  2
ACAD_ISO04W100
 70
0
  3
ISO long-dash dot ____ . ____ . ____ . ____ . _
 72
65
 73
4
 40
30.0
 49
24.0
 74
0
 49
-2.9500000000000002
 74
0
 49
0.1
 74
0
 49
-2.9500000000000002
 74
0
  0
LTYPE
  5
34
100
AcDbSymbolTableRecord
100
AcDbLinetypeTableRecord
  2
DASHEDX2
 70
0
  3
Dashed (2x) ____  ____  ____  ____  ____  ___
 72
65
 73
2
 40
38.0999999999999943
 49
25.3999999999999986
 74
0
 49
-12.6999999999999993
 74
0
  0
LTYPE
  5
35
100
AcDbSymbolTableRecord
100
AcDbLinetypeTableRecord
  2
DASHDOTX2
 70
0
  3
Dash dot (2x) ____  .  ____  .  ____  .  ___
 72
65
 73
4
 40
50.7999999999999972
 49
25.3999999999999986
 74
0
 49
-12.6499999999999986
 74
0
 49
0.1
 74
0
 49
-12.6499999999999986
 74
0
  0
LTYPE
  5
36
100
AcDbSymbolTableRecord
100
AcDbLinetypeTableRecord
  2
ACISOTGB
 70
0
  3
__ . . __ . .
 72
65
 73
6
 40
9.0
 49
4.0
 74
0
 49
-1.0
 74
0
 49
1.0
 74
0
 49
-1.0
 74
0
 49
1.0
 74
0
 49
-1.0
 74
0
  0
LTYPE
  5
37
100
AcDbSymbolTableRecord
100
AcDbLinetypeTableRecord
  2
DIVIDE2
 70
0
  3
Divide (.5x) __..__..__..__..__..__..__..__.._
 72
65
 73
6
 40
15.8749999999999982
 49
6.3499999999999996
 74
0
 49
-3.125
 74
0
 49
0.1
 74
0
 49
-3.0750000000000002
 74
0
 49
0.1
 74
0
 49
-3.125
 74
0
  0
LTYPE
  5
38
100
AcDbSymbolTableRecord
100
AcDbLinetypeTableRecord
  2
DIVIDE
 70
0
  3
Divide ____ . . ____ . . ____ . . ____ . . ____
 72
65
 73
6
 40
31.7500000000000036
 49
12.6999999999999993
 74
0
 49
-6.2999999999999998
 74
0
 49
0.1
 74
0
 49
-6.25
 74
0
 49
0.1
 74
0
 49
-6.2999999999999998
 74
0
  0
LTYPE
  5
39
100
AcDbSymbolTableRecord
100
AcDbLinetypeTableRecord
  2
ACISOWELD
 70
0
  3
_ _ _ _ _
 72
65
 73
2
 40
3.0
 49
2.0
 74
0
 49
-1.0
 74
0
  0
LTYPE
  5
3A
100
AcDbSymbolTableRecord
100
AcDbLinetypeTableRecord
  2
BORDER
 70
0
  3
Border __ __ . __ __ . __ __ . __ __ . __ __ .
 72
65
 73
6
 40
44.4499999999999957
 49
12.6999999999999993
 74
0
 49
-6.3499999999999996
 74
0
 49
12.6999999999999993
 74
0
 49
-6.2999999999999998
 74
0
 49
0.1
 74
0
 49
-6.2999999999999998
 74
0
  0
LTYPE
  5
3B
100
AcDbSymbolTableRecord
100
AcDbLinetypeTableRecord
  2
DOT
 70
0
  3
. . . . . . . . . . . . . . . . . . . .
 72
65
 73
2
 40
0.2
 49
0.1
 74
0
 49
-0.1
 74
0
  0
LTYPE
  5
3C
100
AcDbSymbolTableRecord
100
AcDbLinetypeTableRecord
  2
AM_ISO02W050
 70
0
  3
__ __ __ __ __ __ __ __ __ __ __ __ __ __ __
 72
65
 73
2
 40
7.5
 49
6.0
 74
0
 49
-1.5
 74
0
  0
LTYPE
  5
3D
100
AcDbSymbolTableRecord
100
AcDbLinetypeTableRecord
  2
ACAD_ISO14W100
 70
0
  3
ISO dash triple-dot __ . . . __ . . . __ . . . _
 72
65
 73
8
 40
24.0000000000000036
 49
12.0
 74
0
 49
-2.9500000000000002
 74
0
 49
0.1
 74
0
 49
-2.9000000000000004
 74
0
 49
0.1
 74
0
 49
-2.9000000000000004
 74
0
 49
0.1
 74
0
 49
-2.9500000000000002
 74
0
  0
LTYPE
  5
3E
100
AcDbSymbolTableRecord
100
AcDbLinetypeTableRecord
  2
DASHED
 70
0
  3
- - - - - - - - - - - - - - - - - - - -
 72
65
 73
2
 40
0.2
 49
0.1
 74
0
 49
-0.1
 74
0
  0
LTYPE
  5
3F
100
AcDbSymbolTableRecord
100
AcDbLinetypeTableRecord
  2
AM_ISO02W050x2
 70
0
  3
 _ _ _ _ _ _ _ _ _ _ _ _
 72
65
 73
2
 40
3.75
 49
3.0
 74
0
 49
-0.75
 74
0
  0
LTYPE
  5
40
100
AcDbSymbolTableRecord
100
AcDbLinetypeTableRecord
  2
CENTER2
 70
0
  3
Center (.5x) ___ _ ___ _ ___ _ ___ _ ___ _ ___
 72
65
 73
4
 40
28.5750000000000028
 49
19.0500000000000007
 74
0
 49
-3.1749999999999998
 74
0
 49
3.1749999999999998
 74
0
 49
-3.1749999999999998
 74
0
  0
LTYPE
  5
41
100
AcDbSymbolTableRecord
100
AcDbLinetypeTableRecord
  2
DIVIDEX2
 70
0
  3
Divide (2x) ________  .  .  ________  .  .  _
 72
65
 73
6
 40
63.5
 49
25.3999999999999986
 74
0
 49
-12.6499999999999986
 74
0
 49
0.1
 74
0
 49
-12.5999999999999979
 74
0
 49
0.1
 74
0
 49
-12.6499999999999986
 74
0
  0
LTYPE
  5
14
100
AcDbSymbolTableRecord
100
AcDbLinetypeTableRecord
  2
BYBLOCK
 70
0
  3

 72
65
 73
0
 40
0.0
  0
LTYPE
  5
42
100
AcDbSymbolTableRecord
100
AcDbLinetypeTableRecord
  2
ACAD_ISO03W100
 70
0
  3
ISO dash space __    __    __    __    __    __
 72
65
 73
2
 40
30.0
 49
12.0
 74
0
 49
-18.0
 74
0
  0
LTYPE
  5
43
100
AcDbSymbolTableRecord
100
AcDbLinetypeTableRecord
  2
DASHED2
 70
0
  3
Dashed (.5x) _ _ _ _ _ _ _ _ _ _ _ _ _ _ _ _ _ 
 72
65
 73
2
 40
9.5249999999999986
 49
6.3499999999999996
 74
0
 49
-3.1749999999999998
 74
0
  0
LTYPE
  5
44
100
AcDbSymbolTableRecord
100
AcDbLinetypeTableRecord
  2
ACAD_ISO02W100
 70
0
  3
ISO dash __ __ __ __ __ __ __ __ __ __ __ __ __
 72
65
 73
2
 40
15.0
 49
12.0
 74
0
 49
-3.0
 74
0
  0
LTYPE
  5
45
100
AcDbSymbolTableRecord
100
AcDbLinetypeTableRecord
  2
AM_ISO09W050
 70
0
  3
_____ . . _____ . . _____ . . ____ .. ____
 72
65
 73
6
 40
22.5
 49
12.0
 74
0
 49
-1.5
 74
0
 49
3.0
 74
0
 49
-1.5
 74
0
 49
3.0
 74
0
 49
-1.5
 74
0
  0
LTYPE
  5
46
100
AcDbSymbolTableRecord
100
AcDbLinetypeTableRecord
  2
ACAD_ISO09W100
 70
0
  3
ISO long-dash double-short-dash ____ __ __ ____
 72
65
 73
6
 40
45.0
 49
24.0
 74
0
 49
-3.0
 74
0
 49
6.0
 74
0
 49
-3.0
 74
0
 49
6.0
 74
0
 49
-3.0
 74
0
  0
LTYPE
  5
47
100
AcDbSymbolTableRecord
100
AcDbLinetypeTableRecord
  2
ACAD_ISO06W100
 70
0
  3
ISO long-dash triple-dot ____ ... ____ ... ____
 72
65
 73
8
 40
36.0000000000000071
 49
24.0
 74
0
 49
-2.9500000000000002
 74
0
 49
0.1
 74
0
 49
-2.9000000000000004
 74
0
 49
0.1
 74
0
 49
-2.9000000000000004
 74
0
 49
0.1
 74
0
 49
-2.9500000000000002
 74
0
  0
LTYPE
  5
48
100
AcDbSymbolTableRecord
100
AcDbLinetypeTableRecord
  2
HIDDEN2
 70
0
  3
Hidden (.5x) _ _ _ _ _ _ _ _ _ _ _ _ _ _ _ _ _ 
 72
65
 73
2
 40
4.7624999999999993
 49
3.1749999999999998
 74
0
 49
-1.5874999999999999
 74
0
  0
LTYPE
  5
49
100
AcDbSymbolTableRecord
100
AcDbLinetypeTableRecord
  2
DOT2
 70
0
  3
Dot (.5x) ........................................
 72
65
 73
2
 40
3.1749999999999998
 49
0.1
 74
0
 49
-3.0749999999999997
 74
0
  0
LTYPE
  5
4A
100
AcDbSymbolTableRecord
100
AcDbLinetypeTableRecord
  2
ACAD_ISO11W100
 70
0
  3
ISO double-dash dot __ __ . __ __ . __ __ . __ _
 72
65
 73
6
 40
33.0
 49
12.0
 74
0
 49
-3.0
 74
0
 49
12.0
 74
0
 49
-2.9500000000000002
 74
0
 49
0.1
 74
0
 49
-2.9500000000000002
 74
0
  0
LTYPE
  5
4B
100
AcDbSymbolTableRecord
100
AcDbLinetypeTableRecord
  2
AM_ISO08W050x2
 70
0
  3
__ . __ . __ . __ . __ . __
 72
65
 73
4
 40
9.0
 49
6.0
 74
0
 49
-0.75
 74
0
 49
1.5
 74
0
 49
-0.75
 74
0
  0
LTYPE
  5
4C
100
AcDbSymbolTableRecord
100
AcDbLinetypeTableRecord
  2
ACAD_ISO08W100
 70
0
  3
ISO long-dash short-dash ____ __ ____ __ ____ _
 72
65
 73
4
 40
36.0
 49
24.0
 74
0
 49
-3.0
 74
0
 49
6.0
 74
0
 49
-3.0
 74
0
  0
LTYPE
  5
4D
100
AcDbSymbolTableRecord
100
AcDbLinetypeTableRecord
  2
Amzigzag
 70
0
  3
/\/-/\/-/\/-/\/-/\/-/\/
 72
65
 73
2
 40
11.0000999999999998
 49
0.0001
 74
0
 49
-11.0
 74
0
  0
LTYPE
  5
4E
100
AcDbSymbolTableRecord
100
AcDbLinetypeTableRecord
  2
Amconstr
 70
0
  3
_______________________
 72
65
 73
2
 40
9999.2000000000007276
 49
9999.1000000000003638
 74
0
 49
0.1
 74
0
  0
LTYPE
  5
4F
100
AcDbSymbolTableRecord
100
AcDbLinetypeTableRecord
  2
HIDDENX2
 70
0
  3
Hidden (2x) ____ ____ ____ ____ ____ ____ ____ 
 72
65
 73
2
 40
19.0499999999999972
 49
12.6999999999999993
 74
0
 49
-6.3499999999999996
 74
0
  0
LTYPE
  5
50
100
AcDbSymbolTableRecord
100
AcDbLinetypeTableRecord
  2
AM_ISO08W050
 70
0
  3
____ . ____ . ____ . ____ . ____ . ____ . ____
 72
65
 73
4
 40
18.0
 49
12.0
 74
0
 49
-1.5
 74
0
 49
3.0
 74
0
 49
-1.5
 74
0
  0
LTYPE
  5
51
100
AcDbSymbolTableRecord
100
AcDbLinetypeTableRecord
  2
CENTER
 70
0
  3
____ _ ____ _ ____ _ ____ _ ____ _ ____ _ ____
 72
65
 73
4
 40
0.6
 49
0.375
 74
0
 49
-0.075
 74
0
 49
0.075
 74
0
 49
-0.075
 74
0
  0
LTYPE
  5
52
100
AcDbSymbolTableRecord
100
AcDbLinetypeTableRecord
  2
BORDERX2
 70
0
  3
Border (2x) ____  ____  .  ____  ____  .  ___
 72
65
 73
6
 40
88.8999999999999773
 49
25.3999999999999986
 74
0
 49
-12.6999999999999993
 74
0
 49
25.3999999999999986
 74
0
 49
-12.6499999999999986
 74
0
 49
0.1
 74
0
 49
-12.6499999999999986
 74
0
  0
LTYPE
  5
53
100
AcDbSymbolTableRecord
100
AcDbLinetypeTableRecord
  2
DASHDOT
 70
0
  3
Dash dot __ . __ . __ . __ . __ . __ . __ . __
 72
65
 73
4
 40
25.4000000000000021
 49
12.6999999999999993
 74
0
 49
-6.2999999999999998
 74
0
 49
0.1
 74
0
 49
-6.2999999999999998
 74
0
  0
LTYPE
  5
54
100
AcDbSymbolTableRecord
100
AcDbLinetypeTableRecord
  2
PHANTOM
 70
0
  3
_____ _ _ _____ _ _ _____ _ _ _____
 72
65
 73
6
 40
0.8
 49
0.45
 74
0
 49
-0.05
 74
0
 49
0.1
 74
0
 49
-0.05
 74
0
 49
0.1
 74
0
 49
-0.05
 74
0
  0
LTYPE
  5
55
100
AcDbSymbolTableRecord
100
AcDbLinetypeTableRecord
  2
HIDDEN
 70
0
  3
- - - - - - - - - - - - - - - - - - - -
 72
65
 73
2
 40
0.2
 49
0.1
 74
0
 49
-0.1
 74
0
  0
LTYPE
  5
56
100
AcDbSymbolTableRecord
100
AcDbLinetypeTableRecord
  2
ACAD_ISO15W100
 70
0
  3
ISO double-dash triple-dot __ __ . . . __ __ . .
 72
65
 73
10
 40
39.0000000000000071
 49
12.0
 74
0
 49
-3.0
 74
0
 49
12.0
 74
0
 49
-2.9500000000000002
 74
0
 49
0.1
 74
0
 49
-2.9000000000000004
 74
0
 49
0.1
 74
0
 49
-2.9000000000000004
 74
0
 49
0.1
 74
0
 49
-2.9500000000000002
 74
0
  0
LTYPE
  5
57
100
AcDbSymbolTableRecord
100
AcDbLinetypeTableRecord
  2
ACAD_ISO13W100
 70
0
  3
ISO double-dash double-dot __ __ . . __ __ . . _
 72
65
 73
8
 40
36.0000000000000071
 49
12.0
 74
0
 49
-3.0
 74
0
 49
12.0
 74
0
 49
-2.9500000000000002
 74
0
 49
0.1
 74
0
 49
-2.9000000000000004
 74
0
 49
0.1
 74
0
 49
-2.9500000000000002
 74
0
  0
LTYPE
  5
58
100
AcDbSymbolTableRecord
100
AcDbLinetypeTableRecord
  2
PHANTOMX2
 70
0
  3
Phantom (2x) ____________    ____    ____   _
 72
65
 73
6
 40
127.0000000000000142
 49
63.5
 74
0
 49
-12.6999999999999993
 74
0
 49
12.6999999999999993
 74
0
 49
-12.6999999999999993
 74
0
 49
12.6999999999999993
 74
0
 49
-12.6999999999999993
 74
0
  0
LTYPE
  5
59
100
AcDbSymbolTableRecord
100
AcDbLinetypeTableRecord
  2
DOTX2
 70
0
  3
Dot (2x) .  .  .  .  .  .  .  .  .  .  .  .  .  .
 72
65
 73
2
 40
12.6999999999999993
 49
0.1
 74
0
 49
-12.5999999999999996
 74
0
  0
LTYPE
  5
5A
100
AcDbSymbolTableRecord
100
AcDbLinetypeTableRecord
  2
ACAD_ISO12W100
 70
0
  3
ISO dash double-dot __ . . __ . . __ . . __ . . 
 72
65
 73
6
 40
21.0
 49
12.0
 74
0
 49
-2.9500000000000002
 74
0
 49
0.1
 74
0
 49
-2.9000000000000004
 74
0
 49
0.1
 74
0
 49
-2.9500000000000002
 74
0
  0
LTYPE
  5
5B
100
AcDbSymbolTableRecord
100
AcDbLinetypeTableRecord
  2
ACAD_ISO07W100
 70
0
  3
ISO dot . . . . . . . . . . . . . . . . . . . . 
 72
65
 73
2
 40
3.0
 49
0.1
 74
0
 49
-2.8999999999999999
 74
0
  0
LTYPE
  5
5C
100
AcDbSymbolTableRecord
100
AcDbLinetypeTableRecord
  2
PHANTOM2
 70
0
  3
Linea-Lineette (.5x) ___ _ _ ___ _ _ ___ _ _ ___ _ _
 72
65
 73
6
 40
31.7499999999999858
 49
15.875
 74
0
 49
-3.1749999999999989
 74
0
 49
3.1749999999999989
 74
0
 49
-3.1749999999999989
 74
0
 49
3.1749999999999989
 74
0
 49
-3.1749999999999989
 74
0
  0
LTYPE
  5
5D
100
AcDbSymbolTableRecord
100
AcDbLinetypeTableRecord
  2
ACAD_ISO05W100
 70
0
  3
ISO long-dash double-dot ____ .. ____ .. ____ . 
 72
65
 73
6
 40
33.0000000000000071
 49
24.0
 74
0
 49
-2.9500000000000002
 74
0
 49
0.1
 74
0
 49
-2.9000000000000004
 74
0
 49
0.1
 74
0
 49
-2.9500000000000002
 74
0
  0
LTYPE
  5
5E
100
AcDbSymbolTableRecord
100
AcDbLinetypeTableRecord
  2
ACISOTGL
 70
0
  3
_ _ _ _ _
 72
65
 73
2
 40
3.0
 49
2.0
 74
0
 49
-1.0
 74
0
  0
LTYPE
  5
5F
100
AcDbSymbolTableRecord
100
AcDbLinetypeTableRecord
  2
ACAD_ISO10W100
 70
0
  3
ISO dash dot __ . __ . __ . __ . __ . __ . __ . 
 72
65
 73
4
 40
18.0
 49
12.0
 74
0
 49
-2.9500000000000002
 74
0
 49
0.1
 74
0
 49
-2.9500000000000002
 74
0
  0
LTYPE
  5
15
100
AcDbSymbolTableRecord
100
AcDbLinetypeTableRecord
  2
BYLAYER
 70
0
  3

 72
65
 73
0
 40
0.0
  0
LTYPE
  5
60
100
AcDbSymbolTableRecord
100
AcDbLinetypeTableRecord
  2
CENTERX2
 70
0
  3
Center (2x) ________  __  ________  __  _____
 72
65
 73
4
 40
101.6000000000000085
 49
63.5
 74
0
 49
-12.6999999999999993
 74
0
 49
12.6999999999999993
 74
0
 49
-12.6999999999999993
 74
0
  0
ENDTAB
  0
TABLE
  2
LAYER
  5
2
100
AcDbSymbolTable
 70
21
  0
LAYER
  5
61
100
AcDbSymbolTableRecord
100
AcDbLayerTableRecord
  2
3_ALL_SYMBOLS
 70
0
 62
7
420
16777215
  6
CONTINUOUS
370
-3
390
F
  0
LAYER
  5
62
100
AcDbSymbolTableRecord
100
AcDbLayerTableRecord
  2
06___PRT_ALL_SURFS
 70
0
 62
7
420
16777215
  6
CONTINUOUS
370
-3
390
F
  0
LAYER
  5
63
100
AcDbSymbolTableRecord
100
AcDbLayerTableRecord
  2
01___PRT_DEF_DTM_PLN
 70
0
 62
7
420
16777215
  6
CONTINUOUS
370
-3
390
F
  0
LAYER
  5
64
100
AcDbSymbolTableRecord
100
AcDbLayerTableRecord
  2
2_ALL_NOTES
 70
0
 62
7
420
16777215
  6
CONTINUOUS
370
-3
390
F
  0
LAYER
  5
65
100
AcDbSymbolTableRecord
100
AcDbLayerTableRecord
  2
03___PRT_ALL_CURVES
 70
0
 62
7
420
16777215
  6
CONTINUOUS
370
-3
390
F
  0
LAYER
  5
66
100
AcDbSymbolTableRecord
100
AcDbLayerTableRecord
  2
01___PRT_ALL_DTM_PLN
 70
0
 62
7
420
16777215
  6
CONTINUOUS
370
-3
390
F
  0
LAYER
  5
67
100
AcDbSymbolTableRecord
100
AcDbLayerTableRecord
  2
DEFAULT_2
 70
0
 62
6
420
16711935
  6
HIDDEN
370
-3
390
F
  0
LAYER
  5
68
100
AcDbSymbolTableRecord
100
AcDbLayerTableRecord
  2
Filettati
 70
0
 62
7
420
0
  6
CONTINUOUS
370
25
390
F
  0
LAYER
  5
10
100
AcDbSymbolTableRecord
100
AcDbLayerTableRecord
  2
0
 70
0
 62
7
420
16777215
  6
CONTINUOUS
370
-3
390
F
  0
LAYER
  5
69
100
AcDbSymbolTableRecord
100
AcDbLayerTableRecord
  2
1_ALL_PLANES
 70
0
 62
7
420
16777215
  6
CONTINUOUS
370
-3
390
F
  0
LAYER
  5
6A
100
AcDbSymbolTableRecord
100
AcDbLayerTableRecord
  2
05___PRT_DEF_DTM_CSYS
 70
0
 62
7
420
16777215
  6
CONTINUOUS
370
-3
390
F
  0
LAYER
  5
6B
100
AcDbSymbolTableRecord
100
AcDbLayerTableRecord
  2
05___PRT_ALL_DTM_CSYS
 70
0
 62
7
420
16777215
  6
CONTINUOUS
370
-3
390
F
  0
LAYER
  5
6C
100
AcDbSymbolTableRecord
100
AcDbLayerTableRecord
  2
MARK
 70
0
 62
4
420
65535
  6
BYLAYER
370
5
390
F
  0
LAYER
  5
6D
100
AcDbSymbolTableRecord
100
AcDbLayerTableRecord
  2
3_ALL_AXES
 70
0
 62
7
420
16777215
  6
CONTINUOUS
370
-3
390
F
  0
LAYER
  5
6E
100
AcDbSymbolTableRecord
100
AcDbLayerTableRecord
  2
DEFAULT_3
 70
0
 62
7
420
16777215
  6
PHANTOM
370
-3
390
F
  0
LAYER
  5
6F
100
AcDbSymbolTableRecord
100
AcDbLayerTableRecord
  2
Piega
 70
0
 62
7
420
0
  6
CONTINUOUS
370
25
390
F
  0
LAYER
  5
70
100
AcDbSymbolTableRecord
100
AcDbLayerTableRecord
  2
Defpoints
 70
0
 62
7
420
16777215
  6
CONTINUOUS
290
0
370
-3
390
F
  0
LAYER
  5
71
100
AcDbSymbolTableRecord
100
AcDbLayerTableRecord
  2
04___PRT_ALL_DTM_PNT
 70
0
 62
7
420
16777215
  6
CONTINUOUS
370
-3
390
F
  0
LAYER
  5
72
100
AcDbSymbolTableRecord
100
AcDbLayerTableRecord
  2
Svasati
 70
0
 62
7
420
0
  6
CONTINUOUS
370
25
390
F
  0
LAYER
  5
73
100
AcDbSymbolTableRecord
100
AcDbLayerTableRecord
  2
DEFAULT_1
 70
0
 62
7
420
16777215
  6
CENTER
370
-3
390
F
  0
LAYER
  5
74
100
AcDbSymbolTableRecord
100
AcDbLayerTableRecord
  2
02___PRT_ALL_AXES
 70
0
 62
7
420
16777215
  6
CONTINUOUS
370
-3
390
F
  0
ENDTAB
  0
TABLE
  2
STYLE
  5
3
100
AcDbSymbolTable
 70
6
  0
STYLE
  5
75
100
AcDbSymbolTableRecord
100
AcDbTextStyleTableRecord
  2
Standard
 70
0
 40
0.0
 41
1.0
 50
0.0
 71
0
 42
2.5
  3

  4

1001
ACAD
1000
txt
1071
0
  0
STYLE
  5
76
100
AcDbSymbolTableRecord
100
AcDbTextStyleTableRecord
  2
textstyle0
 70
0
 40
0.0
 41
1.0
 50
0.0
 71
0
 42
5.0
  3

  4

1001
ACAD
1000
Standard
1071
0
  0
STYLE
  5
77
100
AcDbSymbolTableRecord
100
AcDbTextStyleTableRecord
  2
textstyle1
 70
0
 40
0.0
 41
1.0
 50
0.0
 71
0
 42
5.0
  3

  4

1001
ACAD
1000
Standard
1071
0
  0
STYLE
  5
78
100
AcDbSymbolTableRecord
100
AcDbTextStyleTableRecord
  2
textstyle2
 70
0
 40
0.0
 41
1.0
 50
0.0
 71
0
 42
2.8999941587000002
  3

  4

1001
ACAD
1000
Standard
1071
0
  0
STYLE
  5
79
100
AcDbSymbolTableRecord
100
AcDbTextStyleTableRecord
  2
textstyle3
 70
0
 40
0.0
 41
1.0
 50
0.0
 71
0
 42
5.0
  3

  4

1001
ACAD
1000
Standard
1071
0
  0
STYLE
  5
7A
100
AcDbSymbolTableRecord
100
AcDbTextStyleTableRecord
  2
textstyle4
 70
0
 40
0.0
 41
1.0
 50
0.0
 71
0
 42
5.0
  3

  4

1001
ACAD
1000
Standard
1071
0
  0
ENDTAB
  0
TABLE
  2
VIEW
  5
6
100
AcDbSymbolTable
 70
0
  0
ENDTAB
  0
TABLE
  2
UCS
  5
7
100
AcDbSymbolTable
 70
0
  0
ENDTAB
  0
TABLE
  2
APPID
  5
9
100
AcDbSymbolTable
 70
1
  0
APPID
  5
12
100
AcDbSymbolTableRecord
100
AcDbRegAppTableRecord
  2
ACAD
 70
0
  0
APPID
  5
7B
100
AcDbSymbolTableRecord
100
AcDbRegAppTableRecord
  2
QCAD
 70
0
  0
ENDTAB
  0
TABLE
  2
DIMSTYLE
  5
A
100
AcDbSymbolTable
 70
1
100
AcDbDimStyleTable
 71
0
  0
DIMSTYLE
105
27
100
AcDbSymbolTableRecord
100
AcDbDimStyleTableRecord
  2
Standard
 41
3.0
 42
0.5
 43
3.75
 44
2.5
 70
0
 73
1
 74
0
 77
0
 78
8
140
3.5
141
2.5
143
0.03937007874016
147
0.625
171
3
172
1
271
2
272
2
274
3
278
44
283
0
284
8
340
75
  0
ENDTAB
  0
TABLE
  2
BLOCK_RECORD
  5
1
100
AcDbSymbolTable
 70
1
  0
BLOCK_RECORD
  5
1F
100
AcDbSymbolTableRecord
100
AcDbBlockTableRecord
  2
*Model_Space
340
22
  0
BLOCK_RECORD
  5
1B
100
AcDbSymbolTableRecord
100
AcDbBlockTableRecord
  2
*Paper_Space
340
1E
  0
BLOCK_RECORD
  5
23
100
AcDbSymbolTableRecord
100
AcDbBlockTableRecord
  2
*Paper_Space0
340
26
  0
BLOCK_RECORD
  5
7C
100
AcDbSymbolTableRecord
100
AcDbBlockTableRecord
  2
SYMBOL_6_BL1
340
0
  0
BLOCK_RECORD
  5
7D
100
AcDbSymbolTableRecord
100
AcDbBlockTableRecord
  2
SYMBOL_0_BL0
340
0
  0
BLOCK_RECORD
  5
7E
100
AcDbSymbolTableRecord
100
AcDbBlockTableRecord
  2
_FILLED
340
0
  0
BLOCK_RECORD
  5
7F
100
AcDbSymbolTableRecord
100
AcDbBlockTableRecord
  2
GENAXEH
340
0
  0
BLOCK_RECORD
  5
80
100
AcDbSymbolTableRecord
100
AcDbBlockTableRecord
  2
SYMBOL_0_BL2
340
0
  0
ENDTAB
  0
ENDSEC
  0
SECTION
  2
BLOCKS
  0
BLOCK
  5
20
100
AcDbEntity
  8
0
100
AcDbBlockBegin
  2
*Model_Space
 70
0
 10
0.0
 20
0.0
 30
0.0
  3
*Model_Space
  1

  0
ENDBLK
  5
21
100
AcDbEntity
  8
0
100
AcDbBlockEnd
  0
BLOCK
  5
1C
100
AcDbEntity
 67
1
  8
0
100
AcDbBlockBegin
  2
*Paper_Space
 70
0
 10
0.0
 20
0.0
 30
0.0
  3
*Paper_Space
  1

  0
ENDBLK
  5
1D
100
AcDbEntity
 67
1
  8
0
100
AcDbBlockEnd
  0
BLOCK
  5
24
100
AcDbEntity
  8
0
100
AcDbBlockBegin
  2
*Paper_Space0
 70
0
 10
0.0
 20
0.0
 30
0.0
  3
*Paper_Space0
  1

  0
ENDBLK
  5
25
100
AcDbEntity
  8
0
100
AcDbBlockEnd
  0
BLOCK
  5
81
100
AcDbEntity
  8
0
100
AcDbBlockBegin
  2
SYMBOL_6_BL1
 70
0
 10
248.1346569403000046
 20
14.9133868131000007
 30
0.0
  3
SYMBOL_6_BL1
  1

  0
TEXT
  5
82
100
AcDbEntity
  8
0
 62
157
420
4013375
370
-1
 48
1.0
  6
CONTINUOUS
100
AcDbText
 10
246.8891726358000085
 20
13.6145428784
 30
0.0
 40
2.8999941587000002
  1
Group
 50
0.0
 41
1.0
  7
textstyle2
 71
0
 72
0
 11
246.8891726358000085
 21
13.6145428784
 31
0.0
100
AcDbText
 73
0
  0
LINE
  5
83
100
AcDbEntity
  8
0
 62
252
420
10263967
370
-1
 48
1.0
  6
CONTINUOUS
100
AcDbLine
 10
257.5367544935999717
 20
17.4682336579999991
 30
0.0
 11
261.1367544423000027
 21
17.4682336579999991
 31
0.0
  0
LINE
  5
84
100
AcDbEntity
  8
0
 62
252
420
10263967
370
-1
 48
1.0
  6
CONTINUOUS
100
AcDbLine
 10
261.1367544423000027
 20
17.4682336579999991
 30
0.0
 11
264.636754392499995
 21
15.4682336864999996
 31
0.0
  0
LINE
  5
85
100
AcDbEntity
  8
0
 62
252
420
10263967
370
-1
 48
1.0
  6
CONTINUOUS
100
AcDbLine
 10
257.5367544935999717
 20
17.4682336579999991
 30
0.0
 11
262.9429082628000174
 21
14.3790029327000006
 31
0.0
  0
LINE
  5
86
100
AcDbEntity
  8
0
 62
252
420
10263967
370
-1
 48
1.0
  6
CONTINUOUS
100
AcDbLine
 10
262.9429082628000174
 20
14.3790029327000006
 30
0.0
 11
244.4367546800000071
 21
7.8682337946000001
 31
0.0
  0
ARC
  5
87
100
AcDbEntity
  8
0
 62
252
420
10263967
370
-1
 48
1.0
  6
CONTINUOUS
100
AcDbCircle
 10
243.2542881292000061
 20
11.2292664361999996
 30
0.0
 40
3.5629717317999998
100
AcDbArc
 50
268.1096141195000087
 51
289.3827104055999939
  0
ARC
  5
88
100
AcDbEntity
  8
0
 62
252
420
10263967
370
-1
 48
1.0
  6
CONTINUOUS
100
AcDbCircle
 10
243.153421364899998
 20
9.0515671111000007
 30
0.0
 40
1.3834337115999991
100
AcDbArc
 50
238.7994853959999944
 51
269.3097228021000547
  0
LINE
  5
89
100
AcDbEntity
  8
0
 62
252
420
10263967
370
-1
 48
1.0
  6
CONTINUOUS
100
AcDbLine
 10
242.4367547084000023
 20
7.8682337946000001
 30
0.0
 11
234.1367548265000096
 21
12.5682337276999991
 31
0.0
  0
LINE
  5
8A
100
AcDbEntity
  8
0
 62
252
420
10263967
370
-1
 48
1.0
  6
CONTINUOUS
100
AcDbLine
 10
234.1367548265000096
 20
12.5682337276999991
 30
0.0
 11
230.7367548748999866
 21
12.5682337276999991
 31
0.0
  0
LINE
  5
8B
100
AcDbEntity
  8
0
 62
252
420
10263967
370
-1
 48
1.0
  6
CONTINUOUS
100
AcDbLine
 10
230.7367548748999866
 20
12.5682337276999991
 30
0.0
 11
241.3367547240999897
 21
6.368233816
 31
0.0
  0
ARC
  5
8C
100
AcDbEntity
  8
0
 62
252
420
10263967
370
-1
 48
1.0
  6
CONTINUOUS
100
AcDbCircle
 10
243.1943882854000094
 20
9.5441879691999993
 30
0.0
 40
3.679332443799999
100
AcDbArc
 50
239.6763931374000265
 51
267.5445261945000084
  0
ARC
  5
8D
100
AcDbEntity
  8
0
 62
252
420
10263967
370
-1
 48
1.0
  6
CONTINUOUS
100
AcDbCircle
 10
243.2841193346000068
 20
11.6366812733000007
 30
0.0
 40
5.7737488038000002
100
AcDbArc
 50
267.5445261945000084
 51
288.7156785138000146
  0
LINE
  5
8E
100
AcDbEntity
  8
0
 62
252
420
10263967
370
-1
 48
1.0
  6
CONTINUOUS
100
AcDbLine
 10
245.1367546699999878
 20
6.1682338188000001
 30
0.0
 11
264.1367543996000222
 21
12.8682337234999995
 31
0.0
  0
ARC
  5
8F
100
AcDbEntity
  8
0
 62
252
420
10263967
370
-1
 48
1.0
  6
CONTINUOUS
100
AcDbCircle
 10
263.4412765060999959
 20
14.8404844661999995
 30
0.0
 40
2.0912824994999988
100
AcDbArc
 50
289.4242595589000189
 51
329.1545541661000129
  0
ARC
  5
90
100
AcDbEntity
  8
0
 62
252
420
10263967
370
-1
 48
1.0
  6
CONTINUOUS
100
AcDbCircle
 10
264.3157824810999728
 20
14.3182337028000006
 30
0.0
 40
1.072701839899999
100
AcDbArc
 50
329.1545541661000129
 51
30.8454458339000013
  0
ARC
  5
91
100
AcDbEntity
  8
0
 62
252
420
10263967
370
-1
 48
1.0
  6
CONTINUOUS
100
AcDbCircle
 10
263.7471991969999863
 20
13.9786784995000009
 30
0.0
 40
1.734959106399999
100
AcDbArc
 50
30.8454458339000013
 51
59.1545541661000058
  0
ARC
  5
92
100
AcDbEntity
  8
0
 62
152
420
19863
370
-1
 48
1.0
  6
CONTINUOUS
100
AcDbCircle
 10
238.1946445243999904
 20
17.8835560051000009
 30
0.0
 40
0.3199999327
100
AcDbArc
 50
270.0
 51
360.0
  0
LINE
  5
93
100
AcDbEntity
  8
0
 62
152
420
19863
370
-1
 48
1.0
  6
CONTINUOUS
100
AcDbLine
 10
238.5146444570999904
 20
17.8835560051000009
 30
0.0
 11
238.5146444570999904
 21
23.6435547944
 31
0.0
  0
ARC
  5
94
100
AcDbEntity
  8
0
 62
152
420
19863
370
-1
 48
1.0
  6
CONTINUOUS
100
AcDbCircle
 10
238.1946445243999904
 20
23.6435547944
 30
0.0
 40
0.3199999327
100
AcDbArc
 50
0.0
 51
90.0
  0
LINE
  5
95
100
AcDbEntity
  8
0
 62
152
420
19863
370
-1
 48
1.0
  6
CONTINUOUS
100
AcDbLine
 10
238.1946445243999904
 20
23.9635547271999982
 30
0.0
 11
232.4346457350999913
 21
23.9635547271999982
 31
0.0
  0
ARC
  5
96
100
AcDbEntity
  8
0
 62
152
420
19863
370
-1
 48
1.0
  6
CONTINUOUS
100
AcDbCircle
 10
232.4346457350999913
 20
23.6435547944
 30
0.0
 40
0.3199999327
100
AcDbArc
 50
90.0
 51
180.0
  0
LINE
  5
97
100
AcDbEntity
  8
0
 62
152
420
19863
370
-1
 48
1.0
  6
CONTINUOUS
100
AcDbLine
 10
232.1146458023999912
 20
23.6435547944
 30
0.0
 11
232.1146458023999912
 21
17.8835560051000009
 31
0.0
  0
ARC
  5
98
100
AcDbEntity
  8
0
 62
152
420
19863
370
-1
 48
1.0
  6
CONTINUOUS
100
AcDbCircle
 10
232.4346457350999913
 20
17.8835560051000009
 30
0.0
 40
0.3199999327
100
AcDbArc
 50
180.0
 51
270.0
  0
LINE
  5
99
100
AcDbEntity
  8
0
 62
152
420
19863
370
-1
 48
1.0
  6
CONTINUOUS
100
AcDbLine
 10
232.4346457350999913
 20
17.5635560724000008
 30
0.0
 11
238.1946445243999904
 21
17.5635560724000008
 31
0.0
  0
ARC
  5
9A
100
AcDbEntity
  8
0
 62
152
420
19863
370
-1
 48
1.0
  6
CONTINUOUS
100
AcDbCircle
 10
235.3146451297999988
 20
18.5235558705999992
 30
0.0
 40
0.3199999327
100
AcDbArc
 50
180.0
 51
360.0
  0
LINE
  5
9B
100
AcDbEntity
  8
0
 62
152
420
19863
370
-1
 48
1.0
  6
CONTINUOUS
100
AcDbLine
 10
234.9946451970000112
 20
18.5235558705999992
 30
0.0
 11
234.9946451970000112
 21
23.0035549289000016
 31
0.0
  0
ARC
  5
9C
100
AcDbEntity
  8
0
 62
152
420
19863
370
-1
 48
1.0
  6
CONTINUOUS
100
AcDbCircle
 10
235.3146451297999988
 20
23.0035549289000016
 30
0.0
 40
0.3199999327
100
AcDbArc
 50
0.0
 51
180.0
  0
LINE
  5
9D
100
AcDbEntity
  8
0
 62
152
420
19863
370
-1
 48
1.0
  6
CONTINUOUS
100
AcDbLine
 10
235.6346450624999989
 20
23.0035549289000016
 30
0.0
 11
235.6346450624999989
 21
18.5235558705999992
 31
0.0
  0
ARC
  5
9E
100
AcDbEntity
  8
0
 62
152
420
19863
370
-1
 48
1.0
  6
CONTINUOUS
100
AcDbCircle
 10
242.9946435155000017
 20
23.0035549289000016
 30
0.0
 40
0.3199999327
100
AcDbArc
 50
0.0
 51
180.0
  0
LINE
  5
9F
100
AcDbEntity
  8
0
 62
152
420
19863
370
-1
 48
1.0
  6
CONTINUOUS
100
AcDbLine
 10
243.3146434482000018
 20
23.0035549289000016
 30
0.0
 11
243.3146434482000018
 21
17.8835560051000009
 31
0.0
  0
ARC
  5
A0
100
AcDbEntity
  8
0
 62
152
420
19863
370
-1
 48
1.0
  6
CONTINUOUS
100
AcDbCircle
 10
243.6346433809000018
 20
17.8835560051000009
 30
0.0
 40
0.3199999327
100
AcDbArc
 50
180.0
 51
270.0
  0
LINE
  5
A1
100
AcDbEntity
  8
0
 62
152
420
19863
370
-1
 48
1.0
  6
CONTINUOUS
100
AcDbLine
 10
243.6346433809000018
 20
17.5635560724000008
 30
0.0
 11
246.1946428427999933
 21
17.5635560724000008
 31
0.0
  0
ARC
  5
A2
100
AcDbEntity
  8
0
 62
152
420
19863
370
-1
 48
1.0
  6
CONTINUOUS
100
AcDbCircle
 10
246.1946428427999933
 20
17.8835560051000009
 30
0.0
 40
0.3199999327
100
AcDbArc
 50
270.0
 51
360.0
  0
LINE
  5
A3
100
AcDbEntity
  8
0
 62
152
420
19863
370
-1
 48
1.0
  6
CONTINUOUS
100
AcDbLine
 10
246.5146427756000094
 20
17.8835560051000009
 30
0.0
 11
246.5146427756000094
 21
23.0035549289000016
 31
0.0
  0
ARC
  5
A4
100
AcDbEntity
  8
0
 62
152
420
19863
370
-1
 48
1.0
  6
CONTINUOUS
100
AcDbCircle
 10
246.8346427083000094
 20
23.0035549289000016
 30
0.0
 40
0.3199999327
100
AcDbArc
 50
0.0
 51
180.0
  0
LINE
  5
A5
100
AcDbEntity
  8
0
 62
152
420
19863
370
-1
 48
1.0
  6
CONTINUOUS
100
AcDbLine
 10
247.154642641099997
 20
23.0035549289000016
 30
0.0
 11
247.154642641099997
 21
17.8835560051000009
 31
0.0
  0
ARC
  5
A6
100
AcDbEntity
  8
0
 62
152
420
19863
370
-1
 48
1.0
  6
CONTINUOUS
100
AcDbCircle
 10
247.4746425737999971
 20
17.8835560051000009
 30
0.0
 40
0.3199999327
100
AcDbArc
 50
180.0
 51
270.0
  0
LINE
  5
A7
100
AcDbEntity
  8
0
 62
152
420
19863
370
-1
 48
1.0
  6
CONTINUOUS
100
AcDbLine
 10
247.4746425737999971
 20
17.5635560724000008
 30
0.0
 11
250.0346420356999886
 21
17.5635560724000008
 31
0.0
  0
ARC
  5
A8
100
AcDbEntity
  8
0
 62
152
420
19863
370
-1
 48
1.0
  6
CONTINUOUS
100
AcDbCircle
 10
250.0346420356999886
 20
17.8835560051000009
 30
0.0
 40
0.3199999327
100
AcDbArc
 50
270.0
 51
360.0
  0
LINE
  5
A9
100
AcDbEntity
  8
0
 62
152
420
19863
370
-1
 48
1.0
  6
CONTINUOUS
100
AcDbLine
 10
250.3546419683999886
 20
17.8835560051000009
 30
0.0
 11
250.3546419683999886
 21
23.6435547944
 31
0.0
  0
ARC
  5
AA
100
AcDbEntity
  8
0
 62
152
420
19863
370
-1
 48
1.0
  6
CONTINUOUS
100
AcDbCircle
 10
250.0346420356999886
 20
23.6435547944
 30
0.0
 40
0.3199999327
100
AcDbArc
 50
0.0
 51
90.0
  0
LINE
  5
AB
100
AcDbEntity
  8
0
 62
152
420
19863
370
-1
 48
1.0
  6
CONTINUOUS
100
AcDbLine
 10
250.0346420356999886
 20
23.9635547271999982
 30
0.0
 11
239.7946441880999942
 21
23.9635547271999982
 31
0.0
  0
ARC
  5
AC
100
AcDbEntity
  8
0
 62
152
420
19863
370
-1
 48
1.0
  6
CONTINUOUS
100
AcDbCircle
 10
239.7946441880999942
 20
23.6435547944
 30
0.0
 40
0.3199999327
100
AcDbArc
 50
90.0
 51
180.0
  0
LINE
  5
AD
100
AcDbEntity
  8
0
 62
152
420
19863
370
-1
 48
1.0
  6
CONTINUOUS
100
AcDbLine
 10
239.4746442553999941
 20
23.6435547944
 30
0.0
 11
239.4746442553999941
 21
17.8835560051000009
 31
0.0
  0
ARC
  5
AE
100
AcDbEntity
  8
0
 62
152
420
19863
370
-1
 48
1.0
  6
CONTINUOUS
100
AcDbCircle
 10
239.7946441880999942
 20
17.8835560051000009
 30
0.0
 40
0.3199999327
100
AcDbArc
 50
180.0
 51
270.0
  0
LINE
  5
AF
100
AcDbEntity
  8
0
 62
152
420
19863
370
-1
 48
1.0
  6
CONTINUOUS
100
AcDbLine
 10
239.7946441880999942
 20
17.5635560724000008
 30
0.0
 11
242.3546436500000141
 21
17.5635560724000008
 31
0.0
  0
ARC
  5
B0
100
AcDbEntity
  8
0
 62
152
420
19863
370
-1
 48
1.0
  6
CONTINUOUS
100
AcDbCircle
 10
242.3546436500000141
 20
17.8835560051000009
 30
0.0
 40
0.3199999327
100
AcDbArc
 50
270.0
 51
360.0
  0
LINE
  5
B1
100
AcDbEntity
  8
0
 62
152
420
19863
370
-1
 48
1.0
  6
CONTINUOUS
100
AcDbLine
 10
242.6746435827000141
 20
17.8835560051000009
 30
0.0
 11
242.6746435827000141
 21
23.0035549289000016
 31
0.0
  0
LINE
  5
B2
100
AcDbEntity
  8
0
 62
152
420
19863
370
-1
 48
1.0
  6
CONTINUOUS
100
AcDbLine
 10
251.3146417666000048
 20
18.9075557899000017
 30
0.0
 11
251.3146417666000048
 21
17.8835560051000009
 31
0.0
  0
ARC
  5
B3
100
AcDbEntity
  8
0
 62
152
420
19863
370
-1
 48
1.0
  6
CONTINUOUS
100
AcDbCircle
 10
251.6346416993999924
 20
17.8835560051000009
 30
0.0
 40
0.3199999327
100
AcDbArc
 50
180.0
 51
270.0
  0
LINE
  5
B4
100
AcDbEntity
  8
0
 62
152
420
19863
370
-1
 48
1.0
  6
CONTINUOUS
100
AcDbLine
 10
251.6346416993999924
 20
17.5635560724000008
 30
0.0
 11
257.3946404886000892
 21
17.5635560724000008
 31
0.0
  0
ARC
  5
B5
100
AcDbEntity
  8
0
 62
152
420
19863
370
-1
 48
1.0
  6
CONTINUOUS
100
AcDbCircle
 10
257.3946404886000892
 20
17.8835560051000009
 30
0.0
 40
0.3199999327
100
AcDbArc
 50
270.0
 51
360.0
  0
LINE
  5
B6
100
AcDbEntity
  8
0
 62
152
420
19863
370
-1
 48
1.0
  6
CONTINUOUS
100
AcDbLine
 10
257.7146404214000199
 20
17.8835560051000009
 30
0.0
 11
257.7146404214000199
 21
21.3395552787000007
 31
0.0
  0
ARC
  5
B7
100
AcDbEntity
  8
0
 62
152
420
19863
370
-1
 48
1.0
  6
CONTINUOUS
100
AcDbCircle
 10
257.3946404886000892
 20
21.3395552787000007
 30
0.0
 40
0.3199999327
100
AcDbArc
 50
0.0
 51
90.0
  0
LINE
  5
B8
100
AcDbEntity
  8
0
 62
152
420
19863
370
-1
 48
1.0
  6
CONTINUOUS
100
AcDbLine
 10
257.3946404886000892
 20
21.6595552114000007
 30
0.0
 11
257.3349994911999943
 21
21.6595552114000007
 31
0.0
  0
LINE
  5
B9
100
AcDbEntity
  8
0
 62
152
420
19863
370
-1
 48
1.0
  6
CONTINUOUS
100
AcDbLine
 10
257.3349994911999943
 20
21.6595552114000007
 30
0.0
 11
252.4474784470000088
 21
21.6595552114000007
 31
0.0
  0
LINE
  5
BA
100
AcDbEntity
  8
0
 62
152
420
19863
370
-1
 48
1.0
  6
CONTINUOUS
100
AcDbLine
 10
252.4474784470000088
 20
21.6595552114000007
 30
0.0
 11
252.2746415649000085
 21
21.6595552114000007
 31
0.0
  0
ARC
  5
BB
100
AcDbEntity
  8
0
 62
152
420
19863
370
-1
 48
1.0
  6
CONTINUOUS
100
AcDbCircle
 10
252.2746415649000085
 20
21.979555144199999
 30
0.0
 40
0.3199999327
100
AcDbArc
 50
90.0
 51
270.0
  0
LINE
  5
BC
100
AcDbEntity
  8
0
 62
152
420
19863
370
-1
 48
1.0
  6
CONTINUOUS
100
AcDbLine
 10
252.2746415649000085
 20
22.2995550768999991
 30
0.0
 11
252.3634011206999901
 21
22.2995550768999991
 31
0.0
  0
LINE
  5
BD
100
AcDbEntity
  8
0
 62
152
420
19863
370
-1
 48
1.0
  6
CONTINUOUS
100
AcDbLine
 10
252.3634011206999901
 20
22.2995550768999991
 30
0.0
 11
257.2509221648999755
 21
22.2995550768999991
 31
0.0
  0
LINE
  5
BE
100
AcDbEntity
  8
0
 62
152
420
19863
370
-1
 48
1.0
  6
CONTINUOUS
100
AcDbLine
 10
257.2509221648999755
 20
22.2995550768999991
 30
0.0
 11
257.3946404886000892
 21
22.2995550768999991
 31
0.0
  0
ARC
  5
BF
100
AcDbEntity
  8
0
 62
152
420
19863
370
-1
 48
1.0
  6
CONTINUOUS
100
AcDbCircle
 10
257.3946404886000892
 20
22.6195550097000009
 30
0.0
 40
0.3199999327
100
AcDbArc
 50
270.0
 51
360.0
  0
LINE
  5
C0
100
AcDbEntity
  8
0
 62
152
420
19863
370
-1
 48
1.0
  6
CONTINUOUS
100
AcDbLine
 10
257.7146404214000199
 20
22.6195550097000009
 30
0.0
 11
257.7146404214000199
 21
23.6435547944
 31
0.0
  0
ARC
  5
C1
100
AcDbEntity
  8
0
 62
152
420
19863
370
-1
 48
1.0
  6
CONTINUOUS
100
AcDbCircle
 10
257.3946404886000892
 20
23.6435547944
 30
0.0
 40
0.3199999327
100
AcDbArc
 50
0.0
 51
90.0
  0
LINE
  5
C2
100
AcDbEntity
  8
0
 62
152
420
19863
370
-1
 48
1.0
  6
CONTINUOUS
100
AcDbLine
 10
257.3946404886000892
 20
23.9635547271999982
 30
0.0
 11
251.6346416993999924
 21
23.9635547271999982
 31
0.0
  0
ARC
  5
C3
100
AcDbEntity
  8
0
 62
152
420
19863
370
-1
 48
1.0
  6
CONTINUOUS
100
AcDbCircle
 10
251.6346416993999924
 20
23.6435547944
 30
0.0
 40
0.3199999327
100
AcDbArc
 50
90.0
 51
180.0
  0
LINE
  5
C4
100
AcDbEntity
  8
0
 62
152
420
19863
370
-1
 48
1.0
  6
CONTINUOUS
100
AcDbLine
 10
251.3146417666000048
 20
23.6435547944
 30
0.0
 11
251.3146417666000048
 21
20.1875555208000002
 31
0.0
  0
ARC
  5
C5
100
AcDbEntity
  8
0
 62
152
420
19863
370
-1
 48
1.0
  6
CONTINUOUS
100
AcDbCircle
 10
251.6346416993999924
 20
20.1875555208000002
 30
0.0
 40
0.3199999327
100
AcDbArc
 50
180.0
 51
270.0
  0
LINE
  5
C6
100
AcDbEntity
  8
0
 62
152
420
19863
370
-1
 48
1.0
  6
CONTINUOUS
100
AcDbLine
 10
251.6346416993999924
 20
19.8675555881000001
 30
0.0
 11
251.7415946113000018
 21
19.8675555881000001
 31
0.0
  0
LINE
  5
C7
100
AcDbEntity
  8
0
 62
152
420
19863
370
-1
 48
1.0
  6
CONTINUOUS
100
AcDbLine
 10
251.7415946113000018
 20
19.8675555881000001
 30
0.0
 11
256.6291156555000157
 21
19.8675555881000001
 31
0.0
  0
LINE
  5
C8
100
AcDbEntity
  8
0
 62
152
420
19863
370
-1
 48
1.0
  6
CONTINUOUS
100
AcDbLine
 10
256.6291156555000157
 20
19.8675555881000001
 30
0.0
 11
256.7546406231999754
 21
19.8675555881000001
 31
0.0
  0
ARC
  5
C9
100
AcDbEntity
  8
0
 62
152
420
19863
370
-1
 48
1.0
  6
CONTINUOUS
100
AcDbCircle
 10
256.7546406231999754
 20
19.5475556554000001
 30
0.0
 40
0.3199999327
100
AcDbArc
 50
270.0
 51
90.0
  0
LINE
  5
CA
100
AcDbEntity
  8
0
 62
152
420
19863
370
-1
 48
1.0
  6
CONTINUOUS
100
AcDbLine
 10
256.7546406231999754
 20
19.2275557225999982
 30
0.0
 11
256.71319298169999
 21
19.2275557225999982
 31
0.0
  0
LINE
  5
CB
100
AcDbEntity
  8
0
 62
152
420
19863
370
-1
 48
1.0
  6
CONTINUOUS
100
AcDbLine
 10
256.71319298169999
 20
19.2275557225999982
 30
0.0
 11
251.6446526395999967
 21
19.2275557225999982
 31
0.0
  0
LINE
  5
CC
100
AcDbEntity
  8
0
 62
152
420
19863
370
-1
 48
1.0
  6
CONTINUOUS
100
AcDbLine
 10
251.6446526395999967
 20
19.2275557225999982
 30
0.0
 11
251.6346416993999924
 21
19.2275557225999982
 31
0.0
  0
ARC
  5
CD
100
AcDbEntity
  8
0
 62
152
420
19863
370
-1
 48
1.0
  6
CONTINUOUS
100
AcDbCircle
 10
251.6346416993999924
 20
18.9075557899000017
 30
0.0
 40
0.3199999327
100
AcDbArc
 50
90.0
 51
180.0
  0
LWPOLYLINE
  5
CE
100
AcDbEntity
  8
0
 62
252
420
10263967
370
-1
 48
1.0
  6
CONTINUOUS
100
AcDbPolyline
 90
20
 70
0
 10
265.3841692098999943
 20
14.4143536023000003
 10
265.3884843210000213
 20
14.3182337028000006
 10
244.4367546800000071
 20
7.8682338389000002
 10
262.9429082628000174
 20
14.3790029327000006
 10
257.5367544935999717
 20
17.4682284293000016
 10
261.1367544423000027
 20
17.4682284293000016
 10
264.636754392499995
 20
15.4682336864999996
 10
264.7269961539000178
 20
15.4104889004000007
 10
264.8135017577000099
 20
15.3472843411999893
 10
264.8959413412000004
 20
15.2788610201000008
 10
264.9740005461999885
 20
15.2054798486999996
 10
265.0473817175999898
 20
15.1274206437000007
 10
265.1158050386999889
 20
15.0449810601999996
 10
265.1790095979999933
 20
14.9584754563000004
 10
265.2367543839999939
 20
14.8682336950000007
 10
265.2823326109000277
 20
14.7834971591999995
 10
265.3201346394000097
 20
14.6950174332000003
 10
265.3498563402000059
 20
14.6035063640999994
 10
265.3712585929000056
 20
14.5097001871
 10
265.3841692098999943
 20
14.4143536023000003
  0
HATCH
  5
CF
100
AcDbEntity
  8
0
 62
252
420
10263967
370
-1
 48
1.0
  6
CONTINUOUS
100
AcDbHatch
 10
0.0
 20
0.0
 30
0.0
210
0.0
220
0.0
230
1.0
  2
SOLID
 70
1
 71
0
 91
1
 92
1
 93
19
 72
1
 10
265.3841692098999943
 20
14.4143536023000003
 11
265.3884843210000213
 21
14.3182337028000006
 72
1
 10
265.3884843210000213
 20
14.3182337028000006
 11
244.4367546800000071
 21
7.8682338389000002
 72
1
 10
244.4367546800000071
 20
7.8682338389000002
 11
262.9429082628000174
 21
14.3790029327000006
 72
1
 10
262.9429082628000174
 20
14.3790029327000006
 11
257.5367544935999717
 21
17.4682284293000016
 72
1
 10
257.5367544935999717
 20
17.4682284293000016
 11
261.1367544423000027
 21
17.4682284293000016
 72
1
 10
261.1367544423000027
 20
17.4682284293000016
 11
264.636754392499995
 21
15.4682336864999996
 72
1
 10
264.636754392499995
 20
15.4682336864999996
 11
264.7269961539000178
 21
15.4104889004000007
 72
1
 10
264.7269961539000178
 20
15.4104889004000007
 11
264.8135017577000099
 21
15.3472843411999893
 72
1
 10
264.8135017577000099
 20
15.3472843411999893
 11
264.8959413412000004
 21
15.2788610201000008
 72
1
 10
264.8959413412000004
 20
15.2788610201000008
 11
264.9740005461999885
 21
15.2054798486999996
 72
1
 10
264.9740005461999885
 20
15.2054798486999996
 11
265.0473817175999898
 21
15.1274206437000007
 72
1
 10
265.0473817175999898
 20
15.1274206437000007
 11
265.1158050386999889
 21
15.0449810601999996
 72
1
 10
265.1158050386999889
 20
15.0449810601999996
 11
265.1790095979999933
 21
14.9584754563000004
 72
1
 10
265.1790095979999933
 20
14.9584754563000004
 11
265.2367543839999939
 21
14.8682336950000007
 72
1
 10
265.2367543839999939
 20
14.8682336950000007
 11
265.2823326109000277
 21
14.7834971591999995
 72
1
 10
265.2823326109000277
 20
14.7834971591999995
 11
265.3201346394000097
 21
14.6950174332000003
 72
1
 10
265.3201346394000097
 20
14.6950174332000003
 11
265.3498563402000059
 21
14.6035063640999994
 72
1
 10
265.3498563402000059
 20
14.6035063640999994
 11
265.3712585929000056
 21
14.5097001871
 72
1
 10
265.3712585929000056
 20
14.5097001871
 11
265.3841692098999943
 21
14.4143536023000003
 97
0
 75
0
 76
1
 98
0
1001
ACAD
1010
0.0
1020
0.0
1030
0
  0
LWPOLYLINE
  5
D0
100
AcDbEntity
  8
0
 62
252
420
10263967
370
-1
 48
1.0
  6
CONTINUOUS
100
AcDbPolyline
 90
37
 70
0
 10
264.1367543996000222
 20
12.8682337234999995
 10
245.1367546699999878
 20
6.1682338188000001
 10
244.8456473518000109
 20
6.0781018234999991
 10
244.5501899601999867
 20
6.0034548070999998
 10
244.2512055745000055
 20
5.9445007197999997
 10
243.9495270993000133
 20
5.9014037948000002
 10
243.6459949446000053
 20
5.8742840905999989
 10
243.3414546841000003
 20
5.8632171565999993
 10
243.0367546999000012
 20
5.8682338230999989
 10
242.8136898927999994
 20
5.8846038445
 10
242.5920319031999952
 20
5.9144973459000001
 10
242.3725998371000117
 20
5.9578038601000003
 10
242.1562045750000038
 20
6.0143633538000003
 10
241.9436457753000127
 20
6.0839668194999996
 10
241.7357089191000057
 20
6.1663570471999991
 10
241.5331624078999937
 20
6.2612295753999989
 10
241.3367547240999897
 20
6.368233816
 10
244.0742322350000109
 20
7.761924626599999
 10
244.2569034688000045
 20
7.8102709634999989
 10
244.4367546800000071
 20
7.8682338389000002
 10
265.3884843210000213
 20
14.3182337028000006
 10
265.3841692098999943
 20
14.2221138032999992
 10
265.3712585929000056
 20
14.1267672184999995
 10
265.3498563402000059
 20
14.0329610415000001
 10
265.3201346394000097
 20
13.9414499723999992
 10
265.2823326109000277
 20
13.8529702464
 10
265.2367543839999939
 20
13.7682337106000006
 10
265.1581465301999856
 20
13.6464074950000001
 10
265.0712866293000047
 20
13.5303205486000007
 10
264.9765921690000141
 20
13.4205308373999994
 10
264.8745182932000262
 20
13.3175660599000008
 10
264.7655556148999949
 20
13.2219211110000003
 10
264.6502278574999991
 20
13.1340557032999996
 10
264.5290893377999737
 20
13.0543921573000006
 10
264.4027223019999724
 20
12.9833133716999995
 10
264.2717341265999949
 20
12.921160983
 10
264.1367543996000222
 20
12.8682337234999995
  0
HATCH
  5
D1
100
AcDbEntity
  8
0
 62
252
420
10263967
370
-1
 48
1.0
  6
CONTINUOUS
100
AcDbHatch
 10
0.0
 20
0.0
 30
0.0
210
0.0
220
0.0
230
1.0
  2
SOLID
 70
1
 71
0
 91
1
 92
1
 93
36
 72
1
 10
264.1367543996000222
 20
12.8682337234999995
 11
245.1367546699999878
 21
6.1682338188000001
 72
1
 10
245.1367546699999878
 20
6.1682338188000001
 11
244.8456473518000109
 21
6.0781018234999991
 72
1
 10
244.8456473518000109
 20
6.0781018234999991
 11
244.5501899601999867
 21
6.0034548070999998
 72
1
 10
244.5501899601999867
 20
6.0034548070999998
 11
244.2512055745000055
 21
5.9445007197999997
 72
1
 10
244.2512055745000055
 20
5.9445007197999997
 11
243.9495270993000133
 21
5.9014037948000002
 72
1
 10
243.9495270993000133
 20
5.9014037948000002
 11
243.6459949446000053
 21
5.8742840905999989
 72
1
 10
243.6459949446000053
 20
5.8742840905999989
 11
243.3414546841000003
 21
5.8632171565999993
 72
1
 10
243.3414546841000003
 20
5.8632171565999993
 11
243.0367546999000012
 21
5.8682338230999989
 72
1
 10
243.0367546999000012
 20
5.8682338230999989
 11
242.8136898927999994
 21
5.8846038445
 72
1
 10
242.8136898927999994
 20
5.8846038445
 11
242.5920319031999952
 21
5.9144973459000001
 72
1
 10
242.5920319031999952
 20
5.9144973459000001
 11
242.3725998371000117
 21
5.9578038601000003
 72
1
 10
242.3725998371000117
 20
5.9578038601000003
 11
242.1562045750000038
 21
6.0143633538000003
 72
1
 10
242.1562045750000038
 20
6.0143633538000003
 11
241.9436457753000127
 21
6.0839668194999996
 72
1
 10
241.9436457753000127
 20
6.0839668194999996
 11
241.7357089191000057
 21
6.1663570471999991
 72
1
 10
241.7357089191000057
 20
6.1663570471999991
 11
241.5331624078999937
 21
6.2612295753999989
 72
1
 10
241.5331624078999937
 20
6.2612295753999989
 11
241.3367547240999897
 21
6.368233816
 72
1
 10
241.3367547240999897
 20
6.368233816
 11
244.0742322350000109
 21
7.761924626599999
 72
1
 10
244.0742322350000109
 20
7.761924626599999
 11
244.2569034688000045
 21
7.8102709634999989
 72
1
 10
244.2569034688000045
 20
7.8102709634999989
 11
244.4367546800000071
 21
7.8682338389000002
 72
1
 10
244.4367546800000071
 20
7.8682338389000002
 11
265.3884843210000213
 21
14.3182337028000006
 72
1
 10
265.3884843210000213
 20
14.3182337028000006
 11
265.3841692098999943
 21
14.2221138032999992
 72
1
 10
265.3841692098999943
 20
14.2221138032999992
 11
265.3712585929000056
 21
14.1267672184999995
 72
1
 10
265.3712585929000056
 20
14.1267672184999995
 11
265.3498563402000059
 21
14.0329610415000001
 72
1
 10
265.3498563402000059
 20
14.0329610415000001
 11
265.3201346394000097
 21
13.9414499723999992
 72
1
 10
265.3201346394000097
 20
13.9414499723999992
 11
265.2823326109000277
 21
13.8529702464
 72
1
 10
265.2823326109000277
 20
13.8529702464
 11
265.2367543839999939
 21
13.7682337106000006
 72
1
 10
265.2367543839999939
 20
13.7682337106000006
 11
265.1581465301999856
 21
13.6464074950000001
 72
1
 10
265.1581465301999856
 20
13.6464074950000001
 11
265.0712866293000047
 21
13.5303205486000007
 72
1
 10
265.0712866293000047
 20
13.5303205486000007
 11
264.9765921690000141
 21
13.4205308373999994
 72
1
 10
264.9765921690000141
 20
13.4205308373999994
 11
264.8745182932000262
 21
13.3175660599000008
 72
1
 10
264.8745182932000262
 20
13.3175660599000008
 11
264.7655556148999949
 21
13.2219211110000003
 72
1
 10
264.7655556148999949
 20
13.2219211110000003
 11
264.6502278574999991
 21
13.1340557032999996
 72
1
 10
264.6502278574999991
 20
13.1340557032999996
 11
264.5290893377999737
 21
13.0543921573000006
 72
1
 10
264.5290893377999737
 20
13.0543921573000006
 11
264.4027223019999724
 21
12.9833133716999995
 72
1
 10
264.4027223019999724
 20
12.9833133716999995
 11
264.2717341265999949
 21
12.921160983
 72
1
 10
264.2717341265999949
 20
12.921160983
 11
264.1367543996000222
 21
12.8682337234999995
 97
0
 75
0
 76
1
 98
0
1001
ACAD
1010
0.0
1020
0.0
1030
0
  0
LWPOLYLINE
  5
D2
100
AcDbEntity
  8
0
 62
252
420
10263967
370
-1
 48
1.0
  6
CONTINUOUS
100
AcDbPolyline
 90
19
 70
0
 10
243.3257114445000013
 20
7.6670106521000001
 10
243.5144673005000016
 20
7.6758069442999988
 10
243.7024913593000122
 20
7.6945979331999999
 10
243.8892547718999992
 20
7.7233307659000001
 10
244.0742322350000109
 20
7.761924626599999
 10
241.3367547240999897
 20
6.368233816
 10
230.7367548748999866
 20
12.5682307068999997
 10
234.1367548265000096
 20
12.5682307068999997
 10
242.4367547084000023
 20
7.8682338389000002
 10
242.507982360699998
 20
7.827926099099999
 10
242.5814688735000004
 20
7.7919008131999998
 10
242.6569570638999949
 20
7.7602840157999999
 10
242.7341827438999928
 20
7.733186356900001
 10
242.8128756447000001
 20
7.7107026708999991
 10
242.8927603626000007
 20
7.6929116446999997
 10
242.9735573229000067
 20
7.6798755420000004
 10
243.0549837583000112
 20
7.6716399854999988
 10
243.136754698499999
 20
7.6682337975000001
 10
243.3257114445000013
 20
7.6670106521000001
  0
HATCH
  5
D3
100
AcDbEntity
  8
0
 62
252
420
10263967
370
-1
 48
1.0
  6
CONTINUOUS
100
AcDbHatch
 10
0.0
 20
0.0
 30
0.0
210
0.0
220
0.0
230
1.0
  2
SOLID
 70
1
 71
0
 91
1
 92
1
 93
18
 72
1
 10
243.3257114445000013
 20
7.6670106521000001
 11
243.5144673005000016
 21
7.6758069442999988
 72
1
 10
243.5144673005000016
 20
7.6758069442999988
 11
243.7024913593000122
 21
7.6945979331999999
 72
1
 10
243.7024913593000122
 20
7.6945979331999999
 11
243.8892547718999992
 21
7.7233307659000001
 72
1
 10
243.8892547718999992
 20
7.7233307659000001
 11
244.0742322350000109
 21
7.761924626599999
 72
1
 10
244.0742322350000109
 20
7.761924626599999
 11
241.3367547240999897
 21
6.368233816
 72
1
 10
241.3367547240999897
 20
6.368233816
 11
230.7367548748999866
 21
12.5682307068999997
 72
1
 10
230.7367548748999866
 20
12.5682307068999997
 11
234.1367548265000096
 21
12.5682307068999997
 72
1
 10
234.1367548265000096
 20
12.5682307068999997
 11
242.4367547084000023
 21
7.8682338389000002
 72
1
 10
242.4367547084000023
 20
7.8682338389000002
 11
242.507982360699998
 21
7.827926099099999
 72
1
 10
242.507982360699998
 20
7.827926099099999
 11
242.5814688735000004
 21
7.7919008131999998
 72
1
 10
242.5814688735000004
 20
7.7919008131999998
 11
242.6569570638999949
 21
7.7602840157999999
 72
1
 10
242.6569570638999949
 20
7.7602840157999999
 11
242.7341827438999928
 21
7.733186356900001
 72
1
 10
242.7341827438999928
 20
7.733186356900001
 11
242.8128756447000001
 21
7.7107026708999991
 72
1
 10
242.8128756447000001
 20
7.7107026708999991
 11
242.8927603626000007
 21
7.6929116446999997
 72
1
 10
242.8927603626000007
 20
7.6929116446999997
 11
242.9735573229000067
 21
7.6798755420000004
 72
1
 10
242.9735573229000067
 20
7.6798755420000004
 11
243.0549837583000112
 21
7.6716399854999988
 72
1
 10
243.0549837583000112
 20
7.6716399854999988
 11
243.136754698499999
 21
7.6682337975000001
 72
1
 10
243.136754698499999
 20
7.6682337975000001
 11
243.3257114445000013
 21
7.6670106521000001
 97
0
 75
0
 76
1
 98
0
1001
ACAD
1010
0.0
1020
0.0
1030
0
  0
LWPOLYLINE
  5
D4
100
AcDbEntity
  8
0
 62
152
420
19863
370
-1
 48
1.0
  6
CONTINUOUS
100
AcDbPolyline
 90
42
 70
0
 10
232.4011966339000139
 20
23.9618028699000014
 10
232.4346457350999913
 20
23.9635564696000003
 10
238.1946445243999904
 20
23.9635564696000003
 10
238.2280936255999961
 20
23.9618028699000014
 10
238.2611762514999896
 20
23.9565612710000018
 10
238.2935299417999886
 20
23.9478956728999997
 10
238.3248002228000075
 20
23.935889275400001
 10
238.3546444908000126
 20
23.920682878600001
 10
238.382735765599989
 20
23.902442882399999
 10
238.4087662734000048
 20
23.8813612868000007
 10
238.4324508185999889
 20
23.8576748917999986
 10
238.4535299082000108
 20
23.8316460972999984
 10
238.4717725954000116
 20
23.8035565031999994
 10
238.4869790093999882
 20
23.7737133094999997
 10
238.4989825456000005
 20
23.7424429160000017
 10
238.5076516908000031
 20
23.710084522799999
 10
238.5128914640000062
 20
23.6770029298000004
 10
238.5146444570999904
 20
23.6435565367999985
 10
235.2728767570000059
 20
23.3208174047000014
 10
235.2318230527000082
 20
23.3126510063999994
 10
235.1921864571999947
 20
23.2991982092000001
 10
235.154645163400005
 20
23.2806830130999991
 10
235.1198415133999902
 20
23.2574254180000004
 10
235.0883710074000135
 20
23.2298286237999996
 10
235.0607721142000059
 20
23.1983598304000012
 10
235.037517058800006
 20
23.1635566377000011
 10
232.1146458023999912
 20
17.8835577476000012
 10
232.1146458023999912
 20
23.6435565367999985
 10
232.1163987955000039
 20
23.6770029298000004
 10
232.121638568700007
 20
23.710084522799999
 10
232.1303077139000095
 20
23.7424429160000017
 10
232.1423112500999935
 20
23.7737133094999997
 10
232.157517664199986
 20
23.8035565031999994
 10
232.1757603512999992
 20
23.8316460972999984
 10
232.1968394410000087
 20
23.8576748917999986
 10
232.2205239861000052
 20
23.8813612868000007
 10
232.2465544938999926
 20
23.902442882399999
 10
232.2746457688000135
 20
23.920682878600001
 10
232.3044900367000025
 20
23.935889275400001
 10
232.335760317699993
 20
23.9478956728999997
 10
232.368114008100008
 20
23.9565612710000018
 10
232.4011966339000139
 20
23.9618028699000014
  0
HATCH
  5
D5
100
AcDbEntity
  8
0
 62
152
420
19863
370
-1
 48
1.0
  6
CONTINUOUS
100
AcDbHatch
 10
0.0
 20
0.0
 30
0.0
210
0.0
220
0.0
230
1.0
  2
SOLID
 70
1
 71
0
 91
1
 92
1
 93
41
 72
1
 10
232.4011966339000139
 20
23.9618028699000014
 11
232.4346457350999913
 21
23.9635564696000003
 72
1
 10
232.4346457350999913
 20
23.9635564696000003
 11
238.1946445243999904
 21
23.9635564696000003
 72
1
 10
238.1946445243999904
 20
23.9635564696000003
 11
238.2280936255999961
 21
23.9618028699000014
 72
1
 10
238.2280936255999961
 20
23.9618028699000014
 11
238.2611762514999896
 21
23.9565612710000018
 72
1
 10
238.2611762514999896
 20
23.9565612710000018
 11
238.2935299417999886
 21
23.9478956728999997
 72
1
 10
238.2935299417999886
 20
23.9478956728999997
 11
238.3248002228000075
 21
23.935889275400001
 72
1
 10
238.3248002228000075
 20
23.935889275400001
 11
238.3546444908000126
 21
23.920682878600001
 72
1
 10
238.3546444908000126
 20
23.920682878600001
 11
238.382735765599989
 21
23.902442882399999
 72
1
 10
238.382735765599989
 20
23.902442882399999
 11
238.4087662734000048
 21
23.8813612868000007
 72
1
 10
238.4087662734000048
 20
23.8813612868000007
 11
238.4324508185999889
 21
23.8576748917999986
 72
1
 10
238.4324508185999889
 20
23.8576748917999986
 11
238.4535299082000108
 21
23.8316460972999984
 72
1
 10
238.4535299082000108
 20
23.8316460972999984
 11
238.4717725954000116
 21
23.8035565031999994
 72
1
 10
238.4717725954000116
 20
23.8035565031999994
 11
238.4869790093999882
 21
23.7737133094999997
 72
1
 10
238.4869790093999882
 20
23.7737133094999997
 11
238.4989825456000005
 21
23.7424429160000017
 72
1
 10
238.4989825456000005
 20
23.7424429160000017
 11
238.5076516908000031
 21
23.710084522799999
 72
1
 10
238.5076516908000031
 20
23.710084522799999
 11
238.5128914640000062
 21
23.6770029298000004
 72
1
 10
238.5128914640000062
 20
23.6770029298000004
 11
238.5146444570999904
 21
23.6435565367999985
 72
1
 10
238.5146444570999904
 20
23.6435565367999985
 11
235.2728767570000059
 21
23.3208174047000014
 72
1
 10
235.2728767570000059
 20
23.3208174047000014
 11
235.2318230527000082
 21
23.3126510063999994
 72
1
 10
235.2318230527000082
 20
23.3126510063999994
 11
235.1921864571999947
 21
23.2991982092000001
 72
1
 10
235.1921864571999947
 20
23.2991982092000001
 11
235.154645163400005
 21
23.2806830130999991
 72
1
 10
235.154645163400005
 20
23.2806830130999991
 11
235.1198415133999902
 21
23.2574254180000004
 72
1
 10
235.1198415133999902
 20
23.2574254180000004
 11
235.0883710074000135
 21
23.2298286237999996
 72
1
 10
235.0883710074000135
 20
23.2298286237999996
 11
235.0607721142000059
 21
23.1983598304000012
 72
1
 10
235.0607721142000059
 20
23.1983598304000012
 11
235.037517058800006
 21
23.1635566377000011
 72
1
 10
235.037517058800006
 20
23.1635566377000011
 11
232.1146458023999912
 21
17.8835577476000012
 72
1
 10
232.1146458023999912
 20
17.8835577476000012
 11
232.1146458023999912
 21
23.6435565367999985
 72
1
 10
232.1146458023999912
 20
23.6435565367999985
 11
232.1163987955000039
 21
23.6770029298000004
 72
1
 10
232.1163987955000039
 20
23.6770029298000004
 11
232.121638568700007
 21
23.710084522799999
 72
1
 10
232.121638568700007
 20
23.710084522799999
 11
232.1303077139000095
 21
23.7424429160000017
 72
1
 10
232.1303077139000095
 20
23.7424429160000017
 11
232.1423112500999935
 21
23.7737133094999997
 72
1
 10
232.1423112500999935
 20
23.7737133094999997
 11
232.157517664199986
 21
23.8035565031999994
 72
1
 10
232.157517664199986
 20
23.8035565031999994
 11
232.1757603512999992
 21
23.8316460972999984
 72
1
 10
232.1757603512999992
 20
23.8316460972999984
 11
232.1968394410000087
 21
23.8576748917999986
 72
1
 10
232.1968394410000087
 20
23.8576748917999986
 11
232.2205239861000052
 21
23.8813612868000007
 72
1
 10
232.2205239861000052
 20
23.8813612868000007
 11
232.2465544938999926
 21
23.902442882399999
 72
1
 10
232.2465544938999926
 20
23.902442882399999
 11
232.2746457688000135
 21
23.920682878600001
 72
1
 10
232.2746457688000135
 20
23.920682878600001
 11
232.3044900367000025
 21
23.935889275400001
 72
1
 10
232.3044900367000025
 20
23.935889275400001
 11
232.335760317699993
 21
23.9478956728999997
 72
1
 10
232.335760317699993
 20
23.9478956728999997
 11
232.368114008100008
 21
23.9565612710000018
 72
1
 10
232.368114008100008
 20
23.9565612710000018
 11
232.4011966339000139
 21
23.9618028699000014
 97
0
 75
0
 76
1
 98
0
1001
ACAD
1010
0.0
1020
0.0
1030
0
  0
LWPOLYLINE
  5
D6
100
AcDbEntity
  8
0
 62
152
420
19863
370
-1
 48
1.0
  6
CONTINUOUS
100
AcDbPolyline
 90
50
 70
0
 10
239.7611950868999884
 20
23.9618028699000014
 10
239.7946441880999942
 20
23.9635564696000003
 10
250.0346420356999886
 20
23.9635564696000003
 10
250.0680911368999944
 20
23.9618028699000014
 10
250.1011737627999878
 20
23.9565612710000018
 10
250.1335274530999868
 20
23.9478956728999997
 10
250.1647977341000058
 20
23.935889275400001
 10
250.1946420021000108
 20
23.920682878600001
 10
250.2227332768999872
 20
23.902442882399999
 10
250.248763784700003
 20
23.8813612868000007
 10
250.2724483298999871
 20
23.8576748917999986
 10
250.293527419500009
 20
23.8316460972999984
 10
250.3117701065999938
 20
23.8035565031999994
 10
250.3269765206999864
 20
23.7737133094999997
 10
250.3389800568999988
 20
23.7424429160000017
 10
250.3476492021000013
 20
23.710084522799999
 10
250.3528889753000044
 20
23.6770029298000004
 10
250.3546419683999886
 20
23.6435565367999985
 10
247.0609168306999948
 20
23.2298286237999996
 10
247.0294463246999896
 20
23.2574254180000004
 10
246.9946426747000032
 20
23.2806830130999991
 10
246.9571013809000135
 20
23.2991982092000001
 10
246.9174647853000124
 20
23.3126510063999994
 10
246.8764110809999863
 20
23.3208174047000014
 10
246.8346427083000094
 20
23.3235566040999984
 10
242.9946435155000017
 20
23.3235566040999984
 10
242.9528751427000088
 20
23.3208174047000014
 10
242.9118214384000112
 20
23.3126510063999994
 10
242.8721848428000101
 20
23.2991982092000001
 10
242.8346435491000079
 20
23.2806830130999991
 10
242.7998398990999931
 20
23.2574254180000004
 10
242.7683693930000004
 20
23.2298286237999996
 10
242.7407704999000089
 20
23.1983598304000012
 10
242.7175154445000089
 20
23.1635566377000011
 10
239.4746442553999941
 20
17.8835577476000012
 10
239.4746442553999941
 20
23.6435565367999985
 10
239.4763972485000068
 20
23.6770029298000004
 10
239.4816370217000099
 20
23.710084522799999
 10
239.4903061667999964
 20
23.7424429160000017
 10
239.5023097030999963
 20
23.7737133094999997
 10
239.5175161171000013
 20
23.8035565031999994
 10
239.5357588043000021
 20
23.8316460972999984
 10
239.5568378938999956
 20
23.8576748917999986
 10
239.5805224391000081
 20
23.8813612868000007
 10
239.6065529468999955
 20
23.902442882399999
 10
239.6346442217000003
 20
23.920682878600001
 10
239.6644884897000054
 20
23.935889275400001
 10
239.6957587706999959
 20
23.9478956728999997
 10
239.7281124609999949
 20
23.9565612710000018
 10
239.7611950868999884
 20
23.9618028699000014
  0
HATCH
  5
D7
100
AcDbEntity
  8
0
 62
152
420
19863
370
-1
 48
1.0
  6
CONTINUOUS
100
AcDbHatch
 10
0.0
 20
0.0
 30
0.0
210
0.0
220
0.0
230
1.0
  2
SOLID
 70
1
 71
0
 91
1
 92
1
 93
49
 72
1
 10
239.7611950868999884
 20
23.9618028699000014
 11
239.7946441880999942
 21
23.9635564696000003
 72
1
 10
239.7946441880999942
 20
23.9635564696000003
 11
250.0346420356999886
 21
23.9635564696000003
 72
1
 10
250.0346420356999886
 20
23.9635564696000003
 11
250.0680911368999944
 21
23.9618028699000014
 72
1
 10
250.0680911368999944
 20
23.9618028699000014
 11
250.1011737627999878
 21
23.9565612710000018
 72
1
 10
250.1011737627999878
 20
23.9565612710000018
 11
250.1335274530999868
 21
23.9478956728999997
 72
1
 10
250.1335274530999868
 20
23.9478956728999997
 11
250.1647977341000058
 21
23.935889275400001
 72
1
 10
250.1647977341000058
 20
23.935889275400001
 11
250.1946420021000108
 21
23.920682878600001
 72
1
 10
250.1946420021000108
 20
23.920682878600001
 11
250.2227332768999872
 21
23.902442882399999
 72
1
 10
250.2227332768999872
 20
23.902442882399999
 11
250.248763784700003
 21
23.8813612868000007
 72
1
 10
250.248763784700003
 20
23.8813612868000007
 11
250.2724483298999871
 21
23.8576748917999986
 72
1
 10
250.2724483298999871
 20
23.8576748917999986
 11
250.293527419500009
 21
23.8316460972999984
 72
1
 10
250.293527419500009
 20
23.8316460972999984
 11
250.3117701065999938
 21
23.8035565031999994
 72
1
 10
250.3117701065999938
 20
23.8035565031999994
 11
250.3269765206999864
 21
23.7737133094999997
 72
1
 10
250.3269765206999864
 20
23.7737133094999997
 11
250.3389800568999988
 21
23.7424429160000017
 72
1
 10
250.3389800568999988
 20
23.7424429160000017
 11
250.3476492021000013
 21
23.710084522799999
 72
1
 10
250.3476492021000013
 20
23.710084522799999
 11
250.3528889753000044
 21
23.6770029298000004
 72
1
 10
250.3528889753000044
 20
23.6770029298000004
 11
250.3546419683999886
 21
23.6435565367999985
 72
1
 10
250.3546419683999886
 20
23.6435565367999985
 11
247.0609168306999948
 21
23.2298286237999996
 72
1
 10
247.0609168306999948
 20
23.2298286237999996
 11
247.0294463246999896
 21
23.2574254180000004
 72
1
 10
247.0294463246999896
 20
23.2574254180000004
 11
246.9946426747000032
 21
23.2806830130999991
 72
1
 10
246.9946426747000032
 20
23.2806830130999991
 11
246.9571013809000135
 21
23.2991982092000001
 72
1
 10
246.9571013809000135
 20
23.2991982092000001
 11
246.9174647853000124
 21
23.3126510063999994
 72
1
 10
246.9174647853000124
 20
23.3126510063999994
 11
246.8764110809999863
 21
23.3208174047000014
 72
1
 10
246.8764110809999863
 20
23.3208174047000014
 11
246.8346427083000094
 21
23.3235566040999984
 72
1
 10
246.8346427083000094
 20
23.3235566040999984
 11
242.9946435155000017
 21
23.3235566040999984
 72
1
 10
242.9946435155000017
 20
23.3235566040999984
 11
242.9528751427000088
 21
23.3208174047000014
 72
1
 10
242.9528751427000088
 20
23.3208174047000014
 11
242.9118214384000112
 21
23.3126510063999994
 72
1
 10
242.9118214384000112
 20
23.3126510063999994
 11
242.8721848428000101
 21
23.2991982092000001
 72
1
 10
242.8721848428000101
 20
23.2991982092000001
 11
242.8346435491000079
 21
23.2806830130999991
 72
1
 10
242.8346435491000079
 20
23.2806830130999991
 11
242.7998398990999931
 21
23.2574254180000004
 72
1
 10
242.7998398990999931
 20
23.2574254180000004
 11
242.7683693930000004
 21
23.2298286237999996
 72
1
 10
242.7683693930000004
 20
23.2298286237999996
 11
242.7407704999000089
 21
23.1983598304000012
 72
1
 10
242.7407704999000089
 20
23.1983598304000012
 11
242.7175154445000089
 21
23.1635566377000011
 72
1
 10
242.7175154445000089
 20
23.1635566377000011
 11
239.4746442553999941
 21
17.8835577476000012
 72
1
 10
239.4746442553999941
 20
17.8835577476000012
 11
239.4746442553999941
 21
23.6435565367999985
 72
1
 10
239.4746442553999941
 20
23.6435565367999985
 11
239.4763972485000068
 21
23.6770029298000004
 72
1
 10
239.4763972485000068
 20
23.6770029298000004
 11
239.4816370217000099
 21
23.710084522799999
 72
1
 10
239.4816370217000099
 20
23.710084522799999
 11
239.4903061667999964
 21
23.7424429160000017
 72
1
 10
239.4903061667999964
 20
23.7424429160000017
 11
239.5023097030999963
 21
23.7737133094999997
 72
1
 10
239.5023097030999963
 20
23.7737133094999997
 11
239.5175161171000013
 21
23.8035565031999994
 72
1
 10
239.5175161171000013
 20
23.8035565031999994
 11
239.5357588043000021
 21
23.8316460972999984
 72
1
 10
239.5357588043000021
 20
23.8316460972999984
 11
239.5568378938999956
 21
23.8576748917999986
 72
1
 10
239.5568378938999956
 20
23.8576748917999986
 11
239.5805224391000081
 21
23.8813612868000007
 72
1
 10
239.5805224391000081
 20
23.8813612868000007
 11
239.6065529468999955
 21
23.902442882399999
 72
1
 10
239.6065529468999955
 20
23.902442882399999
 11
239.6346442217000003
 21
23.920682878600001
 72
1
 10
239.6346442217000003
 20
23.920682878600001
 11
239.6644884897000054
 21
23.935889275400001
 72
1
 10
239.6644884897000054
 20
23.935889275400001
 11
239.6957587706999959
 21
23.9478956728999997
 72
1
 10
239.6957587706999959
 20
23.9478956728999997
 11
239.7281124609999949
 21
23.9565612710000018
 72
1
 10
239.7281124609999949
 20
23.9565612710000018
 11
239.7611950868999884
 21
23.9618028699000014
 97
0
 75
0
 76
1
 98
0
1001
ACAD
1010
0.0
1020
0.0
1030
0
  0
LWPOLYLINE
  5
D8
100
AcDbEntity
  8
0
 62
152
420
19863
370
-1
 48
1.0
  6
CONTINUOUS
100
AcDbPolyline
 90
42
 70
0
 10
251.6011925981999866
 20
23.9618028699000014
 10
251.6346416993999924
 20
23.9635564696000003
 10
257.3946404886000892
 20
23.9635564696000003
 10
257.4280895899000257
 20
23.9618028699000014
 10
257.4611722157000031
 20
23.9565612710000018
 10
257.4935259060999897
 20
23.9478956728999997
 10
257.5247961870999802
 20
23.935889275400001
 10
257.5546404550000261
 20
23.920682878600001
 10
257.5827317298000025
 20
23.902442882399999
 10
257.6087622376999775
 20
23.8813612868000007
 10
257.6324467828000024
 20
23.8576748917999986
 10
257.6535258723999959
 20
23.8316460972999984
 10
257.6717685596000251
 20
23.8035565031999994
 10
257.6869749736000017
 20
23.7737133094999997
 10
257.6989785098999732
 20
23.7424429160000017
 10
257.7076476551000042
 20
23.710084522799999
 10
257.7128874283000073
 20
23.6770029298000004
 10
257.7146404214000199
 20
23.6435565367999985
 10
252.1918194877999895
 20
22.2886513436000016
 10
252.1521828921999884
 20
22.275196532399999
 10
252.1146415984999862
 20
22.2566832151000007
 10
252.0798379484999998
 20
22.2334281597000007
 10
252.0483674424000071
 20
22.2058292665999986
 10
252.0207685492999872
 20
22.1743587604999988
 10
251.9975134938999872
 20
22.1395551105000017
 10
251.9790001766000103
 20
22.1020138167999995
 10
251.3146417666000048
 20
20.1875555208000002
 10
251.3146417666000048
 20
23.6435565367999985
 10
251.316394759800005
 20
23.6770029298000004
 10
251.3216345328999921
 20
23.710084522799999
 10
251.3303036780999946
 20
23.7424429160000017
 10
251.3423072143999946
 20
23.7737133094999997
 10
251.3575136283999996
 20
23.8035565031999994
 10
251.3757563156000003
 20
23.8316460972999984
 10
251.3968354051999938
 20
23.8576748917999986
 10
251.4205199502999903
 20
23.8813612868000007
 10
251.4465504581999937
 20
23.902442882399999
 10
251.4746417329999986
 20
23.920682878600001
 10
251.5044860008999876
 20
23.935889275400001
 10
251.5357562819999941
 20
23.9478956728999997
 10
251.5681099722999932
 20
23.9565612710000018
 10
251.6011925981999866
 20
23.9618028699000014
  0
HATCH
  5
D9
100
AcDbEntity
  8
0
 62
152
420
19863
370
-1
 48
1.0
  6
CONTINUOUS
100
AcDbHatch
 10
0.0
 20
0.0
 30
0.0
210
0.0
220
0.0
230
1.0
  2
SOLID
 70
1
 71
0
 91
1
 92
1
 93
41
 72
1
 10
251.6011925981999866
 20
23.9618028699000014
 11
251.6346416993999924
 21
23.9635564696000003
 72
1
 10
251.6346416993999924
 20
23.9635564696000003
 11
257.3946404886000892
 21
23.9635564696000003
 72
1
 10
257.3946404886000892
 20
23.9635564696000003
 11
257.4280895899000257
 21
23.9618028699000014
 72
1
 10
257.4280895899000257
 20
23.9618028699000014
 11
257.4611722157000031
 21
23.9565612710000018
 72
1
 10
257.4611722157000031
 20
23.9565612710000018
 11
257.4935259060999897
 21
23.9478956728999997
 72
1
 10
257.4935259060999897
 20
23.9478956728999997
 11
257.5247961870999802
 21
23.935889275400001
 72
1
 10
257.5247961870999802
 20
23.935889275400001
 11
257.5546404550000261
 21
23.920682878600001
 72
1
 10
257.5546404550000261
 20
23.920682878600001
 11
257.5827317298000025
 21
23.902442882399999
 72
1
 10
257.5827317298000025
 20
23.902442882399999
 11
257.6087622376999775
 21
23.8813612868000007
 72
1
 10
257.6087622376999775
 20
23.8813612868000007
 11
257.6324467828000024
 21
23.8576748917999986
 72
1
 10
257.6324467828000024
 20
23.8576748917999986
 11
257.6535258723999959
 21
23.8316460972999984
 72
1
 10
257.6535258723999959
 20
23.8316460972999984
 11
257.6717685596000251
 21
23.8035565031999994
 72
1
 10
257.6717685596000251
 20
23.8035565031999994
 11
257.6869749736000017
 21
23.7737133094999997
 72
1
 10
257.6869749736000017
 20
23.7737133094999997
 11
257.6989785098999732
 21
23.7424429160000017
 72
1
 10
257.6989785098999732
 20
23.7424429160000017
 11
257.7076476551000042
 21
23.710084522799999
 72
1
 10
257.7076476551000042
 20
23.710084522799999
 11
257.7128874283000073
 21
23.6770029298000004
 72
1
 10
257.7128874283000073
 20
23.6770029298000004
 11
257.7146404214000199
 21
23.6435565367999985
 72
1
 10
257.7146404214000199
 20
23.6435565367999985
 11
252.1918194877999895
 21
22.2886513436000016
 72
1
 10
252.1918194877999895
 20
22.2886513436000016
 11
252.1521828921999884
 21
22.275196532399999
 72
1
 10
252.1521828921999884
 20
22.275196532399999
 11
252.1146415984999862
 21
22.2566832151000007
 72
1
 10
252.1146415984999862
 20
22.2566832151000007
 11
252.0798379484999998
 21
22.2334281597000007
 72
1
 10
252.0798379484999998
 20
22.2334281597000007
 11
252.0483674424000071
 21
22.2058292665999986
 72
1
 10
252.0483674424000071
 20
22.2058292665999986
 11
252.0207685492999872
 21
22.1743587604999988
 72
1
 10
252.0207685492999872
 20
22.1743587604999988
 11
251.9975134938999872
 21
22.1395551105000017
 72
1
 10
251.9975134938999872
 20
22.1395551105000017
 11
251.9790001766000103
 21
22.1020138167999995
 72
1
 10
251.9790001766000103
 20
22.1020138167999995
 11
251.3146417666000048
 21
20.1875555208000002
 72
1
 10
251.3146417666000048
 20
20.1875555208000002
 11
251.3146417666000048
 21
23.6435565367999985
 72
1
 10
251.3146417666000048
 20
23.6435565367999985
 11
251.316394759800005
 21
23.6770029298000004
 72
1
 10
251.316394759800005
 20
23.6770029298000004
 11
251.3216345328999921
 21
23.710084522799999
 72
1
 10
251.3216345328999921
 20
23.710084522799999
 11
251.3303036780999946
 21
23.7424429160000017
 72
1
 10
251.3303036780999946
 20
23.7424429160000017
 11
251.3423072143999946
 21
23.7737133094999997
 72
1
 10
251.3423072143999946
 20
23.7737133094999997
 11
251.3575136283999996
 21
23.8035565031999994
 72
1
 10
251.3575136283999996
 20
23.8035565031999994
 11
251.3757563156000003
 21
23.8316460972999984
 72
1
 10
251.3757563156000003
 20
23.8316460972999984
 11
251.3968354051999938
 21
23.8576748917999986
 72
1
 10
251.3968354051999938
 20
23.8576748917999986
 11
251.4205199502999903
 21
23.8813612868000007
 72
1
 10
251.4205199502999903
 20
23.8813612868000007
 11
251.4465504581999937
 21
23.902442882399999
 72
1
 10
251.4465504581999937
 20
23.902442882399999
 11
251.4746417329999986
 21
23.920682878600001
 72
1
 10
251.4746417329999986
 20
23.920682878600001
 11
251.5044860008999876
 21
23.935889275400001
 72
1
 10
251.5044860008999876
 20
23.935889275400001
 11
251.5357562819999941
 21
23.9478956728999997
 72
1
 10
251.5357562819999941
 20
23.9478956728999997
 11
251.5681099722999932
 21
23.9565612710000018
 72
1
 10
251.5681099722999932
 20
23.9565612710000018
 11
251.6011925981999866
 21
23.9618028699000014
 97
0
 75
0
 76
1
 98
0
1001
ACAD
1010
0.0
1020
0.0
1030
0
  0
LWPOLYLINE
  5
DA
100
AcDbEntity
  8
0
 62
152
420
19863
370
-1
 48
1.0
  6
CONTINUOUS
100
AcDbPolyline
 90
50
 70
0
 10
243.0364118882000071
 20
23.3208174047000014
 10
242.9946435155000017
 20
23.3235566040999984
 10
246.8346427083000094
 20
23.3235566040999984
 10
246.7928743356000041
 20
23.3208174047000014
 10
246.7518206313000064
 20
23.3126510063999994
 10
246.7121840357000053
 20
23.2991982092000001
 10
246.6746427418999872
 20
23.2806830130999991
 10
246.6398390919999883
 20
23.2574254180000004
 10
246.6083685858999957
 20
23.2298286237999996
 10
246.5807696928000041
 20
23.1983598304000012
 10
246.5575146374000042
 20
23.1635566377000011
 10
246.5390013200999988
 20
23.1260142456000004
 10
246.5255465088999927
 20
23.0863790539
 10
246.5173804194000127
 20
23.0453230626000014
 10
246.5146427756000094
 20
23.0035566713999984
 10
246.5146427756000094
 20
17.8835577476000012
 10
246.5128897824999967
 20
17.850104954599999
 10
246.5076500092999936
 20
17.8170233614999987
 10
246.4989808640999911
 20
17.7846713682999997
 10
246.4869773277999911
 20
17.7534009748999999
 10
246.4717709137999861
 20
17.7235577812000002
 10
246.4535282266000138
 20
17.6954617871000011
 10
246.4324491369999919
 20
17.6694329926000009
 10
246.4087645918999954
 20
17.6457465975000005
 10
246.382734083999992
 20
17.6246714020000006
 10
246.3546428091999871
 20
17.6064250057999985
 10
243.5044876825000131
 20
17.5912186089999985
 10
243.4746434145999956
 20
17.6064250057999985
 10
243.4465521397000032
 20
17.6246714020000006
 10
243.4205216318999874
 20
17.6457465975000005
 10
243.3968370867999909
 20
17.6694329926000009
 10
243.3757579971999974
 20
17.6954617871000011
 10
243.3575153099999966
 20
17.7235577812000002
 10
243.342308895900004
 20
17.7534009748999999
 10
243.3303053596999916
 20
17.7846713682999997
 10
243.3216362144999891
 20
17.8170233614999987
 10
243.316396441299986
 20
17.850104954599999
 10
243.3146434482000018
 20
17.8835577476000012
 10
243.3146434482000018
 20
23.0035566713999984
 10
243.3119058043999985
 20
23.0453230626000014
 10
243.3037397148999901
 20
23.0863790539
 10
243.2902849037000124
 20
23.1260142456000004
 10
243.271771586400007
 20
23.1635566377000011
 10
243.248516531000007
 20
23.1983598304000012
 10
243.2209176378999871
 20
23.2298286237999996
 10
243.1894471317999944
 20
23.2574254180000004
 10
243.154643481800008
 20
23.2806830130999991
 10
243.1171021881000058
 20
23.2991982092000001
 10
243.0774655925000047
 20
23.3126510063999994
 10
243.0364118882000071
 20
23.3208174047000014
  0
HATCH
  5
DB
100
AcDbEntity
  8
0
 62
152
420
19863
370
-1
 48
1.0
  6
CONTINUOUS
100
AcDbHatch
 10
0.0
 20
0.0
 30
0.0
210
0.0
220
0.0
230
1.0
  2
SOLID
 70
1
 71
0
 91
1
 92
1
 93
49
 72
1
 10
243.0364118882000071
 20
23.3208174047000014
 11
242.9946435155000017
 21
23.3235566040999984
 72
1
 10
242.9946435155000017
 20
23.3235566040999984
 11
246.8346427083000094
 21
23.3235566040999984
 72
1
 10
246.8346427083000094
 20
23.3235566040999984
 11
246.7928743356000041
 21
23.3208174047000014
 72
1
 10
246.7928743356000041
 20
23.3208174047000014
 11
246.7518206313000064
 21
23.3126510063999994
 72
1
 10
246.7518206313000064
 20
23.3126510063999994
 11
246.7121840357000053
 21
23.2991982092000001
 72
1
 10
246.7121840357000053
 20
23.2991982092000001
 11
246.6746427418999872
 21
23.2806830130999991
 72
1
 10
246.6746427418999872
 20
23.2806830130999991
 11
246.6398390919999883
 21
23.2574254180000004
 72
1
 10
246.6398390919999883
 20
23.2574254180000004
 11
246.6083685858999957
 21
23.2298286237999996
 72
1
 10
246.6083685858999957
 20
23.2298286237999996
 11
246.5807696928000041
 21
23.1983598304000012
 72
1
 10
246.5807696928000041
 20
23.1983598304000012
 11
246.5575146374000042
 21
23.1635566377000011
 72
1
 10
246.5575146374000042
 20
23.1635566377000011
 11
246.5390013200999988
 21
23.1260142456000004
 72
1
 10
246.5390013200999988
 20
23.1260142456000004
 11
246.5255465088999927
 21
23.0863790539
 72
1
 10
246.5255465088999927
 20
23.0863790539
 11
246.5173804194000127
 21
23.0453230626000014
 72
1
 10
246.5173804194000127
 20
23.0453230626000014
 11
246.5146427756000094
 21
23.0035566713999984
 72
1
 10
246.5146427756000094
 20
23.0035566713999984
 11
246.5146427756000094
 21
17.8835577476000012
 72
1
 10
246.5146427756000094
 20
17.8835577476000012
 11
246.5128897824999967
 21
17.850104954599999
 72
1
 10
246.5128897824999967
 20
17.850104954599999
 11
246.5076500092999936
 21
17.8170233614999987
 72
1
 10
246.5076500092999936
 20
17.8170233614999987
 11
246.4989808640999911
 21
17.7846713682999997
 72
1
 10
246.4989808640999911
 20
17.7846713682999997
 11
246.4869773277999911
 21
17.7534009748999999
 72
1
 10
246.4869773277999911
 20
17.7534009748999999
 11
246.4717709137999861
 21
17.7235577812000002
 72
1
 10
246.4717709137999861
 20
17.7235577812000002
 11
246.4535282266000138
 21
17.6954617871000011
 72
1
 10
246.4535282266000138
 20
17.6954617871000011
 11
246.4324491369999919
 21
17.6694329926000009
 72
1
 10
246.4324491369999919
 20
17.6694329926000009
 11
246.4087645918999954
 21
17.6457465975000005
 72
1
 10
246.4087645918999954
 20
17.6457465975000005
 11
246.382734083999992
 21
17.6246714020000006
 72
1
 10
246.382734083999992
 20
17.6246714020000006
 11
246.3546428091999871
 21
17.6064250057999985
 72
1
 10
246.3546428091999871
 20
17.6064250057999985
 11
243.5044876825000131
 21
17.5912186089999985
 72
1
 10
243.5044876825000131
 20
17.5912186089999985
 11
243.4746434145999956
 21
17.6064250057999985
 72
1
 10
243.4746434145999956
 20
17.6064250057999985
 11
243.4465521397000032
 21
17.6246714020000006
 72
1
 10
243.4465521397000032
 20
17.6246714020000006
 11
243.4205216318999874
 21
17.6457465975000005
 72
1
 10
243.4205216318999874
 20
17.6457465975000005
 11
243.3968370867999909
 21
17.6694329926000009
 72
1
 10
243.3968370867999909
 20
17.6694329926000009
 11
243.3757579971999974
 21
17.6954617871000011
 72
1
 10
243.3757579971999974
 20
17.6954617871000011
 11
243.3575153099999966
 21
17.7235577812000002
 72
1
 10
243.3575153099999966
 20
17.7235577812000002
 11
243.342308895900004
 21
17.7534009748999999
 72
1
 10
243.342308895900004
 20
17.7534009748999999
 11
243.3303053596999916
 21
17.7846713682999997
 72
1
 10
243.3303053596999916
 20
17.7846713682999997
 11
243.3216362144999891
 21
17.8170233614999987
 72
1
 10
243.3216362144999891
 20
17.8170233614999987
 11
243.316396441299986
 21
17.850104954599999
 72
1
 10
243.316396441299986
 20
17.850104954599999
 11
243.3146434482000018
 21
17.8835577476000012
 72
1
 10
243.3146434482000018
 20
17.8835577476000012
 11
243.3146434482000018
 21
23.0035566713999984
 72
1
 10
243.3146434482000018
 20
23.0035566713999984
 11
243.3119058043999985
 21
23.0453230626000014
 72
1
 10
243.3119058043999985
 20
23.0453230626000014
 11
243.3037397148999901
 21
23.0863790539
 72
1
 10
243.3037397148999901
 20
23.0863790539
 11
243.2902849037000124
 21
23.1260142456000004
 72
1
 10
243.2902849037000124
 20
23.1260142456000004
 11
243.271771586400007
 21
23.1635566377000011
 72
1
 10
243.271771586400007
 20
23.1635566377000011
 11
243.248516531000007
 21
23.1983598304000012
 72
1
 10
243.248516531000007
 20
23.1983598304000012
 11
243.2209176378999871
 21
23.2298286237999996
 72
1
 10
243.2209176378999871
 20
23.2298286237999996
 11
243.1894471317999944
 21
23.2574254180000004
 72
1
 10
243.1894471317999944
 20
23.2574254180000004
 11
243.154643481800008
 21
23.2806830130999991
 72
1
 10
243.154643481800008
 20
23.2806830130999991
 11
243.1171021881000058
 21
23.2991982092000001
 72
1
 10
243.1171021881000058
 20
23.2991982092000001
 11
243.0774655925000047
 21
23.3126510063999994
 72
1
 10
243.0774655925000047
 20
23.3126510063999994
 11
243.0364118882000071
 21
23.3208174047000014
 97
0
 75
0
 76
1
 98
0
1001
ACAD
1010
0.0
1020
0.0
1030
0
  0
LWPOLYLINE
  5
DC
100
AcDbEntity
  8
0
 62
152
420
19863
370
-1
 48
1.0
  6
CONTINUOUS
100
AcDbPolyline
 90
23
 70
0
 10
252.2746415649000085
 20
22.2995568193000011
 10
252.2328731920999871
 20
22.2968174330999993
 10
252.1918194877999895
 20
22.2886513436000016
 10
257.7146404214000199
 20
23.6435565367999985
 10
257.7146404214000199
 20
22.6195550097000009
 10
257.7128874283000073
 20
22.5861059084000004
 10
257.7076476551000042
 20
22.5530232826000017
 10
257.6989785098999732
 20
22.5206695922000009
 10
257.6869749736000017
 20
22.4893993111999997
 10
257.6717685596000251
 20
22.4595550433
 10
257.6535258723999959
 20
22.4314637684999987
 10
257.6324467828000024
 20
22.4054332605999988
 10
257.6087622376999775
 20
22.3817487154999988
 10
257.5827317298000025
 20
22.3606696259000017
 10
257.5546404550000261
 20
22.342426938700001
 10
257.5247961870999802
 20
22.3272205246999995
 10
257.4935259060999897
 20
22.3152169883999996
 10
257.4611722157000031
 20
22.3065478432000006
 10
257.4280895899000257
 20
22.301308070000001
 10
257.3946404886000892
 20
22.2995568193000011
 10
257.2509221648999755
 20
22.2995568193000011
 10
252.3634011206999901
 20
22.2995568193000011
 10
252.2746415649000085
 20
22.2995568193000011
  0
HATCH
  5
DD
100
AcDbEntity
  8
0
 62
152
420
19863
370
-1
 48
1.0
  6
CONTINUOUS
100
AcDbHatch
 10
0.0
 20
0.0
 30
0.0
210
0.0
220
0.0
230
1.0
  2
SOLID
 70
1
 71
0
 91
1
 92
1
 93
22
 72
1
 10
252.2746415649000085
 20
22.2995568193000011
 11
252.2328731920999871
 21
22.2968174330999993
 72
1
 10
252.2328731920999871
 20
22.2968174330999993
 11
252.1918194877999895
 21
22.2886513436000016
 72
1
 10
252.1918194877999895
 20
22.2886513436000016
 11
257.7146404214000199
 21
23.6435565367999985
 72
1
 10
257.7146404214000199
 20
23.6435565367999985
 11
257.7146404214000199
 21
22.6195550097000009
 72
1
 10
257.7146404214000199
 20
22.6195550097000009
 11
257.7128874283000073
 21
22.5861059084000004
 72
1
 10
257.7128874283000073
 20
22.5861059084000004
 11
257.7076476551000042
 21
22.5530232826000017
 72
1
 10
257.7076476551000042
 20
22.5530232826000017
 11
257.6989785098999732
 21
22.5206695922000009
 72
1
 10
257.6989785098999732
 20
22.5206695922000009
 11
257.6869749736000017
 21
22.4893993111999997
 72
1
 10
257.6869749736000017
 20
22.4893993111999997
 11
257.6717685596000251
 21
22.4595550433
 72
1
 10
257.6717685596000251
 20
22.4595550433
 11
257.6535258723999959
 21
22.4314637684999987
 72
1
 10
257.6535258723999959
 20
22.4314637684999987
 11
257.6324467828000024
 21
22.4054332605999988
 72
1
 10
257.6324467828000024
 20
22.4054332605999988
 11
257.6087622376999775
 21
22.3817487154999988
 72
1
 10
257.6087622376999775
 20
22.3817487154999988
 11
257.5827317298000025
 21
22.3606696259000017
 72
1
 10
257.5827317298000025
 20
22.3606696259000017
 11
257.5546404550000261
 21
22.342426938700001
 72
1
 10
257.5546404550000261
 20
22.342426938700001
 11
257.5247961870999802
 21
22.3272205246999995
 72
1
 10
257.5247961870999802
 20
22.3272205246999995
 11
257.4935259060999897
 21
22.3152169883999996
 72
1
 10
257.4935259060999897
 20
22.3152169883999996
 11
257.4611722157000031
 21
22.3065478432000006
 72
1
 10
257.4611722157000031
 20
22.3065478432000006
 11
257.4280895899000257
 21
22.301308070000001
 72
1
 10
257.4280895899000257
 20
22.301308070000001
 11
257.3946404886000892
 21
22.2995568193000011
 72
1
 10
257.3946404886000892
 20
22.2995568193000011
 11
257.2509221648999755
 21
22.2995568193000011
 72
1
 10
257.2509221648999755
 20
22.2995568193000011
 11
252.3634011206999901
 21
22.2995568193000011
 72
1
 10
252.3634011206999901
 20
22.2995568193000011
 11
252.2746415649000085
 21
22.2995568193000011
 97
0
 75
0
 76
1
 98
0
1001
ACAD
1010
0.0
1020
0.0
1030
0
  0
LWPOLYLINE
  5
DE
100
AcDbEntity
  8
0
 62
152
420
19863
370
-1
 48
1.0
  6
CONTINUOUS
100
AcDbPolyline
 90
50
 70
0
 10
257.7146404214000199
 20
21.3395552787000007
 10
251.6011925981999866
 20
19.8693085811999985
 10
251.5681099722999932
 20
19.8745483544000017
 10
251.5357562819999941
 20
19.8832174996000006
 10
251.5044860008999876
 20
19.8952210359000006
 10
251.4746417329999986
 20
19.9104274498999985
 10
251.4465504581999937
 20
19.9286701370999992
 10
251.4205199502999903
 20
19.9497492266999998
 10
251.3968354051999938
 20
19.9734337717999999
 10
251.3757563156000003
 20
19.9994642796999997
 10
251.3575136283999996
 20
20.027555554500001
 10
251.3423072143999946
 20
20.0573998224000007
 10
251.3303036780999946
 20
20.0886701033999984
 10
251.3216345328999921
 20
20.1210237937999992
 10
251.316394759800005
 20
20.1541064196000015
 10
251.3146417666000048
 20
20.1875555208000002
 10
251.9790001766000103
 20
22.1020138167999995
 10
251.9655453654000041
 20
22.0623772211999984
 10
251.9573792758999957
 20
22.0213235169000008
 10
251.9546416320999924
 20
21.979555144199999
 10
251.9573792758999957
 20
21.937786771399999
 10
251.9655453654000041
 20
21.8967330671999996
 10
251.9790001766000103
 20
21.8570964715999985
 10
251.9975134938999872
 20
21.8195551778000016
 10
252.0207685492999872
 20
21.784751527800001
 10
252.0483674424000071
 20
21.7532810217999995
 10
252.0798379484999998
 20
21.7256821287000008
 10
252.1146415984999862
 20
21.7024270731999991
 10
252.1521828921999884
 20
21.6839137559000008
 10
252.1918194877999895
 20
21.6704589446999982
 10
252.2328731920999871
 20
21.6622928552000005
 10
252.2746415649000085
 20
21.659556953900001
 10
252.4474784470000088
 20
21.659556953900001
 10
257.3349994911999943
 20
21.659556953900001
 10
257.3946404886000892
 20
21.659556953900001
 10
257.4280895899000257
 20
21.6578022182999987
 10
257.4611722157000031
 20
21.6525624450999992
 10
257.4935259060999897
 20
21.6438932999000002
 10
257.5247961870999802
 20
21.6318897636999985
 10
257.5546404550000261
 20
21.6166833497000006
 10
257.5827317298000025
 20
21.5984406624999998
 10
257.6087622376999775
 20
21.5773615728999992
 10
257.6324467828000024
 20
21.5536770277000009
 10
257.6535258723999959
 20
21.5276465198999993
 10
257.6717685596000251
 20
21.4995552451000016
 10
257.6869749736000017
 20
21.4697109771000001
 10
257.6989785098999732
 20
21.4384406960999989
 10
257.7076476551000042
 20
21.4060870057999999
 10
257.7128874283000073
 20
21.3730043798999993
 10
257.7146404214000199
 20
21.3395552787000007
  0
HATCH
  5
DF
100
AcDbEntity
  8
0
 62
152
420
19863
370
-1
 48
1.0
  6
CONTINUOUS
100
AcDbHatch
 10
0.0
 20
0.0
 30
0.0
210
0.0
220
0.0
230
1.0
  2
SOLID
 70
1
 71
0
 91
1
 92
1
 93
49
 72
1
 10
257.7146404214000199
 20
21.3395552787000007
 11
251.6011925981999866
 21
19.8693085811999985
 72
1
 10
251.6011925981999866
 20
19.8693085811999985
 11
251.5681099722999932
 21
19.8745483544000017
 72
1
 10
251.5681099722999932
 20
19.8745483544000017
 11
251.5357562819999941
 21
19.8832174996000006
 72
1
 10
251.5357562819999941
 20
19.8832174996000006
 11
251.5044860008999876
 21
19.8952210359000006
 72
1
 10
251.5044860008999876
 20
19.8952210359000006
 11
251.4746417329999986
 21
19.9104274498999985
 72
1
 10
251.4746417329999986
 20
19.9104274498999985
 11
251.4465504581999937
 21
19.9286701370999992
 72
1
 10
251.4465504581999937
 20
19.9286701370999992
 11
251.4205199502999903
 21
19.9497492266999998
 72
1
 10
251.4205199502999903
 20
19.9497492266999998
 11
251.3968354051999938
 21
19.9734337717999999
 72
1
 10
251.3968354051999938
 20
19.9734337717999999
 11
251.3757563156000003
 21
19.9994642796999997
 72
1
 10
251.3757563156000003
 20
19.9994642796999997
 11
251.3575136283999996
 21
20.027555554500001
 72
1
 10
251.3575136283999996
 20
20.027555554500001
 11
251.3423072143999946
 21
20.0573998224000007
 72
1
 10
251.3423072143999946
 20
20.0573998224000007
 11
251.3303036780999946
 21
20.0886701033999984
 72
1
 10
251.3303036780999946
 20
20.0886701033999984
 11
251.3216345328999921
 21
20.1210237937999992
 72
1
 10
251.3216345328999921
 20
20.1210237937999992
 11
251.316394759800005
 21
20.1541064196000015
 72
1
 10
251.316394759800005
 20
20.1541064196000015
 11
251.3146417666000048
 21
20.1875555208000002
 72
1
 10
251.3146417666000048
 20
20.1875555208000002
 11
251.9790001766000103
 21
22.1020138167999995
 72
1
 10
251.9790001766000103
 20
22.1020138167999995
 11
251.9655453654000041
 21
22.0623772211999984
 72
1
 10
251.9655453654000041
 20
22.0623772211999984
 11
251.9573792758999957
 21
22.0213235169000008
 72
1
 10
251.9573792758999957
 20
22.0213235169000008
 11
251.9546416320999924
 21
21.979555144199999
 72
1
 10
251.9546416320999924
 20
21.979555144199999
 11
251.9573792758999957
 21
21.937786771399999
 72
1
 10
251.9573792758999957
 20
21.937786771399999
 11
251.9655453654000041
 21
21.8967330671999996
 72
1
 10
251.9655453654000041
 20
21.8967330671999996
 11
251.9790001766000103
 21
21.8570964715999985
 72
1
 10
251.9790001766000103
 20
21.8570964715999985
 11
251.9975134938999872
 21
21.8195551778000016
 72
1
 10
251.9975134938999872
 20
21.8195551778000016
 11
252.0207685492999872
 21
21.784751527800001
 72
1
 10
252.0207685492999872
 20
21.784751527800001
 11
252.0483674424000071
 21
21.7532810217999995
 72
1
 10
252.0483674424000071
 20
21.7532810217999995
 11
252.0798379484999998
 21
21.7256821287000008
 72
1
 10
252.0798379484999998
 20
21.7256821287000008
 11
252.1146415984999862
 21
21.7024270731999991
 72
1
 10
252.1146415984999862
 20
21.7024270731999991
 11
252.1521828921999884
 21
21.6839137559000008
 72
1
 10
252.1521828921999884
 20
21.6839137559000008
 11
252.1918194877999895
 21
21.6704589446999982
 72
1
 10
252.1918194877999895
 20
21.6704589446999982
 11
252.2328731920999871
 21
21.6622928552000005
 72
1
 10
252.2328731920999871
 20
21.6622928552000005
 11
252.2746415649000085
 21
21.659556953900001
 72
1
 10
252.2746415649000085
 20
21.659556953900001
 11
252.4474784470000088
 21
21.659556953900001
 72
1
 10
252.4474784470000088
 20
21.659556953900001
 11
257.3349994911999943
 21
21.659556953900001
 72
1
 10
257.3349994911999943
 20
21.659556953900001
 11
257.3946404886000892
 21
21.659556953900001
 72
1
 10
257.3946404886000892
 20
21.659556953900001
 11
257.4280895899000257
 21
21.6578022182999987
 72
1
 10
257.4280895899000257
 20
21.6578022182999987
 11
257.4611722157000031
 21
21.6525624450999992
 72
1
 10
257.4611722157000031
 20
21.6525624450999992
 11
257.4935259060999897
 21
21.6438932999000002
 72
1
 10
257.4935259060999897
 20
21.6438932999000002
 11
257.5247961870999802
 21
21.6318897636999985
 72
1
 10
257.5247961870999802
 20
21.6318897636999985
 11
257.5546404550000261
 21
21.6166833497000006
 72
1
 10
257.5546404550000261
 20
21.6166833497000006
 11
257.5827317298000025
 21
21.5984406624999998
 72
1
 10
257.5827317298000025
 20
21.5984406624999998
 11
257.6087622376999775
 21
21.5773615728999992
 72
1
 10
257.6087622376999775
 20
21.5773615728999992
 11
257.6324467828000024
 21
21.5536770277000009
 72
1
 10
257.6324467828000024
 20
21.5536770277000009
 11
257.6535258723999959
 21
21.5276465198999993
 72
1
 10
257.6535258723999959
 20
21.5276465198999993
 11
257.6717685596000251
 21
21.4995552451000016
 72
1
 10
257.6717685596000251
 20
21.4995552451000016
 11
257.6869749736000017
 21
21.4697109771000001
 72
1
 10
257.6869749736000017
 20
21.4697109771000001
 11
257.6989785098999732
 21
21.4384406960999989
 72
1
 10
257.6989785098999732
 20
21.4384406960999989
 11
257.7076476551000042
 21
21.4060870057999999
 72
1
 10
257.7076476551000042
 20
21.4060870057999999
 11
257.7128874283000073
 21
21.3730043798999993
 72
1
 10
257.7128874283000073
 20
21.3730043798999993
 11
257.7146404214000199
 21
21.3395552787000007
 97
0
 75
0
 76
1
 98
0
1001
ACAD
1010
0.0
1020
0.0
1030
0
  0
LWPOLYLINE
  5
E0
100
AcDbEntity
  8
0
 62
152
420
19863
370
-1
 48
1.0
  6
CONTINUOUS
100
AcDbPolyline
 90
50
 70
0
 10
256.7546406231999754
 20
19.2275574650999985
 10
256.7964089958999807
 20
19.2302933664000015
 10
256.8374627001999784
 20
19.2384594558999993
 10
256.8770992958000079
 20
19.2519142670999983
 10
256.9146405894999816
 20
19.2704275844000001
 10
256.9494442394999965
 20
19.2936826398000001
 10
256.9809147455999891
 20
19.3212815330000005
 10
257.0085136386999807
 20
19.3527520389999985
 10
257.0317686940999806
 20
19.3875556889999991
 10
257.050282011399986
 20
19.4250969827999995
 10
257.7146404214000199
 20
21.3395552787000007
 10
257.7146404214000199
 20
17.8835577476000012
 10
257.7128874283000073
 20
17.850104954599999
 10
257.7076476551000042
 20
17.8170233614999987
 10
257.6989785098999732
 20
17.7846713682999997
 10
257.6869749736000017
 20
17.7534009748999999
 10
257.6717685596000251
 20
17.7235577812000002
 10
257.6535258723999959
 20
17.6954617871000011
 10
257.6324467828000024
 20
17.6694329926000009
 10
257.6087622376999775
 20
17.6457465975000005
 10
257.5827317298000025
 20
17.6246714020000006
 10
251.4465504581999937
 20
17.6246714020000006
 10
251.4205199502999903
 20
17.6457465975000005
 10
251.3968354051999938
 20
17.6694329926000009
 10
251.3757563156000003
 20
17.6954617871000011
 10
251.3575136283999996
 20
17.7235577812000002
 10
251.3423072143999946
 20
17.7534009748999999
 10
251.3303036780999946
 20
17.7846713682999997
 10
251.3216345328999921
 20
17.8170233614999987
 10
251.316394759800005
 20
17.850104954599999
 10
251.3146417666000048
 20
17.8835577476000012
 10
251.3146417666000048
 20
18.9075557899000017
 10
251.316394759800005
 20
18.9410048911000004
 10
251.3216345328999921
 20
18.974087517000001
 10
251.3303036780999946
 20
19.0064412073
 10
251.3423072143999946
 20
19.0377114882999905
 10
251.3575136283999996
 20
19.0675557562999991
 10
251.3757563156000003
 20
19.0956470311000004
 10
251.3968354051999938
 20
19.1216775388999984
 10
251.4205199502999903
 20
19.1453620841000003
 10
251.4465504581999937
 20
19.1664411736999902
 10
251.4746417329999986
 20
19.184683860899991
 10
251.5044860008999876
 20
19.1998902748999996
 10
251.5357562819999941
 20
19.2118938111000013
 10
251.5681099722999932
 20
19.2205629563000002
 10
251.6011925981999866
 20
19.2258027294999998
 10
251.6346416993999924
 20
19.2275574650999985
 10
251.6446526395999967
 20
19.2275574650999985
 10
256.71319298169999
 20
19.2275574650999985
 10
256.7546406231999754
 20
19.2275574650999985
  0
HATCH
  5
E1
100
AcDbEntity
  8
0
 62
152
420
19863
370
-1
 48
1.0
  6
CONTINUOUS
100
AcDbHatch
 10
0.0
 20
0.0
 30
0.0
210
0.0
220
0.0
230
1.0
  2
SOLID
 70
1
 71
0
 91
1
 92
1
 93
49
 72
1
 10
256.7546406231999754
 20
19.2275574650999985
 11
256.7964089958999807
 21
19.2302933664000015
 72
1
 10
256.7964089958999807
 20
19.2302933664000015
 11
256.8374627001999784
 21
19.2384594558999993
 72
1
 10
256.8374627001999784
 20
19.2384594558999993
 11
256.8770992958000079
 21
19.2519142670999983
 72
1
 10
256.8770992958000079
 20
19.2519142670999983
 11
256.9146405894999816
 21
19.2704275844000001
 72
1
 10
256.9146405894999816
 20
19.2704275844000001
 11
256.9494442394999965
 21
19.2936826398000001
 72
1
 10
256.9494442394999965
 20
19.2936826398000001
 11
256.9809147455999891
 21
19.3212815330000005
 72
1
 10
256.9809147455999891
 20
19.3212815330000005
 11
257.0085136386999807
 21
19.3527520389999985
 72
1
 10
257.0085136386999807
 20
19.3527520389999985
 11
257.0317686940999806
 21
19.3875556889999991
 72
1
 10
257.0317686940999806
 20
19.3875556889999991
 11
257.050282011399986
 21
19.4250969827999995
 72
1
 10
257.050282011399986
 20
19.4250969827999995
 11
257.7146404214000199
 21
21.3395552787000007
 72
1
 10
257.7146404214000199
 20
21.3395552787000007
 11
257.7146404214000199
 21
17.8835577476000012
 72
1
 10
257.7146404214000199
 20
17.8835577476000012
 11
257.7128874283000073
 21
17.850104954599999
 72
1
 10
257.7128874283000073
 20
17.850104954599999
 11
257.7076476551000042
 21
17.8170233614999987
 72
1
 10
257.7076476551000042
 20
17.8170233614999987
 11
257.6989785098999732
 21
17.7846713682999997
 72
1
 10
257.6989785098999732
 20
17.7846713682999997
 11
257.6869749736000017
 21
17.7534009748999999
 72
1
 10
257.6869749736000017
 20
17.7534009748999999
 11
257.6717685596000251
 21
17.7235577812000002
 72
1
 10
257.6717685596000251
 20
17.7235577812000002
 11
257.6535258723999959
 21
17.6954617871000011
 72
1
 10
257.6535258723999959
 20
17.6954617871000011
 11
257.6324467828000024
 21
17.6694329926000009
 72
1
 10
257.6324467828000024
 20
17.6694329926000009
 11
257.6087622376999775
 21
17.6457465975000005
 72
1
 10
257.6087622376999775
 20
17.6457465975000005
 11
257.5827317298000025
 21
17.6246714020000006
 72
1
 10
257.5827317298000025
 20
17.6246714020000006
 11
251.4465504581999937
 21
17.6246714020000006
 72
1
 10
251.4465504581999937
 20
17.6246714020000006
 11
251.4205199502999903
 21
17.6457465975000005
 72
1
 10
251.4205199502999903
 20
17.6457465975000005
 11
251.3968354051999938
 21
17.6694329926000009
 72
1
 10
251.3968354051999938
 20
17.6694329926000009
 11
251.3757563156000003
 21
17.6954617871000011
 72
1
 10
251.3757563156000003
 20
17.6954617871000011
 11
251.3575136283999996
 21
17.7235577812000002
 72
1
 10
251.3575136283999996
 20
17.7235577812000002
 11
251.3423072143999946
 21
17.7534009748999999
 72
1
 10
251.3423072143999946
 20
17.7534009748999999
 11
251.3303036780999946
 21
17.7846713682999997
 72
1
 10
251.3303036780999946
 20
17.7846713682999997
 11
251.3216345328999921
 21
17.8170233614999987
 72
1
 10
251.3216345328999921
 20
17.8170233614999987
 11
251.316394759800005
 21
17.850104954599999
 72
1
 10
251.316394759800005
 20
17.850104954599999
 11
251.3146417666000048
 21
17.8835577476000012
 72
1
 10
251.3146417666000048
 20
17.8835577476000012
 11
251.3146417666000048
 21
18.9075557899000017
 72
1
 10
251.3146417666000048
 20
18.9075557899000017
 11
251.316394759800005
 21
18.9410048911000004
 72
1
 10
251.316394759800005
 20
18.9410048911000004
 11
251.3216345328999921
 21
18.974087517000001
 72
1
 10
251.3216345328999921
 20
18.974087517000001
 11
251.3303036780999946
 21
19.0064412073
 72
1
 10
251.3303036780999946
 20
19.0064412073
 11
251.3423072143999946
 21
19.0377114882999905
 72
1
 10
251.3423072143999946
 20
19.0377114882999905
 11
251.3575136283999996
 21
19.0675557562999991
 72
1
 10
251.3575136283999996
 20
19.0675557562999991
 11
251.3757563156000003
 21
19.0956470311000004
 72
1
 10
251.3757563156000003
 20
19.0956470311000004
 11
251.3968354051999938
 21
19.1216775388999984
 72
1
 10
251.3968354051999938
 20
19.1216775388999984
 11
251.4205199502999903
 21
19.1453620841000003
 72
1
 10
251.4205199502999903
 20
19.1453620841000003
 11
251.4465504581999937
 21
19.1664411736999902
 72
1
 10
251.4465504581999937
 20
19.1664411736999902
 11
251.4746417329999986
 21
19.184683860899991
 72
1
 10
251.4746417329999986
 20
19.184683860899991
 11
251.5044860008999876
 21
19.1998902748999996
 72
1
 10
251.5044860008999876
 20
19.1998902748999996
 11
251.5357562819999941
 21
19.2118938111000013
 72
1
 10
251.5357562819999941
 20
19.2118938111000013
 11
251.5681099722999932
 21
19.2205629563000002
 72
1
 10
251.5681099722999932
 20
19.2205629563000002
 11
251.6011925981999866
 21
19.2258027294999998
 72
1
 10
251.6011925981999866
 20
19.2258027294999998
 11
251.6346416993999924
 21
19.2275574650999985
 72
1
 10
251.6346416993999924
 20
19.2275574650999985
 11
251.6446526395999967
 21
19.2275574650999985
 72
1
 10
251.6446526395999967
 20
19.2275574650999985
 11
256.71319298169999
 21
19.2275574650999985
 72
1
 10
256.71319298169999
 20
19.2275574650999985
 11
256.7546406231999754
 21
19.2275574650999985
 97
0
 75
0
 76
1
 98
0
1001
ACAD
1010
0.0
1020
0.0
1030
0
  0
LWPOLYLINE
  5
E2
100
AcDbEntity
  8
0
 62
152
420
19863
370
-1
 48
1.0
  6
CONTINUOUS
100
AcDbPolyline
 90
50
 70
0
 10
235.3146451297999988
 20
18.2035559378999992
 10
235.3564135025000041
 20
18.2062904797000016
 10
235.3974672068000018
 20
18.214456878
 10
235.4371038024000029
 20
18.2279160751999996
 10
235.474645096100005
 20
18.2464248713000003
 10
235.5094487460999915
 20
18.269682466399999
 10
235.5409192522000126
 20
18.2972792605999999
 10
235.5685181453000041
 20
18.3287544539999985
 10
235.5917732007000041
 20
18.3635576466999986
 10
238.5146444570999904
 20
23.6435565367999985
 10
238.5146444570999904
 20
17.8835577476000012
 10
238.5128914640000062
 20
17.850104954599999
 10
238.5076516908000031
 20
17.8170233614999987
 10
238.4989825456000005
 20
17.7846713682999997
 10
238.4869790093999882
 20
17.7534009748999999
 10
238.4717725954000116
 20
17.7235577812000002
 10
238.4535299082000108
 20
17.6954617871000011
 10
238.4324508185999889
 20
17.6694329926000009
 10
238.4087662734000048
 20
17.6457465975000005
 10
238.382735765599989
 20
17.6246714020000006
 10
238.3546444908000126
 20
17.6064250057999985
 10
232.2746457688000135
 20
17.6064250057999985
 10
232.2465544938999926
 20
17.6246714020000006
 10
232.2205239861000052
 20
17.6457465975000005
 10
232.1968394410000087
 20
17.6694329926000009
 10
232.1757603512999992
 20
17.6954617871000011
 10
232.157517664199986
 20
17.7235577812000002
 10
232.1423112500999935
 20
17.7534009748999999
 10
232.1303077139000095
 20
17.7846713682999997
 10
232.121638568700007
 20
17.8170233614999987
 10
232.1163987955000039
 20
17.850104954599999
 10
232.1146458023999912
 20
17.8835577476000012
 10
235.037517058800006
 20
23.1635566377000011
 10
235.0190037415000006
 20
23.1260142456000004
 10
235.0055489302999945
 20
23.0863790539
 10
234.9973828407999861
 20
23.0453230626000014
 10
234.9946451970000112
 20
23.0035566713999984
 10
234.9946451970000112
 20
18.5235576130000013
 10
234.9973828407999861
 20
18.4817848218000016
 10
235.0055489302999945
 20
18.4407352304000014
 10
235.0190037415000006
 20
18.4011000387999992
 10
235.037517058800006
 20
18.3635576466999986
 10
235.0607721142000059
 20
18.3287544539999985
 10
235.0883710074000135
 20
18.2972792605999999
 10
235.1198415133999902
 20
18.269682466399999
 10
235.154645163400005
 20
18.2464248713000003
 10
235.1921864571999947
 20
18.2279160751999996
 10
235.2318230527000082
 20
18.214456878
 10
235.2728767570000059
 20
18.2062904797000016
 10
235.3146451297999988
 20
18.2035559378999992
  0
HATCH
  5
E3
100
AcDbEntity
  8
0
 62
152
420
19863
370
-1
 48
1.0
  6
CONTINUOUS
100
AcDbHatch
 10
0.0
 20
0.0
 30
0.0
210
0.0
220
0.0
230
1.0
  2
SOLID
 70
1
 71
0
 91
1
 92
1
 93
49
 72
1
 10
235.3146451297999988
 20
18.2035559378999992
 11
235.3564135025000041
 21
18.2062904797000016
 72
1
 10
235.3564135025000041
 20
18.2062904797000016
 11
235.3974672068000018
 21
18.214456878
 72
1
 10
235.3974672068000018
 20
18.214456878
 11
235.4371038024000029
 21
18.2279160751999996
 72
1
 10
235.4371038024000029
 20
18.2279160751999996
 11
235.474645096100005
 21
18.2464248713000003
 72
1
 10
235.474645096100005
 20
18.2464248713000003
 11
235.5094487460999915
 21
18.269682466399999
 72
1
 10
235.5094487460999915
 20
18.269682466399999
 11
235.5409192522000126
 21
18.2972792605999999
 72
1
 10
235.5409192522000126
 20
18.2972792605999999
 11
235.5685181453000041
 21
18.3287544539999985
 72
1
 10
235.5685181453000041
 20
18.3287544539999985
 11
235.5917732007000041
 21
18.3635576466999986
 72
1
 10
235.5917732007000041
 20
18.3635576466999986
 11
238.5146444570999904
 21
23.6435565367999985
 72
1
 10
238.5146444570999904
 20
23.6435565367999985
 11
238.5146444570999904
 21
17.8835577476000012
 72
1
 10
238.5146444570999904
 20
17.8835577476000012
 11
238.5128914640000062
 21
17.850104954599999
 72
1
 10
238.5128914640000062
 20
17.850104954599999
 11
238.5076516908000031
 21
17.8170233614999987
 72
1
 10
238.5076516908000031
 20
17.8170233614999987
 11
238.4989825456000005
 21
17.7846713682999997
 72
1
 10
238.4989825456000005
 20
17.7846713682999997
 11
238.4869790093999882
 21
17.7534009748999999
 72
1
 10
238.4869790093999882
 20
17.7534009748999999
 11
238.4717725954000116
 21
17.7235577812000002
 72
1
 10
238.4717725954000116
 20
17.7235577812000002
 11
238.4535299082000108
 21
17.6954617871000011
 72
1
 10
238.4535299082000108
 20
17.6954617871000011
 11
238.4324508185999889
 21
17.6694329926000009
 72
1
 10
238.4324508185999889
 20
17.6694329926000009
 11
238.4087662734000048
 21
17.6457465975000005
 72
1
 10
238.4087662734000048
 20
17.6457465975000005
 11
238.382735765599989
 21
17.6246714020000006
 72
1
 10
238.382735765599989
 20
17.6246714020000006
 11
238.3546444908000126
 21
17.6064250057999985
 72
1
 10
238.3546444908000126
 20
17.6064250057999985
 11
232.2746457688000135
 21
17.6064250057999985
 72
1
 10
232.2746457688000135
 20
17.6064250057999985
 11
232.2465544938999926
 21
17.6246714020000006
 72
1
 10
232.2465544938999926
 20
17.6246714020000006
 11
232.2205239861000052
 21
17.6457465975000005
 72
1
 10
232.2205239861000052
 20
17.6457465975000005
 11
232.1968394410000087
 21
17.6694329926000009
 72
1
 10
232.1968394410000087
 20
17.6694329926000009
 11
232.1757603512999992
 21
17.6954617871000011
 72
1
 10
232.1757603512999992
 20
17.6954617871000011
 11
232.157517664199986
 21
17.7235577812000002
 72
1
 10
232.157517664199986
 20
17.7235577812000002
 11
232.1423112500999935
 21
17.7534009748999999
 72
1
 10
232.1423112500999935
 20
17.7534009748999999
 11
232.1303077139000095
 21
17.7846713682999997
 72
1
 10
232.1303077139000095
 20
17.7846713682999997
 11
232.121638568700007
 21
17.8170233614999987
 72
1
 10
232.121638568700007
 20
17.8170233614999987
 11
232.1163987955000039
 21
17.850104954599999
 72
1
 10
232.1163987955000039
 20
17.850104954599999
 11
232.1146458023999912
 21
17.8835577476000012
 72
1
 10
232.1146458023999912
 20
17.8835577476000012
 11
235.037517058800006
 21
23.1635566377000011
 72
1
 10
235.037517058800006
 20
23.1635566377000011
 11
235.0190037415000006
 21
23.1260142456000004
 72
1
 10
235.0190037415000006
 20
23.1260142456000004
 11
235.0055489302999945
 21
23.0863790539
 72
1
 10
235.0055489302999945
 20
23.0863790539
 11
234.9973828407999861
 21
23.0453230626000014
 72
1
 10
234.9973828407999861
 20
23.0453230626000014
 11
234.9946451970000112
 21
23.0035566713999984
 72
1
 10
234.9946451970000112
 20
23.0035566713999984
 11
234.9946451970000112
 21
18.5235576130000013
 72
1
 10
234.9946451970000112
 20
18.5235576130000013
 11
234.9973828407999861
 21
18.4817848218000016
 72
1
 10
234.9973828407999861
 20
18.4817848218000016
 11
235.0055489302999945
 21
18.4407352304000014
 72
1
 10
235.0055489302999945
 20
18.4407352304000014
 11
235.0190037415000006
 21
18.4011000387999992
 72
1
 10
235.0190037415000006
 20
18.4011000387999992
 11
235.037517058800006
 21
18.3635576466999986
 72
1
 10
235.037517058800006
 20
18.3635576466999986
 11
235.0607721142000059
 21
18.3287544539999985
 72
1
 10
235.0607721142000059
 20
18.3287544539999985
 11
235.0883710074000135
 21
18.2972792605999999
 72
1
 10
235.0883710074000135
 20
18.2972792605999999
 11
235.1198415133999902
 21
18.269682466399999
 72
1
 10
235.1198415133999902
 20
18.269682466399999
 11
235.154645163400005
 21
18.2464248713000003
 72
1
 10
235.154645163400005
 20
18.2464248713000003
 11
235.1921864571999947
 21
18.2279160751999996
 72
1
 10
235.1921864571999947
 20
18.2279160751999996
 11
235.2318230527000082
 21
18.214456878
 72
1
 10
235.2318230527000082
 20
18.214456878
 11
235.2728767570000059
 21
18.2062904797000016
 72
1
 10
235.2728767570000059
 20
18.2062904797000016
 11
235.3146451297999988
 21
18.2035559378999992
 97
0
 75
0
 76
1
 98
0
1001
ACAD
1010
0.0
1020
0.0
1030
0
  0
LWPOLYLINE
  5
E4
100
AcDbEntity
  8
0
 62
152
420
19863
370
-1
 48
1.0
  6
CONTINUOUS
100
AcDbPolyline
 90
21
 70
0
 10
235.3146451297999988
 20
23.3235566040999984
 10
235.2728767570000059
 20
23.3208174047000014
 10
238.5146444570999904
 20
23.6435565367999985
 10
235.5917732007000041
 20
18.3635576466999986
 10
235.6102865180000094
 20
18.4011000387999992
 10
235.6237413291999871
 20
18.4407352304000014
 10
235.6319074186999956
 20
18.4817848218000016
 10
235.6346450624999989
 20
18.5235576130000013
 10
235.6346450624999989
 20
23.0035566713999984
 10
235.6319074186999956
 20
23.0453230626000014
 10
235.6237413291999871
 20
23.0863790539
 10
235.6102865180000094
 20
23.1260142456000004
 10
235.5917732007000041
 20
23.1635566377000011
 10
235.5685181453000041
 20
23.1983598304000012
 10
235.5409192522000126
 20
23.2298286237999996
 10
235.5094487460999915
 20
23.2574254180000004
 10
235.474645096100005
 20
23.2806830130999991
 10
235.4371038024000029
 20
23.2991982092000001
 10
235.3974672068000018
 20
23.3126510063999994
 10
235.3564135025000041
 20
23.3208174047000014
 10
235.3146451297999988
 20
23.3235566040999984
  0
HATCH
  5
E5
100
AcDbEntity
  8
0
 62
152
420
19863
370
-1
 48
1.0
  6
CONTINUOUS
100
AcDbHatch
 10
0.0
 20
0.0
 30
0.0
210
0.0
220
0.0
230
1.0
  2
SOLID
 70
1
 71
0
 91
1
 92
1
 93
20
 72
1
 10
235.3146451297999988
 20
23.3235566040999984
 11
235.2728767570000059
 21
23.3208174047000014
 72
1
 10
235.2728767570000059
 20
23.3208174047000014
 11
238.5146444570999904
 21
23.6435565367999985
 72
1
 10
238.5146444570999904
 20
23.6435565367999985
 11
235.5917732007000041
 21
18.3635576466999986
 72
1
 10
235.5917732007000041
 20
18.3635576466999986
 11
235.6102865180000094
 21
18.4011000387999992
 72
1
 10
235.6102865180000094
 20
18.4011000387999992
 11
235.6237413291999871
 21
18.4407352304000014
 72
1
 10
235.6237413291999871
 20
18.4407352304000014
 11
235.6319074186999956
 21
18.4817848218000016
 72
1
 10
235.6319074186999956
 20
18.4817848218000016
 11
235.6346450624999989
 21
18.5235576130000013
 72
1
 10
235.6346450624999989
 20
18.5235576130000013
 11
235.6346450624999989
 21
23.0035566713999984
 72
1
 10
235.6346450624999989
 20
23.0035566713999984
 11
235.6319074186999956
 21
23.0453230626000014
 72
1
 10
235.6319074186999956
 20
23.0453230626000014
 11
235.6237413291999871
 21
23.0863790539
 72
1
 10
235.6237413291999871
 20
23.0863790539
 11
235.6102865180000094
 21
23.1260142456000004
 72
1
 10
235.6102865180000094
 20
23.1260142456000004
 11
235.5917732007000041
 21
23.1635566377000011
 72
1
 10
235.5917732007000041
 20
23.1635566377000011
 11
235.5685181453000041
 21
23.1983598304000012
 72
1
 10
235.5685181453000041
 20
23.1983598304000012
 11
235.5409192522000126
 21
23.2298286237999996
 72
1
 10
235.5409192522000126
 20
23.2298286237999996
 11
235.5094487460999915
 21
23.2574254180000004
 72
1
 10
235.5094487460999915
 20
23.2574254180000004
 11
235.474645096100005
 21
23.2806830130999991
 72
1
 10
235.474645096100005
 20
23.2806830130999991
 11
235.4371038024000029
 21
23.2991982092000001
 72
1
 10
235.4371038024000029
 20
23.2991982092000001
 11
235.3974672068000018
 21
23.3126510063999994
 72
1
 10
235.3974672068000018
 20
23.3126510063999994
 11
235.3564135025000041
 21
23.3208174047000014
 72
1
 10
235.3564135025000041
 20
23.3208174047000014
 11
235.3146451297999988
 21
23.3235566040999984
 97
0
 75
0
 76
1
 98
0
1001
ACAD
1010
0.0
1020
0.0
1030
0
  0
LWPOLYLINE
  5
E6
100
AcDbEntity
  8
0
 62
152
420
19863
370
-1
 48
1.0
  6
CONTINUOUS
100
AcDbPolyline
 90
38
 70
0
 10
242.6746435827000141
 20
23.0035566713999984
 10
242.6746435827000141
 20
17.8835577476000012
 10
242.6728905896000015
 20
17.850104954599999
 10
242.6676508163999983
 20
17.8170233614999987
 10
242.6589816711999958
 20
17.7846713682999997
 10
242.6469781350000119
 20
17.7534009748999999
 10
242.6317717210000069
 20
17.7235577812000002
 10
242.6135290338000061
 20
17.6954617871000011
 10
242.5924499442000126
 20
17.6694329926000009
 10
242.5687653990000001
 20
17.6457465975000005
 10
242.5427348912000127
 20
17.6246714020000006
 10
242.5146436164000079
 20
17.6064250057999985
 10
242.4847993484000028
 20
17.5912186089999985
 10
242.4535290674000123
 20
17.5792186115
 10
242.4211753771000133
 20
17.5705466132999994
 10
242.3880927511999914
 20
17.5653114144
 10
242.3546436500000141
 20
17.5635578147999993
 10
239.7946441880999942
 20
17.5635578147999993
 10
239.7611950868999884
 20
17.5653114144
 10
239.7281124609999949
 20
17.5705466132999994
 10
239.6957587706999959
 20
17.5792186115
 10
239.6644884897000054
 20
17.5912186089999985
 10
239.6346442217000003
 20
17.6064250057999985
 10
239.6065529468999955
 20
17.6246714020000006
 10
239.5805224391000081
 20
17.6457465975000005
 10
239.5568378938999956
 20
17.6694329926000009
 10
239.5357588043000021
 20
17.6954617871000011
 10
239.5175161171000013
 20
17.7235577812000002
 10
239.5023097030999963
 20
17.7534009748999999
 10
239.4903061667999964
 20
17.7846713682999997
 10
239.4816370217000099
 20
17.8170233614999987
 10
239.4763972485000068
 20
17.850104954599999
 10
239.4746442553999941
 20
17.8835577476000012
 10
242.7175154445000089
 20
23.1635566377000011
 10
242.6990021272000035
 20
23.1260142456000004
 10
242.6855473159999974
 20
23.0863790539
 10
242.677381226499989
 20
23.0453230626000014
 10
242.6746435827000141
 20
23.0035566713999984
  0
HATCH
  5
E7
100
AcDbEntity
  8
0
 62
152
420
19863
370
-1
 48
1.0
  6
CONTINUOUS
100
AcDbHatch
 10
0.0
 20
0.0
 30
0.0
210
0.0
220
0.0
230
1.0
  2
SOLID
 70
1
 71
0
 91
1
 92
1
 93
37
 72
1
 10
242.6746435827000141
 20
23.0035566713999984
 11
242.6746435827000141
 21
17.8835577476000012
 72
1
 10
242.6746435827000141
 20
17.8835577476000012
 11
242.6728905896000015
 21
17.850104954599999
 72
1
 10
242.6728905896000015
 20
17.850104954599999
 11
242.6676508163999983
 21
17.8170233614999987
 72
1
 10
242.6676508163999983
 20
17.8170233614999987
 11
242.6589816711999958
 21
17.7846713682999997
 72
1
 10
242.6589816711999958
 20
17.7846713682999997
 11
242.6469781350000119
 21
17.7534009748999999
 72
1
 10
242.6469781350000119
 20
17.7534009748999999
 11
242.6317717210000069
 21
17.7235577812000002
 72
1
 10
242.6317717210000069
 20
17.7235577812000002
 11
242.6135290338000061
 21
17.6954617871000011
 72
1
 10
242.6135290338000061
 20
17.6954617871000011
 11
242.5924499442000126
 21
17.6694329926000009
 72
1
 10
242.5924499442000126
 20
17.6694329926000009
 11
242.5687653990000001
 21
17.6457465975000005
 72
1
 10
242.5687653990000001
 20
17.6457465975000005
 11
242.5427348912000127
 21
17.6246714020000006
 72
1
 10
242.5427348912000127
 20
17.6246714020000006
 11
242.5146436164000079
 21
17.6064250057999985
 72
1
 10
242.5146436164000079
 20
17.6064250057999985
 11
242.4847993484000028
 21
17.5912186089999985
 72
1
 10
242.4847993484000028
 20
17.5912186089999985
 11
242.4535290674000123
 21
17.5792186115
 72
1
 10
242.4535290674000123
 20
17.5792186115
 11
242.4211753771000133
 21
17.5705466132999994
 72
1
 10
242.4211753771000133
 20
17.5705466132999994
 11
242.3880927511999914
 21
17.5653114144
 72
1
 10
242.3880927511999914
 20
17.5653114144
 11
242.3546436500000141
 21
17.5635578147999993
 72
1
 10
242.3546436500000141
 20
17.5635578147999993
 11
239.7946441880999942
 21
17.5635578147999993
 72
1
 10
239.7946441880999942
 20
17.5635578147999993
 11
239.7611950868999884
 21
17.5653114144
 72
1
 10
239.7611950868999884
 20
17.5653114144
 11
239.7281124609999949
 21
17.5705466132999994
 72
1
 10
239.7281124609999949
 20
17.5705466132999994
 11
239.6957587706999959
 21
17.5792186115
 72
1
 10
239.6957587706999959
 20
17.5792186115
 11
239.6644884897000054
 21
17.5912186089999985
 72
1
 10
239.6644884897000054
 20
17.5912186089999985
 11
239.6346442217000003
 21
17.6064250057999985
 72
1
 10
239.6346442217000003
 20
17.6064250057999985
 11
239.6065529468999955
 21
17.6246714020000006
 72
1
 10
239.6065529468999955
 20
17.6246714020000006
 11
239.5805224391000081
 21
17.6457465975000005
 72
1
 10
239.5805224391000081
 20
17.6457465975000005
 11
239.5568378938999956
 21
17.6694329926000009
 72
1
 10
239.5568378938999956
 20
17.6694329926000009
 11
239.5357588043000021
 21
17.6954617871000011
 72
1
 10
239.5357588043000021
 20
17.6954617871000011
 11
239.5175161171000013
 21
17.7235577812000002
 72
1
 10
239.5175161171000013
 20
17.7235577812000002
 11
239.5023097030999963
 21
17.7534009748999999
 72
1
 10
239.5023097030999963
 20
17.7534009748999999
 11
239.4903061667999964
 21
17.7846713682999997
 72
1
 10
239.4903061667999964
 20
17.7846713682999997
 11
239.4816370217000099
 21
17.8170233614999987
 72
1
 10
239.4816370217000099
 20
17.8170233614999987
 11
239.4763972485000068
 21
17.850104954599999
 72
1
 10
239.4763972485000068
 20
17.850104954599999
 11
239.4746442553999941
 21
17.8835577476000012
 72
1
 10
239.4746442553999941
 20
17.8835577476000012
 11
242.7175154445000089
 21
23.1635566377000011
 72
1
 10
242.7175154445000089
 20
23.1635566377000011
 11
242.6990021272000035
 21
23.1260142456000004
 72
1
 10
242.6990021272000035
 20
23.1260142456000004
 11
242.6855473159999974
 21
23.0863790539
 72
1
 10
242.6855473159999974
 20
23.0863790539
 11
242.677381226499989
 21
23.0453230626000014
 72
1
 10
242.677381226499989
 20
23.0453230626000014
 11
242.6746435827000141
 21
23.0035566713999984
 97
0
 75
0
 76
1
 98
0
1001
ACAD
1010
0.0
1020
0.0
1030
0
  0
LWPOLYLINE
  5
E8
100
AcDbEntity
  8
0
 62
152
420
19863
370
-1
 48
1.0
  6
CONTINUOUS
100
AcDbPolyline
 90
41
 70
0
 10
247.0609168306999948
 20
23.2298286237999996
 10
250.3546419683999886
 20
23.6435565367999985
 10
250.3546419683999886
 20
17.8835577476000012
 10
250.3528889753000044
 20
17.850104954599999
 10
250.3476492021000013
 20
17.8170233614999987
 10
250.3389800568999988
 20
17.7846713682999997
 10
250.3269765206999864
 20
17.7534009748999999
 10
250.3117701065999938
 20
17.7235577812000002
 10
250.293527419500009
 20
17.6954617871000011
 10
250.2724483298999871
 20
17.6694329926000009
 10
250.248763784700003
 20
17.6457465975000005
 10
250.2227332768999872
 20
17.6246714020000006
 10
250.1946420021000108
 20
17.6064250057999985
 10
250.1647977341000058
 20
17.5912186089999985
 10
250.1335274530999868
 20
17.5792186115
 10
250.1011737627999878
 20
17.5705466132999994
 10
250.0680911368999944
 20
17.5653114144
 10
250.0346420356999886
 20
17.5635578147999993
 10
247.4746425737999971
 20
17.5635578147999993
 10
247.4411934725999913
 20
17.5653114144
 10
247.4081108466999979
 20
17.5705466132999994
 10
247.3757571563999988
 20
17.5792186115
 10
247.3444868754000083
 20
17.5912186089999985
 10
247.3146426074000033
 20
17.6064250057999985
 10
247.2865513325999984
 20
17.6246714020000006
 10
247.260520824800011
 20
17.6457465975000005
 10
247.2368362795999985
 20
17.6694329926000009
 10
247.215757190000005
 20
17.6954617871000011
 10
247.1975145028000043
 20
17.7235577812000002
 10
247.1823080887999993
 20
17.7534009748999999
 10
247.1703045524999993
 20
17.7846713682999997
 10
247.1616354072999968
 20
17.8170233614999987
 10
247.1563956342000097
 20
17.850104954599999
 10
247.154642641099997
 20
17.8835577476000012
 10
247.154642641099997
 20
23.0035566713999984
 10
247.1519049972999937
 20
23.0453230626000014
 10
247.1437389078000137
 20
23.0863790539
 10
247.1302840966000076
 20
23.1260142456000004
 10
247.1117707793000022
 20
23.1635566377000011
 10
247.0885157237999863
 20
23.1983598304000012
 10
247.0609168306999948
 20
23.2298286237999996
  0
HATCH
  5
E9
100
AcDbEntity
  8
0
 62
152
420
19863
370
-1
 48
1.0
  6
CONTINUOUS
100
AcDbHatch
 10
0.0
 20
0.0
 30
0.0
210
0.0
220
0.0
230
1.0
  2
SOLID
 70
1
 71
0
 91
1
 92
1
 93
40
 72
1
 10
247.0609168306999948
 20
23.2298286237999996
 11
250.3546419683999886
 21
23.6435565367999985
 72
1
 10
250.3546419683999886
 20
23.6435565367999985
 11
250.3546419683999886
 21
17.8835577476000012
 72
1
 10
250.3546419683999886
 20
17.8835577476000012
 11
250.3528889753000044
 21
17.850104954599999
 72
1
 10
250.3528889753000044
 20
17.850104954599999
 11
250.3476492021000013
 21
17.8170233614999987
 72
1
 10
250.3476492021000013
 20
17.8170233614999987
 11
250.3389800568999988
 21
17.7846713682999997
 72
1
 10
250.3389800568999988
 20
17.7846713682999997
 11
250.3269765206999864
 21
17.7534009748999999
 72
1
 10
250.3269765206999864
 20
17.7534009748999999
 11
250.3117701065999938
 21
17.7235577812000002
 72
1
 10
250.3117701065999938
 20
17.7235577812000002
 11
250.293527419500009
 21
17.6954617871000011
 72
1
 10
250.293527419500009
 20
17.6954617871000011
 11
250.2724483298999871
 21
17.6694329926000009
 72
1
 10
250.2724483298999871
 20
17.6694329926000009
 11
250.248763784700003
 21
17.6457465975000005
 72
1
 10
250.248763784700003
 20
17.6457465975000005
 11
250.2227332768999872
 21
17.6246714020000006
 72
1
 10
250.2227332768999872
 20
17.6246714020000006
 11
250.1946420021000108
 21
17.6064250057999985
 72
1
 10
250.1946420021000108
 20
17.6064250057999985
 11
250.1647977341000058
 21
17.5912186089999985
 72
1
 10
250.1647977341000058
 20
17.5912186089999985
 11
250.1335274530999868
 21
17.5792186115
 72
1
 10
250.1335274530999868
 20
17.5792186115
 11
250.1011737627999878
 21
17.5705466132999994
 72
1
 10
250.1011737627999878
 20
17.5705466132999994
 11
250.0680911368999944
 21
17.5653114144
 72
1
 10
250.0680911368999944
 20
17.5653114144
 11
250.0346420356999886
 21
17.5635578147999993
 72
1
 10
250.0346420356999886
 20
17.5635578147999993
 11
247.4746425737999971
 21
17.5635578147999993
 72
1
 10
247.4746425737999971
 20
17.5635578147999993
 11
247.4411934725999913
 21
17.5653114144
 72
1
 10
247.4411934725999913
 20
17.5653114144
 11
247.4081108466999979
 21
17.5705466132999994
 72
1
 10
247.4081108466999979
 20
17.5705466132999994
 11
247.3757571563999988
 21
17.5792186115
 72
1
 10
247.3757571563999988
 20
17.5792186115
 11
247.3444868754000083
 21
17.5912186089999985
 72
1
 10
247.3444868754000083
 20
17.5912186089999985
 11
247.3146426074000033
 21
17.6064250057999985
 72
1
 10
247.3146426074000033
 20
17.6064250057999985
 11
247.2865513325999984
 21
17.6246714020000006
 72
1
 10
247.2865513325999984
 20
17.6246714020000006
 11
247.260520824800011
 21
17.6457465975000005
 72
1
 10
247.260520824800011
 20
17.6457465975000005
 11
247.2368362795999985
 21
17.6694329926000009
 72
1
 10
247.2368362795999985
 20
17.6694329926000009
 11
247.215757190000005
 21
17.6954617871000011
 72
1
 10
247.215757190000005
 20
17.6954617871000011
 11
247.1975145028000043
 21
17.7235577812000002
 72
1
 10
247.1975145028000043
 20
17.7235577812000002
 11
247.1823080887999993
 21
17.7534009748999999
 72
1
 10
247.1823080887999993
 20
17.7534009748999999
 11
247.1703045524999993
 21
17.7846713682999997
 72
1
 10
247.1703045524999993
 20
17.7846713682999997
 11
247.1616354072999968
 21
17.8170233614999987
 72
1
 10
247.1616354072999968
 20
17.8170233614999987
 11
247.1563956342000097
 21
17.850104954599999
 72
1
 10
247.1563956342000097
 20
17.850104954599999
 11
247.154642641099997
 21
17.8835577476000012
 72
1
 10
247.154642641099997
 20
17.8835577476000012
 11
247.154642641099997
 21
23.0035566713999984
 72
1
 10
247.154642641099997
 20
23.0035566713999984
 11
247.1519049972999937
 21
23.0453230626000014
 72
1
 10
247.1519049972999937
 20
23.0453230626000014
 11
247.1437389078000137
 21
23.0863790539
 72
1
 10
247.1437389078000137
 20
23.0863790539
 11
247.1302840966000076
 21
23.1260142456000004
 72
1
 10
247.1302840966000076
 20
23.1260142456000004
 11
247.1117707793000022
 21
23.1635566377000011
 72
1
 10
247.1117707793000022
 20
23.1635566377000011
 11
247.0885157237999863
 21
23.1983598304000012
 72
1
 10
247.0885157237999863
 20
23.1983598304000012
 11
247.0609168306999948
 21
23.2298286237999996
 97
0
 75
0
 76
1
 98
0
1001
ACAD
1010
0.0
1020
0.0
1030
0
  0
LWPOLYLINE
  5
EA
100
AcDbEntity
  8
0
 62
152
420
19863
370
-1
 48
1.0
  6
CONTINUOUS
100
AcDbPolyline
 90
22
 70
0
 10
251.6011925981999866
 20
19.8693085811999985
 10
257.7146404214000199
 20
21.3395552787000007
 10
257.050282011399986
 20
19.4250969827999995
 10
257.0637368225999921
 20
19.4647335784000006
 10
257.0719029120999721
 20
19.5057872826000001
 10
257.0746405558999754
 20
19.5475556554000001
 10
257.0719029120999721
 20
19.5893240280999983
 10
257.0637368225999921
 20
19.6303777323999995
 10
257.050282011399986
 20
19.6700143280000006
 10
257.0317686940999806
 20
19.7075556216999992
 10
257.0085136386999807
 20
19.7423592716999998
 10
256.9809147455999891
 20
19.7738297777999996
 10
256.9494442394999965
 20
19.8014286708999983
 10
256.9146405894999816
 20
19.8246837263000018
 10
256.8770992958000079
 20
19.8431970436
 10
256.8374627001999784
 20
19.8566518547999991
 10
256.7964089958999807
 20
19.8648179443000004
 10
256.7546406231999754
 20
19.8675573304999986
 10
256.6291156555000157
 20
19.8675573304999986
 10
251.7415946113000018
 20
19.8675573304999986
 10
251.6346416993999924
 20
19.8675573304999986
 10
251.6011925981999866
 20
19.8693085811999985
  0
HATCH
  5
EB
100
AcDbEntity
  8
0
 62
152
420
19863
370
-1
 48
1.0
  6
CONTINUOUS
100
AcDbHatch
 10
0.0
 20
0.0
 30
0.0
210
0.0
220
0.0
230
1.0
  2
SOLID
 70
1
 71
0
 91
1
 92
1
 93
21
 72
1
 10
251.6011925981999866
 20
19.8693085811999985
 11
257.7146404214000199
 21
21.3395552787000007
 72
1
 10
257.7146404214000199
 20
21.3395552787000007
 11
257.050282011399986
 21
19.4250969827999995
 72
1
 10
257.050282011399986
 20
19.4250969827999995
 11
257.0637368225999921
 21
19.4647335784000006
 72
1
 10
257.0637368225999921
 20
19.4647335784000006
 11
257.0719029120999721
 21
19.5057872826000001
 72
1
 10
257.0719029120999721
 20
19.5057872826000001
 11
257.0746405558999754
 21
19.5475556554000001
 72
1
 10
257.0746405558999754
 20
19.5475556554000001
 11
257.0719029120999721
 21
19.5893240280999983
 72
1
 10
257.0719029120999721
 20
19.5893240280999983
 11
257.0637368225999921
 21
19.6303777323999995
 72
1
 10
257.0637368225999921
 20
19.6303777323999995
 11
257.050282011399986
 21
19.6700143280000006
 72
1
 10
257.050282011399986
 20
19.6700143280000006
 11
257.0317686940999806
 21
19.7075556216999992
 72
1
 10
257.0317686940999806
 20
19.7075556216999992
 11
257.0085136386999807
 21
19.7423592716999998
 72
1
 10
257.0085136386999807
 20
19.7423592716999998
 11
256.9809147455999891
 21
19.7738297777999996
 72
1
 10
256.9809147455999891
 20
19.7738297777999996
 11
256.9494442394999965
 21
19.8014286708999983
 72
1
 10
256.9494442394999965
 20
19.8014286708999983
 11
256.9146405894999816
 21
19.8246837263000018
 72
1
 10
256.9146405894999816
 20
19.8246837263000018
 11
256.8770992958000079
 21
19.8431970436
 72
1
 10
256.8770992958000079
 20
19.8431970436
 11
256.8374627001999784
 21
19.8566518547999991
 72
1
 10
256.8374627001999784
 20
19.8566518547999991
 11
256.7964089958999807
 21
19.8648179443000004
 72
1
 10
256.7964089958999807
 20
19.8648179443000004
 11
256.7546406231999754
 21
19.8675573304999986
 72
1
 10
256.7546406231999754
 20
19.8675573304999986
 11
256.6291156555000157
 21
19.8675573304999986
 72
1
 10
256.6291156555000157
 20
19.8675573304999986
 11
251.7415946113000018
 21
19.8675573304999986
 72
1
 10
251.7415946113000018
 20
19.8675573304999986
 11
251.6346416993999924
 21
19.8675573304999986
 72
1
 10
251.6346416993999924
 20
19.8675573304999986
 11
251.6011925981999866
 21
19.8693085811999985
 97
0
 75
0
 76
1
 98
0
1001
ACAD
1010
0.0
1020
0.0
1030
0
  0
LWPOLYLINE
  5
EC
100
AcDbEntity
  8
0
 62
152
420
19863
370
-1
 48
1.0
  6
CONTINUOUS
100
AcDbPolyline
 90
15
 70
0
 10
251.4746417329999986
 20
17.6064250057999985
 10
251.4465504581999937
 20
17.6246714020000006
 10
257.5827317298000025
 20
17.6246714020000006
 10
257.5546404550000261
 20
17.6064250057999985
 10
257.5247961870999802
 20
17.5912186089999985
 10
257.4935259060999897
 20
17.5792186115
 10
257.4611722157000031
 20
17.5705466132999994
 10
257.4280895899000257
 20
17.5653114144
 10
257.3946404886000892
 20
17.5635578147999993
 10
251.6346416993999924
 20
17.5635578147999993
 10
251.6011925981999866
 20
17.5653114144
 10
251.5681099722999932
 20
17.5705466132999994
 10
251.5357562819999941
 20
17.5792186115
 10
251.5044860008999876
 20
17.5912186089999985
 10
251.4746417329999986
 20
17.6064250057999985
  0
HATCH
  5
ED
100
AcDbEntity
  8
0
 62
152
420
19863
370
-1
 48
1.0
  6
CONTINUOUS
100
AcDbHatch
 10
0.0
 20
0.0
 30
0.0
210
0.0
220
0.0
230
1.0
  2
SOLID
 70
1
 71
0
 91
1
 92
1
 93
14
 72
1
 10
251.4746417329999986
 20
17.6064250057999985
 11
251.4465504581999937
 21
17.6246714020000006
 72
1
 10
251.4465504581999937
 20
17.6246714020000006
 11
257.5827317298000025
 21
17.6246714020000006
 72
1
 10
257.5827317298000025
 20
17.6246714020000006
 11
257.5546404550000261
 21
17.6064250057999985
 72
1
 10
257.5546404550000261
 20
17.6064250057999985
 11
257.5247961870999802
 21
17.5912186089999985
 72
1
 10
257.5247961870999802
 20
17.5912186089999985
 11
257.4935259060999897
 21
17.5792186115
 72
1
 10
257.4935259060999897
 20
17.5792186115
 11
257.4611722157000031
 21
17.5705466132999994
 72
1
 10
257.4611722157000031
 20
17.5705466132999994
 11
257.4280895899000257
 21
17.5653114144
 72
1
 10
257.4280895899000257
 20
17.5653114144
 11
257.3946404886000892
 21
17.5635578147999993
 72
1
 10
257.3946404886000892
 20
17.5635578147999993
 11
251.6346416993999924
 21
17.5635578147999993
 72
1
 10
251.6346416993999924
 20
17.5635578147999993
 11
251.6011925981999866
 21
17.5653114144
 72
1
 10
251.6011925981999866
 20
17.5653114144
 11
251.5681099722999932
 21
17.5705466132999994
 72
1
 10
251.5681099722999932
 20
17.5705466132999994
 11
251.5357562819999941
 21
17.5792186115
 72
1
 10
251.5357562819999941
 20
17.5792186115
 11
251.5044860008999876
 21
17.5912186089999985
 72
1
 10
251.5044860008999876
 20
17.5912186089999985
 11
251.4746417329999986
 21
17.6064250057999985
 97
0
 75
0
 76
1
 98
0
1001
ACAD
1010
0.0
1020
0.0
1030
0
  0
LWPOLYLINE
  5
EE
100
AcDbEntity
  8
0
 62
152
420
19863
370
-1
 48
1.0
  6
CONTINUOUS
100
AcDbPolyline
 90
13
 70
0
 10
232.3044900367000025
 20
17.5912186089999985
 10
232.2746457688000135
 20
17.6064250057999985
 10
238.3546444908000126
 20
17.6064250057999985
 10
238.3248002228000075
 20
17.5912186089999985
 10
238.2935299417999886
 20
17.5792186115
 10
238.2611762514999896
 20
17.5705466132999994
 10
238.2280936255999961
 20
17.5653114144
 10
238.1946445243999904
 20
17.5635578147999993
 10
232.4346457350999913
 20
17.5635578147999993
 10
232.4011966339000139
 20
17.5653114144
 10
232.368114008100008
 20
17.5705466132999994
 10
232.335760317699993
 20
17.5792186115
 10
232.3044900367000025
 20
17.5912186089999985
  0
HATCH
  5
EF
100
AcDbEntity
  8
0
 62
152
420
19863
370
-1
 48
1.0
  6
CONTINUOUS
100
AcDbHatch
 10
0.0
 20
0.0
 30
0.0
210
0.0
220
0.0
230
1.0
  2
SOLID
 70
1
 71
0
 91
1
 92
1
 93
12
 72
1
 10
232.3044900367000025
 20
17.5912186089999985
 11
232.2746457688000135
 21
17.6064250057999985
 72
1
 10
232.2746457688000135
 20
17.6064250057999985
 11
238.3546444908000126
 21
17.6064250057999985
 72
1
 10
238.3546444908000126
 20
17.6064250057999985
 11
238.3248002228000075
 21
17.5912186089999985
 72
1
 10
238.3248002228000075
 20
17.5912186089999985
 11
238.2935299417999886
 21
17.5792186115
 72
1
 10
238.2935299417999886
 20
17.5792186115
 11
238.2611762514999896
 21
17.5705466132999994
 72
1
 10
238.2611762514999896
 20
17.5705466132999994
 11
238.2280936255999961
 21
17.5653114144
 72
1
 10
238.2280936255999961
 20
17.5653114144
 11
238.1946445243999904
 21
17.5635578147999993
 72
1
 10
238.1946445243999904
 20
17.5635578147999993
 11
232.4346457350999913
 21
17.5635578147999993
 72
1
 10
232.4346457350999913
 20
17.5635578147999993
 11
232.4011966339000139
 21
17.5653114144
 72
1
 10
232.4011966339000139
 20
17.5653114144
 11
232.368114008100008
 21
17.5705466132999994
 72
1
 10
232.368114008100008
 20
17.5705466132999994
 11
232.335760317699993
 21
17.5792186115
 72
1
 10
232.335760317699993
 20
17.5792186115
 11
232.3044900367000025
 21
17.5912186089999985
 97
0
 75
0
 76
1
 98
0
1001
ACAD
1010
0.0
1020
0.0
1030
0
  0
LWPOLYLINE
  5
F0
100
AcDbEntity
  8
0
 62
152
420
19863
370
-1
 48
1.0
  6
CONTINUOUS
100
AcDbPolyline
 90
12
 70
0
 10
246.3546428091999871
 20
17.6064250057999985
 10
246.3247985412999981
 20
17.5912186089999985
 10
246.2935282603000076
 20
17.5792186115
 10
246.2611745698999925
 20
17.5705466132999994
 10
246.2280919440999867
 20
17.5653114144
 10
246.1946428427999933
 20
17.5635578147999993
 10
243.6346433809000018
 20
17.5635578147999993
 10
243.6011942796999961
 20
17.5653114144
 10
243.5681116538999902
 20
17.5705466132999994
 10
243.5357579635000036
 20
17.5792186115
 10
243.5044876825000131
 20
17.5912186089999985
 10
246.3546428091999871
 20
17.6064250057999985
  0
HATCH
  5
F1
100
AcDbEntity
  8
0
 62
152
420
19863
370
-1
 48
1.0
  6
CONTINUOUS
100
AcDbHatch
 10
0.0
 20
0.0
 30
0.0
210
0.0
220
0.0
230
1.0
  2
SOLID
 70
1
 71
0
 91
1
 92
1
 93
11
 72
1
 10
246.3546428091999871
 20
17.6064250057999985
 11
246.3247985412999981
 21
17.5912186089999985
 72
1
 10
246.3247985412999981
 20
17.5912186089999985
 11
246.2935282603000076
 21
17.5792186115
 72
1
 10
246.2935282603000076
 20
17.5792186115
 11
246.2611745698999925
 21
17.5705466132999994
 72
1
 10
246.2611745698999925
 20
17.5705466132999994
 11
246.2280919440999867
 21
17.5653114144
 72
1
 10
246.2280919440999867
 20
17.5653114144
 11
246.1946428427999933
 21
17.5635578147999993
 72
1
 10
246.1946428427999933
 20
17.5635578147999993
 11
243.6346433809000018
 21
17.5635578147999993
 72
1
 10
243.6346433809000018
 20
17.5635578147999993
 11
243.6011942796999961
 21
17.5653114144
 72
1
 10
243.6011942796999961
 20
17.5653114144
 11
243.5681116538999902
 21
17.5705466132999994
 72
1
 10
243.5681116538999902
 20
17.5705466132999994
 11
243.5357579635000036
 21
17.5792186115
 72
1
 10
243.5357579635000036
 20
17.5792186115
 11
243.5044876825000131
 21
17.5912186089999985
 72
1
 10
243.5044876825000131
 20
17.5912186089999985
 11
246.3546428091999871
 21
17.6064250057999985
 97
0
 75
0
 76
1
 98
0
1001
ACAD
1010
0.0
1020
0.0
1030
0
  0
ENDBLK
  5
F2
100
AcDbEntity
  8
0
100
AcDbBlockEnd
  0
BLOCK
  5
F3
100
AcDbEntity
  8
0
100
AcDbBlockBegin
  2
SYMBOL_0_BL0
 70
0
 10
375.0
 20
40.0
 30
0.0
  3
SYMBOL_0_BL0
  1

  0
LINE
  5
F4
100
AcDbEntity
  8
0
 62
7
420
16777215
370
-1
 48
1.0
  6
CONTINUOUS
100
AcDbLine
 10
368.2828257305000079
 20
41.5678427276999898
 30
0.0
 11
374.4028257305000125
 21
42.3328427276999903
 31
0.0
  0
LINE
  5
F5
100
AcDbEntity
  8
0
 62
7
420
16777215
370
-1
 48
1.0
  6
CONTINUOUS
100
AcDbLine
 10
374.4028257305000125
 20
37.7428427277000011
 30
0.0
 11
368.2828257305000079
 21
38.5078427277000017
 31
0.0
  0
CIRCLE
  5
F6
100
AcDbEntity
  8
0
 62
7
420
16777215
370
-1
 48
1.0
  6
CONTINUOUS
100
AcDbCircle
 10
378.8888966787000072
 20
40.0376576008999976
 30
0.0
 40
1.53
  0
CIRCLE
  5
F7
100
AcDbEntity
  8
0
 62
7
420
16777215
370
-1
 48
1.0
  6
CONTINUOUS
100
AcDbCircle
 10
378.8888966787000072
 20
40.0376576008999976
 30
0.0
 40
2.294999999999999
  0
LINE
  5
F8
100
AcDbEntity
  8
0
 62
7
420
16777215
370
-1
 48
1.0
  6
CONTINUOUS
100
AcDbLine
 10
368.2828257305000079
 20
41.5678427276999898
 30
0.0
 11
368.2828257305000079
 21
38.5078427277000017
 31
0.0
  0
LINE
  5
F9
100
AcDbEntity
  8
0
 62
7
420
16777215
370
-1
 48
1.0
  6
CONTINUOUS
100
AcDbLine
 10
374.4028257305000125
 20
42.3328427276999903
 30
0.0
 11
374.4028257305000125
 21
37.7428427277000011
 31
0.0
  0
LINE
  5
FA
100
AcDbEntity
  8
DEFAULT_3
 62
4
420
65535
370
-1
 48
1.0
  6
PHANTOM
100
AcDbLine
 10
367.5174773758000129
 20
40.0417977506999918
 30
0.0
 11
382.4825226241999871
 21
40.0417976692000011
 31
0.0
  0
LINE
  5
FB
100
AcDbEntity
  8
0
 62
4
420
65535
370
-1
 48
1.0
  6
PHANTOM
100
AcDbLine
 10
378.8889002871999878
 20
42.5878448261999978
 30
0.0
 11
378.8888862689000234
 21
37.4121551738000093
 31
0.0
  0
ENDBLK
  5
FC
100
AcDbEntity
  8
0
100
AcDbBlockEnd
  0
BLOCK
  5
FD
100
AcDbEntity
  8
0
100
AcDbBlockBegin
  2
_FILLED
 70
0
 10
0.0
 20
0.0
 30
0.0
  3
_FILLED
  1

  0
SOLID
  5
FE
100
AcDbEntity
  8
0
 62
0
370
-1
 48
1.0
  6
BYBLOCK
100
AcDbTrace
 10
0.0
 20
0.0
 30
0.0
 11
-1.0
 21
0.1666666667
 31
0.0
 12
-1.0
 22
-0.1666666667
 32
0.0
 13
-1.0
 23
-0.1666666667
 33
0.0
 39
0.0
  0
ENDBLK
  5
FF
100
AcDbEntity
  8
0
100
AcDbBlockEnd
  0
BLOCK
  5
100
100
AcDbEntity
  8
0
100
AcDbBlockBegin
  2
GENAXEH
 70
0
 10
0.0
 20
0.0
 30
0.0
  3
GENAXEH
  1

  0
LINE
  5
101
100
AcDbEntity
  8
0
 62
256
370
-1
 48
1.0
  6
BYLAYER
100
AcDbLine
 10
-1.0
 20
0.0
 30
0.0
 11
1.0
 21
0.0
 31
0.0
  0
ENDBLK
  5
102
100
AcDbEntity
  8
0
100
AcDbBlockEnd
  0
BLOCK
  5
103
100
AcDbEntity
  8
0
100
AcDbBlockBegin
  2
SYMBOL_0_BL2
 70
0
 10
195.7301305327000023
 20
175.1364845033000108
 30
0.0
  3
SYMBOL_0_BL2
  1

  0
CIRCLE
  5
104
100
AcDbEntity
  8
3_ALL_SYMBOLS
 62
3
420
65280
370
-1
 48
1.0
  6
CONTINUOUS
100
AcDbCircle
 10
194.9195877763999931
 20
175.1055013634999966
 30
0.0
 40
0.5325
  0
LINE
  5
105
100
AcDbEntity
  8
3_ALL_SYMBOLS
 62
3
420
65280
370
-1
 48
1.0
  6
CONTINUOUS
100
AcDbLine
 10
196.3631732888999863
 20
172.2964845033000074
 30
0.0
 11
196.3631732888999863
 21
170.166484503300012
 31
0.0
  0
LINE
  5
106
100
AcDbEntity
  8
3_ALL_SYMBOLS
 62
3
420
65280
370
-1
 48
1.0
  6
CONTINUOUS
100
AcDbLine
 10
197.0731732888999943
 20
170.166484503300012
 30
0.0
 11
197.0731732888999943
 21
172.2964845033000074
 31
0.0
  0
LINE
  5
107
100
AcDbEntity
  8
3_ALL_SYMBOLS
 62
3
420
65280
370
-1
 48
1.0
  6
CONTINUOUS
100
AcDbLine
 10
196.3631732888999863
 20
177.9764845032999858
 30
0.0
 11
196.3631732888999863
 21
180.1064845033000097
 31
0.0
  0
LINE
  5
108
100
AcDbEntity
  8
3_ALL_SYMBOLS
 62
3
420
65280
370
-1
 48
1.0
  6
CONTINUOUS
100
AcDbLine
 10
197.0731732888999943
 20
177.9764845032999858
 30
0.0
 11
197.0731732888999943
 21
180.1064845033000097
 31
0.0
  0
LWPOLYLINE
  5
109
100
AcDbEntity
  8
3_ALL_SYMBOLS
 62
3
420
65280
370
-1
 48
1.0
  6
CONTINUOUS
100
AcDbPolyline
 90
43
 70
0
 10
194.9195877763999931
 20
175.6380013634999955
 10
194.9993868846999874
 20
175.6319881651000117
 10
195.0773837474000061
 20
175.6140843768999957
 10
195.1518168224999954
 20
175.5846943518999979
 10
195.2210050550999938
 20
175.5444818574999886
 10
195.2833858438999926
 20
175.4943550840999933
 10
195.3375503325999887
 20
175.4354461339999887
 10
195.3822752277999939
 20
175.3690854531000127
 10
195.4165504275999865
 20
175.2967717827999934
 10
195.4396018340000012
 20
175.2201383116999125
 10
195.4509088359999964
 20
175.1409157900000082
 10
195.4502160675000084
 20
175.060893441199994
 10
195.4375391744000012
 20
174.9818785527000102
 10
195.4131644615999903
 20
174.9056556584000077
 10
195.3776424266999925
 20
174.8339462358999867
 10
195.3317753272000061
 20
174.768369826899999
 10
195.2765990615000078
 20
174.7104074604000061
 10
195.2133597735999899
 20
174.6613682036999933
 10
195.1434857090999913
 20
174.6223595977999992
 10
195.0685549584
 20
174.5942626435999898
 10
194.9902598163000107
 20
174.5777119047000099
 10
194.9103685615000074
 20
174.5730811759999881
 10
194.8306855207999888
 20
174.5804750412999908
 10
194.7530103180999959
 20
174.5997265119999895
 10
194.6790972311000019
 20
174.6304007976999912
 10
194.6106155706999061
 20
174.6718051263000007
 10
194.5491119804999869
 20
174.7230043900999874
 10
194.495975505500013
 20
174.7828422649000117
 10
194.4524062215000129
 20
174.849967325199998
 10
194.4193881312999963
 20
174.9228635661999931
 10
194.3976669411999865
 20
174.9998846421999872
 10
194.3877332197999976
 20
175.0792910488000018
 10
194.389811317799996
 20
175.1592894095998929
 10
194.4038543018999974
 20
175.2380729791998988
 10
194.4295450143999915
 20
175.3138624475998881
 10
194.4663032359999875
 20
175.384946126300008
 10
194.5132987904000004
 20
175.4497186058000011
 10
194.5694702931999984
 20
175.5067170137000119
 10
194.6335491231999981
 20
175.554654053399986
 10
194.7040880739999977
 20
175.5924470774000099
 10
194.779494038699994
 20
175.6192425383
 10
194.8580639900000051
 20
175.6344352664000041
 10
194.9195877763999931
 20
175.6380013634999955
  0
HATCH
  5
10A
100
AcDbEntity
  8
3_ALL_SYMBOLS
 62
3
420
65280
370
-1
 48
1.0
  6
CONTINUOUS
100
AcDbHatch
 10
0.0
 20
0.0
 30
0.0
210
0.0
220
0.0
230
1.0
  2
SOLID
 70
1
 71
0
 91
1
 92
1
 93
42
 72
1
 10
194.9195877763999931
 20
175.6380013634999955
 11
194.9993868846999874
 21
175.6319881651000117
 72
1
 10
194.9993868846999874
 20
175.6319881651000117
 11
195.0773837474000061
 21
175.6140843768999957
 72
1
 10
195.0773837474000061
 20
175.6140843768999957
 11
195.1518168224999954
 21
175.5846943518999979
 72
1
 10
195.1518168224999954
 20
175.5846943518999979
 11
195.2210050550999938
 21
175.5444818574999886
 72
1
 10
195.2210050550999938
 20
175.5444818574999886
 11
195.2833858438999926
 21
175.4943550840999933
 72
1
 10
195.2833858438999926
 20
175.4943550840999933
 11
195.3375503325999887
 21
175.4354461339999887
 72
1
 10
195.3375503325999887
 20
175.4354461339999887
 11
195.3822752277999939
 21
175.3690854531000127
 72
1
 10
195.3822752277999939
 20
175.3690854531000127
 11
195.4165504275999865
 21
175.2967717827999934
 72
1
 10
195.4165504275999865
 20
175.2967717827999934
 11
195.4396018340000012
 21
175.2201383116999125
 72
1
 10
195.4396018340000012
 20
175.2201383116999125
 11
195.4509088359999964
 21
175.1409157900000082
 72
1
 10
195.4509088359999964
 20
175.1409157900000082
 11
195.4502160675000084
 21
175.060893441199994
 72
1
 10
195.4502160675000084
 20
175.060893441199994
 11
195.4375391744000012
 21
174.9818785527000102
 72
1
 10
195.4375391744000012
 20
174.9818785527000102
 11
195.4131644615999903
 21
174.9056556584000077
 72
1
 10
195.4131644615999903
 20
174.9056556584000077
 11
195.3776424266999925
 21
174.8339462358999867
 72
1
 10
195.3776424266999925
 20
174.8339462358999867
 11
195.3317753272000061
 21
174.768369826899999
 72
1
 10
195.3317753272000061
 20
174.768369826899999
 11
195.2765990615000078
 21
174.7104074604000061
 72
1
 10
195.2765990615000078
 20
174.7104074604000061
 11
195.2133597735999899
 21
174.6613682036999933
 72
1
 10
195.2133597735999899
 20
174.6613682036999933
 11
195.1434857090999913
 21
174.6223595977999992
 72
1
 10
195.1434857090999913
 20
174.6223595977999992
 11
195.0685549584
 21
174.5942626435999898
 72
1
 10
195.0685549584
 20
174.5942626435999898
 11
194.9902598163000107
 21
174.5777119047000099
 72
1
 10
194.9902598163000107
 20
174.5777119047000099
 11
194.9103685615000074
 21
174.5730811759999881
 72
1
 10
194.9103685615000074
 20
174.5730811759999881
 11
194.8306855207999888
 21
174.5804750412999908
 72
1
 10
194.8306855207999888
 20
174.5804750412999908
 11
194.7530103180999959
 21
174.5997265119999895
 72
1
 10
194.7530103180999959
 20
174.5997265119999895
 11
194.6790972311000019
 21
174.6304007976999912
 72
1
 10
194.6790972311000019
 20
174.6304007976999912
 11
194.6106155706999061
 21
174.6718051263000007
 72
1
 10
194.6106155706999061
 20
174.6718051263000007
 11
194.5491119804999869
 21
174.7230043900999874
 72
1
 10
194.5491119804999869
 20
174.7230043900999874
 11
194.495975505500013
 21
174.7828422649000117
 72
1
 10
194.495975505500013
 20
174.7828422649000117
 11
194.4524062215000129
 21
174.849967325199998
 72
1
 10
194.4524062215000129
 20
174.849967325199998
 11
194.4193881312999963
 21
174.9228635661999931
 72
1
 10
194.4193881312999963
 20
174.9228635661999931
 11
194.3976669411999865
 21
174.9998846421999872
 72
1
 10
194.3976669411999865
 20
174.9998846421999872
 11
194.3877332197999976
 21
175.0792910488000018
 72
1
 10
194.3877332197999976
 20
175.0792910488000018
 11
194.389811317799996
 21
175.1592894095998929
 72
1
 10
194.389811317799996
 20
175.1592894095998929
 11
194.4038543018999974
 21
175.2380729791998988
 72
1
 10
194.4038543018999974
 20
175.2380729791998988
 11
194.4295450143999915
 21
175.3138624475998881
 72
1
 10
194.4295450143999915
 20
175.3138624475998881
 11
194.4663032359999875
 21
175.384946126300008
 72
1
 10
194.4663032359999875
 20
175.384946126300008
 11
194.5132987904000004
 21
175.4497186058000011
 72
1
 10
194.5132987904000004
 20
175.4497186058000011
 11
194.5694702931999984
 21
175.5067170137000119
 72
1
 10
194.5694702931999984
 20
175.5067170137000119
 11
194.6335491231999981
 21
175.554654053399986
 72
1
 10
194.6335491231999981
 20
175.554654053399986
 11
194.7040880739999977
 21
175.5924470774000099
 72
1
 10
194.7040880739999977
 20
175.5924470774000099
 11
194.779494038699994
 21
175.6192425383
 72
1
 10
194.779494038699994
 20
175.6192425383
 11
194.8580639900000051
 21
175.6344352664000041
 72
1
 10
194.8580639900000051
 20
175.6344352664000041
 11
194.9195877763999931
 21
175.6380013634999955
 97
0
 75
0
 76
1
 98
0
1001
ACAD
1010
0.0
1020
0.0
1030
0
  0
ENDBLK
  5
10B
100
AcDbEntity
  8
0
100
AcDbBlockEnd
  0
ENDSEC
  0
SECTION
  2
ENTITIES
  0
TEXT
  5
10C
100
AcDbEntity
  8
0
 62
7
420
16777215
370
-1
 48
1.0
  6
CONTINUOUS
100
AcDbText
 10
277.3193147046999911
 20
89.4102853902000163
 30
0.0
 40
5.0
  1
B
 50
0.0
 41
1.0
  7
textstyle3
 71
0
 72
0
 11
277.3193147046999911
 21
89.4102853902000163
 31
0.0
100
AcDbText
 73
0
  0
LEADER
  5
10D
100
AcDbEntity
  8
0
 62
7
420
16777215
370
-1
 48
1.0
  6
CONTINUOUS
100
AcDbLeader
  3
Standard
 71
1
 72
0
 73
3
 74
0
 75
0
 40
1.0
 41
10.0
 76
2
 10
266.7270404615999837
 20
96.9102853902000163
 10
283.2121718475999046
 20
96.9102853902000163
1001
ACAD
1000
DSTYLE
1002
{
1070
40
1040
1.0
1002
}
  0
TEXT
  5
10E
100
AcDbEntity
  8
0
 62
7
420
16777215
370
-1
 48
1.0
  6
CONTINUOUS
100
AcDbText
 10
277.3193147046999911
 20
258.0157636993999972
 30
0.0
 40
5.0
  1
B
 50
0.0
 41
1.0
  7
textstyle4
 71
0
 72
0
 11
277.3193147046999911
 21
258.0157636993999972
 31
0.0
100
AcDbText
 73
0
  0
LEADER
  5
10F
100
AcDbEntity
  8
0
 62
7
420
16777215
370
-1
 48
1.0
  6
CONTINUOUS
100
AcDbLeader
  3
Standard
 71
1
 72
0
 73
3
 74
0
 75
0
 40
1.0
 41
10.0
 76
2
 10
266.7270404615999837
 20
255.5157636993999972
 10
283.2121718475999046
 20
255.5157636993999972
1001
ACAD
1000
DSTYLE
1002
{
1070
40
1040
1.0
1002
}
  0
TEXT
  5
110
100
AcDbEntity
  8
0
 62
7
420
16777215
370
-1
 48
1.0
  6
CONTINUOUS
100
AcDbText
 10
343.9741295783999817
 20
88.6219094168999959
 30
0.0
 40
5.0
  1
A
 50
0.0
 41
1.0
  7
textstyle0
 71
0
 72
0
 11
343.9741295783999817
 21
88.6219094168999959
 31
0.0
100
AcDbText
 73
0
  0
LEADER
  5
111
100
AcDbEntity
  8
0
 62
7
420
16777215
370
-1
 48
1.0
  6
CONTINUOUS
100
AcDbLeader
  3
Standard
 71
1
 72
0
 73
3
 74
0
 75
0
 40
1.0
 41
10.0
 76
2
 10
334.2270404615999837
 20
96.1219094169000243
 10
350.2241295783999817
 20
96.1219094169000243
1001
ACAD
1000
DSTYLE
1002
{
1070
40
1040
1.0
1002
}
  0
TEXT
  5
112
100
AcDbEntity
  8
0
 62
7
420
16777215
370
-1
 48
1.0
  6
CONTINUOUS
100
AcDbText
 10
343.9741295783999817
 20
258.2175879485999985
 30
0.0
 40
5.0
  1
A
 50
0.0
 41
1.0
  7
textstyle1
 71
0
 72
0
 11
343.9741295783999817
 21
258.2175879485999985
 31
0.0
100
AcDbText
 73
0
  0
LEADER
  5
113
100
AcDbEntity
  8
0
 62
7
420
16777215
370
-1
 48
1.0
  6
CONTINUOUS
100
AcDbLeader
  3
Standard
 71
1
 72
0
 73
3
 74
0
 75
0
 40
1.0
 41
10.0
 76
2
 10
334.2270404615999837
 20
255.7175879485999985
 10
350.2241295783999817
 20
255.7175879485999985
1001
ACAD
1000
DSTYLE
1002
{
1070
40
1040
1.0
1002
}
  0
DIMENSION
  5
114
100
AcDbEntity
  8
0
 62
3
420
65280
370
-1
 48
1.0
  6
CONTINUOUS
100
AcDbDimension
 10
214.7270404616000121
 20
192.8047830922999992
 30
0.0
 11
214.7270404616000121
 21
186.7021690768000042
 31
0.0
 70
128
 71
8
 72
1
 74
0
 75
0
 41
1.0
 42
0.0
  1

  3
Standard
100
AcDbAlignedDimension
 13
235.9770404616000121
 23
207.8047830922999992
 33
0.0
 14
235.9770404616000121
 24
192.8047830922999992
 34
0.0
 50
270.0
100
AcDbRotatedDimension
1001
ACAD
1000
DSTYLE
1002
{
1070
279
1070
2
1070
144
1040
1.0
1070
40
1040
1.0
1002
}
  0
DIMENSION
  5
115
100
AcDbEntity
  8
0
 62
3
420
65280
370
-1
 48
1.0
  6
CONTINUOUS
100
AcDbDimension
 10
230.7270404616000121
 20
209.3047830922999992
 30
0.0
 11
211.1385883844999967
 21
230.2058073165999872
 31
0.0
 70
132
 71
8
 72
1
 74
0
 41
1.0
 42
0.0
  1
R<>
  3
Standard
100
AcDbRadialDimension
 15
226.2401763963999883
 25
213.2882553039000015
 35
0.0
 40
0.0
1001
ACAD
1000
DSTYLE
1002
{
1070
279
1070
2
1070
144
1040
1.0
1070
40
1040
1.0
1002
}
  0
DIMENSION
  5
116
100
AcDbEntity
  8
0
 62
3
420
65280
370
-1
 48
1.0
  6
CONTINUOUS
100
AcDbDimension
 10
204.7270404616000121
 20
175.3047830922999992
 30
0.0
 11
204.7270404616000121
 21
187.8047830922999992
 31
0.0
 70
128
 71
8
 72
1
 74
0
 75
0
 41
1.0
 42
0.0
  1

  3
Standard
100
AcDbAlignedDimension
 13
226.2384593307000102
 23
200.3047830922999992
 33
0.0
 14
226.438325503599998
 24
175.3047830922999992
 34
0.0
 50
270.0
100
AcDbRotatedDimension
1001
ACAD
1000
DSTYLE
1002
{
1070
279
1070
2
1070
144
1040
1.0
1070
40
1040
1.0
1002
}
  0
DIMENSION
  5
117
100
AcDbEntity
  8
0
 62
3
420
65280
370
-1
 48
1.0
  6
CONTINUOUS
100
AcDbDimension
 10
204.7355876428999863
 20
150.3047830922999992
 30
0.0
 11
204.7355876428999863
 21
162.8047830922999992
 31
0.0
 70
128
 71
8
 72
1
 74
0
 75
0
 41
1.0
 42
0.0
  1

  3
Standard
100
AcDbAlignedDimension
 13
226.438325503599998
 23
175.3047830922999992
 33
0.0
 14
226.5756456635999996
 24
150.3047830922999992
 34
0.0
 50
270.0
100
AcDbRotatedDimension
1001
ACAD
1000
DSTYLE
1002
{
1070
279
1070
2
1070
144
1040
1.0
1070
40
1040
1.0
1002
}
  0
DIMENSION
  5
118
100
AcDbEntity
  8
0
 62
3
420
65280
370
-1
 48
1.0
  6
CONTINUOUS
100
AcDbDimension
 10
194.7270404616000121
 20
135.3047830922999992
 30
0.0
 11
194.7270404616000121
 21
175.3047830922999992
 31
0.0
 70
128
 71
8
 72
1
 74
0
 75
0
 41
1.0
 42
0.0
  1

  3
Standard
100
AcDbAlignedDimension
 13
230.7270404616000121
 23
215.3047830922999992
 33
0.0
 14
230.7270404616000121
 24
135.3047830922999992
 34
0.0
 50
270.0
100
AcDbRotatedDimension
1001
ACAD
1000
DSTYLE
1002
{
1070
279
1070
2
1070
144
1040
1.0
1070
40
1040
1.0
1002
}
  0
DIMENSION
  5
119
100
AcDbEntity
  8
0
 62
3
420
65280
370
-1
 48
1.0
  6
CONTINUOUS
100
AcDbDimension
 10
231.7270404616000121
 20
225.3047830922999992
 30
0.0
 11
249.4771263814999998
 21
225.3047830922999992
 31
0.0
 70
128
 71
8
 72
1
 74
0
 75
0
 41
1.0
 42
0.0
  1

  3
Standard
100
AcDbAlignedDimension
 13
240.2270404616000121
 23
203.5547830922999992
 33
0.0
 14
231.7270404616000121
 24
203.5547830922999992
 34
0.0
 50
180.0
100
AcDbRotatedDimension
1001
ACAD
1000
DSTYLE
1002
{
1070
279
1070
2
1070
144
1040
1.0
1070
40
1040
1.0
1002
}
  0
DIMENSION
  5
11A
100
AcDbEntity
  8
0
 62
3
420
65280
370
-1
 48
1.0
  6
CONTINUOUS
100
AcDbDimension
 10
235.9770404616000121
 20
245.3047830922999992
 30
0.0
 11
216.2478360590000079
 21
245.3047830922999992
 31
0.0
 70
128
 71
8
 72
1
 74
0
 75
0
 41
1.0
 42
0.0
  1

  3
Standard
100
AcDbAlignedDimension
 13
224.7270404616000121
 23
209.3047830922999992
 33
0.0
 14
235.9770404616000121
 24
210.0433642232000011
 34
0.0
 50
0.0
100
AcDbRotatedDimension
1001
ACAD
1000
DSTYLE
1002
{
1070
279
1070
2
1070
144
1040
1.0
1070
40
1040
1.0
1002
}
  0
DIMENSION
  5
11B
100
AcDbEntity
  8
0
 62
3
420
65280
370
-1
 48
1.0
  6
CONTINUOUS
100
AcDbDimension
 10
363.4770404615999837
 20
245.3047830922999992
 30
0.0
 11
299.7270404615999837
 21
245.3047830922999992
 31
0.0
 70
128
 71
8
 72
1
 74
0
 75
0
 41
1.0
 42
0.0
  1

  3
Standard
100
AcDbAlignedDimension
 13
235.9770404616000121
 23
210.0433642232000011
 33
0.0
 14
363.4770404615999837
 24
210.0911887370000102
 34
0.0
 50
0.0
100
AcDbRotatedDimension
1001
ACAD
1000
DSTYLE
1002
{
1070
279
1070
2
1070
144
1040
1.0
1070
40
1040
1.0
1002
}
  0
DIMENSION
  5
11C
100
AcDbEntity
  8
0
 62
3
420
65280
370
-1
 48
1.0
  6
CONTINUOUS
100
AcDbDimension
 10
266.7270404615999837
 20
115.3047830922999992
 30
0.0
 11
245.7270404616000121
 21
115.3047830922999992
 31
0.0
 70
128
 71
8
 72
1
 74
0
 75
0
 41
1.0
 42
0.0
  1

  3
Standard
100
AcDbAlignedDimension
 13
224.7270404616000121
 23
141.3047830922999992
 33
0.0
 14
266.7270404615999837
 24
154.0547830922999992
 34
0.0
 50
0.0
100
AcDbRotatedDimension
1001
ACAD
1000
DSTYLE
1002
{
1070
279
1070
2
1070
144
1040
1.0
1070
40
1040
1.0
1002
}
  0
DIMENSION
  5
11D
100
AcDbEntity
  8
0
 62
3
420
65280
370
-1
 48
1.0
  6
CONTINUOUS
100
AcDbDimension
 10
274.7270404615999837
 20
125.3047830922999992
 30
0.0
 11
249.7270404616000121
 21
125.3047830922999992
 31
0.0
 70
128
 71
8
 72
1
 74
0
 75
0
 41
1.0
 42
0.0
  1

  3
Standard
100
AcDbAlignedDimension
 13
224.7270404616000121
 23
141.3047830922999992
 33
0.0
 14
274.7270404615999837
 24
171.4047830922999935
 34
0.0
 50
0.0
100
AcDbRotatedDimension
1001
ACAD
1000
DSTYLE
1002
{
1070
279
1070
2
1070
144
1040
1.0
1070
40
1040
1.0
1002
}
  0
DIMENSION
  5
11E
100
AcDbEntity
  8
0
 62
3
420
65280
370
-1
 48
1.0
  6
CONTINUOUS
100
AcDbDimension
 10
294.7270404615999837
 20
125.3047830922999992
 30
0.0
 11
284.7270404615999837
 21
125.3047830922999992
 31
0.0
 70
128
 71
8
 72
1
 74
0
 75
0
 41
1.0
 42
0.0
  1

  3
Standard
100
AcDbAlignedDimension
 13
274.7270404615999837
 23
171.4047830922999935
 33
0.0
 14
294.7270404615999837
 24
171.4047830922999935
 34
0.0
 50
0.0
100
AcDbRotatedDimension
1001
ACAD
1000
DSTYLE
1002
{
1070
279
1070
2
1070
144
1040
1.0
1070
40
1040
1.0
1002
}
  0
DIMENSION
  5
11F
100
AcDbEntity
  8
0
 62
3
420
65280
370
-1
 48
1.0
  6
CONTINUOUS
100
AcDbDimension
 10
314.7270404615999837
 20
125.3047830922999992
 30
0.0
 11
304.7270404615999837
 21
125.3047830922999992
 31
0.0
 70
128
 71
8
 72
1
 74
0
 75
0
 41
1.0
 42
0.0
  1

  3
Standard
100
AcDbAlignedDimension
 13
294.7270404615999837
 23
171.4047830922999935
 33
0.0
 14
314.7270404615999837
 24
171.4047830922999935
 34
0.0
 50
0.0
100
AcDbRotatedDimension
1001
ACAD
1000
DSTYLE
1002
{
1070
279
1070
2
1070
144
1040
1.0
1070
40
1040
1.0
1002
}
  0
DIMENSION
  5
120
100
AcDbEntity
  8
0
 62
3
420
65280
370
-1
 48
1.0
  6
CONTINUOUS
100
AcDbDimension
 10
390.9224939833000008
 20
193.3047830922999992
 30
0.0
 11
390.9224939833000008
 21
175.3047830922999992
 31
0.0
 70
128
 71
8
 72
1
 74
0
 75
0
 41
1.0
 42
0.0
  1

  3
Standard
100
AcDbAlignedDimension
 13
301.9770404615999837
 23
157.3047830922999992
 33
0.0
 14
301.9770404615999837
 24
193.3047830922999992
 34
0.0
 50
90.0
100
AcDbRotatedDimension
1001
ACAD
1000
DSTYLE
1002
{
1070
279
1070
2
1070
144
1040
1.0
1070
40
1040
1.0
1002
}
  0
DIMENSION
  5
121
100
AcDbEntity
  8
0
 62
3
420
65280
370
-1
 48
1.0
  6
CONTINUOUS
100
AcDbDimension
 10
266.7270404615999837
 20
115.3047830922999992
 30
0.0
 11
282.7270404615999837
 21
115.3047830922999992
 31
0.0
 70
128
 71
8
 72
1
 74
0
 75
0
 41
1.0
 42
0.0
  1

  3
Standard
100
AcDbAlignedDimension
 13
298.7270404615999837
 23
154.0547830922999992
 33
0.0
 14
266.7270404615999837
 24
154.0547830922999992
 34
0.0
 50
180.0
100
AcDbRotatedDimension
1001
ACAD
1000
DSTYLE
1002
{
1070
279
1070
2
1070
144
1040
1.0
1070
40
1040
1.0
1002
}
  0
DIMENSION
  5
122
100
AcDbEntity
  8
0
 62
3
420
65280
370
-1
 48
1.0
  6
CONTINUOUS
100
AcDbDimension
 10
334.2270404615999837
 20
235.3047830922999992
 30
0.0
 11
279.4770404615999837
 21
235.3047830922999992
 31
0.0
 70
128
 71
8
 72
1
 74
0
 75
0
 41
1.0
 42
0.0
  1

  3
Standard
100
AcDbAlignedDimension
 13
224.7270404616000121
 23
209.3047830922999992
 33
0.0
 14
334.2270404615999837
 24
205.0547830922999992
 34
0.0
 50
0.0
100
AcDbRotatedDimension
1001
ACAD
1000
DSTYLE
1002
{
1070
279
1070
2
1070
144
1040
1.0
1070
40
1040
1.0
1002
}
  0
DIMENSION
  5
123
100
AcDbEntity
  8
0
 62
3
420
65280
370
-1
 48
1.0
  6
CONTINUOUS
100
AcDbDimension
 10
293.3417037710000272
 20
179.0572279291999962
 30
0.0
 11
267.3929191312000171
 21
227.9297830922999992
 31
0.0
 70
131
 71
8
 72
1
 74
0
 75
0
 41
1.0
 42
0.0
  1
M<>
  3
Standard
100
AcDbDiametricDimension
 15
296.112377152199997
 25
171.5523382554999898
 35
0.0
 40
0.0
1001
ACAD
1000
DSTYLE
1002
{
1070
279
1070
2
1070
144
1040
1.0
1070
40
1040
1.0
1002
}
  0
LINE
  5
124
100
AcDbEntity
  8
0
 62
7
420
16777215
370
-1
 48
1.0
  6
CONTINUOUS
100
AcDbLine
 10
224.7270404616000121
 20
215.3047830923000276
 30
0.0
 11
224.7270404616000121
 21
135.3047830922999992
 31
0.0
  0
LINE
  5
125
100
AcDbEntity
  8
02___PRT_ALL_AXES
 62
7
420
16777215
370
-1
 48
1.0
  6
CONTINUOUS
100
AcDbLine
 10
231.7270404616000121
 20
203.5547830922999992
 30
0.0
 11
231.7270404616000121
 21
197.0547830922999992
 31
0.0
  0
LINE
  5
126
100
AcDbEntity
  8
02___PRT_ALL_AXES
 62
7
420
16777215
370
-1
 48
1.0
  6
CONTINUOUS
100
AcDbLine
 10
231.7270404616000121
 20
178.5547830922999992
 30
0.0
 11
231.7270404616000121
 21
172.0547830922999992
 31
0.0
  0
LINE
  5
127
100
AcDbEntity
  8
02___PRT_ALL_AXES
 62
7
420
16777215
370
-1
 48
1.0
  6
CONTINUOUS
100
AcDbLine
 10
231.7270404616000121
 20
153.5547830922999992
 30
0.0
 11
231.7270404616000121
 21
147.0547830922999992
 31
0.0
  0
LINE
  5
128
100
AcDbEntity
  8
02___PRT_ALL_AXES
 62
4
420
65535
370
-1
 48
1.0
  6
CENTER
100
AcDbLine
 10
235.9770404616000121
 20
200.3047830922999992
 30
0.0
 11
235.9770404616000121
 21
190.5662019613999973
 31
0.0
  0
LINE
  5
129
100
AcDbEntity
  8
02___PRT_ALL_AXES
 62
4
420
65535
370
-1
 48
1.0
  6
CENTER
100
AcDbLine
 10
235.9770404616000121
 20
175.3047830922999992
 30
0.0
 11
235.9770404616000121
 21
165.7660681343000135
 31
0.0
  0
LINE
  5
12A
100
AcDbEntity
  8
02___PRT_ALL_AXES
 62
4
420
65535
370
-1
 48
1.0
  6
CENTER
100
AcDbLine
 10
235.9770404616000121
 20
150.3047830922999992
 30
0.0
 11
235.9770404616000121
 21
140.9033882942999867
 31
0.0
  0
LINE
  5
12B
100
AcDbEntity
  8
02___PRT_ALL_AXES
 62
4
420
65535
370
-1
 48
1.0
  6
CENTER
100
AcDbLine
 10
235.9770404616000121
 20
150.3047830922999992
 30
0.0
 11
235.9770404616000121
 21
159.7061778903999993
 31
0.0
  0
LINE
  5
12C
100
AcDbEntity
  8
02___PRT_ALL_AXES
 62
4
420
65535
370
-1
 48
1.0
  6
CENTER
100
AcDbLine
 10
235.9770404616000121
 20
175.3047830922999992
 30
0.0
 11
235.9770404616000121
 21
184.8434980502998997
 31
0.0
  0
LINE
  5
12D
100
AcDbEntity
  8
02___PRT_ALL_AXES
 62
4
420
65535
370
-1
 48
1.0
  6
CENTER
100
AcDbLine
 10
235.9770404616000121
 20
200.3047830922999992
 30
0.0
 11
235.9770404616000121
 21
210.0433642232000011
 31
0.0
  0
LINE
  5
12E
100
AcDbEntity
  8
02___PRT_ALL_AXES
 62
7
420
16777215
370
-1
 48
1.0
  6
CONTINUOUS
100
AcDbLine
 10
240.2270404616000121
 20
147.0547830922999992
 30
0.0
 11
240.2270404616000121
 21
153.5547830922999992
 31
0.0
  0
LINE
  5
12F
100
AcDbEntity
  8
02___PRT_ALL_AXES
 62
7
420
16777215
370
-1
 48
1.0
  6
CONTINUOUS
100
AcDbLine
 10
240.2270404616000121
 20
172.0547830922999992
 30
0.0
 11
240.2270404616000121
 21
178.5547830922999992
 31
0.0
  0
LINE
  5
130
100
AcDbEntity
  8
02___PRT_ALL_AXES
 62
7
420
16777215
370
-1
 48
1.0
  6
CONTINUOUS
100
AcDbLine
 10
240.2270404616000121
 20
197.0547830922999992
 30
0.0
 11
240.2270404616000121
 21
203.5547830922999992
 31
0.0
  0
LINE
  5
131
100
AcDbEntity
  8
0
 62
7
420
16777215
370
-1
 48
1.0
  6
CONTINUOUS
100
AcDbLine
 10
224.7270404616000405
 20
135.3047830922999992
 30
0.0
 11
574.7270404616001542
 21
135.3047830922999992
 31
0.0
  0
LINE
  5
132
100
AcDbEntity
  8
02___PRT_ALL_AXES
 62
4
420
65535
370
-1
 48
1.0
  6
CENTER
100
AcDbLine
 10
266.7270404615999837
 20
193.3047830922999992
 30
0.0
 11
266.7270404615999837
 21
190.0547830922999992
 31
0.0
  0
LINE
  5
133
100
AcDbEntity
  8
02___PRT_ALL_AXES
 62
4
420
65535
370
-1
 48
1.0
  6
CENTER
100
AcDbLine
 10
266.7270404615999837
 20
157.3047830922999992
 30
0.0
 11
266.7270404615999837
 21
154.0547830922999992
 31
0.0
  0
LINE
  5
134
100
AcDbEntity
  8
0
 62
7
420
16777215
370
-1
 48
1.0
  6
CENTER
100
AcDbLine
 10
266.7270404615999837
 20
96.9102853902000163
 30
0.0
 11
266.7270404615999837
 21
101.9102853902000021
 31
0.0
  0
LINE
  5
135
100
AcDbEntity
  8
02___PRT_ALL_AXES
 62
4
420
65535
370
-1
 48
1.0
  6
CENTER
100
AcDbLine
 10
266.7270404615999837
 20
157.3047830922999992
 30
0.0
 11
266.7270404615999837
 21
160.5547830922999992
 31
0.0
  0
LINE
  5
136
100
AcDbEntity
  8
02___PRT_ALL_AXES
 62
4
420
65535
370
-1
 48
1.0
  6
CENTER
100
AcDbLine
 10
266.7270404615999837
 20
193.3047830922999992
 30
0.0
 11
266.7270404615999837
 21
196.5547830922999992
 31
0.0
  0
LINE
  5
137
100
AcDbEntity
  8
0
 62
1
420
16711680
370
-1
 48
1.0
  6
CENTER
100
AcDbLine
 10
266.7270404615999837
 20
101.9102853902000021
 30
0.0
 11
266.7270404615999837
 21
250.5157636993999972
 31
0.0
  0
LINE
  5
138
100
AcDbEntity
  8
0
 62
7
420
16777215
370
-1
 48
1.0
  6
CENTER
100
AcDbLine
 10
266.7270404615999837
 20
250.5157636993999972
 30
0.0
 11
266.7270404615999837
 21
255.5157636993999972
 31
0.0
  0
LINE
  5
139
100
AcDbEntity
  8
02___PRT_ALL_AXES
 62
4
420
65535
370
-1
 48
1.0
  6
CENTER
100
AcDbLine
 10
274.7270404615999837
 20
175.3047830922999992
 30
0.0
 11
274.7270404615999837
 21
171.4047830922999935
 31
0.0
  0
LINE
  5
13A
100
AcDbEntity
  8
02___PRT_ALL_AXES
 62
4
420
65535
370
-1
 48
1.0
  6
CENTER
100
AcDbLine
 10
274.7270404615999837
 20
175.3047830922999992
 30
0.0
 11
274.7270404615999837
 21
179.2047830923000049
 31
0.0
  0
LINE
  5
13B
100
AcDbEntity
  8
02___PRT_ALL_AXES
 62
4
420
65535
370
-1
 48
1.0
  6
CENTER
100
AcDbLine
 10
363.4770404615999837
 20
150.3047830922999992
 30
0.0
 11
354.5822022990000164
 21
150.3047830922999992
 31
0.0
  0
LINE
  5
13C
100
AcDbEntity
  8
02___PRT_ALL_AXES
 62
4
420
65535
370
-1
 48
1.0
  6
CENTER
100
AcDbLine
 10
334.2270404615999837
 20
150.3047830922999992
 30
0.0
 11
329.4770404615999837
 21
150.3047830922999992
 31
0.0
  0
LINE
  5
13D
100
AcDbEntity
  8
02___PRT_ALL_AXES
 62
4
420
65535
370
-1
 48
1.0
  6
CENTER
100
AcDbLine
 10
329.4770404615999837
 20
150.3047830922999992
 30
0.0
 11
326.2270404615999837
 21
150.3047830922999992
 31
0.0
  0
LINE
  5
13E
100
AcDbEntity
  8
02___PRT_ALL_AXES
 62
4
420
65535
370
-1
 48
1.0
  6
CENTER
100
AcDbLine
 10
235.9770404616000121
 20
150.3047830922999992
 30
0.0
 11
226.5756456635999996
 21
150.3047830922999992
 31
0.0
  0
LINE
  5
13F
100
AcDbEntity
  8
02___PRT_ALL_AXES
 62
4
420
65535
370
-1
 48
1.0
  6
CENTER
100
AcDbLine
 10
235.9770404616000121
 20
150.3047830922999992
 30
0.0
 11
326.2270404615999837
 21
150.3047830922999992
 31
0.0
  0
LINE
  5
140
100
AcDbEntity
  8
02___PRT_ALL_AXES
 62
4
420
65535
370
-1
 48
1.0
  6
CENTER
100
AcDbLine
 10
334.2270404615999837
 20
150.3047830922999992
 30
0.0
 11
354.5822022990000164
 21
150.3047830922999992
 31
0.0
  0
LINE
  5
141
100
AcDbEntity
  8
02___PRT_ALL_AXES
 62
4
420
65535
370
-1
 48
1.0
  6
CENTER
100
AcDbLine
 10
298.7270404615999837
 20
157.3047830922999992
 30
0.0
 11
295.4770404615999837
 21
157.3047830922999992
 31
0.0
  0
LINE
  5
142
100
AcDbEntity
  8
02___PRT_ALL_AXES
 62
4
420
65535
370
-1
 48
1.0
  6
CENTER
100
AcDbLine
 10
266.7270404615999837
 20
157.3047830922999992
 30
0.0
 11
263.4770404615999837
 21
157.3047830922999992
 31
0.0
  0
LINE
  5
143
100
AcDbEntity
  8
02___PRT_ALL_AXES
 62
4
420
65535
370
-1
 48
1.0
  6
CENTER
100
AcDbLine
 10
266.7270404615999837
 20
157.3047830922999992
 30
0.0
 11
269.9770404615999837
 21
157.3047830922999992
 31
0.0
  0
LINE
  5
144
100
AcDbEntity
  8
02___PRT_ALL_AXES
 62
4
420
65535
370
-1
 48
1.0
  6
CENTER
100
AcDbLine
 10
298.7270404615999837
 20
157.3047830922999992
 30
0.0
 11
301.9770404615999837
 21
157.3047830922999992
 31
0.0
  0
LINE
  5
145
100
AcDbEntity
  8
02___PRT_ALL_AXES
 62
4
420
65535
370
-1
 48
1.0
  6
CENTER
100
AcDbLine
 10
294.7270404615999837
 20
175.3047830922999992
 30
0.0
 11
294.7270404615999837
 21
171.4047830922999935
 31
0.0
  0
LINE
  5
146
100
AcDbEntity
  8
02___PRT_ALL_AXES
 62
4
420
65535
370
-1
 48
1.0
  6
CENTER
100
AcDbLine
 10
294.7270404615999837
 20
175.3047830922999992
 30
0.0
 11
294.7270404615999837
 21
179.2047830923000049
 31
0.0
  0
LINE
  5
147
100
AcDbEntity
  8
02___PRT_ALL_AXES
 62
4
420
65535
370
-1
 48
1.0
  6
CENTER
100
AcDbLine
 10
298.7270404615999837
 20
193.3047830922999992
 30
0.0
 11
298.7270404615999837
 21
190.0547830922999992
 31
0.0
  0
LINE
  5
148
100
AcDbEntity
  8
02___PRT_ALL_AXES
 62
4
420
65535
370
-1
 48
1.0
  6
CENTER
100
AcDbLine
 10
298.7270404615999837
 20
157.3047830922999992
 30
0.0
 11
298.7270404615999837
 21
154.0547830922999992
 31
0.0
  0
LINE
  5
149
100
AcDbEntity
  8
02___PRT_ALL_AXES
 62
4
420
65535
370
-1
 48
1.0
  6
CENTER
100
AcDbLine
 10
298.7270404615999837
 20
157.3047830922999992
 30
0.0
 11
298.7270404615999837
 21
160.5547830922999992
 31
0.0
  0
LINE
  5
14A
100
AcDbEntity
  8
02___PRT_ALL_AXES
 62
4
420
65535
370
-1
 48
1.0
  6
CENTER
100
AcDbLine
 10
298.7270404615999837
 20
193.3047830922999992
 30
0.0
 11
298.7270404615999837
 21
196.5547830922999992
 31
0.0
  0
LINE
  5
14B
100
AcDbEntity
  8
02___PRT_ALL_AXES
 62
4
420
65535
370
-1
 48
1.0
  6
CENTER
100
AcDbLine
 10
363.4770404615999837
 20
175.3047830922999992
 30
0.0
 11
354.4953670717999898
 21
175.3047830922999992
 31
0.0
  0
LINE
  5
14C
100
AcDbEntity
  8
02___PRT_ALL_AXES
 62
4
420
65535
370
-1
 48
1.0
  6
CENTER
100
AcDbLine
 10
334.2270404615999837
 20
175.3047830922999992
 30
0.0
 11
329.4770404615999837
 21
175.3047830922999992
 31
0.0
  0
LINE
  5
14D
100
AcDbEntity
  8
02___PRT_ALL_AXES
 62
4
420
65535
370
-1
 48
1.0
  6
CENTER
100
AcDbLine
 10
329.4770404615999837
 20
175.3047830922999992
 30
0.0
 11
326.2270404615999837
 21
175.3047830922999992
 31
0.0
  0
LINE
  5
14E
100
AcDbEntity
  8
02___PRT_ALL_AXES
 62
4
420
65535
370
-1
 48
1.0
  6
CENTER
100
AcDbLine
 10
314.7270404615999837
 20
175.3047830922999992
 30
0.0
 11
310.8270404616000064
 21
175.3047830922999992
 31
0.0
  0
LINE
  5
14F
100
AcDbEntity
  8
02___PRT_ALL_AXES
 62
4
420
65535
370
-1
 48
1.0
  6
CENTER
100
AcDbLine
 10
294.7270404615999837
 20
175.3047830922999992
 30
0.0
 11
290.8270404616000064
 21
175.3047830922999992
 31
0.0
  0
LINE
  5
150
100
AcDbEntity
  8
02___PRT_ALL_AXES
 62
4
420
65535
370
-1
 48
1.0
  6
CENTER
100
AcDbLine
 10
274.7270404615999837
 20
175.3047830922999992
 30
0.0
 11
270.8270404616000064
 21
175.3047830922999992
 31
0.0
  0
LINE
  5
151
100
AcDbEntity
  8
02___PRT_ALL_AXES
 62
4
420
65535
370
-1
 48
1.0
  6
CENTER
100
AcDbLine
 10
235.9770404616000121
 20
175.3047830922999992
 30
0.0
 11
191.7502154515998996
 21
175.3047830922999992
 31
0.0
  0
LINE
  5
152
100
AcDbEntity
  8
02___PRT_ALL_AXES
 62
4
420
65535
370
-1
 48
1.0
  6
CENTER
100
AcDbLine
 10
235.9770404616000121
 20
175.3047830922999992
 30
0.0
 11
270.8270404616000064
 21
175.3047830922999992
 31
0.0
  0
LINE
  5
153
100
AcDbEntity
  8
02___PRT_ALL_AXES
 62
4
420
65535
370
-1
 48
1.0
  6
CENTER
100
AcDbLine
 10
334.2270404615999837
 20
175.3047830922999992
 30
0.0
 11
354.4953670717999898
 21
175.3047830922999992
 31
0.0
  0
LINE
  5
154
100
AcDbEntity
  8
02___PRT_ALL_AXES
 62
4
420
65535
370
-1
 48
1.0
  6
CENTER
100
AcDbLine
 10
314.7270404615999837
 20
175.3047830922999992
 30
0.0
 11
326.2270404615999837
 21
175.3047830922999992
 31
0.0
  0
LINE
  5
155
100
AcDbEntity
  8
02___PRT_ALL_AXES
 62
4
420
65535
370
-1
 48
1.0
  6
CENTER
100
AcDbLine
 10
294.7270404615999837
 20
175.3047830922999992
 30
0.0
 11
310.8270404616000064
 21
175.3047830922999992
 31
0.0
  0
LINE
  5
156
100
AcDbEntity
  8
02___PRT_ALL_AXES
 62
4
420
65535
370
-1
 48
1.0
  6
CENTER
100
AcDbLine
 10
274.7270404615999837
 20
175.3047830922999992
 30
0.0
 11
290.8270404616000064
 21
175.3047830922999992
 31
0.0
  0
LINE
  5
157
100
AcDbEntity
  8
02___PRT_ALL_AXES
 62
4
420
65535
370
-1
 48
1.0
  6
CENTER
100
AcDbLine
 10
314.7270404615999837
 20
175.3047830922999992
 30
0.0
 11
314.7270404615999837
 21
171.4047830922999935
 31
0.0
  0
LINE
  5
158
100
AcDbEntity
  8
02___PRT_ALL_AXES
 62
4
420
65535
370
-1
 48
1.0
  6
CENTER
100
AcDbLine
 10
314.7270404615999837
 20
175.3047830922999992
 30
0.0
 11
314.7270404615999837
 21
179.2047830923000049
 31
0.0
  0
LINE
  5
159
100
AcDbEntity
  8
02___PRT_ALL_AXES
 62
4
420
65535
370
-1
 48
1.0
  6
CENTER
100
AcDbLine
 10
298.7270404615999837
 20
193.3047830922999992
 30
0.0
 11
295.4770404615999837
 21
193.3047830922999992
 31
0.0
  0
LINE
  5
15A
100
AcDbEntity
  8
02___PRT_ALL_AXES
 62
4
420
65535
370
-1
 48
1.0
  6
CENTER
100
AcDbLine
 10
266.7270404615999837
 20
193.3047830922999992
 30
0.0
 11
263.4770404615999837
 21
193.3047830922999992
 31
0.0
  0
LINE
  5
15B
100
AcDbEntity
  8
02___PRT_ALL_AXES
 62
4
420
65535
370
-1
 48
1.0
  6
CENTER
100
AcDbLine
 10
266.7270404615999837
 20
193.3047830922999992
 30
0.0
 11
269.9770404615999837
 21
193.3047830922999992
 31
0.0
  0
LINE
  5
15C
100
AcDbEntity
  8
02___PRT_ALL_AXES
 62
4
420
65535
370
-1
 48
1.0
  6
CENTER
100
AcDbLine
 10
298.7270404615999837
 20
193.3047830922999992
 30
0.0
 11
301.9770404615999837
 21
193.3047830922999992
 31
0.0
  0
LINE
  5
15D
100
AcDbEntity
  8
02___PRT_ALL_AXES
 62
4
420
65535
370
-1
 48
1.0
  6
CENTER
100
AcDbLine
 10
363.4770404615999837
 20
200.3047830922999992
 30
0.0
 11
353.6906348169000012
 21
200.3047830922999992
 31
0.0
  0
LINE
  5
15E
100
AcDbEntity
  8
02___PRT_ALL_AXES
 62
4
420
65535
370
-1
 48
1.0
  6
CENTER
100
AcDbLine
 10
334.2270404615999837
 20
200.3047830922999992
 30
0.0
 11
329.4770404615999837
 21
200.3047830922999992
 31
0.0
  0
LINE
  5
15F
100
AcDbEntity
  8
02___PRT_ALL_AXES
 62
4
420
65535
370
-1
 48
1.0
  6
CENTER
100
AcDbLine
 10
329.4770404615999837
 20
200.3047830922999992
 30
0.0
 11
326.2270404615999837
 21
200.3047830922999992
 31
0.0
  0
LINE
  5
160
100
AcDbEntity
  8
02___PRT_ALL_AXES
 62
4
420
65535
370
-1
 48
1.0
  6
CENTER
100
AcDbLine
 10
235.9770404616000121
 20
200.3047830922999992
 30
0.0
 11
226.2384593307000102
 21
200.3047830922999992
 31
0.0
  0
LINE
  5
161
100
AcDbEntity
  8
02___PRT_ALL_AXES
 62
4
420
65535
370
-1
 48
1.0
  6
CENTER
100
AcDbLine
 10
235.9770404616000121
 20
200.3047830922999992
 30
0.0
 11
326.2270404615999837
 21
200.3047830922999992
 31
0.0
  0
LINE
  5
162
100
AcDbEntity
  8
02___PRT_ALL_AXES
 62
4
420
65535
370
-1
 48
1.0
  6
CENTER
100
AcDbLine
 10
334.2270404615999837
 20
200.3047830922999992
 30
0.0
 11
353.6906348169000012
 21
200.3047830922999992
 31
0.0
  0
LINE
  5
163
100
AcDbEntity
  8
02___PRT_ALL_AXES
 62
4
420
65535
370
-1
 48
1.0
  6
CENTER
100
AcDbLine
 10
334.2270404615999837
 20
200.3047830922999992
 30
0.0
 11
334.2270404615999837
 21
195.5547830922999992
 31
0.0
  0
LINE
  5
164
100
AcDbEntity
  8
02___PRT_ALL_AXES
 62
4
420
65535
370
-1
 48
1.0
  6
CENTER
100
AcDbLine
 10
334.2270404615999837
 20
195.5547830922999992
 30
0.0
 11
334.2270404615999837
 21
192.3047830922999992
 31
0.0
  0
LINE
  5
165
100
AcDbEntity
  8
02___PRT_ALL_AXES
 62
4
420
65535
370
-1
 48
1.0
  6
CENTER
100
AcDbLine
 10
334.2270404615999837
 20
175.3047830922999992
 30
0.0
 11
334.2270404615999837
 21
170.5547830922999992
 31
0.0
  0
LINE
  5
166
100
AcDbEntity
  8
02___PRT_ALL_AXES
 62
4
420
65535
370
-1
 48
1.0
  6
CENTER
100
AcDbLine
 10
334.2270404615999837
 20
170.5547830922999992
 30
0.0
 11
334.2270404615999837
 21
167.3047830922999992
 31
0.0
  0
LINE
  5
167
100
AcDbEntity
  8
02___PRT_ALL_AXES
 62
4
420
65535
370
-1
 48
1.0
  6
CENTER
100
AcDbLine
 10
334.2270404615999837
 20
150.3047830922999992
 30
0.0
 11
334.2270404615999837
 21
145.5547830922999992
 31
0.0
  0
LINE
  5
168
100
AcDbEntity
  8
02___PRT_ALL_AXES
 62
4
420
65535
370
-1
 48
1.0
  6
CENTER
100
AcDbLine
 10
334.2270404615999837
 20
145.5547830922999992
 30
0.0
 11
334.2270404615999837
 21
142.3047830922999992
 31
0.0
  0
LINE
  5
169
100
AcDbEntity
  8
0
 62
7
420
16777215
370
-1
 48
1.0
  6
CENTER
100
AcDbLine
 10
334.2270404615999837
 20
96.1219094169000243
 30
0.0
 11
334.2270404615999837
 21
101.1219094168999959
 31
0.0
  0
LINE
  5
16A
100
AcDbEntity
  8
02___PRT_ALL_AXES
 62
4
420
65535
370
-1
 48
1.0
  6
CENTER
100
AcDbLine
 10
334.2270404615999837
 20
150.3047830922999992
 30
0.0
 11
334.2270404615999837
 21
155.0547830922999992
 31
0.0
  0
LINE
  5
16B
100
AcDbEntity
  8
02___PRT_ALL_AXES
 62
4
420
65535
370
-1
 48
1.0
  6
CENTER
100
AcDbLine
 10
334.2270404615999837
 20
155.0547830922999992
 30
0.0
 11
334.2270404615999837
 21
158.3047830922999992
 31
0.0
  0
LINE
  5
16C
100
AcDbEntity
  8
02___PRT_ALL_AXES
 62
4
420
65535
370
-1
 48
1.0
  6
CENTER
100
AcDbLine
 10
334.2270404615999837
 20
175.3047830922999992
 30
0.0
 11
334.2270404615999837
 21
180.0547830922999992
 31
0.0
  0
LINE
  5
16D
100
AcDbEntity
  8
02___PRT_ALL_AXES
 62
4
420
65535
370
-1
 48
1.0
  6
CENTER
100
AcDbLine
 10
334.2270404615999837
 20
180.0547830922999992
 30
0.0
 11
334.2270404615999837
 21
183.3047830922999992
 31
0.0
  0
LINE
  5
16E
100
AcDbEntity
  8
02___PRT_ALL_AXES
 62
4
420
65535
370
-1
 48
1.0
  6
CENTER
100
AcDbLine
 10
334.2270404615999837
 20
200.3047830922999992
 30
0.0
 11
334.2270404615999837
 21
205.0547830922999992
 31
0.0
  0
LINE
  5
16F
100
AcDbEntity
  8
02___PRT_ALL_AXES
 62
4
420
65535
370
-1
 48
1.0
  6
CENTER
100
AcDbLine
 10
334.2270404615999837
 20
205.0547830922999992
 30
0.0
 11
334.2270404615999837
 21
208.3047830922999992
 31
0.0
  0
LINE
  5
170
100
AcDbEntity
  8
0
 62
1
420
16711680
370
-1
 48
1.0
  6
CENTER
100
AcDbLine
 10
334.2270404615999837
 20
101.1219094168999959
 30
0.0
 11
334.2270404615999837
 21
250.7175879485999985
 31
0.0
  0
LINE
  5
171
100
AcDbEntity
  8
0
 62
7
420
16777215
370
-1
 48
1.0
  6
CENTER
100
AcDbLine
 10
334.2270404615999837
 20
250.7175879485999985
 30
0.0
 11
334.2270404615999837
 21
255.7175879485999985
 31
0.0
  0
LINE
  5
172
100
AcDbEntity
  8
0
 62
7
420
16777215
370
-1
 48
1.0
  6
CONTINUOUS
100
AcDbLine
 10
574.7270404616000405
 20
215.3047830922999992
 30
0.0
 11
224.7270404616000405
 21
215.3047830922999992
 31
0.0
  0
LINE
  5
173
100
AcDbEntity
  8
0
 62
7
420
16777215
370
-1
 48
1.0
  6
CONTINUOUS
100
AcDbLine
 10
574.7270404616001542
 20
135.3047830922999708
 30
0.0
 11
574.7270404616001542
 21
215.3047830922999992
 31
0.0
  0
CIRCLE
  5
174
100
AcDbEntity
  8
0
 62
7
420
16777215
370
-1
 48
1.0
  6
CONTINUOUS
100
AcDbCircle
 10
266.7270404615999837
 20
157.3047830922999992
 30
0.0
 40
6.25
  0
CIRCLE
  5
175
100
AcDbEntity
  8
0
 62
7
420
16777215
370
-1
 48
1.0
  6
CONTINUOUS
100
AcDbCircle
 10
298.7270404615999837
 20
157.3047830922999992
 30
0.0
 40
6.25
  0
ARC
  5
176
100
AcDbEntity
  8
02___PRT_ALL_AXES
 62
7
420
16777215
370
-1
 48
1.0
  6
CONTINUOUS
100
AcDbCircle
 10
235.9770404616000121
 20
172.0547830922999992
 30
0.0
 40
4.25
100
AcDbArc
 50
180.0
 51
360.0
  0
ARC
  5
177
100
AcDbEntity
  8
02___PRT_ALL_AXES
 62
7
420
16777215
370
-1
 48
1.0
  6
CONTINUOUS
100
AcDbCircle
 10
235.9770404616000121
 20
147.0547830922999992
 30
0.0
 40
4.25
100
AcDbArc
 50
180.0
 51
360.0
  0
ARC
  5
178
100
AcDbEntity
  8
02___PRT_ALL_AXES
 62
7
420
16777215
370
-1
 48
1.0
  6
CONTINUOUS
100
AcDbCircle
 10
235.9770404616000121
 20
153.5547830922999992
 30
0.0
 40
4.25
100
AcDbArc
 50
0.0
 51
180.0
  0
CIRCLE
  5
179
100
AcDbEntity
  8
0
 62
7
420
16777215
370
-1
 48
1.0
  6
CONTINUOUS
100
AcDbCircle
 10
266.7270404615999837
 20
157.3047830922999992
 30
0.0
 40
2.75
  0
CIRCLE
  5
17A
100
AcDbEntity
  8
0
 62
7
420
16777215
370
-1
 48
1.0
  6
CONTINUOUS
100
AcDbCircle
 10
298.7270404615999837
 20
157.3047830922999992
 30
0.0
 40
2.75
  0
CIRCLE
  5
17B
100
AcDbEntity
  8
0
 62
7
420
16777215
370
-1
 48
1.0
  6
CONTINUOUS
100
AcDbCircle
 10
266.7270404615999837
 20
193.3047830922999992
 30
0.0
 40
6.25
  0
CIRCLE
  5
17C
100
AcDbEntity
  8
0
 62
7
420
16777215
370
-1
 48
1.0
  6
CONTINUOUS
100
AcDbCircle
 10
298.7270404615999837
 20
193.3047830922999992
 30
0.0
 40
6.25
  0
ARC
  5
17D
100
AcDbEntity
  8
02___PRT_ALL_AXES
 62
7
420
16777215
370
-1
 48
1.0
  6
CONTINUOUS
100
AcDbCircle
 10
235.9770404616000121
 20
197.0547830922999992
 30
0.0
 40
4.25
100
AcDbArc
 50
180.0
 51
360.0
  0
ARC
  5
17E
100
AcDbEntity
  8
02___PRT_ALL_AXES
 62
7
420
16777215
370
-1
 48
1.0
  6
CONTINUOUS
100
AcDbCircle
 10
235.9770404616000121
 20
203.5547830922999992
 30
0.0
 40
4.25
100
AcDbArc
 50
0.0
 51
180.0
  0
ARC
  5
17F
100
AcDbEntity
  8
02___PRT_ALL_AXES
 62
7
420
16777215
370
-1
 48
1.0
  6
CONTINUOUS
100
AcDbCircle
 10
235.9770404616000121
 20
178.5547830922999992
 30
0.0
 40
4.25
100
AcDbArc
 50
0.0
 51
180.0
  0
ARC
  5
180
100
AcDbEntity
  8
0
 62
3
420
65280
370
-1
 48
1.0
  6
CONTINUOUS
100
AcDbCircle
 10
274.7270404615999837
 20
175.3047830922999992
 30
0.0
 40
4.0
100
AcDbArc
 50
255.0
 51
195.0
  0
ARC
  5
181
100
AcDbEntity
  8
0
 62
3
420
65280
370
-1
 48
1.0
  6
CONTINUOUS
100
AcDbCircle
 10
294.7270404615999837
 20
175.3047830922999992
 30
0.0
 40
4.0
100
AcDbArc
 50
255.0
 51
195.0
  0
CIRCLE
  5
182
100
AcDbEntity
  8
02___PRT_ALL_AXES
 62
7
420
16777215
370
-1
 48
1.0
  6
CONTINUOUS
100
AcDbCircle
 10
274.7270404615999837
 20
175.3047830922999992
 30
0.0
 40
3.399999999999999
  0
CIRCLE
  5
183
100
AcDbEntity
  8
Filettati
 62
7
420
16777215
370
-1
 48
1.0
  6
CONTINUOUS
100
AcDbCircle
 10
454.6066377558364024
 20
200.2998285332859894
 30
0.0
 40
3.399999999999999
  0
CIRCLE
  5
184
100
AcDbEntity
  8
Filettati
 62
7
420
16777215
370
-1
 48
1.0
  6
CONTINUOUS
100
AcDbCircle
 10
454.8936808405435954
 20
153.6553272683561318
 30
0.0
 40
3.399999999999999
  0
CIRCLE
  5
185
100
AcDbEntity
  8
Filettati
 62
7
420
16777215
370
-1
 48
1.0
  6
CONTINUOUS
100
AcDbCircle
 10
509.2883453925695676
 20
200.8739147027005174
 30
0.0
 40
3.399999999999999
  0
CIRCLE
  5
186
100
AcDbEntity
  8
Filettati
 62
7
420
16777215
370
-1
 48
1.0
  6
CONTINUOUS
100
AcDbCircle
 10
509.5753884772767606
 20
154.2294134377706598
 30
0.0
 40
3.399999999999999
  0
CIRCLE
  5
187
100
AcDbEntity
  8
02___PRT_ALL_AXES
 62
7
420
16777215
370
-1
 48
1.0
  6
CONTINUOUS
100
AcDbCircle
 10
294.7270404615999837
 20
175.3047830922999992
 30
0.0
 40
3.399999999999999
  0
CIRCLE
  5
188
100
AcDbEntity
  8
0
 62
7
420
16777215
370
-1
 48
1.0
  6
CONTINUOUS
100
AcDbCircle
 10
266.7270404615999837
 20
193.3047830922999992
 30
0.0
 40
2.75
  0
CIRCLE
  5
189
100
AcDbEntity
  8
0
 62
7
420
16777215
370
-1
 48
1.0
  6
CONTINUOUS
100
AcDbCircle
 10
298.7270404615999837
 20
193.3047830922999992
 30
0.0
 40
2.75
  0
CIRCLE
  5
18A
100
AcDbEntity
  8
02___PRT_ALL_AXES
 62
7
420
16777215
370
-1
 48
1.0
  6
CONTINUOUS
100
AcDbCircle
 10
334.2270404615999837
 20
150.3047830922999992
 30
0.0
 40
7.5
  0
CIRCLE
  5
18B
100
AcDbEntity
  8
02___PRT_ALL_AXES
 62
7
420
16777215
370
-1
 48
1.0
  6
CONTINUOUS
100
AcDbCircle
 10
334.2270404615999837
 20
150.3047830922999992
 30
0.0
 40
4.25
  0
CIRCLE
  5
18C
100
AcDbEntity
  8
Svasati
 62
7
420
16777215
370
-1
 48
1.0
  6
CONTINUOUS
100
AcDbCircle
 10
405.3288732703147161
 20
150.4264610285146944
 30
0.0
 40
4.25
  0
CIRCLE
  5
18D
100
AcDbEntity
  8
02___PRT_ALL_AXES
 62
7
420
16777215
370
-1
 48
1.0
  6
CONTINUOUS
100
AcDbCircle
 10
334.2270404615999837
 20
175.3047830922999992
 30
0.0
 40
7.5
  0
CIRCLE
  5
18E
100
AcDbEntity
  8
02___PRT_ALL_AXES
 62
7
420
16777215
370
-1
 48
1.0
  6
CONTINUOUS
100
AcDbCircle
 10
334.2270404615999837
 20
200.3047830922999992
 30
0.0
 40
7.5
  0
CIRCLE
  5
18F
100
AcDbEntity
  8
02___PRT_ALL_AXES
 62
7
420
16777215
370
-1
 48
1.0
  6
CONTINUOUS
100
AcDbCircle
 10
334.2270404615999837
 20
200.3047830922999992
 30
0.0
 40
4.25
  0
CIRCLE
  5
190
100
AcDbEntity
  8
Svasati
 62
7
420
16777215
370
-1
 48
1.0
  6
CONTINUOUS
100
AcDbCircle
 10
405.3288732703147161
 20
200.4264610285146944
 30
0.0
 40
4.25
  0
CIRCLE
  5
191
100
AcDbEntity
  8
02___PRT_ALL_AXES
 62
7
420
16777215
370
-1
 48
1.0
  6
CONTINUOUS
100
AcDbCircle
 10
334.2270404615999837
 20
175.3047830922999992
 30
0.0
 40
4.25
  0
CIRCLE
  5
192
100
AcDbEntity
  8
Svasati
 62
7
420
16777215
370
-1
 48
1.0
  6
CONTINUOUS
100
AcDbCircle
 10
405.3288732703147161
 20
175.4264610285146944
 30
0.0
 40
4.25
  0
ARC
  5
193
100
AcDbEntity
  8
0
 62
3
420
65280
370
-1
 48
1.0
  6
CONTINUOUS
100
AcDbCircle
 10
314.7270404615999837
 20
175.3047830922999992
 30
0.0
 40
4.0
100
AcDbArc
 50
255.0
 51
195.0
  0
CIRCLE
  5
194
100
AcDbEntity
  8
02___PRT_ALL_AXES
 62
7
420
16777215
370
-1
 48
1.0
  6
CONTINUOUS
100
AcDbCircle
 10
314.7270404615999837
 20
175.3047830922999992
 30
0.0
 40
3.399999999999999
  0
LINE
  5
195
100
AcDbEntity
  8
Piega
 62
256
370
-1
 48
1.0
  6
BYLAYER
100
AcDbLine
 10
380.0
 20
215.304000000000002
 30
0.0
 11
380.0
 21
135.3050000000000068
 31
0.0
  0
LINE
  5
196
100
AcDbEntity
  8
0
 62
256
370
-1
 48
1.0
  6
BYLAYER
100
AcDbLine
 10
480.0
 20
215.3039999999999736
 30
0.0
 11
480.0
 21
135.3049999999999784
 31
0.0
  0
LINE
  5
197
100
AcDbEntity
  8
MARK
 62
256
370
-1
 48
1.0
  6
BYLAYER
100
AcDbLine
 10
529.0
 20
156.0
 30
0.0
 11
529.0
 21
162.0
 31
0.0
  0
LINE
  5
198
100
AcDbEntity
  8
MARK
 62
256
370
-1
 48
1.0
  6
BYLAYER
100
AcDbLine
 10
529.0
 20
162.0
 30
0.0
 11
529.7553472562555044
 21
162.7098169224823607
 31
0.0
  0
LINE
  5
199
100
AcDbEntity
  8
MARK
 62
256
370
-1
 48
1.0
  6
BYLAYER
100
AcDbLine
 10
529.7553472562555044
 20
162.7098169224823607
 30
0.0
 11
532.5079164859204184
 21
162.7098169224823607
 31
0.0
  0
LINE
  5
19A
100
AcDbEntity
  8
MARK
 62
256
370
-1
 48
1.0
  6
BYLAYER
100
AcDbLine
 10
532.5079164859204184
 20
162.7098169224823607
 30
0.0
 11
533.2322768095165202
 21
162.0176503910461747
 31
0.0
  0
LINE
  5
19B
100
AcDbEntity
  8
MARK
 62
256
370
-1
 48
1.0
  6
BYLAYER
100
AcDbLine
 10
533.2322768095165202
 20
162.0176503910461747
 30
0.0
 11
533.3304034880195559
 21
155.9487342434135542
 31
0.0
  0
LINE
  5
19C
100
AcDbEntity
  8
MARK
 62
256
370
-1
 48
1.0
  6
BYLAYER
100
AcDbLine
 10
533.3304034880195559
 20
155.9487342434135542
 30
0.0
 11
532.6350175773674209
 21
155.2533483327613624
 31
0.0
  0
LINE
  5
19D
100
AcDbEntity
  8
MARK
 62
256
370
-1
 48
1.0
  6
BYLAYER
100
AcDbLine
 10
532.6350175773674209
 20
155.2533483327613624
 30
0.0
 11
529.5196886976456199
 21
155.2533483327613624
 31
0.0
  0
LINE
  5
19E
100
AcDbEntity
  8
MARK
 62
256
370
-1
 48
1.0
  6
BYLAYER
100
AcDbLine
 10
529.5196886976456199
 20
155.2533483327613624
 30
0.0
 11
529.0
 21
156.0
 31
0.0
  0
LINE
  5
19F
100
AcDbEntity
  8
MARK
 62
256
370
-1
 48
1.0
  6
BYLAYER
100
AcDbLine
 10
536.668255859150122
 20
162.7635161678049371
 30
0.0
 11
536.6404404227239411
 21
155.0586402777787498
 31
0.0
  0
ENDSEC
  0
SECTION
  2
OBJECTS
  0
DICTIONARY
  5
C
100
AcDbDictionary
280
0
281
1
  3
ACAD_GROUP
350
D
  3
ACAD_LAYOUT
350
1A
  3
ACAD_MLINESTYLE
350
17
  3
ACAD_PLOTSETTINGS
350
19
  3
ACAD_PLOTSTYLENAME
350
E
  3
AcDbVariableDictionary
350
1A0
  3
QCAD_OBJECTS
350
1A1
  0
DICTIONARY
  5
D
100
AcDbDictionary
280
0
281
1
  0
ACDBDICTIONARYWDFLT
  5
E
100
AcDbDictionary
281
1
  3
Normal
350
F
100
AcDbDictionaryWithDefault
340
F
  0
ACDBPLACEHOLDER
  5
F
  0
DICTIONARY
  5
17
100
AcDbDictionary
280
0
281
1
  3
Standard
350
18
  0
MLINESTYLE
  5
18
100
AcDbMlineStyle
  2
STANDARD
 70
0
  3

 62
256
 51
90.0
 52
90.0
 71
2
 49
0.5
 62
256
  6
BYLAYER
 49
-0.5
 62
256
  6
BYLAYER
  0
DICTIONARY
  5
19
100
AcDbDictionary
280
0
281
1
  0
DICTIONARY
  5
1A
100
AcDbDictionary
281
1
  3
Layout1
350
1E
  3
Layout2
350
26
  3
Model
350
22
  0
LAYOUT
  5
1E
100
AcDbPlotSettings
  1

  2
none_device
  4

  6

 40
0.0
 41
0.0
 42
0.0
 43
0.0
 44
0.0
 45
0.0
 46
0.0
 47
0.0
 48
0.0
 49
0.0
140
0.0
141
0.0
142
1.0
143
1.0
 70
688
 72
0
 73
0
 74
5
  7

 75
16
147
1.0
148
0.0
149
0.0
100
AcDbLayout
  1
Layout1
 70
1
 71
1
 10
0.0
 20
0.0
 11
420.0
 21
297.0
 12
0.0
 22
0.0
 32
0.0
 14
100000000000000000000.0
 24
100000000000000000000.0
 34
100000000000000000000.0
 15
-100000000000000000000.0
 25
-100000000000000000000.0
 35
-100000000000000000000.0
146
0.0
 13
0.0
 23
0.0
 33
0.0
 16
1.0
 26
0.0
 36
0.0
 17
0.0
 27
1.0
 37
0.0
 76
0
330
1B
  0
LAYOUT
  5
22
100
AcDbPlotSettings
  1

  2
none_device
  4

  6

 40
0.0
 41
0.0
 42
0.0
 43
0.0
 44
0.0
 45
0.0
 46
0.0
 47
0.0
 48
0.0
 49
0.0
140
0.0
141
0.0
142
1.0
143
1.0
 70
1712
 72
0
 73
0
 74
0
  7

 75
0
147
1.0
148
0.0
149
0.0
100
AcDbLayout
  1
Model
 70
1
 71
0
 10
0.0
 20
0.0
 11
12.0
 21
9.0
 12
0.0
 22
0.0
 32
0.0
 14
0.0
 24
0.0
 34
0.0
 15
0.0
 25
0.0
 35
0.0
146
0.0
 13
0.0
 23
0.0
 33
0.0
 16
1.0
 26
0.0
 36
0.0
 17
0.0
 27
1.0
 37
0.0
 76
0
330
1F
  0
LAYOUT
  5
26
100
AcDbPlotSettings
  1

  2
none_device
  4

  6

 40
0.0
 41
0.0
 42
0.0
 43
0.0
 44
0.0
 45
0.0
 46
0.0
 47
0.0
 48
0.0
 49
0.0
140
0.0
141
0.0
142
1.0
143
1.0
 70
688
 72
0
 73
0
 74
5
  7

 75
16
147
1.0
148
0.0
149
0.0
100
AcDbLayout
  1
Layout2
 70
1
 71
2
 10
0.0
 20
0.0
 11
12.0
 21
9.0
 12
0.0
 22
0.0
 32
0.0
 14
0.0
 24
0.0
 34
0.0
 15
0.0
 25
0.0
 35
0.0
146
0.0
 13
0.0
 23
0.0
 33
0.0
 16
1.0
 26
0.0
 36
0.0
 17
0.0
 27
1.0
 37
0.0
 76
0
330
23
  0
DICTIONARY
  5
1A0
100
AcDbDictionary
281
1
  3
DIMASSOC
350
1A3
  3
HIDETEXT
350
1A2
  0
DICTIONARYVAR
  5
1A2
100
DictionaryVariables
280
0
  1
2
  0
DICTIONARYVAR
  5
1A3
100
DictionaryVariables
280
0
  1
1
  0
DICTIONARY
  5
1A1
100
AcDbDictionary
281
1
  3
ColorSettings/BackgroundColor
350
1A4
  3
ColorSettings/ColorMode
350
1A5
  3
Grid/DisplayGrid00
350
1A6
  3
Grid/DisplayGrid01
350
1A7
  3
Grid/DisplayGrid02
350
1A8
  3
Grid/DisplayGrid03
350
1A9
  3
Grid/GridSpacingX00
350
1AA
  3
Grid/GridSpacingX01
350
1AB
  3
Grid/GridSpacingX02
350
1AC
  3
Grid/GridSpacingX03
350
1AD
  3
Grid/GridSpacingY00
350
1AE
  3
Grid/GridSpacingY01
350
1AF
  3
Grid/GridSpacingY02
350
1B0
  3
Grid/GridSpacingY03
350
1B1
  3
Grid/IsometricGrid00
350
1B2
  3
Grid/IsometricGrid01
350
1B3
  3
Grid/IsometricGrid02
350
1B4
  3
Grid/IsometricGrid03
350
1B5
  3
Grid/IsometricProjection00
350
1B6
  3
Grid/IsometricProjection01
350
1B7
  3
Grid/IsometricProjection02
350
1B8
  3
Grid/IsometricProjection03
350
1B9
  3
Grid/MetaGridSpacingX00
350
1BA
  3
Grid/MetaGridSpacingX01
350
1BB
  3
Grid/MetaGridSpacingX02
350
1BC
  3
Grid/MetaGridSpacingX03
350
1BD
  3
Grid/MetaGridSpacingY00
350
1BE
  3
Grid/MetaGridSpacingY01
350
1BF
  3
Grid/MetaGridSpacingY02
350
1C0
  3
Grid/MetaGridSpacingY03
350
1C1
  3
MultiPageSettings/Columns
350
1C2
  3
MultiPageSettings/GlueMarginsBottom
350
1C3
  3
MultiPageSettings/GlueMarginsLeft
350
1C4
  3
MultiPageSettings/GlueMarginsRight
350
1C5
  3
MultiPageSettings/GlueMarginsTop
350
1C6
  3
MultiPageSettings/PrintCropMarks
350
1C7
  3
MultiPageSettings/Rows
350
1C8
  3
PageSettings/OffsetX
350
1C9
  3
PageSettings/OffsetY
350
1CA
  3
PageSettings/PageOrientation
350
1CB
  3
PageSettings/PaperHeight
350
1CC
  3
PageSettings/PaperWidth
350
1CD
  3
PageSettings/Scale
350
1CE
  3
PageSettings/ShowPaperBorders
350
1CF
  3
PageTagSettings/EnablePageTags
350
1D0
  3
PageTagSettings/TagAlignment
350
1D1
  3
PageTagSettings/TagFont
350
1D2
  3
PageTagSettings/TagPosition
350
1D3
  3
QCADVersion
350
1D4
  3
UnitSettings/PaperUnit
350
1D5
  3
ViewportCenter
350
1D6
  3
ViewportHeight
350
1D7
  3
ViewportWidth
350
1D8
  0
XRECORD
  5
1A4
330
1A1
100
AcDbXrecord
280
1
1000
Bianco
  0
XRECORD
  5
1A5
330
1A1
100
AcDbXrecord
280
1
1000
FullColor
  0
XRECORD
  5
1A6
330
1A1
100
AcDbXrecord
280
1
290
1
  0
XRECORD
  5
1A7
330
1A1
100
AcDbXrecord
280
1
290
1
  0
XRECORD
  5
1A8
330
1A1
100
AcDbXrecord
280
1
290
1
  0
XRECORD
  5
1A9
330
1A1
100
AcDbXrecord
280
1
290
1
  0
XRECORD
  5
1AA
330
1A1
100
AcDbXrecord
280
1
1000
auto
  0
XRECORD
  5
1AB
330
1A1
100
AcDbXrecord
280
1
1000
auto
  0
XRECORD
  5
1AC
330
1A1
100
AcDbXrecord
280
1
1000
auto
  0
XRECORD
  5
1AD
330
1A1
100
AcDbXrecord
280
1
1000
auto
  0
XRECORD
  5
1AE
330
1A1
100
AcDbXrecord
280
1
1000
auto
  0
XRECORD
  5
1AF
330
1A1
100
AcDbXrecord
280
1
1000
auto
  0
XRECORD
  5
1B0
330
1A1
100
AcDbXrecord
280
1
1000
auto
  0
XRECORD
  5
1B1
330
1A1
100
AcDbXrecord
280
1
1000
auto
  0
XRECORD
  5
1B2
330
1A1
100
AcDbXrecord
280
1
290
0
  0
XRECORD
  5
1B3
330
1A1
100
AcDbXrecord
280
1
290
0
  0
XRECORD
  5
1B4
330
1A1
100
AcDbXrecord
280
1
290
0
  0
XRECORD
  5
1B5
330
1A1
100
AcDbXrecord
280
1
290
0
  0
XRECORD
  5
1B6
330
1A1
100
AcDbXrecord
280
1
 90
65537
  0
XRECORD
  5
1B7
330
1A1
100
AcDbXrecord
280
1
 90
65537
  0
XRECORD
  5
1B8
330
1A1
100
AcDbXrecord
280
1
 90
65537
  0
XRECORD
  5
1B9
330
1A1
100
AcDbXrecord
280
1
 90
65537
  0
XRECORD
  5
1BA
330
1A1
100
AcDbXrecord
280
1
1000
auto
  0
XRECORD
  5
1BB
330
1A1
100
AcDbXrecord
280
1
1000
auto
  0
XRECORD
  5
1BC
330
1A1
100
AcDbXrecord
280
1
1000
auto
  0
XRECORD
  5
1BD
330
1A1
100
AcDbXrecord
280
1
1000
auto
  0
XRECORD
  5
1BE
330
1A1
100
AcDbXrecord
280
1
1000
auto
  0
XRECORD
  5
1BF
330
1A1
100
AcDbXrecord
280
1
1000
auto
  0
XRECORD
  5
1C0
330
1A1
100
AcDbXrecord
280
1
1000
auto
  0
XRECORD
  5
1C1
330
1A1
100
AcDbXrecord
280
1
1000
auto
  0
XRECORD
  5
1C2
330
1A1
100
AcDbXrecord
280
1
 90
1
  0
XRECORD
  5
1C3
330
1A1
100
AcDbXrecord
280
1
 40
10.0
  0
XRECORD
  5
1C4
330
1A1
100
AcDbXrecord
280
1
 40
10.0
  0
XRECORD
  5
1C5
330
1A1
100
AcDbXrecord
280
1
 40
10.0
  0
XRECORD
  5
1C6
330
1A1
100
AcDbXrecord
280
1
 40
10.0
  0
XRECORD
  5
1C7
330
1A1
100
AcDbXrecord
280
1
290
0
  0
XRECORD
  5
1C8
330
1A1
100
AcDbXrecord
280
1
 90
1
  0
XRECORD
  5
1C9
330
1A1
100
AcDbXrecord
280
1
 40
0.0
  0
XRECORD
  5
1CA
330
1A1
100
AcDbXrecord
280
1
 40
0.0
  0
XRECORD
  5
1CB
330
1A1
100
AcDbXrecord
280
1
1000
Portrait
  0
XRECORD
  5
1CC
330
1A1
100
AcDbXrecord
280
1
 40
297.0
  0
XRECORD
  5
1CD
330
1A1
100
AcDbXrecord
280
1
 40
210.0
  0
XRECORD
  5
1CE
330
1A1
100
AcDbXrecord
280
1
1000
1:1
  0
XRECORD
  5
1CF
330
1A1
100
AcDbXrecord
280
1
290
1
  0
XRECORD
  5
1D0
330
1A1
100
AcDbXrecord
280
1
290
0
  0
XRECORD
  5
1D1
330
1A1
100
AcDbXrecord
280
1
1000
Inside
  0
XRECORD
  5
1D2
330
1A1
100
AcDbXrecord
280
1
1000
Arial,10,-1,5,50,0,0,0,0,0
  0
XRECORD
  5
1D3
330
1A1
100
AcDbXrecord
280
1
1000
TopLeft
  0
XRECORD
  5
1D4
330
1A1
100
AcDbXrecord
280
1
1000
3.32.6
  0
XRECORD
  5
1D5
330
1A1
100
AcDbXrecord
280
1
 90
4
  0
XRECORD
  5
1D7
330
1A1
100
AcDbXrecord
280
1
 40
507.6155086748376561
  0
XRECORD
  5
1D8
330
1A1
100
AcDbXrecord
280
1
 40
1012.5380968792517251
  0
ENDSEC
  0
EOF
