0
SECTION
2
HEADER
9
$INSUNITS
70
4
9
$ACADVER
1
AC1014
9
$HANDSEED
5
FFFF
0
ENDSEC
0
SECTION
2
TABLES
0
TABLE
2
VPORT
5
8
100
AcDbSymbolTable
0
ENDTAB
0
TABLE
2
LTYPE
5
5
100
AcDbSymbolTable
0
LTYPE
5
14
100
AcDbSymbolTableRecord
100
AcDbLinetypeTableRecord
2
BYBLOCK
70
0
0
LTYPE
5
15
100
AcDbSymbolTableRecord
100
AcDbLinetypeTableRecord
2
BYLAYER
70
0
0
LTYPE
5
16
100
AcDbSymbolTableRecord
100
AcDbLinetypeTableRecord
2
DASHED
70
0
3
Dashed __ __ __ __ __ __ __ __ __ __ __ __ __ _
72
65
73
2
40
0.75
49
0.5
74
0
49
-0.25
74
0
0
ENDTAB
0
TABLE
2
LAYER
5
2
100
AcDbSymbolTable
70
2
0
LAYER
5
50
100
AcDbSymbolTableRecord
100
AcDbLayerTableRecord
2
0
70
0
62
7
6
CONTINUOUS
0
ENDTAB
0
TABLE
2
STYLE
5
3
100
AcDbSymbolTable
70
1
0
STYLE
5
11
100
AcDbSymbolTableRecord
100
AcDbTextStyleTableRecord
2
STANDARD
70
0
0
ENDTAB
0
TABLE
2
VIEW
5
6
100
AcDbSymbolTable
70
0
0
ENDTAB
0
TABLE
2
UCS
5
7
100
AcDbSymbolTable
70
0
0
ENDTAB
0
TABLE
2
APPID
5
9
100
AcDbSymbolTable
70
2
0
APPID
5
12
100
AcDbSymbolTableRecord
100
AcDbRegAppTableRecord
2
ACAD
70
0
0
ENDTAB
0
TABLE
2
DIMSTYLE
5
A
100
AcDbSymbolTable
70
1
0
ENDTAB
0
TABLE
2
BLOCK_RECORD
5
1
100
AcDbSymbolTable
70
1
0
BLOCK_RECORD
5
1F
100
AcDbSymbolTableRecord
100
AcDbBlockTableRecord
2
*MODEL_SPACE
0
BLOCK_RECORD
5
1B
100
AcDbSymbolTableRecord
100
AcDbBlockTableRecord
2
*PAPER_SPACE
0
ENDTAB
0
ENDSEC
0
SECTION
2
BLOCKS
0
BLOCK
5
20
100
AcDbEntity
100
AcDbBlockBegin
2
*MODEL_SPACE
0
ENDBLK
5
21
100
AcDbEntity
100
AcDbBlockEnd
0
BLOCK
5
1C
100
AcDbEntity
100
AcDbBlockBegin
2
*PAPER_SPACE
0
ENDBLK
5
1D
100
AcDbEntity
100
AcDbBlockEnd
0
ENDSEC
0
SECTION
2
ENTITIES
0
SPLINE
5
100
100
AcDbEntity
8
0
100
AcDbSpline
70
6
71
5
72
56
73
50
74
0
42
0.000000001
43
0.0000000001
44
0.0000000001
40
-1
40
-1
40
-1
40
-1
40
-1
40
-1
40
-0.97777777777777819
40
-0.95555555555555594
40
-0.93333333333333368
40
-0.91111111111111143
40
-0.88888888888888917
40
-0.86666666666666692
40
-0.84444444444444466
40
-0.82222222222222241
40
-0.80000000000000016
40
-0.7777777777777779
40
-0.75555555555555565
40
-0.73333333333333339
40
-0.71111111111111114
40
-0.68888888888888888
40
-0.66666666666666663
40
-0.64444444444444438
40
-0.62222222222222212
40
-0.59999999999999987
40
-0.57777777777777761
40
-0.55555555555555536
40
-0.5333333333333331
40
-0.51111111111111085
40
-0.48888888888888865
40
-0.46666666666666645
40
-0.44444444444444425
40
-0.42222222222222205
40
-0.39999999999999986
40
-0.37777777777777766
40
-0.35555555555555546
40
-0.33333333333333326
40
-0.31111111111111106
40
-0.28888888888888886
40
-0.26666666666666666
40
-0.24444444444444446
40
-0.22222222222222224
40
-0.20000000000000001
40
-0.17777777777777778
40
-0.15555555555555556
40
-0.13333333333333333
40
-0.11111111111111112
40
-0.088888888888888892
40
-0.066666666666666666
40
-0.044444444444444446
40
-0.022222222222222223
40
0
40
0
40
0
40
0
40
0
40
0
41
1
41
1
41
1
41
1
41
1
41
1
41
1
41
1
41
1
41
1
41
1
41
1
41
1
41
1
41
1
41
1
41
1
41
1
41
1
41
1
41
1
41
1
41
1
41
1
41
1
41
1
41
1
41
1
41
1
41
1
41
1
41
1
41
1
41
1
41
1
41
1
41
1
41
1
41
1
41
1
41
1
41
1
41
1
41
1
41
1
41
1
41
1
41
1
41
1
41
1
10
15.030334741491631
20
-4.1750929837476756
30
0
10
14.930128382165586
20
-3.4380541396195365
30
0
10
14.533052254673322
20
-2.1027496927366269
30
0
10
13.353182544257255
20
-0.50819638814912738
30
0
10
10.65851598883089
20
0.98062514587502203
30
0
10
5.7521201951205807
20
2.5726481208348408
30
0
10
-0.080322775681099523
20
4.6781001456598927
30
0
10
-5.8114039660848533
20
7.6157245671411902
30
0
10
-10.193079503200671
20
11.26523642998249
30
0
10
-12.127186232463261
20
15.325255915060849
30
0
10
-10.942769848191983
20
19.477483549177489
30
0
10
-6.8036694186786928
20
23.635098474852732
30
0
10
-0.63625725913701592
20
27.940574087215385
30
0
10
6.2170335384692983
20
32.628477440864373
30
0
10
12.263011578407507
20
37.927206312634183
30
0
10
16.148099140372697
20
43.948821072343051
30
0
10
16.956303417080672
20
50.573950178483067
30
0
10
14.451691362900602
20
57.366818318078849
30
0
10
8.9063887746196766
20
63.71516634392141
30
0
10
0.97644166538161481
20
68.943088948691255
30
0
10
-8.4405531708132404
20
72.437699464293189
30
0
10
-18.336068427319731
20
73.761643869938041
30
0
10
-27.732695777783057
20
72.792429161780902
30
0
10
-35.799222222152103
20
69.787134107072177
30
0
10
-41.894675726709131
20
65.230110498513625
30
0
10
-45.623236564581553
20
59.721799954222575
30
0
10
-46.890381716490346
20
53.848425378351038
30
0
10
-45.948770321751446
20
48.067979217236775
30
0
10
-43.478167638377926
20
42.56793178619975
30
0
10
-40.408357942796478
20
37.312780098421101
30
0
10
-37.685128338461467
20
32.13051097222278
30
0
10
-36.062601683581867
20
26.78420148662633
30
0
10
-35.869342671845779
20
21.051752720385167
30
0
10
-36.827298816201605
20
14.795810951088956
30
0
10
-38.27969403615981
20
7.9789256273583593
30
0
10
-39.376460917531027
20
0.68196755299353229
30
0
10
-39.282523858910977
20
-6.874684542785384
30
0
10
-37.359098862746883
20
-14.318905484274181
30
0
10
-33.400614017753846
20
-21.089267892397313
30
0
10
-27.611772442089503
20
-26.52140524887432
30
0
10
-20.471651779517089
20
-29.987508221167126
30
0
10
-12.633957204971679
20
-31.02199176591273
30
0
10
-4.8150430623884288
20
-29.446566619923008
30
0
10
2.3173050705188025
20
-25.512773898639267
30
0
10
8.24111945583976
20
-19.990513210006007
30
0
10
12.567064719596583
20
-13.892091043062544
30
0
10
14.544189441479238
20
-9.3684952344518777
30
0
10
15.134290410629605
20
-6.5249827575055157
30
0
10
15.130541100817677
20
-4.912131827875827
30
0
10
15.030334741491631
20
-4.1750929837476756
30
0
0
LWPOLYLINE
5
101
100
AcDbEntity
8
0
100
AcDbPolyline
90
13
70
1
43
0.0
10
144.14065124118184
20
33.919068201638318
10
144.14065124118184
20
12.280807392895181
10
121.39880094943936
20
12.280807392895181
10
121.39880094943936
20
-14.294054506484578
10
90.615224417356828
20
-21.99186147591897
10
60.978383374939291
20
-21.99186147591897
10
60.978383374939291
20
21.553966337308239
10
86.763505003901841
20
21.553966337308239
10
86.763505003901841
20
3.1513069174677466
10
73.87094418942057
20
3.1513069174677466
10
73.87094418942057
20
-4.9801007331594498
10
97.569717802761659
20
-4.9801007331594498
10
97.569717802761659
20
33.919068201638318
0
CIRCLE
5
102
100
AcDbEntity
8
0
100
AcDbCircle
10
80.852961169531142
20
8.4371952800305614
30
0
40
2.6500000000000004
210
0
220
0
230
1
0
LWPOLYLINE
5
103
100
AcDbEntity
8
0
100
AcDbPolyline
90
7
70
1
43
0.0
10
76.722988610585475
20
14.88398171350671
10
75.312754078262572
20
12.352636627387991
10
72.230384314756805
20
11.378541590304055
10
68.694724880147234
20
13.618309170447354
10
68.694724880147234
20
18.087228722640173
10
72.230384314756805
20
19.20457302988352
10
75.675385815145631
20
18.087228722640173
0
CIRCLE
5
104
100
AcDbEntity
8
0
100
AcDbCircle
10
110.12042062514104
20
-1.0066235567946982
30
0
40
2.6500000000000004
210
0
220
0
230
1
0
CIRCLE
5
105
100
AcDbEntity
8
0
100
AcDbCircle
10
135.91375395847442
20
18.810776839501262
30
0
40
2.6500000000000004
210
0
220
0
230
1
0
CIRCLE
5
106
100
AcDbEntity
8
0
100
AcDbCircle
10
125.31375395847441
20
18.810776839501262
30
0
40
2.6500000000000004
210
0
220
0
230
1
0
CIRCLE
5
107
100
AcDbEntity
8
0
100
AcDbCircle
10
125.31375395847441
20
28.880776839501287
30
0
40
2.6500000000000004
210
0
220
0
230
1
0
CIRCLE
5
108
100
AcDbEntity
8
0
100
AcDbCircle
10
136.26708729180774
20
28.880776839501287
30
0
40
2.6500000000000083
210
0
220
0
230
1
0
ENDSEC
0
SECTION
2
OBJECTS
0
DICTIONARY
5
C
100
AcDbDictionary
3
ACAD_GROUP
350
D
3
ACAD_MLINESTYLE
350
17
0
DICTIONARY
5
D
100
AcDbDictionary
0
DICTIONARY
5
1A
330
C
100
AcDbDictionary
0
DICTIONARY
5
17
100
AcDbDictionary
0
ENDSEC
0
EOF
